<?xml version="1.0" encoding="UTF-8"?>
<svg id="Layer_1" xmlns="http://www.w3.org/2000/svg" version="1.1" viewBox="0 0 466.2 440.3">
  <!-- Generator: Adobe Illustrator 30.2.1, SVG Export Plug-In . SVG Version: 2.1.1 Build 1)  -->
  <defs>
    <style>
      .st0 {
        fill: none;
      }

      .st1 {
        fill: #fff;
      }

      .st2 {
        fill: #c0d57e;
      }
    </style>
  </defs>
  <g>
    <circle class="st2" cx="425.9" cy="407.5" r="21"/>
    <g>
      <path class="st1" d="M0,273.8v62.8h13.8v-62.8H0Z"/>
      <path class="st1" d="M66.4,272.3c-9,0-16.2,3.6-21.2,10.2v-8.7h-13.8v62.8h13.8v-34.7c0-9.7,6.6-16.2,16.6-16.2s15.6,6.4,15.6,16v35h13.8v-39.5c0-14.9-10-24.7-24.9-24.7Z"/>
      <path class="st1" d="M157.1,247.9v35.6c-5-6.9-12.8-11.2-22-11.2-17.7,0-30.9,14.1-30.9,32.9s13.2,32.9,30.9,32.9,17-4.3,22-11.2v9.7h13.8v-88.6h-13.8ZM137.7,324.8c-11.2,0-19.5-8.5-19.5-19.6s8.2-19.6,19.5-19.6,19.3,8.5,19.3,19.6-8.2,19.6-19.3,19.6Z"/>
      <path class="st1" d="M188.5,273.8v62.8h13.8v-62.8h-13.8Z"/>
      <path class="st1" d="M265.1,273.8l-18.2,45.8-18.3-45.8h-15.8l26.7,62.8h14.4l26.6-62.8h-15.4Z"/>
      <path class="st1" d="M291.1,273.8v62.8h13.8v-62.8h-13.8Z"/>
      <path class="st1" d="M371.9,247.9v35.6c-5.1-6.9-12.8-11.2-22-11.2-17.7,0-30.9,14.1-30.9,32.9s13.2,32.9,30.9,32.9,17-4.3,22-11.2v9.7h13.8v-88.6h-13.8ZM352.5,324.8c-11.2,0-19.5-8.5-19.5-19.6s8.2-19.6,19.5-19.6,19.3,8.5,19.3,19.6-8.2,19.6-19.3,19.6Z"/>
      <path class="st1" d="M446.5,273.8v35.7c0,9.1-6.3,15.3-15.6,15.3s-14.6-6-14.6-15v-35.9h-13.8v40c0,14.6,9.6,24.2,24,24.2s15.4-3.4,20.1-9.8v8.4h13.8v-62.8h-13.8Z"/>
    </g>
    <g>
      <path class="st1" d="M207.7,376.1v9.7c-5-6.9-12.8-11.2-22-11.2-17.7,0-30.9,14.2-30.9,32.9s13.2,32.9,30.9,32.9,17-4.3,22-11.2v9.7h13.8v-62.8h-13.8ZM188.3,427c-11.2,0-19.5-8.5-19.5-19.6s8.2-19.6,19.5-19.6,19.3,8.5,19.3,19.6-8.2,19.6-19.3,19.6Z"/>
      <path class="st1" d="M274,374.6c-9,0-16.2,3.6-21.2,10.2v-8.7h-13.8v62.8h13.8v-34.7c0-9.7,6.7-16.2,16.6-16.2s15.6,6.4,15.6,16v35h13.8v-39.5c0-14.9-10-24.8-24.9-24.8Z"/>
      <path class="st1" d="M364.7,350.2v35.6c-5-6.9-12.8-11.2-22-11.2-17.7,0-30.9,14.2-30.9,32.9s13.2,32.9,30.9,32.9,17-4.3,22-11.2v9.7h13.8v-88.6h-13.8ZM345.4,427c-11.2,0-19.5-8.5-19.5-19.6s8.2-19.6,19.5-19.6,19.3,8.5,19.3,19.6-8.2,19.6-19.3,19.6Z"/>
      <path class="st1" d="M425.9,374.6c-19.2,0-33.6,14.2-33.6,32.9s14.4,32.9,33.6,32.9,33.6-14.2,33.6-32.9-14.5-32.9-33.6-32.9ZM406.4,407.5c0-11.1,8.4-19.6,19.4-19.6s19.3,8.5,19.3,19.6-8.2,19.6-19.3,19.6-19.4-8.5-19.4-19.6Z"/>
    </g>
    <rect class="st2" x="85.5" y="401.5" width="51.3" height="14.3"/>
  </g>
  <g>
    <g>
      <path class="st0" d="M451.8,104.1c0-.6,0-1.2,0-1.8,0-.2,0-.3,0-.5,0,0,0,0,0,0h0c0-.1,0-.2,0-.2h0c0,0,0-.1,0-.2h0c0,0,0-.1,0-.1,0-.1,0-.3,0-.4h0c0,0,0-.1,0-.2s0,0,0,0,0,0,0,0c0,0,0-.1,0-.2h0c0-.2,0-.3,0-.5,0,0,0-.1,0-.2,0,0,0,0,0-.1,0,0,0-.1,0-.2,0-.2,0-.3,0-.5,0-.3,0-.7,0-1,0-.6-.1-1.1-.2-1.7,0-.2,0-.5,0-.7,0-.5-.1-1-.2-1.5,0-.5-.1-1-.2-1.4,0-.3-.1-.6-.2-.9v-.2s0,0,0-.1c0-.1,0-.3,0-.4,0-.4-.1-.8-.2-1.2,0-.5-.2-.9-.3-1.4,0-.3-.1-.6-.2-.9,0-.3-.1-.6-.2-.9,0,0,0-.1,0-.2,0,0,0-.2,0-.3,0-.4-.2-.7-.2-1.1,0,0,0-.1,0-.2,0,0,0-.2,0-.2h0c0,0,0,0,0-.1,0,0,0,0,0-.1,0,0,0-.1,0-.2-.1-.5-.2-1-.4-1.4,0-.4-.2-.8-.3-1.1-.1-.5-.3-1.1-.5-1.6,0-.1,0-.2-.1-.4,0-.2-.1-.4-.2-.5s-.1-.4-.2-.5c-.1-.4-.2-.7-.4-1.1,0,0,0-.1,0-.2-.2-.6-.4-1.1-.6-1.7,0-.1,0-.3-.1-.4-.1-.3-.2-.7-.4-1-.2-.5-.4-1-.5-1.4,0-.2-.2-.4-.2-.6-.2-.5-.4-1.1-.7-1.6,0-.1,0-.2-.1-.4-.3-.6-.5-1.3-.8-1.9,0-.2-.1-.3-.2-.5-.3-.6-.6-1.3-.9-1.9h0c-.3-.7-.7-1.4-1-2.1-.6-1.1-1.2-2.3-1.8-3.4-.1-.3-.3-.6-.5-.8-.2-.3-.3-.5-.5-.8-.2-.3-.4-.7-.6-1-.3-.5-.6-.9-.9-1.4-.4-.5-.7-1.1-1.1-1.7s-.7-1.1-1.1-1.6c-.2-.3-.4-.6-.6-.9,0,0,0,0,0,0,0,0,0,0,0-.1,0,0,0,0,0,0v-.2c-.1,0-.2,0-.2,0,0,0,0,0,0-.1-.5-.7-1.1-1.5-1.6-2.2-.2-.3-.4-.6-.7-.9-.4-.5-.7-.9-1.1-1.3,0,0,0,0-.1-.1-.3-.4-.7-.8-1-1.2-.2-.3-.5-.5-.7-.8-.1-.2-.3-.3-.4-.5,0,0,0,0-.1-.1-.3-.4-.7-.7-1-1.1,0,0,0,0,0,0,0,0-.1-.1-.2-.2-.2-.2-.4-.4-.6-.7-.6-.6-1.2-1.2-1.8-1.8-.2-.2-.3-.3-.5-.5-.4-.4-.8-.8-1.2-1.2,0,0-.2-.2-.3-.2-.1,0-.2-.2-.3-.3h0c-.3-.3-.5-.5-.8-.8-.3-.2-.5-.5-.8-.7-.2-.2-.4-.3-.5-.5-.5-.4-.9-.8-1.3-1.2-.3-.2-.5-.5-.8-.7,0,0,0,0,0,0-.5-.4-1-.8-1.5-1.2-.2-.1-.3-.3-.5-.4-.4-.3-.8-.6-1.2-.9,0,0,0,0,0,0-.4-.3-.7-.5-1.1-.8,0,0,0,0,0,0-.8-.6-1.5-1.1-2.3-1.7,0,0,0,0,0,0-.3-.2-.6-.4-.9-.6-.5-.3-1-.6-1.5-1-.5-.3-1-.6-1.5-.9-.2-.1-.4-.3-.6-.4-.3-.2-.7-.4-1-.6-.6-.4-1.3-.8-1.9-1.1-.4-.2-.7-.4-1.1-.6-.4-.2-.7-.4-1.1-.6-.2-.1-.4-.2-.6-.3-.6-.3-1.2-.6-1.8-.9-.1,0-.3-.1-.5-.2,0,0,0,0-.1,0h0c-6.9-1.8-14.1-2.7-21.5-2.7-47.6,0-86.3,38.7-86.3,86.3s38.7,86.3,86.3,86.3,17.7-1.4,25.9-4h0c.1,0,.3-.2.4-.2.2,0,.3-.2.5-.3.5-.2.9-.5,1.3-.8.2-.1.4-.2.6-.4.5-.3,1-.6,1.5-.9.3-.2.6-.4.9-.6.3-.2.6-.4,1-.6.1,0,.2-.1.3-.2,0,0,0,0,.1,0,.2-.1.4-.3.6-.4.7-.5,1.4-1,2.1-1.5.8-.5,1.5-1.1,2.2-1.6.3-.3.7-.5,1-.8.3-.3.7-.5,1-.8.5-.4,1-.8,1.5-1.2.4-.3.8-.7,1.2-1,.5-.4.9-.8,1.4-1.2.4-.4.9-.8,1.3-1.2s.9-.8,1.3-1.2c.4-.4.9-.8,1.3-1.3.3-.3.6-.7,1-1,.2-.3.5-.5.8-.8.3-.3.5-.6.8-.9.5-.5,1-1.1,1.4-1.6,0,0,0,0,.1-.2.6-.7,1.2-1.3,1.7-2,0,0,0,0,0,0,.3-.4.6-.8,1-1.2,0,0,0,0,0,0,.3-.3.5-.6.7-.9.3-.4.6-.7.8-1.1.1-.2.3-.4.4-.5.1-.2.3-.4.4-.6.5-.7,1-1.4,1.5-2.1,0,0,0,0,0,0,0,0,0,0,0,0,0,0,0,0,0,0h0c.2-.3.4-.6.7-1,.3-.4.5-.8.8-1.2.1-.2.2-.3.3-.4.3-.5.6-.9.9-1.4,0-.1.2-.3.3-.4.3-.4.5-.9.8-1.3,0,0,0-.1.1-.2.3-.5.6-1,.8-1.5.2-.5.5-.9.7-1.3.5-1,1.1-2,1.6-3.1.3-.6.6-1.1.8-1.7,0,0,0,0,0,0h0s0,0,0,0c.3-.6.6-1.2.8-1.8,0-.2.1-.3.2-.5.2-.5.4-.9.6-1.4.1-.4.3-.8.5-1.1.3-.7.5-1.4.8-2.1.3-.7.5-1.4.8-2.1.2-.7.4-1.3.7-2,.5-1.5.9-3.1,1.3-4.7,0-.4.2-.7.3-1.1,0,0,0-.2,0-.2.1-.4.2-.9.3-1.3,0,0,0,0,0,0s0,0,0,0h0c.2-.7.3-1.4.5-2.1.2-.8.3-1.5.4-2.3,0,0,0,0,0,0,0-.4.1-.7.2-1.1,0-.3.1-.6.2-.9,0,0,0-.1,0-.2.1-1,.3-2,.4-3.1,0-.5.1-1,.2-1.5,0-.8.1-1.5.2-2.3,0-.8.1-1.6.1-2.3,0-.7,0-1.3,0-1.9h0c0-.2,0-.3,0-.4h0v-.2s0,0,0,0h0c0-.7,0-1.3,0-2s0-1.6,0-2.4ZM434.9,140.3h0c-.5.4-.9.7-1.4,1-.4.2-.7.5-1.1.7-.3.2-.6.4-1,.6-.3.2-.6.4-.9.6,0,0,0,0,0,0-.3.2-.6.4-1,.5-.4.2-.7.4-1.1.6-.4.2-.8.4-1.2.6-.3.2-.6.3-1,.5-.3.1-.6.3-1,.4-.6.3-1.3.5-2,.8-.3.1-.7.2-1,.3-.3.1-.7.2-1,.3-.3,0-.6.2-.9.3,0,0-.2,0-.2,0-.3,0-.6.2-1,.3-.3,0-.6.2-.9.2-1.4.3-2.9.6-4.4.8-.3,0-.6,0-.9.1-.3,0-.6,0-.9,0-.1,0-.2,0-.3,0-.4,0-.7,0-1.1,0-.1,0-.2,0-.3,0-.3,0-.6,0-1,0-.3,0-.6,0-1,0-23.9,0-43.4-19.5-43.4-43.4s19.5-43.4,43.4-43.4.6,0,1,0c.3,0,.6,0,1,0,.1,0,.2,0,.3,0,.4,0,.7,0,1.1,0,0,0,.2,0,.3,0,.3,0,.6,0,.9,0,.3,0,.6,0,.9.1.2,0,.4,0,.6,0,.2,0,.5,0,.8.1.5,0,1,.2,1.5.3.5.1,1,.2,1.5.3.3,0,.6.1.9.2,1.4.4,2.8.8,4.1,1.3.3.1.7.2,1,.4s.7.3,1,.4c1.3.6,2.6,1.2,3.8,1.8.2.1.5.3.7.4.2.1.4.2.7.4.3.2.5.3.8.5.3.2.6.4.9.6,0,0,.1,0,.2.1,0,0,.1,0,.2.1.1,0,.3.2.4.3,0,0,0,0,0,0,.4.3.8.5,1.1.8.3.2.6.5.9.7.6.4,1.1.9,1.7,1.4.2.2.4.4.7.6.3.3.6.5.9.8,0,0,.2.2.3.3h0c.1.2.3.3.4.5.3.3.7.7,1,1,0,0,0,0,0,0-5.3-3.3-11.6-5.2-18.3-5.2-19.2,0-34.8,15.6-34.8,34.8s15.6,34.8,34.8,34.8,13-1.9,18.3-5.2c0,0,0,.1-.1.2l-.9.9c-.2.2-.5.5-.7.7-.2.2-.3.3-.5.5-.2.2-.4.4-.6.6-.4.3-.8.7-1.2,1-.4.3-.7.6-1.1.9ZM417.7,53.1l.7.3c0,0,.1,0,.2,0,.3.1.6.3.8.4.3.1.5.3.8.4.3.2.7.3,1,.5-4.1-1-8.4-1.6-12.9-1.6-29,0-52.7,23.6-52.7,52.7s23.6,52.7,52.7,52.7,8.7-.5,12.8-1.6c-.3.2-.7.4-1,.5-.3.1-.5.3-.8.4,0,0,0,0,0,0-.3.1-.6.3-.9.4-.5.2-1.1.5-1.6.7-.6.2-1.1.5-1.7.7-.2.1-.5.2-.7.3-.3.1-.7.2-1,.4-.2,0-.3,0-.4.1-.4.1-.7.3-1.1.4-.1,0-.3,0-.4.1,0,0,0,0,0,0s0,0,0,0c-.2,0-.5.1-.8.2-.2,0-.5.1-.7.2-.1,0-.2,0-.4.1-.1,0-.2,0-.4,0-.3,0-.5.1-.8.2,0,0-.1,0-.2,0-.6.2-1.2.3-1.7.4-.4,0-.9.2-1.3.3,0,0-.1,0-.2,0,0,0-.1,0-.2,0,0,0,0,0,0,0-.6.1-1.1.2-1.7.3,0,0,0,0,0,0-.6,0-1.1.2-1.7.2,0,0,0,0,0,0s0,0,0,0c-.4,0-.7,0-1.1.1-.2,0-.4,0-.6,0,0,0,0,0-.1,0,0,0-.1,0-.2,0-.4,0-.9,0-1.3.1h0c-.1,0-.2,0-.3,0-.4,0-.8,0-1.2,0-.3,0-.6,0-.9,0-.5,0-.9,0-1.4,0-32,0-58-26-58-58s26-58,58-58,1,0,1.5,0c.3,0,.6,0,.9,0,.4,0,.7,0,1.1,0,.1,0,.3,0,.4,0,0,0,.1,0,.2,0s.1,0,.2,0c.2,0,.4,0,.5,0,.2,0,.4,0,.5,0,0,0,.2,0,.3,0,.1,0,.3,0,.5,0,.3,0,.7,0,1,.1.5,0,1,.1,1.5.2.3,0,.7.1,1,.2.4,0,.8.1,1.2.2,0,0,.2,0,.3,0,.5,0,.9.2,1.4.3,0,0,0,0,0,0,0,0,0,0,.1,0,0,0,0,0,0,0,.2,0,.3,0,.5.1.2,0,.5.1.7.2,0,0,0,0,0,0,0,0,.1,0,.2,0,.5.1,1,.2,1.5.4.3,0,.6.2.9.3.4.1.9.3,1.3.4.5.1.9.3,1.4.5.2,0,.3.1.5.2.3.1.6.2.8.3.3,0,.5.2.8.3.5.2.9.4,1.4.5.4.2.8.3,1.2.5ZM415,170.3c-.8.5-1.6.9-2.4,1.4-.5.3-1,.5-1.5.8-.5.3-1.1.5-1.6.8-1.1.5-2.2,1-3.3,1.5-.6.2-1.1.5-1.7.7-.6.2-1.1.4-1.7.7-.5.2-1,.4-1.5.5-.5.2-.9.3-1.4.5-.4.1-.7.2-1.1.3,0,0-.2,0-.3,0-.1,0-.3,0-.4.1-.6.2-1.2.4-1.8.5-.3,0-.7.2-1,.3,0,0,0,0,0,0s0,0,0,0c-.3,0-.6.1-.9.2-.3,0-.6.1-.9.2-.4,0-.7.2-1.1.2-.2,0-.3,0-.5,0-.5.1-1,.2-1.4.3-.7.1-1.5.2-2.2.4-.5,0-1.1.1-1.6.2-.5,0-1.1.1-1.6.2-.2,0-.3,0-.5,0-.5,0-.9,0-1.4.1-.2,0-.4,0-.7,0,0,0,0,0,0,0-.9,0-1.8.1-2.6.1h0c-.3,0-.7,0-1.1,0-.5,0-1,0-1.5,0-41.2,0-74.6-33.5-74.6-74.7s33.5-74.7,74.6-74.7,1,0,1.5,0c.3,0,.7,0,1.1,0,.4,0,.8,0,1.2,0,.5,0,1,0,1.5,0,.3,0,.5,0,.8,0,.4,0,.8,0,1.2.1.2,0,.4,0,.6,0,.5,0,1.1.1,1.6.2.5,0,1,.1,1.5.2.2,0,.5,0,.8.1.9.1,1.7.3,2.6.5.4,0,.7.1,1.1.2.1,0,.3,0,.4.1.7.1,1.5.3,2.2.5.4,0,.8.2,1.2.3.8.2,1.6.5,2.5.7.4.1.8.2,1.2.4.4.1.8.3,1.2.4.5.2,1,.3,1.5.5.6.2,1.1.4,1.7.7.6.2,1.1.4,1.7.7.4.2.8.4,1.2.5.3.1.7.3,1,.4.7.3,1.5.7,2.2,1.1.5.2,1,.5,1.4.7.3.1.5.3.8.4.4.2.7.4,1.1.6.4.2.7.4,1.1.6.4.2.7.4,1.1.6-6.9-2.4-14.4-3.7-22.1-3.7-37.2,0-67.5,30.3-67.5,67.5s30.3,67.5,67.5,67.5,15.2-1.3,22.2-3.8c-.3.2-.7.4-1.1.6Z"/>
      <path class="st1" d="M359.7,0c-58.7,0-106.5,47.8-106.5,106.5s47.8,106.5,106.5,106.5,106.5-47.8,106.5-106.5S418.4,0,359.7,0ZM403.1,188.3c-.1,0-.2.1-.4.2,0,0-.1,0-.2.1,0,0-.1,0-.2,0-.4.2-.8.5-1.3.7-.2.1-.5.3-.8.4-.5.2-.9.5-1.4.7-1.3.6-2.6,1.2-4,1.8-.6.3-1.2.5-1.9.8-.1,0-.3.1-.4.2-.7.3-1.3.5-2,.7t0,0c-.6.2-1.2.4-1.8.7-.1,0-.2,0-.3,0-.7.2-1.4.5-2.2.7,0,0-.2,0-.2,0-.6.2-1.3.4-1.9.6-.7.2-1.5.4-2.2.6h0c-.7.2-1.5.4-2.2.6-.5.1-1,.2-1.5.3-.1,0-.3,0-.4,0-.3,0-.6.1-1,.2,0,0-.1,0-.2,0-.3,0-.7.1-1,.2,0,0-.2,0-.3,0-.2,0-.3,0-.5,0-.4,0-.8.1-1.1.2,0,0-.1,0-.2,0-.5,0-.9.1-1.3.2-.6,0-1.1.2-1.7.2-.4,0-.8,0-1.1.1,0,0,0,0-.2,0h-.3c-.2,0-.5,0-.7.1-.5,0-1,0-1.5.1-.1,0-.3,0-.4,0-.2,0-.3,0-.5,0-.2,0-.3,0-.5,0-.3,0-.7,0-1,0h0c-.3,0-.6,0-.9,0-.5,0-1,0-1.5,0h-.1c-.2,0-.5,0-.7,0-.7,0-1.4,0-2.1,0-51.3,0-93.1-41.8-93.1-93.1S307.4,13.4,358.7,13.4s1.3,0,2,0c.2,0,.5,0,.7,0h0c.6,0,1.2,0,1.8,0h.6c.2,0,.4,0,.7,0,.1,0,.3,0,.4,0,.2,0,.5,0,.7,0s.5,0,.7,0c0,0,.1,0,.2,0,0,0,.2,0,.2,0,.4,0,.8,0,1.2.1.4,0,.8,0,1.2.1.1,0,.2,0,.3,0s.2,0,.3,0c0,0,0,0,.1,0,0,0,.2,0,.2,0,.2,0,.4,0,.6,0,.3,0,.6,0,.9.1,0,0,0,0,.1,0,0,0,0,0,.1,0,.7,0,1.3.2,2,.3,0,0,.1,0,.2,0,0,0,0,0,0,0,.2,0,.4,0,.6.1.2,0,.3,0,.5,0,.5,0,.9.2,1.4.3.1,0,.2,0,.4,0,0,0,0,0,0,0,.3,0,.6.1.9.2.3,0,.6.1.9.2,0,0,0,0,0,0,0,0,0,0,0,0,.3,0,.6.1,1,.2,0,0,.1,0,.2,0,0,0,.1,0,.2,0,.5.1,1,.2,1.5.4.6.1,1.2.3,1.8.5.4,0,.8.2,1.1.3,0,0,0,0,0,0,0,0,.1,0,.2,0,0,0,0,0,.1,0,.5.1,1,.3,1.4.4.6.2,1.2.4,1.9.6.7.2,1.3.5,2,.7,0,0,0,0,.1,0,.6.2,1.2.5,1.9.7.2,0,.3.1.4.2.6.2,1.1.4,1.6.7.3.1.5.2.8.4,0,0,.1,0,.2,0,.4.1.7.3,1.1.5,0,0,0,0,0,0,.4.2.7.3,1.1.5.3.1.5.2.8.4h0s0,0,.1,0c.1,0,.3.1.5.2.6.3,1.2.6,1.8.9.2,0,.4.2.6.3.4.2.7.4,1.1.6.4.2.7.4,1.1.6.6.3,1.3.7,1.9,1.1.3.2.7.4,1,.6.2.1.4.2.6.4.5.3,1,.6,1.5.9.5.3,1,.6,1.5,1,.3.2.6.4.9.6,0,0,0,0,0,0,.8.5,1.6,1.1,2.3,1.7,0,0,0,0,0,0,.4.3.7.5,1.1.8,0,0,0,0,0,0,.4.3.8.6,1.2.9.2.1.3.3.5.4.5.4,1,.8,1.5,1.2,0,0,0,0,0,0,.3.2.5.4.8.7.5.4.9.8,1.3,1.2.2.2.4.3.5.5.3.2.6.5.8.7.3.2.5.5.8.8h0c.1.1.2.2.3.3,0,0,.2.2.3.2.4.4.8.8,1.2,1.2.2.2.3.3.5.5.6.6,1.2,1.2,1.8,1.8.2.2.4.4.6.7,0,0,.1.1.2.2,0,0,0,0,0,0,.3.4.7.7,1,1.1,0,0,0,0,.1.1.1.2.3.3.4.5.2.3.5.5.7.8.3.4.7.8,1,1.2,0,0,0,0,.1.1.4.4.7.9,1.1,1.3.2.3.5.6.7.9.6.7,1.1,1.4,1.6,2.2,0,0,0,0,0,.1,0,0,0,0,0,0v.2c.1,0,.1,0,.2,0,0,0,0,0,0,.1,0,0,0,0,0,0,.2.3.4.6.6.9.4.5.8,1.1,1.1,1.6s.7,1.1,1.1,1.7c.3.5.6.9.9,1.4.2.3.4.7.6,1,.2.3.3.6.5.8.2.3.3.6.5.8.6,1.1,1.2,2.2,1.8,3.4.4.7.7,1.4,1,2.1h0c.3.6.6,1.3.9,1.9,0,.2.1.3.2.5.3.6.6,1.3.8,1.9,0,.1,0,.2.1.4.2.5.4,1,.7,1.6,0,.2.2.4.2.6.2.5.4,1,.5,1.4.1.3.3.7.4,1,0,.1,0,.2.1.4.2.6.4,1.1.6,1.7,0,0,0,.1,0,.2.1.4.2.7.4,1.1,0,.2.1.4.2.5s.1.4.2.5c0,.1,0,.2.1.4.2.5.3,1.1.5,1.6.1.4.2.8.3,1.1.1.5.3,1,.4,1.4,0,0,0,.1,0,.2,0,0,0,0,0,.1,0,0,0,0,0,0,0,0,0,0,0,0,0,0,0,.2,0,.2,0,0,0,.1,0,.2,0,.3.2.7.2,1.1,0,0,0,.2,0,.3,0,0,0,.1,0,.2,0,.3.1.6.2.9,0,.3.1.6.2.9,0,.5.2.9.3,1.4,0,.4.1.8.2,1.2,0,.1,0,.3,0,.4,0,0,0,0,0,.1v.2c0,.3.1.6.2.9,0,.5.1,1,.2,1.4,0,.5.1,1,.2,1.5,0,.2,0,.5,0,.7,0,.6.1,1.1.2,1.7,0,.3,0,.7,0,1,0,.2,0,.3,0,.5,0,0,0,.1,0,.2,0,0,0,0,0,.1,0,0,0,.1,0,.2,0,.1,0,.3,0,.4h0c0,.1,0,.2,0,.2s0,0,0,0c0,0,0,0,0,0,0,0,0,0,0,.1h0s0,0,0,0h0s0,0,0,.1,0,0,0,.1c0,0,0,0,0,.1v.2h0s0,0,0,.1h0c0,0,0,.2,0,.2h0c0,.3,0,.4,0,.6,0,.6,0,1.2,0,1.8,0,.8,0,1.6,0,2.4s0,1.3,0,2h0v.2c0,.1,0,.2,0,.3h0c0,0,0,0,0,0h0s0,0,0,0h0s0,0,0,0h0c0,.8,0,1.3,0,1.9,0,.8,0,1.6-.1,2.3,0,.8-.1,1.5-.2,2.3,0,.5-.1,1-.2,1.5-.1,1-.2,2-.4,3.1,0,0,0,.1,0,.2,0,.3-.1.6-.2.9,0,.4-.1.7-.2,1.1,0,0,0,0,0,0-.1.8-.3,1.5-.4,2.3-.1.7-.3,1.4-.5,2.1h0s0,0,0,0,0,0,0,0c0,.4-.2.9-.3,1.3,0,0,0,.2,0,.2,0,.4-.2.8-.3,1.1-.4,1.6-.8,3.1-1.3,4.7-.2.7-.4,1.3-.7,2-.2.7-.5,1.4-.8,2.1-.2.7-.5,1.4-.8,2.1-.1.4-.3.8-.5,1.1-.2.5-.4,1-.6,1.4,0,.2-.1.3-.2.5-.3.6-.5,1.2-.8,1.8,0,0,0,0,0,0h0s0,0,0,0c-.3.6-.5,1.2-.8,1.7-.5,1-1,2.1-1.6,3.1-.2.4-.5.9-.7,1.3-.3.5-.6,1-.8,1.5,0,0,0,.1-.1.2-.3.4-.5.9-.8,1.3,0,.1-.2.3-.3.4-.3.5-.6.9-.9,1.4,0,.2-.2.3-.3.4-.3.4-.5.8-.8,1.2-.2.3-.4.6-.7,1,0,0,0,0,0,0,0,0,0,0,0,0,0,0,0,0,0,0-.5.7-1,1.4-1.5,2.1-.1.2-.3.4-.4.6-.1.2-.3.4-.4.5-.3.4-.5.7-.8,1.1-.2.3-.5.6-.7.9,0,0,0,0,0,0-.3.4-.6.8-1,1.2,0,0,0,0,0,0-.6.7-1.1,1.4-1.7,2,0,0,0,.1-.1.2-.5.5-1,1.1-1.4,1.6-.3.3-.5.6-.8.9-.2.3-.5.5-.8.8-.3.3-.6.7-1,1-.4.4-.9.8-1.3,1.3-.4.4-.9.8-1.3,1.2s-.9.8-1.3,1.2c-.4.4-.9.8-1.4,1.2-.4.4-.8.7-1.2,1-.5.4-1,.8-1.5,1.2-.3.3-.7.5-1,.8-.3.3-.7.5-1,.8-.7.6-1.5,1.1-2.2,1.6-.7.5-1.4,1-2.1,1.5-.2.1-.4.3-.6.4,0,0,0,0-.1,0-.1,0-.2.1-.3.2-.3.2-.6.4-1,.6-.3.2-.6.4-.9.6-.5.3-1,.6-1.5.9-.2.1-.4.2-.6.4-.4.3-.9.5-1.3.8-.2,0-.3.2-.5.3-.1,0-.3.2-.4.2h0Z"/>
    </g>
    <g>
      <path class="st0" d="M451.8,104.1c0-.1,0-.2,0-.3,0-.3,0-.5,0-.8,0,0,0-.1,0-.2,0,0,0-.1,0-.2h0c0-.1,0-.1,0-.2,0-.1,0-.2,0-.3v-.3s0,0,0,0c0,0,0-.1,0-.2,0-.1,0-.2,0-.4h0c0,0,0-.1,0-.2s0,0,0-.1,0,0,0,0h0c0,0,0-.1,0-.2s0,0,0,0,0,0,0,0c0,0,0-.1,0-.2h0c0-.2,0-.3,0-.5,0,0,0-.1,0-.2,0,0,0,0,0-.1,0-.3,0-.5,0-.8,0-.4,0-.7-.1-1.1,0-.5-.1-1-.2-1.5,0,0,0,0,0-.1,0,0,0-.2,0-.2,0,0,0,0,0,0,0-.1,0-.2,0-.4,0,0,0,0,0-.1,0,0,0-.1,0-.2h0s0,0,0,0c0-.5-.1-1-.2-1.4,0-.6-.2-1.2-.3-1.8,0-.1,0-.3,0-.4,0-.2-.1-.5-.2-.8s-.1-.5-.2-.8c0-.1,0-.3,0-.4-.1-.6-.3-1.2-.4-1.8,0-.2-.1-.4-.2-.6,0-.2-.1-.4-.2-.6,0,0,0-.1,0-.2,0-.1,0-.2,0-.4,0-.3-.2-.6-.3-.9-.1-.5-.3-1-.4-1.4-.2-.6-.4-1.1-.6-1.7-.2-.5-.4-1-.6-1.5-.2-.6-.4-1.1-.6-1.7-.2-.5-.4-1-.6-1.5-.7-1.7-1.5-3.4-2.4-5.1-.2-.5-.5-1-.8-1.4-.2-.4-.4-.8-.7-1.2,0,0,0,0,0,0-.2-.3-.3-.6-.5-.9-.3-.5-.6-1.1-1-1.6-.2-.4-.4-.7-.7-1.1-.3-.5-.6-1-1-1.5-.5-.7-1-1.4-1.5-2.1,0,0,0,0,0,0,0,0-.1-.2-.2-.3-.3-.4-.6-.8-.9-1.2-.4-.5-.8-1-1.1-1.4-.2-.2-.3-.4-.5-.6,0-.1-.2-.2-.3-.4,0,0,0,0,0,0,0,0-.1-.1-.2-.2-.5-.5-.9-1.1-1.4-1.6,0,0-.1-.1-.2-.2-.3-.4-.7-.8-1-1.1-.3-.4-.7-.7-1-1.1,0,0,0,0-.1-.1,0,0,0-.1-.1-.1h0c-.4-.4-.8-.8-1.2-1.2-.3-.3-.6-.6-.9-.9-.2-.2-.5-.5-.7-.7-.2-.1-.3-.3-.5-.4-.3-.3-.7-.6-1-.9-.3-.3-.7-.6-1-.9,0,0,0,0-.1,0,0,0,0,0,0,0,0,0,0,0-.1-.1-.4-.3-.8-.7-1.2-1-.3-.3-.7-.5-1-.8-.3-.2-.5-.4-.8-.6-.4-.3-.8-.6-1.3-.9-.6-.4-1.1-.8-1.7-1.2-.4-.3-.9-.6-1.3-.8-.4-.3-.9-.6-1.3-.8h0c-6.9-2.4-14.4-3.7-22.1-3.7-37.2,0-67.5,30.3-67.5,67.5s30.3,67.5,67.5,67.5,15.2-1.3,22.2-3.8h0c.4-.3.8-.5,1.2-.8.2-.1.5-.3.7-.4.4-.2.8-.5,1.2-.8.6-.4,1.1-.8,1.7-1.2t0,0c.2-.2.5-.3.7-.5.2-.2.5-.4.7-.5,0,0,0,0,.1,0,0,0,0,0,0,0,.4-.3.7-.5,1-.8.3-.3.7-.6,1-.8.5-.4.9-.8,1.4-1.2.5-.5,1-.9,1.6-1.4.4-.4.9-.8,1.3-1.2.2-.2.4-.4.7-.6.4-.4.8-.8,1.2-1.2.4-.4.8-.9,1.2-1.3h0s0,0,0,0c.3-.3.5-.6.8-.9t0,0c.5-.5,1-1.1,1.5-1.7,0,0,0,0,0-.1.3-.4.6-.7.9-1.1.3-.4.6-.7.9-1.1,0,0,0,0,0,0,.5-.6.9-1.2,1.3-1.8,0,0,0,0,0,0,0,0,0-.1.1-.2.3-.5.7-1,1-1.4,0,0,0-.1.2-.2.4-.6.8-1.2,1.2-1.8.2-.2.3-.5.5-.7.4-.6.8-1.3,1.1-1.9.3-.4.5-.9.8-1.3.2-.4.4-.7.6-1.1.2-.3.4-.7.5-1.1.2-.3.4-.7.5-1.1.4-.7.7-1.4,1-2.2.1-.3.3-.6.4-1,.1-.3.3-.6.4-.9.2-.6.5-1.1.7-1.7.2-.6.4-1.1.6-1.7.2-.6.4-1.2.6-1.7.2-.5.3-1,.5-1.5,0-.1,0-.2.1-.4,0,0,0,0,0-.2.2-.5.3-.9.4-1.4,0-.2.1-.5.2-.8,0-.1,0-.2,0-.3,0-.3.2-.6.2-.9,0,0,0,0,0,0h0c0-.4.2-.8.2-1.1,0-.3.2-.7.2-1.1,0,0,0-.1,0-.2,0,0,0-.2,0-.3,0-.4.2-.8.2-1.1h0c0-.4.2-.9.2-1.3,0-.5.2-1.1.3-1.6,0-.3.1-.7.1-1,0,0,0-.1,0-.2,0-.5.1-1.1.2-1.6,0-.4.1-.8.1-1.2,0-.5,0-.9.1-1.3,0-.3,0-.6,0-.9h0c0-.5,0-1,0-1.4v-.2c0,0,0-.1,0-.2,0,0,0-.2,0-.3h0v-.2s0,0,0,0c0-.1,0-.2,0-.3h0c0-.1,0-.2,0-.2h0c0-.2,0-.4,0-.6,0-.6,0-1.3,0-1.9s0-1.3,0-1.9ZM437.8,137.9c-.2.2-.4.4-.6.6-.4.3-.8.7-1.2,1-.4.3-.7.6-1.1.9h0c-.5.4-.9.7-1.4,1-.4.2-.7.5-1.1.7-.3.2-.6.4-1,.6-.3.2-.6.4-.9.6,0,0,0,0,0,0-.3.2-.6.4-1,.5-.4.2-.7.4-1.1.6-.4.2-.8.4-1.2.6-.3.2-.6.3-1,.5-.3.1-.6.3-1,.4-.6.3-1.3.5-2,.8-.3.1-.7.2-1,.3-.3.1-.7.2-1,.3-.3,0-.6.2-.9.3,0,0-.2,0-.2,0-.3,0-.6.2-1,.3-.3,0-.6.2-.9.2-1.4.3-2.9.6-4.4.8-.3,0-.6,0-.9.1-.3,0-.6,0-.9,0-.1,0-.2,0-.3,0-.4,0-.7,0-1.1,0-.1,0-.2,0-.3,0-.3,0-.6,0-1,0-.3,0-.6,0-1,0-23.9,0-43.4-19.5-43.4-43.4s19.5-43.4,43.4-43.4.6,0,1,0c.3,0,.6,0,1,0,.1,0,.2,0,.3,0,.4,0,.7,0,1.1,0,0,0,.2,0,.3,0,.3,0,.6,0,.9,0,.3,0,.6,0,.9.1.2,0,.4,0,.6,0,.2,0,.5,0,.8.1.5,0,1,.2,1.5.3.5.1,1,.2,1.5.3.3,0,.6.1.9.2,1.4.4,2.8.8,4.1,1.3.3.1.7.2,1,.4s.7.3,1,.4c1.3.6,2.6,1.2,3.8,1.8.2.1.5.3.7.4.2.1.4.2.7.4.3.2.5.3.8.5.3.2.6.4.9.6,0,0,.1,0,.2.1,0,0,.1,0,.2.1.1,0,.3.2.4.3,0,0,0,0,0,0,.4.3.8.5,1.1.8.3.2.6.5.9.7.6.4,1.1.9,1.7,1.4.2.2.4.4.7.6.3.3.6.5.9.8,0,0,.2.2.3.3h0c.1.2.3.3.4.5.3.3.7.7,1,1,0,0,0,0,0,0-5.3-3.3-11.6-5.2-18.3-5.2-19.2,0-34.8,15.6-34.8,34.8s15.6,34.8,34.8,34.8,13-1.9,18.3-5.2c0,0,0,.1-.1.2l-.9.9c-.2.2-.5.5-.7.7-.2.2-.3.3-.5.5ZM420.2,157.6c-.3.1-.5.3-.8.4,0,0,0,0,0,0-.3.1-.6.3-.9.4-.5.2-1.1.5-1.6.7-.6.2-1.1.5-1.7.7-.2.1-.5.2-.7.3-.3.1-.7.2-1,.4-.2,0-.3,0-.4.1-.4.1-.7.3-1.1.4-.1,0-.3,0-.4.1,0,0,0,0,0,0s0,0,0,0c-.2,0-.5.1-.8.2-.2,0-.5.1-.7.2-.1,0-.2,0-.4.1-.1,0-.2,0-.4,0-.3,0-.5.1-.8.2,0,0-.1,0-.2,0-.6.2-1.2.3-1.7.4-.4,0-.9.2-1.3.3,0,0-.1,0-.2,0,0,0-.1,0-.2,0,0,0,0,0,0,0-.6.1-1.1.2-1.7.3,0,0,0,0,0,0-.6,0-1.1.2-1.7.2,0,0,0,0,0,0s0,0,0,0c-.4,0-.7,0-1.1.1-.2,0-.4,0-.6,0,0,0,0,0-.1,0,0,0-.1,0-.2,0-.4,0-.9,0-1.3.1h0c-.1,0-.2,0-.3,0-.4,0-.8,0-1.2,0-.3,0-.6,0-.9,0-.5,0-.9,0-1.4,0-32,0-58-26-58-58s26-58,58-58,1,0,1.5,0c.3,0,.6,0,.9,0,.4,0,.7,0,1.1,0,.1,0,.3,0,.4,0,0,0,.1,0,.2,0s.1,0,.2,0c.2,0,.4,0,.5,0,.2,0,.4,0,.5,0,0,0,.2,0,.3,0,.1,0,.3,0,.5,0,.3,0,.7,0,1,.1.5,0,1,.1,1.5.2.3,0,.7.1,1,.2.4,0,.8.1,1.2.2,0,0,.2,0,.3,0,.5,0,.9.2,1.4.3,0,0,0,0,0,0,0,0,0,0,.1,0,0,0,0,0,0,0,.2,0,.3,0,.5.1.2,0,.5.1.7.2,0,0,0,0,0,0,0,0,.1,0,.2,0,.5.1,1,.2,1.5.4.3,0,.6.2.9.3.4.1.9.3,1.3.4.5.1.9.3,1.4.5.2,0,.3.1.5.2.3.1.6.2.8.3.3,0,.5.2.8.3.5.2.9.4,1.4.5.4.2.8.3,1.2.5l.7.3c0,0,.1,0,.2,0,.3.1.6.3.8.4.3.1.5.3.8.4.3.2.7.3,1,.5-4.1-1-8.4-1.6-12.9-1.6-29,0-52.7,23.6-52.7,52.7s23.6,52.7,52.7,52.7,8.7-.5,12.8-1.6c-.3.2-.7.4-1,.5Z"/>
      <path class="st1" d="M398.7,22.4h0c-6.9-1.8-14.1-2.7-21.5-2.7-47.6,0-86.3,38.7-86.3,86.3s38.7,86.3,86.3,86.3,17.7-1.4,25.9-4h0c35-11,60.4-43.8,60.4-82.3s-27.6-74-64.8-83.6ZM402.8,176.1c-.5.2-1,.4-1.5.5-.5.2-.9.3-1.4.5-.4.1-.7.2-1.1.3,0,0-.2,0-.3,0-.1,0-.3,0-.4.1-.6.2-1.2.4-1.8.5-.3,0-.7.2-1,.3,0,0,0,0,0,0s0,0,0,0c-.3,0-.6.1-.9.2-.3,0-.6.1-.9.2-.4,0-.7.2-1.1.2-.2,0-.3,0-.5,0-.5.1-1,.2-1.4.3-.7.1-1.5.2-2.2.4-.5,0-1.1.1-1.6.2-.5,0-1.1.1-1.6.2-.2,0-.3,0-.5,0-.5,0-.9,0-1.4.1-.2,0-.4,0-.7,0,0,0,0,0,0,0-.9,0-1.8.1-2.6.1h0c-.3,0-.7,0-1.1,0-.5,0-1,0-1.5,0-41.2,0-74.6-33.5-74.6-74.7s33.5-74.7,74.6-74.7,1,0,1.5,0c.3,0,.7,0,1.1,0,.4,0,.8,0,1.2,0,.5,0,1,0,1.5,0,.3,0,.5,0,.8,0,.4,0,.8,0,1.2.1.2,0,.4,0,.6,0,.5,0,1.1.1,1.6.2.5,0,1,.1,1.5.2.2,0,.5,0,.8.1.9.1,1.7.3,2.6.5.4,0,.7.1,1.1.2.1,0,.3,0,.4.1.7.1,1.5.3,2.2.5.4,0,.8.2,1.2.3.8.2,1.6.5,2.5.7.4.1.8.2,1.2.4.4.1.8.3,1.2.4.5.2,1,.3,1.5.5.6.2,1.1.4,1.7.7.6.2,1.1.4,1.7.7.4.2.8.4,1.2.5.3.1.7.3,1,.4.7.3,1.5.7,2.2,1.1.5.2,1,.5,1.4.7.3.1.5.3.8.4.4.2.7.4,1.1.6.4.2.7.4,1.1.6.4.2.7.4,1.1.6h0c.5.3.9.6,1.3.8.4.3.9.6,1.3.8.6.4,1.1.8,1.7,1.2.4.3.9.6,1.3.9.3.2.5.4.8.6.3.2.7.5,1,.8.4.3.8.6,1.2,1,0,0,0,0,.1.1,0,0,0,0,0,0,0,0,0,0,.1,0,.3.3.7.6,1,.9.4.3.7.6,1,.9.2.1.3.3.5.4.2.2.5.4.7.7.3.3.6.6.9.9.4.4.8.8,1.2,1.2h0c0,0,0,.1.1.2,0,0,0,0,.1.1.4.4.7.7,1,1.1.3.4.7.8,1,1.1,0,0,.1.1.2.2.5.5.9,1,1.4,1.6,0,0,0,.1.2.2,0,0,0,0,0,0,0,.1.2.2.3.4.2.2.4.4.5.6.4.5.8,1,1.1,1.4.3.4.6.8.9,1.2,0,0,.1.2.2.3,0,0,0,0,0,0,.5.7,1,1.4,1.5,2.1.3.5.7,1,1,1.5.2.3.5.7.7,1.1.3.5.7,1.1,1,1.6.2.3.3.6.5.9,0,0,0,0,0,0,.2.4.4.8.7,1.2.3.5.5,1,.8,1.4.9,1.7,1.6,3.4,2.4,5.1.2.5.4,1,.6,1.5.2.6.4,1.1.6,1.7.2.5.4,1,.6,1.5.2.6.4,1.1.6,1.7.1.5.3,1,.4,1.4,0,.3.2.6.3.9,0,.1,0,.2,0,.4,0,0,0,.1,0,.2,0,.2.1.4.2.6,0,.2.1.4.2.6.2.6.3,1.2.4,1.8,0,.1,0,.3,0,.4,0,.2.1.5.2.8s.1.5.2.8c0,.1,0,.3,0,.4.1.6.2,1.2.3,1.8,0,.5.2,1,.2,1.4,0,0,0,0,0,0h0c0,0,0,.1,0,.2,0,0,0,0,0,.1,0,.1,0,.2,0,.4,0,0,0,0,0,0,0,0,0,.2,0,.2,0,0,0,0,0,.1,0,.5.1,1,.2,1.5,0,.3,0,.7.1,1.1,0,.3,0,.5,0,.8,0,0,0,0,0,.1,0,0,0,.1,0,.2,0,.1,0,.3,0,.4h0c0,.1,0,.2,0,.2s0,0,0,0c0,0,0,0,0,0,0,0,0,0,0,.1h0s0,0,0,0h0s0,0,0,.1,0,0,0,.1c0,0,0,0,0,.1h0c0,.2,0,.3,0,.4,0,0,0,.1,0,.2h0c0,.3,0,.5,0,.7,0,0,0,0,0,0h0c0,.1,0,.2,0,.2,0,0,0,.1,0,.2,0,.2,0,.5,0,.8,0,0,0,.2,0,.3,0,.6,0,1.3,0,1.9s0,1.3,0,1.9c0,.2,0,.3,0,.5h0c0,0,0,0,0,0h0v.2c0,.1,0,.2,0,.3h0c0,0,0,0,0,0h0c0,.2,0,.3,0,.4,0,0,0,.2,0,.2v.2c0,.5,0,.9,0,1.4h0c0,.4,0,.7,0,1,0,.4,0,.9-.1,1.3,0,.4,0,.8-.1,1.2,0,.5-.1,1.1-.2,1.6,0,0,0,.2,0,.2,0,.3,0,.7-.1,1,0,.6-.2,1.1-.3,1.6,0,.4-.2.8-.2,1.3h0c0,.4-.2.8-.2,1.1,0,0,0,.2,0,.3,0,0,0,.1,0,.2,0,.4-.2.7-.2,1.1,0,.3-.2.6-.2,1h0c0,.1,0,.2,0,.2,0,.3-.2.6-.2.9,0,.1,0,.2,0,.3,0,.2-.1.5-.2.8-.1.5-.3,1-.4,1.4,0,0,0,0,0,.2,0,.1,0,.2-.1.4-.2.5-.3,1-.5,1.5-.2.6-.4,1.2-.6,1.7-.2.6-.4,1.1-.6,1.7-.2.6-.5,1.1-.7,1.7-.1.3-.2.6-.4.9-.1.3-.3.7-.4,1-.3.7-.7,1.5-1,2.2-.2.3-.4.7-.5,1.1-.2.4-.4.7-.5,1.1-.2.4-.4.7-.6,1.1-.2.4-.5.9-.8,1.3-.4.6-.8,1.3-1.1,1.9-.2.2-.3.5-.5.7-.4.6-.8,1.2-1.2,1.8,0,0-.1.2-.2.2-.3.5-.7,1-1,1.4,0,0,0,.1-.1.2,0,0,0,0,0,0-.4.6-.9,1.2-1.3,1.8,0,0,0,0,0,0-.3.4-.6.7-.9,1.1-.3.4-.6.8-.9,1.1,0,0,0,0,0,.1-.5.6-1,1.1-1.5,1.7t0,0c-.3.3-.5.6-.8.9t0,0h0c-.4.5-.8.9-1.2,1.3-.4.4-.8.8-1.2,1.2-.2.2-.4.4-.7.6-.4.4-.8.8-1.3,1.2-.5.5-1,.9-1.6,1.4-.5.4-.9.8-1.4,1.2-.3.3-.7.6-1,.8-.3.3-.7.5-1,.8,0,0,0,0,0,0,0,0,0,0-.1,0-.2.2-.5.4-.7.5-.2.2-.5.4-.7.5t0,0c-.6.4-1.1.8-1.7,1.2-.4.3-.8.5-1.2.8-.2.2-.4.3-.7.4-.4.3-.8.5-1.2.8h0c-.3.2-.7.4-1.1.6-.8.5-1.6.9-2.4,1.4-.5.3-1,.5-1.5.8-.5.3-1.1.5-1.6.8-1.1.5-2.2,1-3.3,1.5-.6.2-1.1.5-1.7.7-.6.2-1.1.4-1.7.7Z"/>
    </g>
    <g>
      <path class="st0" d="M451.9,104.9c0-.3,0-.5,0-.8,0-.1,0-.2,0-.3,0-.3,0-.5,0-.8,0,0,0-.1,0-.2,0,0,0-.1,0-.2h0c0-.1,0-.1,0-.2,0-.1,0-.2,0-.3v-.3s0,0,0,0h0c0-.2,0-.2,0-.2h0c0,0,0-.1,0-.2h0c0,0,0-.1,0-.1,0-.3,0-.6,0-1,0-.1,0-.2,0-.4,0-.4,0-.9-.2-1.3,0-.4,0-.8-.2-1.2,0-.4-.1-.7-.2-1.1,0-.5-.2-1-.3-1.5,0,0,0-.2,0-.2,0-.5-.2-1-.3-1.5-.1-.6-.3-1.2-.4-1.7-.1-.6-.3-1.1-.5-1.7-.1-.4-.3-.9-.4-1.3,0,0,0,0,0,0-.2-.5-.3-1-.5-1.5,0,0,0,0,0-.1s0,0,0-.1c0,0,0,0,0,0,0,0,0,0,0,0-.1-.3-.2-.6-.3-.9-.2-.6-.5-1.2-.7-1.8-.2-.4-.3-.8-.5-1.2-.2-.4-.4-.8-.5-1.2h0c-.2-.5-.5-1-.7-1.5s-.5-1-.8-1.5c-.4-.7-.8-1.4-1.2-2.1-.2-.3-.4-.7-.6-1-.2-.3-.4-.7-.6-1-.2-.3-.4-.7-.7-1-.3-.4-.6-.8-.9-1.2,0,0-.1-.2-.2-.3,0,0,0,0,0,0-.3-.4-.6-.8-.9-1.2-.2-.3-.5-.6-.7-.9-.2-.3-.5-.6-.7-.8,0,0-.1-.2-.2-.2,0,0,0,0,0,0,0,0,0-.1-.1-.2-.2-.2-.3-.3-.5-.5-.5-.6-1-1.2-1.6-1.7,0,0,0,0,0,0-.5-.5-.9-.9-1.4-1.4-.2-.2-.4-.4-.6-.6-.4-.4-.8-.8-1.2-1.2-.6-.5-1.1-1-1.7-1.5,0,0-.1,0-.2-.1-.3-.2-.6-.5-.9-.7-.3-.2-.5-.4-.8-.6,0,0,0,0,0,0-.3-.2-.6-.5-.9-.7-.3-.2-.6-.4-.9-.7-.6-.5-1.3-.9-1.9-1.3-.6-.4-1.3-.8-2-1.2-.6-.4-1.2-.7-1.8-1,0,0-.2,0-.3-.1h0c-4.1-1-8.4-1.6-12.9-1.6-29,0-52.7,23.6-52.7,52.7s23.6,52.7,52.7,52.7,8.7-.5,12.8-1.6h0s0,0,0,0,0,0,0,0c.3-.1.5-.3.8-.4,0,0,.1,0,.2,0,0,0,0,0,0,0,.3-.2.6-.4.9-.6.3-.2.7-.4,1-.6.3-.2.7-.4,1-.6.5-.3,1-.7,1.5-1,0,0,.2,0,.2-.1,0,0,0,0,0,0,.3-.2.5-.4.8-.6s.5-.4.8-.6c.2-.1.4-.3.6-.5.2-.2.5-.4.7-.6l.8-.6c.1-.1.3-.2.4-.4.5-.4,1-.8,1.5-1.3.4-.4.8-.8,1.3-1.2.2-.1.3-.3.5-.5,0,0,0,0,.1-.1.3-.2.5-.5.8-.8,0,0,.1-.1.2-.2.4-.4.9-.9,1.3-1.4.3-.4.7-.8,1-1.1.3-.3.5-.6.8-1,.3-.4.6-.8.9-1.1.3-.4.6-.8.9-1.2.2-.3.5-.7.7-1,1.8-2.5,3.4-5.2,4.8-8,.2-.3.3-.7.5-1.1.2-.5.5-1.1.7-1.6.1-.3.2-.6.4-.9.2-.5.4-1,.6-1.5.1-.3.2-.7.4-1,.6-1.7,1.1-3.4,1.6-5.1.2-.9.5-1.9.6-2.8.4-1.9.7-3.8.9-5.8,0-.5.1-1,.1-1.5,0-.2,0-.4,0-.6,0,0,0,0,0-.2,0,0,0-.1,0-.2,0,0,0-.2,0-.3h0c0,0,0-.1,0-.1h0c0-.2,0-.3,0-.4h0c0,0,0-.1,0-.2h0c0-.2,0-.4,0-.6,0-.3,0-.5,0-.8,0-.4,0-.8,0-1.1s0-.8,0-1.1ZM439.1,136.7c-.2.2-.5.5-.7.7-.2.2-.3.3-.5.5-.2.2-.4.4-.6.6-.4.3-.8.7-1.2,1-.4.3-.7.6-1.1.9h0c-.5.4-.9.7-1.4,1-.4.2-.7.5-1.1.7-.3.2-.6.4-1,.6-.3.2-.6.4-.9.6,0,0,0,0,0,0-.3.2-.6.4-1,.5-.4.2-.7.4-1.1.6-.4.2-.8.4-1.2.6-.3.2-.6.3-1,.5-.3.1-.6.3-1,.4-.6.3-1.3.5-2,.8-.3.1-.7.2-1,.3-.3.1-.7.2-1,.3-.3,0-.6.2-.9.3,0,0-.2,0-.2,0-.3,0-.6.2-1,.3-.3,0-.6.2-.9.2-1.4.3-2.9.6-4.4.8-.3,0-.6,0-.9.1-.3,0-.6,0-.9,0-.1,0-.2,0-.3,0-.4,0-.7,0-1.1,0-.1,0-.2,0-.3,0-.3,0-.6,0-1,0-.3,0-.6,0-1,0-23.9,0-43.4-19.5-43.4-43.4s19.5-43.4,43.4-43.4.6,0,1,0c.3,0,.6,0,1,0,.1,0,.2,0,.3,0,.4,0,.7,0,1.1,0,0,0,.2,0,.3,0,.3,0,.6,0,.9,0,.3,0,.6,0,.9.1.2,0,.4,0,.6,0,.2,0,.5,0,.8.1.5,0,1,.2,1.5.3.5.1,1,.2,1.5.3.3,0,.6.1.9.2,1.4.4,2.8.8,4.1,1.3.3.1.7.2,1,.4s.7.3,1,.4c1.3.6,2.6,1.2,3.8,1.8.2.1.5.3.7.4.2.1.4.2.7.4.3.2.5.3.8.5.3.2.6.4.9.6,0,0,.1,0,.2.1,0,0,.1,0,.2.1.1,0,.3.2.4.3,0,0,0,0,0,0,.4.3.8.5,1.1.8.3.2.6.5.9.7.6.4,1.1.9,1.7,1.4.2.2.4.4.7.6.3.3.6.5.9.8,0,0,.2.2.3.3h0c.1.2.3.3.4.5.3.3.7.7,1,1,0,0,0,0,0,0-5.3-3.3-11.6-5.2-18.3-5.2-19.2,0-34.8,15.6-34.8,34.8s15.6,34.8,34.8,34.8,13-1.9,18.3-5.2c0,0,0,.1-.1.2l-.9.9Z"/>
      <path class="st1" d="M434.1,51.8s0,0,0,0c-5.4-4-11.5-7.3-18-9.5h0c-6.9-2.4-14.4-3.7-22.1-3.7-37.2,0-67.5,30.3-67.5,67.5s30.3,67.5,67.5,67.5,15.2-1.3,22.2-3.8h0c7.1-2.5,13.7-6.1,19.5-10.7h0c15.7-12.4,25.8-31.5,25.8-53s-10.8-41.9-27.3-54.2ZM415.1,159.9c-.2.1-.5.2-.7.3-.3.1-.7.2-1,.4-.2,0-.3,0-.4.1-.4.1-.7.3-1.1.4-.1,0-.3,0-.4.1,0,0,0,0,0,0s0,0,0,0c-.2,0-.5.1-.8.2-.2,0-.5.1-.7.2-.1,0-.2,0-.4.1-.1,0-.2,0-.4,0-.3,0-.5.1-.8.2,0,0-.1,0-.2,0-.6.2-1.2.3-1.7.4-.4,0-.9.2-1.3.3,0,0-.1,0-.2,0,0,0-.1,0-.2,0,0,0,0,0,0,0-.6.1-1.1.2-1.7.3,0,0,0,0,0,0-.6,0-1.1.2-1.7.2,0,0,0,0,0,0s0,0,0,0c-.4,0-.7,0-1.1.1-.2,0-.4,0-.6,0,0,0,0,0-.1,0,0,0-.1,0-.2,0-.4,0-.9,0-1.3.1h0c-.1,0-.2,0-.3,0-.4,0-.8,0-1.2,0-.3,0-.6,0-.9,0-.5,0-.9,0-1.4,0-32,0-58-26-58-58s26-58,58-58,1,0,1.5,0c.3,0,.6,0,.9,0,.4,0,.7,0,1.1,0,.1,0,.3,0,.4,0,0,0,.1,0,.2,0s.1,0,.2,0c.2,0,.4,0,.5,0,.2,0,.4,0,.5,0,0,0,.2,0,.3,0,.1,0,.3,0,.5,0,.3,0,.7,0,1,.1.5,0,1,.1,1.5.2.3,0,.7.1,1,.2.4,0,.8.1,1.2.2,0,0,.2,0,.3,0,.5,0,.9.2,1.4.3,0,0,0,0,0,0,0,0,0,0,.1,0,0,0,0,0,0,0,.2,0,.3,0,.5.1.2,0,.5.1.7.2,0,0,0,0,0,0,0,0,.1,0,.2,0,.5.1,1,.2,1.5.4.3,0,.6.2.9.3.4.1.9.3,1.3.4.5.1.9.3,1.4.5.2,0,.3.1.5.2.3.1.6.2.8.3.3,0,.5.2.8.3.5.2.9.4,1.4.5.4.2.8.3,1.2.5l.7.3c0,0,.1,0,.2,0,.3.1.6.3.8.4.3.1.5.3.8.4.3.2.7.3,1,.5h0c0,0,.2,0,.3.1.6.3,1.2.7,1.8,1,.7.4,1.3.8,2,1.2.7.4,1.3.8,1.9,1.3.3.2.6.4.9.7.3.2.6.4.9.7,0,0,0,0,0,0,.3.2.5.4.8.6.3.2.6.5.9.7,0,0,.1,0,.2.1.6.5,1.1,1,1.7,1.5.4.4.8.8,1.2,1.2.2.2.4.4.6.6.5.5.9.9,1.4,1.4,0,0,0,0,0,0,.5.6,1.1,1.1,1.6,1.7.2.2.3.3.5.5,0,0,0,0,.1.2,0,0,0,0,0,0,0,0,.1.2.2.2.2.3.5.6.7.8.2.3.5.6.7.9.3.4.6.8.9,1.2,0,0,0,0,0,0,0,0,.1.2.2.3.3.4.6.8.9,1.2.2.3.4.6.7,1,.2.3.4.7.6,1,.2.3.4.7.6,1,.4.7.8,1.4,1.2,2.1.3.5.5,1,.8,1.5s.5,1,.7,1.5h0c.2.4.4.8.5,1.2.2.4.3.8.5,1.2.3.6.5,1.2.7,1.8.1.3.2.6.3.9,0,0,0,0,0,0,0,0,0,0,0,0,0,0,0,0,0,.1s0,0,0,.1c.2.5.3,1,.5,1.5,0,0,0,0,0,0,.1.4.3.9.4,1.3.2.6.3,1.1.5,1.7.2.6.3,1.2.4,1.7.1.5.2,1,.3,1.5,0,0,0,.2,0,.2,0,.5.2,1,.3,1.5,0,.4.1.7.2,1.1,0,.4.1.8.2,1.2,0,.4.1.9.2,1.3,0,.1,0,.2,0,.4,0,.3,0,.6,0,1,0,0,0,0,0,0h0c0,0,0,.1,0,.2h0c0,0,0,.2,0,.2h0c0,0,0,.1,0,.1h0c0,.2,0,.5,0,.7,0,0,0,0,0,0h0c0,.1,0,.2,0,.2,0,0,0,.1,0,.2,0,.2,0,.5,0,.8,0,0,0,.2,0,.3,0,.3,0,.5,0,.8,0,.4,0,.8,0,1.1s0,.8,0,1.1c0,.3,0,.5,0,.8,0,.2,0,.3,0,.5h0c0,0,0,.1,0,.1h0c0,.3,0,.4,0,.5h0c0,0,0,0,0,0h0c0,.2,0,.3,0,.4,0,0,0,.2,0,.2,0,0,0,.1,0,.2,0,.2,0,.4,0,.6,0,.5,0,1-.1,1.5-.2,2-.5,3.9-.9,5.8-.2.9-.4,1.9-.6,2.8-.5,1.7-1,3.4-1.6,5.1-.1.3-.2.7-.4,1-.2.5-.4,1-.6,1.5-.1.3-.2.6-.4.9-.2.6-.5,1.1-.7,1.6-.2.3-.3.7-.5,1.1-1.4,2.8-3,5.5-4.8,8-.2.3-.5.7-.7,1-.3.4-.6.8-.9,1.2-.3.4-.6.8-.9,1.1-.3.3-.5.7-.8,1-.3.4-.7.8-1,1.1-.4.5-.8.9-1.3,1.4,0,0-.1.1-.2.2-.2.2-.5.5-.8.8,0,0,0,0-.1.1-.2.2-.3.3-.5.5-.4.4-.8.8-1.3,1.2-.5.5-1,.9-1.5,1.3-.1.1-.3.2-.4.4l-.8.6c-.2.2-.5.4-.7.6-.2.2-.4.3-.6.5-.2.2-.5.4-.8.6s-.5.4-.8.6c0,0,0,0,0,0,0,0-.2,0-.2.1-.5.4-1,.7-1.5,1-.3.2-.7.4-1,.6-.3.2-.7.4-1,.6-.3.2-.6.4-.9.6,0,0,0,0,0,0,0,0,0,0-.2,0-.3.1-.5.3-.8.4,0,0,0,0,0,0s0,0,0,0h0c-.3.2-.7.4-1,.5-.3.1-.5.3-.8.4,0,0,0,0,0,0-.3.1-.6.3-.9.4-.5.2-1.1.5-1.6.7-.6.2-1.1.5-1.7.7Z"/>
    </g>
    <g>
      <path class="st0" d="M451.8,106c0,.4,0,.9,0,1.3h0c0,.3,0,.6,0,.9,0,.4,0,.8,0,1.1,0,.6-.1,1.3-.2,1.9,0,.4-.1.9-.2,1.3,0,.2,0,.5-.1.7,0,.4-.1.7-.2,1.1,0,.3-.1.7-.2,1,0,.3-.1.6-.2.9,0,.4-.2.7-.3,1,0,.3-.2.6-.3.9,0,.3-.2.7-.3,1,0,.3-.2.7-.3,1-.1.3-.2.7-.3,1-.1.3-.2.7-.4,1-.1.3-.2.6-.4.9-.3.6-.5,1.2-.8,1.8-.2.4-.4.8-.6,1.2-.2.4-.4.8-.7,1.2-.2.4-.5.8-.7,1.2-.3.6-.7,1.1-1.1,1.7-.2.3-.4.5-.5.8-.2.3-.4.6-.7.9-.3.4-.5.7-.8,1.1-.3.3-.6.7-.9,1-.2.3-.4.5-.7.8-.2.2-.4.4-.6.7,0,0,0,0,0,0h0c-5.3,3.3-11.6,5.2-18.3,5.2-19.2,0-34.8-15.6-34.8-34.8s15.6-34.8,34.8-34.8,13,1.9,18.3,5.2c0,0,0,0,0,0,.2.2.4.4.6.7.2.2.4.5.7.8.2.2.4.5.6.8.3.3.5.7.8,1,.3.3.5.7.8,1,.5.7,1,1.4,1.4,2.1.2.3.4.6.5.9.2.4.5.8.7,1.2.1.2.2.4.3.6.3.6.6,1.1.9,1.7.1.3.3.6.4.9.1.3.3.6.4.9.1.3.3.6.4.9.3.8.6,1.6.9,2.5,0,.3.2.6.3.8,0,.2.1.5.2.7,0,.3.2.6.2.9,0,.4.2.7.3,1.1,0,.3.1.6.2.9,0,.3.2.7.2,1,0,.3.1.7.2,1.1,0,.2,0,.4.1.7,0,.5.1.9.2,1.3,0,.6.1,1.3.2,1.9,0,.4,0,.7,0,1.1,0,.3,0,.6,0,.8h0c0,.5,0,.9,0,1.4Z"/>
      <path class="st1" d="M442.5,65.9h0c-1.6-1.3-3.2-2.6-4.9-3.7,0,0,0,0,0,0-4.9-3.3-10.4-5.8-16.3-7.3h0c-4.1-1-8.4-1.6-12.9-1.6-29,0-52.7,23.6-52.7,52.7s23.6,52.7,52.7,52.7,8.7-.5,12.8-1.6h0s0,0,0,0c5.9-1.5,11.4-4,16.3-7.3,0,0,0,0,0,0,2-1.3,3.9-2.8,5.7-4.4h0c10.9-9.7,17.8-23.8,17.8-39.5s-7.2-30.4-18.5-40.1ZM420.4,147.7c0,0-.2,0-.2,0-.3,0-.6.2-1,.3-.3,0-.6.2-.9.2-1.4.3-2.9.6-4.4.8-.3,0-.6,0-.9.1-.3,0-.6,0-.9,0-.1,0-.2,0-.3,0-.4,0-.7,0-1.1,0-.1,0-.2,0-.3,0-.3,0-.6,0-1,0-.3,0-.6,0-1,0-23.9,0-43.4-19.5-43.4-43.4s19.5-43.4,43.4-43.4.6,0,1,0c.3,0,.6,0,1,0,.1,0,.2,0,.3,0,.4,0,.7,0,1.1,0,0,0,.2,0,.3,0,.3,0,.6,0,.9,0,.3,0,.6,0,.9.1.2,0,.4,0,.6,0,.2,0,.5,0,.8.1.5,0,1,.2,1.5.3.5.1,1,.2,1.5.3.3,0,.6.1.9.2,1.4.4,2.8.8,4.1,1.3.3.1.7.2,1,.4s.7.3,1,.4c1.3.6,2.6,1.2,3.8,1.8.2.1.5.3.7.4.2.1.4.2.7.4.3.2.5.3.8.5.3.2.6.4.9.6,0,0,.1,0,.2.1,0,0,.1,0,.2.1.1,0,.3.2.4.3,0,0,0,0,0,0,.4.3.8.5,1.1.8.3.2.6.5.9.7.6.4,1.1.9,1.7,1.4.2.2.4.4.7.6.3.3.6.5.9.8,0,0,.2.2.3.3h0c.1.2.3.3.4.5.3.3.7.7,1,1,0,0,0,0,0,0,0,0,0,0,0,0,.2.2.4.4.6.7.2.2.4.5.7.8.2.2.4.5.6.8.3.3.5.7.8,1,.3.3.5.7.8,1,.5.7,1,1.4,1.4,2.1.2.3.4.6.5.9.2.4.5.8.7,1.2.1.2.2.4.3.6.3.6.6,1.1.9,1.7.1.3.3.6.4.9.1.3.3.6.4.9.1.3.3.6.4.9.3.8.6,1.6.9,2.5,0,.3.2.6.3.8,0,.2.1.5.2.7,0,.3.2.6.2.9,0,.4.2.7.3,1.1,0,.3.1.6.2.9,0,.3.2.7.2,1,0,.3.1.7.2,1.1,0,.2,0,.4.1.7,0,.5.1.9.2,1.3,0,.6.1,1.3.2,1.9,0,.4,0,.7,0,1.1,0,.3,0,.6,0,.8h0c0,.5,0,.9,0,1.4s0,.9,0,1.3h0c0,.3,0,.6,0,.9,0,.4,0,.8,0,1.1,0,.6-.1,1.3-.2,1.9,0,.4-.1.9-.2,1.3,0,.2,0,.5-.1.7,0,.4-.1.7-.2,1.1,0,.3-.1.7-.2,1,0,.3-.1.6-.2.9,0,.4-.2.7-.3,1,0,.3-.2.6-.3.9,0,.3-.2.7-.3,1,0,.3-.2.7-.3,1-.1.3-.2.7-.3,1-.1.3-.2.7-.4,1-.1.3-.2.6-.4.9-.3.6-.5,1.2-.8,1.8-.2.4-.4.8-.6,1.2-.2.4-.4.8-.7,1.2-.2.4-.5.8-.7,1.2-.3.6-.7,1.1-1.1,1.7-.2.3-.4.5-.5.8-.2.3-.4.6-.7.9-.3.4-.5.7-.8,1.1-.3.3-.6.7-.9,1-.2.3-.4.5-.7.8-.2.2-.4.4-.6.7,0,0,0,0,0,0,0,0-.1.1-.2.2l-.9.9c-.2.2-.5.5-.7.7-.2.2-.3.3-.5.5-.2.2-.4.4-.6.6-.4.3-.8.7-1.2,1-.4.3-.7.6-1.1.9h0c-.5.4-.9.7-1.4,1-.4.2-.7.5-1.1.7-.3.2-.6.4-1,.6-.3.2-.6.4-.9.6,0,0,0,0,0,0-.3.2-.6.4-1,.5-.4.2-.7.4-1.1.6-.4.2-.8.4-1.2.6-.3.2-.6.3-1,.5-.3.1-.6.3-1,.4-.6.3-1.3.5-2,.8-.3.1-.7.2-1,.3-.3.1-.7.2-1,.3-.3.1-.6.2-.9.3Z"/>
    </g>
    <g>
      <path class="st2" d="M421.8,79.2c-14.8,0-26.8,12-26.8,26.8s12,26.8,26.8,26.8,26.8-12,26.8-26.8-12-26.8-26.8-26.8Z"/>
      <path class="st1" d="M449.2,84.6h0c-.3-.3-.5-.7-.8-1-.6-.8-1.3-1.5-2-2.2h0c-1.9-1.9-4-3.6-6.3-5-5.3-3.3-11.6-5.2-18.3-5.2-19.2,0-34.8,15.6-34.8,34.8s15.6,34.8,34.8,34.8,13-1.9,18.3-5.2h0c2.3-1.4,4.4-3.1,6.3-5,.7-.7,1.4-1.5,2.1-2.2.4-.5.8-.9,1.1-1.4,0,0,0,0,0,0,4.4-5.8,7-13.1,7-20.9s-2.8-15.5-7.4-21.4ZM421.8,132.8c-14.8,0-26.8-12-26.8-26.8s12-26.8,26.8-26.8,26.8,12,26.8,26.8-12,26.8-26.8,26.8Z"/>
    </g>
  </g>
</svg>