<?xml version="1.0" encoding="UTF-8"?>
<svg id="Layer_1" xmlns="http://www.w3.org/2000/svg" version="1.1" viewBox="0 0 1033.7 213">
  <!-- Generator: Adobe Illustrator 30.2.1, SVG Export Plug-In . SVG Version: 2.1.1 Build 1)  -->
  <defs>
    <style>
      .st0 {
        fill: #1e2f4c;
      }
    </style>
  </defs>
  <g>
    <path class="st0" d="M1020.3,106.4c0,11.2-9.1,20.3-20.3,20.3s-20.3-9.1-20.3-20.3.6-5.8,1.8-8.3c-1,2.4-1.5,5-1.5,7.8,0,11.2,8.5,19.8,19.7,19.8s19.6-8.6,19.6-19.8-7.7-19.1-18.2-19.8c10.7.5,19.2,9.4,19.2,20.2Z"/>
    <g>
      <path class="st0" d="M244.2,74.2v63.6h14v-63.6h-14Z"/>
      <path class="st0" d="M311.5,72.7c-9.1,0-16.5,3.6-21.5,10.4v-8.9h-14v63.6h14v-35.2c0-9.8,6.7-16.5,16.8-16.5s15.8,6.5,15.8,16.2v35.4h14v-40c0-15.1-10.1-25.1-25.2-25.1Z"/>
      <path class="st0" d="M403.4,48v36c-5.1-7-13-11.4-22.3-11.4-18,0-31.3,14.4-31.3,33.3s13.3,33.3,31.3,33.3,17.2-4.4,22.3-11.4v9.9h14V48h-14ZM383.8,125.8c-11.3,0-19.7-8.6-19.7-19.8s8.4-19.8,19.7-19.8,19.6,8.6,19.6,19.8-8.4,19.8-19.6,19.8Z"/>
      <path class="st0" d="M435.2,74.2v63.6h14v-63.6h-14Z"/>
      <path class="st0" d="M512.9,74.2l-18.5,46.4-18.6-46.4h-16l27.1,63.6h14.6l27-63.6h-15.6Z"/>
      <path class="st0" d="M539.2,74.2v63.6h14v-63.6h-14Z"/>
      <path class="st0" d="M621.1,48v36c-5.1-7-13-11.4-22.3-11.4-18,0-31.3,14.4-31.3,33.3s13.4,33.3,31.3,33.3,17.2-4.4,22.3-11.4v9.9h14V48h-14ZM601.5,125.8c-11.3,0-19.7-8.6-19.7-19.8s8.4-19.8,19.7-19.8,19.6,8.6,19.6,19.8-8.4,19.8-19.6,19.8Z"/>
      <path class="st0" d="M696.7,74.2v36.2c0,9.2-6.4,15.5-15.8,15.5s-14.9-6.1-14.9-15.2v-36.4h-14v40.5c0,14.8,9.7,24.6,24.3,24.6s15.6-3.5,20.3-10v8.5h14v-63.6h-14Z"/>
      <path class="st0" d="M778.5,74.2v9.9c-5.1-7-13-11.4-22.3-11.4-18,0-31.3,14.4-31.3,33.3s13.3,33.3,31.3,33.3,17.2-4.4,22.3-11.4v9.9h14v-63.6h-14ZM758.9,125.8c-11.4,0-19.7-8.6-19.7-19.8s8.4-19.8,19.7-19.8,19.6,8.6,19.6,19.8-8.4,19.8-19.6,19.8Z"/>
      <path class="st0" d="M845.8,72.7c-9.1,0-16.5,3.6-21.5,10.4v-8.9h-14v63.6h14v-35.2c0-9.8,6.7-16.5,16.8-16.5s15.8,6.5,15.8,16.2v35.4h14v-40c0-15.1-10.1-25.1-25.2-25.1Z"/>
      <path class="st0" d="M937.7,48v36c-5.1-7-13-11.4-22.3-11.4-18,0-31.3,14.4-31.3,33.3s13.4,33.3,31.3,33.3,17.2-4.4,22.3-11.4v9.9h14V48h-14ZM918.1,125.8c-11.3,0-19.7-8.6-19.7-19.8s8.4-19.8,19.7-19.8,19.6,8.6,19.6,19.8-8.4,19.8-19.6,19.8Z"/>
      <path class="st0" d="M999.7,72.7c-19.5,0-34.1,14.4-34.1,33.3s14.6,33.3,34.1,33.3,34.1-14.4,34.1-33.3-14.7-33.3-34.1-33.3ZM981.6,97.9c0,0,0-.2.1-.3,3-6.9,9.8-11.5,18-11.5h.2c.3,0,.7,0,1,0,0,0,0,0,0,0h.1c10.5.7,18.2,9,18.2,19.8s-8.4,19.8-19.6,19.8-19.7-8.6-19.7-19.8.5-5.4,1.5-7.8c0,0,0-.2.1-.2Z"/>
    </g>
  </g>
  <g>
    <g>
      <path class="st0" d="M198.5,101.7h0c0,0,0-.1,0-.2h0c0,0,0-.1,0-.2h0c0-.2,0-.3,0-.5s0,0,0-.1h0c0-.2,0-.4,0-.5,0-.1,0-.3,0-.4h0c0-.1,0-.2,0-.3,0-.2,0-.5,0-.7,0-.3,0-.7,0-1,0-.6,0-1.1-.2-1.7,0-.2,0-.5,0-.7,0-.5,0-.9-.2-1.4,0,0,0,0,0,0,0-.5-.1-1-.2-1.4,0-.4-.1-.7-.2-1.1-.2-1.1-.4-2.2-.6-3.2l-.2-.9c0-.3-.1-.6-.2-.9,0,0,0-.1,0-.2-.1-.5-.2-1-.4-1.5,0,0,0-.2,0-.2h0c0,0,0-.1,0-.2,0,0,0-.1,0-.2,0,0,0,0,0,0s0,0,0,0c0-.3-.1-.6-.2-.9,0-.2,0-.3-.1-.5,0-.4-.2-.8-.3-1.1-.1-.5-.3-1.1-.5-1.6,0-.1,0-.2-.1-.4-.2-.6-.4-1.3-.6-1.9,0-.2-.1-.4-.2-.6-.1-.4-.3-.8-.4-1.2,0,0,0-.1,0-.2-.1-.4-.3-.8-.4-1.2,0-.2-.1-.4-.2-.6-.2-.5-.4-1-.6-1.5-.6-1.4-1.2-2.8-1.8-4.2-.3-.6-.5-1.1-.8-1.7,0-.2-.2-.4-.3-.6h0c-.6-1.2-1.1-2.3-1.8-3.4,0,0,0-.2-.1-.2,0,0,0-.2-.2-.3-.3-.5-.6-1-.8-1.5,0,0,0-.2-.1-.2-.4-.6-.7-1.2-1.1-1.9-.1-.2-.2-.4-.3-.5-.3-.5-.6-.9-.9-1.4-.7-1.1-1.5-2.2-2.2-3.3-.2-.4-.5-.7-.8-1.1l-.2-.2s0,0,0,0c0,0,0,0,0,0-.2-.3-.4-.6-.7-.9-.3-.5-.7-.9-1.1-1.4-.1-.2-.3-.4-.4-.6-.4-.5-.9-1.1-1.3-1.6h0c0,0,0,0,0-.1-.4-.5-.9-1-1.3-1.5-.1-.2-.3-.3-.4-.5-.1-.2-.3-.3-.4-.5-.2-.2-.4-.4-.6-.6,0-.1-.2-.2-.3-.3-.2-.3-.5-.5-.7-.8-.1-.2-.3-.3-.4-.4,0-.1-.2-.2-.3-.3-.5-.5-1-1-1.4-1.5s0,0-.1-.1c-.5-.5-1-1-1.5-1.4-.2-.2-.4-.4-.7-.6,0,0,0,0,0,0-.2-.2-.4-.4-.6-.5-.4-.3-.7-.7-1.1-1-.2-.2-.4-.3-.5-.5-.2-.2-.4-.3-.5-.5-.3-.2-.5-.5-.8-.7-.3-.2-.5-.5-.8-.7,0,0,0,0,0,0-.6-.5-1.3-1-1.9-1.6-.5-.4-1-.8-1.5-1.2-.3-.2-.5-.4-.8-.6-.8-.6-1.6-1.1-2.4-1.7-.8-.5-1.6-1.1-2.4-1.6h0c-.8-.5-1.6-1-2.5-1.5,0,0,0,0,0,0-.2,0-.3-.2-.5-.3-.6-.3-1.1-.7-1.7-1,0,0-.2,0-.3-.2,0,0,0,0-.1,0-.7-.4-1.5-.8-2.2-1.2,0,0-.1,0-.2-.1,0,0-.2,0-.2-.1-.7-.3-1.4-.7-2.1-1-.1,0-.2,0-.3-.1,0,0,0,0,0,0-6.9-1.8-14-2.7-21.4-2.7-47.6,0-86.3,38.7-86.3,86.3s38.7,86.3,86.3,86.3,17.7-1.4,25.9-4h0c.1,0,.3-.2.4-.2.6-.3,1.2-.7,1.8-1,.2-.1.4-.2.6-.3.5-.3,1-.6,1.5-.9.3-.2.6-.4.9-.6.4-.3.8-.5,1.3-.8,0,0,0,0,.1,0,.2-.1.4-.3.6-.4.7-.5,1.4-1,2.1-1.5.8-.5,1.5-1.1,2.2-1.6.3-.3.7-.5,1-.8.3-.3.7-.5,1-.8.5-.4,1-.8,1.5-1.2.4-.3.8-.7,1.2-1,.5-.4.9-.8,1.3-1.2.5-.4.9-.8,1.3-1.2.4-.4.9-.8,1.3-1.2.4-.4.9-.8,1.3-1.3.3-.3.6-.7,1-1,.2-.3.5-.5.8-.8.3-.3.5-.6.8-.9.5-.5,1-1.1,1.4-1.6,0,0,0-.1.1-.2.6-.7,1.1-1.3,1.7-2,0,0,0,0,0,0,.3-.4.6-.8.9-1.2.3-.3.5-.7.8-1,.3-.4.6-.7.8-1.1.3-.4.5-.7.8-1.1.5-.7,1-1.4,1.5-2.1,0,0,0,0,0,0,0,0,0,0,0,0,0,0,0,0,0,0h0c.2-.3.4-.6.7-1,.3-.4.5-.8.8-1.2,0-.2.2-.3.3-.5.3-.5.6-.9.9-1.4,0-.1.2-.3.3-.4.3-.4.5-.9.8-1.3.3-.5.6-1.1.9-1.7.2-.4.5-.9.7-1.3.5-1,1.1-2,1.6-3.1.3-.6.5-1.2.8-1.7,0,0,0,0,0,0h0s0,0,0,0c.3-.6.6-1.2.8-1.8,0-.2.2-.3.2-.5.2-.5.4-1,.6-1.4.2-.4.3-.8.5-1.1.3-.7.5-1.4.8-2.1.3-.7.5-1.4.8-2.2.2-.7.5-1.3.7-2,.5-1.5.9-3.1,1.3-4.7.1-.4.2-.7.3-1.1,0,0,0-.2,0-.2.1-.4.2-.8.3-1.3,0,0,0,0,0,0s0,0,0,0h0c.2-.7.3-1.4.5-2.1.1-.8.3-1.5.4-2.3,0,0,0,0,0,0,0-.4.1-.7.2-1.1,0-.3,0-.6.1-.9v-.2c.2-1,.3-2,.4-3.1,0-.5.1-1,.2-1.5,0-.8.1-1.5.2-2.3,0-.8,0-1.5.1-2.3,0-.6,0-1.3,0-1.9h0c0-.2,0-.3,0-.4h0c0-.1,0-.1,0-.2h0c0-.7,0-1.4,0-2,0-1.6,0-3.2-.1-4.7ZM181.9,140.1c-.4.3-.8.6-1.2.9-.1.1-.3.2-.4.3-.4.3-.8.6-1.2.8-.2.1-.4.2-.5.4-.3.2-.6.4-.9.5-.6.4-1.2.7-1.8,1-.3.2-.6.3-.9.5-.9.5-1.9.9-2.9,1.3-.3.1-.7.3-1,.4-.3.1-.7.3-1,.4-.3.1-.7.2-1,.4-.3.1-.7.2-1,.3-.4.1-.8.2-1.1.3-.3,0-.6.2-.9.2-.3,0-.6.2-.9.2,0,0-.1,0-.2,0-.4,0-.9.2-1.3.3-.5,0-1,.2-1.5.3-.2,0-.5,0-.8.1-.2,0-.4,0-.6,0-.3,0-.6,0-1,.1-.3,0-.5,0-.8,0,0,0,0,0-.1,0,0,0-.2,0-.3,0-.3,0-.7,0-1.1,0-.1,0-.2,0-.3,0-.3,0-.6,0-.9,0-.3,0-.6,0-1,0-23.9,0-43.4-19.5-43.4-43.4s19.5-43.4,43.4-43.4.6,0,1,0c.3,0,.6,0,.9,0,.1,0,.2,0,.3,0,.4,0,.7,0,1.1,0,0,0,.2,0,.3,0,0,0,0,0,.1,0,.3,0,.5,0,.8,0,.3,0,.6,0,.9.1.2,0,.4,0,.5,0,.3,0,.6,0,.8.1.5,0,.9.2,1.4.2.3,0,.5.1.8.2h0c.6.1,1.2.3,1.8.4.3,0,.5.1.8.2.4.1.9.2,1.3.4,0,0,0,0,.1,0,.3,0,.6.2.9.3.4.1.8.3,1.2.4.3,0,.5.2.8.3.3.1.7.3,1,.4,1.3.5,2.6,1.2,3.8,1.8.3.2.6.3.9.5.3.2.7.4,1,.6.3.2.5.3.8.5.3.2.6.4.9.6.3.2.6.4.8.6,1.1.8,2.2,1.7,3.3,2.6.2.2.4.4.7.6.9.8,1.8,1.7,2.7,2.6-5.3-3.3-11.6-5.2-18.3-5.2-19.2,0-34.8,15.6-34.8,34.8s15.6,34.8,34.8,34.8,13-1.9,18.3-5.2c0,0,0,.1-.1.2l-.9.9c-.2.2-.5.5-.8.7-.5.5-1,.9-1.5,1.3,0,0,0,0,0,0-.5.4-.9.8-1.4,1.1,0,0-.2.1-.2.2ZM168.5,132.8c-14.8,0-26.8-12-26.8-26.8s12-26.8,26.8-26.8,26.8,12,26.8,26.8-12,26.8-26.8,26.8ZM164.9,53.3c.5.2.9.4,1.4.7,0,0,0,0,0,0,.5.3,1.1.6,1.6.8-4.1-1-8.4-1.6-12.9-1.6-29.1,0-52.7,23.6-52.7,52.7s23.6,52.7,52.7,52.7,8.7-.5,12.8-1.6c-.5.3-1,.5-1.5.8,0,0-.1,0-.2,0,0,0,0,0,0,0-.4.2-.9.4-1.3.6-.1,0-.3.1-.4.2-.9.4-1.7.8-2.6,1.1-.2,0-.3.1-.5.2-.5.2-.9.4-1.4.5h0c-.5.2-1.1.4-1.7.6-.4.2-.9.3-1.4.4,0,0,0,0,0,0,0,0,0,0,0,0-.6.2-1.1.3-1.7.5-.5.1-.9.2-1.4.3-.4,0-.7.2-1.1.2-.2,0-.4,0-.6.1-.3,0-.6.1-1,.2-.4,0-.7.1-1.1.2-.3,0-.7.1-1.1.2,0,0-.2,0-.3,0-.5,0-1,.1-1.4.2,0,0-.2,0-.2,0-.2,0-.5,0-.7,0,0,0-.1,0-.2,0-.3,0-.5,0-.8,0,0,0-.2,0-.3,0,0,0-.1,0-.2,0-.4,0-.7,0-1.1,0-1,0-2,0-3,0-32,0-58-26-58-58s26-58,58-58,1,0,1.5,0c.3,0,.6,0,.9,0,.4,0,.7,0,1.1,0,.1,0,.3,0,.4,0,0,0,.1,0,.2,0,.4,0,.8,0,1.3.1,0,0,.2,0,.3,0,.5,0,1.1.1,1.6.2.2,0,.3,0,.5,0,.3,0,.6,0,.9.1.3,0,.6,0,.9.1.4,0,.8.1,1.2.2.1,0,.2,0,.3,0,.5,0,.9.2,1.4.3,0,0,0,0,0,0,.5.1.9.2,1.4.3.4.1.9.2,1.3.3,0,0,.2,0,.2,0,.4,0,.7.2,1,.3.6.2,1.2.3,1.7.5.4.1.8.3,1.2.4,0,0,0,0,0,0,.4.2.8.3,1.3.5.6.2,1.2.5,1.8.7.6.2,1.2.5,1.8.8ZM161.8,170.3c-.2.1-.4.2-.5.3-.2,0-.4.2-.5.3-.4.2-.9.5-1.3.7-.5.3-1,.5-1.5.8-.5.3-1.1.5-1.6.8-.3.1-.6.3-.9.4-.5.2-.9.4-1.4.6-.4.2-.8.3-1.1.5-.1,0-.2.1-.4.2-.4.2-.8.3-1.2.5-.6.2-1.1.4-1.7.7-.5.2-1,.4-1.5.5,0,0-.2,0-.2,0-.5.2-1.1.3-1.6.5-1.1.3-2.2.7-3.3,1-.3,0-.7.2-1,.2-.5.1-1.1.3-1.6.4,0,0,0,0,0,0-.4,0-.9.2-1.3.3-1.1.2-2.2.4-3.3.6-.2,0-.5,0-.8.1-.5,0-1,.1-1.5.2-.5,0-1.1.1-1.6.2-.2,0-.3,0-.5,0-.5,0-1,0-1.4.1-.2,0-.5,0-.7,0-.9,0-1.8.1-2.6.1h0c-.4,0-.7,0-1.1,0-.5,0-1,0-1.5,0-41.2,0-74.7-33.5-74.7-74.7S82.8,31.3,124,31.3s1,0,1.5,0c.4,0,.7,0,1.1,0,.4,0,.8,0,1.2,0,.5,0,1,0,1.5,0,0,0,0,0,.1,0,.2,0,.4,0,.6,0,.4,0,.9,0,1.3.1.2,0,.4,0,.6,0,.5,0,1.1.1,1.6.2.5,0,1,.1,1.5.2.2,0,.5,0,.8.1.7,0,1.3.2,2,.3.1,0,.2,0,.4,0,.6.1,1.3.2,1.9.4.7.2,1.4.3,2,.5.4,0,.8.2,1.2.3.8.2,1.6.5,2.5.7.4.1.8.2,1.1.4,0,0,.1,0,.2,0,.4.1.7.2,1.1.4.6.2,1.1.4,1.7.6.5.2,1,.4,1.5.6.5.2,1,.4,1.5.6.5.2,1,.4,1.5.7.5.2,1,.5,1.5.7.5.2,1,.5,1.5.7.5.2,1,.5,1.5.8.3.1.5.3.8.4.4.2.7.4,1.1.6,0,0,0,0,0,0,.3.2.7.4,1,.6.4.2.7.4,1.1.6-6.9-2.4-14.4-3.7-22.1-3.7-37.2,0-67.5,30.3-67.5,67.5s30.3,67.5,67.5,67.5,15.2-1.3,22.2-3.8c-.4.2-.7.4-1.1.6Z"/>
      <path class="st0" d="M106.5,0C47.8,0,0,47.8,0,106.5s47.8,106.5,106.5,106.5,106.5-47.8,106.5-106.5S165.2,0,106.5,0ZM149.9,188.3c-.9.5-1.8,1-2.8,1.5-.5.2-.9.5-1.4.7-1.3.6-2.6,1.2-4,1.8-.6.3-1.2.5-1.8.8-.1,0-.3.1-.4.2-.6.3-1.3.5-1.9.7t0,0c-.6.2-1.2.4-1.8.7,0,0-.2,0-.3,0-.7.2-1.4.5-2.2.7,0,0-.2,0-.2,0-.7.2-1.3.4-2,.6-.7.2-1.5.4-2.2.6h0c-.7.2-1.5.4-2.2.5-.5.1-1,.2-1.5.3-.1,0-.3,0-.4,0-.3,0-.6.1-1,.2,0,0-.1,0-.2,0-.3,0-.7.1-1,.2,0,0-.2,0-.3,0-.2,0-.3,0-.5,0-.4,0-.8.1-1.1.2,0,0-.1,0-.2,0-.5,0-.9.1-1.4.2-.6,0-1.1.2-1.7.2-.4,0-.8,0-1.1.1-.4,0-.8,0-1.2.1-.5,0-1,.1-1.5.1-.1,0-.3,0-.4,0-.2,0-.3,0-.5,0-.2,0-.3,0-.5,0-.3,0-.7,0-1,0h0c-.3,0-.6,0-.9,0-.5,0-1,0-1.5,0-.3,0-.6,0-.9,0-.7,0-1.4,0-2.1,0-51.3,0-93.1-41.8-93.1-93.1s10.4-49,27.3-65.8c2.1-2.1,4.3-4.1,6.6-6,1.7-1.4,3.5-2.8,5.3-4.1,1.2-.9,2.5-1.7,3.7-2.5.6-.4,1.3-.8,1.9-1.2,1.9-1.2,3.9-2.3,5.9-3.3,1.3-.7,2.7-1.3,4.1-2,11.7-5.3,24.6-8.2,38.3-8.2s1.3,0,2,0c.2,0,.4,0,.7,0h0c.6,0,1.3,0,1.9,0,.2,0,.4,0,.5,0,.2,0,.4,0,.6,0,.4,0,.7,0,1.1,0,.4,0,.7,0,1.1,0,0,0,0,0,0,0,.4,0,.8,0,1.2.1.3,0,.6,0,.9.1.1,0,.2,0,.3,0,0,0,.1,0,.2,0,.8,0,1.7.2,2.5.3.4,0,.8.1,1.2.2.4,0,.8.1,1.2.2.1,0,.3,0,.4,0,.3,0,.5,0,.8.1.5,0,1,.2,1.5.3,0,0,0,0,0,0,.3,0,.7.1,1,.2.4,0,.9.2,1.3.3.2,0,.4,0,.6.1.7.2,1.4.3,2,.5.6.2,1.2.3,1.8.5.4.1.8.2,1.2.3,0,0,.1,0,.2,0,0,0,0,0,.1,0,.5.1,1,.3,1.4.4.7.2,1.3.4,2,.7.5.2,1.1.4,1.6.6.2,0,.4.2.7.2.5.2.9.3,1.4.5.3.1.7.2,1,.4.4.1.8.3,1.2.5.5.2,1,.4,1.5.7.2,0,.3.1.5.2.2,0,.3.2.5.2.5.2,1.1.5,1.6.7,0,0,0,0,0,0,.1,0,.2,0,.3.1.7.4,1.4.7,2.1,1,0,0,.2,0,.2.1,0,0,.1,0,.2.1.7.4,1.5.8,2.2,1.2,0,0,0,0,.1,0,0,0,.2.1.3.2.6.3,1.1.7,1.7,1,.2.1.4.2.5.3,0,0,0,0,0,0,.8.5,1.6,1,2.5,1.5h0c.8.5,1.6,1.1,2.4,1.6.8.5,1.6,1.1,2.4,1.7.3.2.5.4.8.6.5.4,1,.8,1.5,1.2.7.5,1.3,1,1.9,1.6,0,0,0,0,0,0,.3.2.6.5.8.7.3.2.5.5.8.7.2.1.3.3.5.5.2.2.4.3.5.5.4.3.7.6,1.1,1,.2.2.4.3.6.5,0,0,0,0,0,0,0,0,.2.2.2.2.1.1.3.3.4.4.5.5,1,1,1.5,1.4,0,0,0,0,.1.1.5.5,1,1,1.4,1.5.1.1.2.2.3.3.1.1.3.3.4.4,0,0,.1.1.2.2.2.2.3.4.5.6,0,0,.2.2.3.3.2.2.4.4.6.6.1.2.3.3.4.5.1.2.3.3.4.5.4.5.9,1,1.3,1.5,0,0,0,0,0,.1h0c.5.5.9,1.1,1.3,1.6.2.2.3.4.4.6.4.5.7.9,1.1,1.4.2.3.4.5.6.8,0,0,0,0,0,.1,0,0,0,0,0,0l.2.2c.3.4.5.7.8,1.1.8,1.1,1.5,2.2,2.2,3.3.3.5.6.9.9,1.4.1.2.2.4.3.5.4.6.7,1.2,1.1,1.9,0,0,0,.2.1.2.3.5.6,1,.8,1.5,0,0,.1.2.2.3,0,0,0,.2.1.2.6,1.1,1.2,2.3,1.8,3.4h0c0,.2.2.4.3.6.2.4.4.8.6,1.2,0,.2.2.3.2.5.6,1.4,1.2,2.8,1.8,4.2.2.5.4,1,.6,1.5,0,.2.2.4.2.6.2.4.3.8.4,1.2,0,0,0,.1,0,.2.2.4.3.8.4,1.2,0,.2.1.4.2.6.2.6.4,1.3.6,1.9,0,.1,0,.2.1.4.2.5.3,1.1.5,1.6.1.4.2.8.3,1.1,0,.2,0,.3.1.5,0,.3.1.6.2.9,0,0,0,0,0,0s0,0,0,0c0,0,0,.1,0,.2,0,0,0,.1,0,.2,0,0,0,.2,0,.2.1.5.2,1,.4,1.5,0,0,0,.1,0,.2,0,.3.1.6.2.9l.2.9c.2,1.1.4,2.1.6,3.2,0,.4.1.7.2,1.1,0,.5.1,1,.2,1.4,0,0,0,0,0,0,0,.5.1.9.2,1.4,0,.2,0,.5,0,.7,0,.6.1,1.1.2,1.7,0,.3,0,.6,0,1,0,.2,0,.5,0,.7,0,0,0,.2,0,.2h0c0,.2,0,.3,0,.4,0,.2,0,.3,0,.5h0s0,0,0,0h0s0,0,0,.1c0,.1,0,.3,0,.4h0c0,0,0,.1,0,.1h0c0,.1,0,.2,0,.2h0c0,1.6.1,3.2.1,4.8s0,1.4,0,2h0c0,.2,0,.3,0,.5s0,0,0,0h0c0,.7,0,1.3,0,1.9,0,.8,0,1.6-.1,2.3,0,.8-.1,1.5-.2,2.3,0,.5-.1,1-.2,1.5-.1,1-.2,2-.4,3.1v.2c0,.3-.1.6-.2.9,0,.4-.1.7-.2,1.1,0,0,0,0,0,0-.1.8-.3,1.5-.4,2.3-.1.7-.3,1.4-.5,2.1h0s0,0,0,0,0,0,0,0c0,.4-.2.9-.3,1.3,0,0,0,.2,0,.2,0,.4-.2.8-.3,1.1-.4,1.6-.8,3.1-1.3,4.7-.2.7-.4,1.3-.7,2-.2.7-.5,1.4-.8,2.2-.2.7-.5,1.4-.8,2.1-.2.4-.3.8-.5,1.1-.2.5-.4,1-.6,1.4,0,.2-.1.3-.2.5-.3.6-.5,1.2-.8,1.8,0,0,0,0,0,0h0s0,0,0,0c-.3.6-.5,1.2-.8,1.7-.5,1-1,2.1-1.6,3.1-.2.5-.5.9-.7,1.3-.3.6-.6,1.1-.9,1.7-.3.4-.5.9-.8,1.3,0,.1-.2.3-.3.4-.3.5-.6.9-.9,1.4,0,.2-.2.3-.3.5-.3.4-.5.8-.8,1.2-.2.3-.4.6-.7,1,0,0,0,0,0,0,0,0,0,0,0,0,0,0,0,0,0,0-.5.7-1,1.4-1.5,2.1-.3.4-.5.8-.8,1.1-.3.4-.6.7-.8,1.1-.2.3-.5.7-.8,1-.3.4-.6.8-.9,1.2,0,0,0,0,0,0-.6.7-1.1,1.4-1.7,2,0,0,0,.1-.1.2-.5.5-1,1.1-1.4,1.6-.3.3-.5.6-.8.9-.2.3-.5.5-.8.8-.3.3-.6.7-1,1-.4.4-.8.8-1.3,1.3-.4.4-.9.8-1.3,1.2-.4.4-.9.8-1.3,1.2-.4.4-.9.8-1.3,1.2-.4.4-.8.7-1.2,1-.5.4-1,.8-1.5,1.2-.3.3-.7.5-1,.8-.3.3-.7.5-1,.8-.7.6-1.5,1.1-2.2,1.6-.7.5-1.4,1-2.1,1.5-.2.1-.4.3-.6.4,0,0,0,0-.1,0-.4.3-.8.5-1.3.8-.3.2-.6.4-.9.6-.5.3-1,.6-1.5.9-.2.1-.4.2-.6.3-.6.4-1.2.7-1.8,1-.1,0-.3.2-.4.2h0Z"/>
    </g>
    <g>
      <path class="st0" d="M198.6,104.1c0,0,0-.2,0-.3,0-.3,0-.5,0-.8,0,0,0-.1,0-.2,0,0,0-.1,0-.2h0c0-.1,0-.1,0-.2,0-.1,0-.2,0-.3v-.3s0,0,0,0c0,0,0-.1,0-.2,0-.1,0-.3,0-.4,0,0,0-.2,0-.2,0,0,0,0,0-.1h0c0-.3,0-.6,0-1h0c0-.1,0-.2,0-.3,0-.3,0-.5,0-.8,0-.3,0-.7-.1-1,0-.6-.2-1.2-.2-1.9,0,0,0,0,0,0,0-.1,0-.2,0-.4,0,0,0-.1,0-.2,0-.6-.2-1.1-.3-1.7-.1-.6-.2-1.2-.3-1.8,0-.1,0-.3,0-.4,0-.2,0-.5-.1-.8s-.1-.5-.2-.8c0-.1,0-.3,0-.4-.1-.6-.3-1.2-.4-1.8-.1-.5-.2-.9-.4-1.4,0-.1,0-.2-.1-.4,0-.3-.2-.6-.3-.9-.1-.5-.3-1-.4-1.4-.3-1-.6-1.9-1-2.9-.1-.3-.2-.7-.4-1,0,0,0-.2-.1-.3-.2-.5-.4-1-.6-1.5,0-.1,0-.2-.1-.3,0-.2-.2-.4-.2-.6,0-.2-.2-.4-.2-.6-.2-.5-.4-.9-.6-1.4-.3-.7-.6-1.4-1-2-.3-.7-.7-1.3-1-2-.2-.5-.5-.9-.7-1.3-.5-.9-1-1.7-1.5-2.6-.5-.8-1.1-1.7-1.6-2.5-.2-.4-.5-.8-.8-1.2,0,0,0-.1-.1-.2-.2-.3-.5-.7-.7-1,0,0,0,0,0,0,0,0,0,0,0-.1-.4-.6-.9-1.2-1.3-1.7-.3-.4-.5-.7-.8-1.1,0,0,0,0-.1-.1-.3-.3-.6-.7-.8-1-.3-.4-.6-.7-.9-1.1-.3-.4-.6-.7-1-1.1-.7-.8-1.5-1.6-2.3-2.4-.4-.4-.8-.8-1.2-1.2-.4-.4-.9-.8-1.3-1.2,0,0,0,0,0,0-.3-.3-.6-.5-.9-.8-.3-.3-.6-.5-.9-.8-.8-.7-1.6-1.4-2.5-2.1-.3-.3-.7-.5-1-.8-.3-.2-.5-.4-.8-.6-.4-.3-.8-.6-1.3-.9-.5-.3-1-.7-1.5-1-.5-.3-1-.7-1.5-1-.4-.3-.9-.6-1.3-.8h0c-6.9-2.4-14.4-3.7-22.1-3.7-37.2,0-67.5,30.3-67.5,67.5s30.3,67.5,67.5,67.5,15.2-1.3,22.2-3.8h0c.4-.3.8-.5,1.2-.8.2-.1.4-.3.7-.4.4-.2.8-.5,1.2-.8.5-.3,1-.7,1.5-1.1.5-.3,1-.7,1.5-1.1.5-.4,1-.8,1.5-1.1.4-.3.8-.7,1.3-1,0,0,0,0,0,0,.6-.5,1.2-1,1.8-1.5.3-.2.6-.5.8-.8.4-.4.8-.8,1.3-1.2.4-.4.8-.8,1.2-1.2s.6-.6.9-.9c.6-.6,1.1-1.2,1.7-1.8.3-.4.7-.7,1-1.1.3-.3.6-.7.9-1.1.3-.3.6-.7.8-1,0,0,0,0,.1-.1.3-.3.5-.7.8-1,.4-.6.9-1.1,1.3-1.7,0,0,0,0,0-.1,0,0,0,0,0,0,.2-.3.5-.7.7-1,.4-.5.7-1.1,1.1-1.6.5-.7,1-1.5,1.4-2.2.2-.4.5-.8.7-1.2,0,0,0,0,0,0,0,0,0-.1,0-.1.2-.4.5-.9.7-1.3.2-.4.5-.9.7-1.3.8-1.5,1.6-3.1,2.3-4.7.2-.4.4-.8.5-1.2.2-.6.5-1.1.7-1.7.2-.6.4-1.1.7-1.7.4-1.1.8-2.2,1.1-3.3,0-.1,0-.2.1-.4.2-.5.3-1,.5-1.6,0-.2.1-.5.2-.8,0-.1,0-.2,0-.4,0-.3.2-.7.3-1,0,0,0,0,0-.1,0-.3.2-.6.2-1,0-.4.2-.7.2-1.1,0,0,0-.1,0-.2,0,0,0-.2,0-.3,0-.4.2-.8.2-1.1,0-.4.2-.8.2-1.3.1-.5.2-1.1.3-1.6,0-.3,0-.7.1-1,0,0,0-.1,0-.2,0-.5.2-1.1.2-1.6,0-.4,0-.8.1-1.2,0-.5,0-.9.1-1.4,0-.3,0-.6,0-.9h0c0-.5,0-1,0-1.4v-.2c0,0,0-.2,0-.2,0,0,0-.2,0-.3h0c0-.1,0-.2,0-.2,0-.1,0-.2,0-.3h0c0-.1,0-.1,0-.2h0c0-.3,0-.4,0-.6,0-.6,0-1.3,0-1.9s0-1.3,0-1.9ZM183.5,138.8c-.5.4-.9.8-1.4,1.1,0,0-.2.1-.2.2-.4.3-.8.6-1.2.9-.1.1-.3.2-.4.3-.4.3-.8.6-1.2.8-.2.1-.4.2-.5.4-.3.2-.6.4-.9.5-.6.4-1.2.7-1.8,1-.3.2-.6.3-.9.5-.9.5-1.9.9-2.9,1.3-.3.1-.7.3-1,.4-.3.1-.7.3-1,.4-.3.1-.7.2-1,.4-.3.1-.7.2-1,.3-.4.1-.8.2-1.1.3-.3,0-.6.2-.9.2-.3,0-.6.2-.9.2,0,0-.1,0-.2,0-.4,0-.9.2-1.3.3-.5,0-1,.2-1.5.3-.2,0-.5,0-.8.1-.2,0-.4,0-.6,0-.3,0-.6,0-1,.1-.3,0-.5,0-.8,0,0,0,0,0-.1,0,0,0-.2,0-.3,0-.3,0-.7,0-1.1,0-.1,0-.2,0-.3,0-.3,0-.6,0-.9,0-.3,0-.6,0-1,0-23.9,0-43.4-19.5-43.4-43.4s19.5-43.4,43.4-43.4.6,0,1,0c.3,0,.6,0,.9,0,.1,0,.2,0,.3,0,.4,0,.7,0,1.1,0,0,0,.2,0,.3,0,0,0,0,0,.1,0,.3,0,.5,0,.8,0,.3,0,.6,0,.9.1.2,0,.4,0,.5,0,.3,0,.6,0,.8.1.5,0,.9.2,1.4.2.3,0,.5.1.8.2h0c.6.1,1.2.3,1.8.4.3,0,.5.1.8.2.4.1.9.2,1.3.4,0,0,0,0,.1,0,.3,0,.6.2.9.3.4.1.8.3,1.2.4.3,0,.5.2.8.3.3.1.7.3,1,.4,1.3.5,2.6,1.2,3.8,1.8.3.2.6.3.9.5.3.2.7.4,1,.6.3.2.5.3.8.5.3.2.6.4.9.6.3.2.6.4.8.6,1.1.8,2.2,1.7,3.3,2.6.2.2.4.4.7.6.9.8,1.8,1.7,2.7,2.6-5.3-3.3-11.6-5.2-18.3-5.2-19.2,0-34.8,15.6-34.8,34.8s15.6,34.8,34.8,34.8,13-1.9,18.3-5.2c0,0,0,.1-.1.2l-.9.9c-.2.2-.5.5-.8.7-.5.5-1,.9-1.5,1.3,0,0,0,0,0,0ZM168.5,132.8c-14.8,0-26.8-12-26.8-26.8s12-26.8,26.8-26.8,26.8,12,26.8,26.8-12,26.8-26.8,26.8ZM166.5,157.9c0,0-.1,0-.2,0,0,0,0,0,0,0-.4.2-.9.4-1.3.6-.1,0-.3.1-.4.2-.9.4-1.7.8-2.6,1.1-.2,0-.3.1-.5.2-.5.2-.9.4-1.4.5h0c-.5.2-1.1.4-1.7.6-.4.2-.9.3-1.4.4,0,0,0,0,0,0,0,0,0,0,0,0-.6.2-1.1.3-1.7.5-.5.1-.9.2-1.4.3-.4,0-.7.2-1.1.2-.2,0-.4,0-.6.1-.3,0-.6.1-1,.2-.4,0-.7.1-1.1.2-.3,0-.7.1-1.1.2,0,0-.2,0-.3,0-.5,0-1,.1-1.4.2,0,0-.2,0-.2,0-.2,0-.5,0-.7,0,0,0-.1,0-.2,0-.3,0-.5,0-.8,0,0,0-.2,0-.3,0,0,0-.1,0-.2,0-.4,0-.7,0-1.1,0-1,0-2,0-3,0-32,0-58-26-58-58s26-58,58-58,1,0,1.5,0c.3,0,.6,0,.9,0,.4,0,.7,0,1.1,0,.1,0,.3,0,.4,0,0,0,.1,0,.2,0,.4,0,.8,0,1.3.1,0,0,.2,0,.3,0,.5,0,1.1.1,1.6.2.2,0,.3,0,.5,0,.3,0,.6,0,.9.1.3,0,.6,0,.9.1.4,0,.8.1,1.2.2.1,0,.2,0,.3,0,.5,0,.9.2,1.4.3,0,0,0,0,0,0,.5.1.9.2,1.4.3.4.1.9.2,1.3.3,0,0,.2,0,.2,0,.4,0,.7.2,1,.3.6.2,1.2.3,1.7.5.4.1.8.3,1.2.4,0,0,0,0,0,0,.4.2.8.3,1.3.5.6.2,1.2.5,1.8.7.6.2,1.2.5,1.8.8.5.2.9.4,1.4.7,0,0,0,0,0,0,.5.3,1.1.6,1.6.8-4.1-1-8.4-1.6-12.9-1.6-29.1,0-52.7,23.6-52.7,52.7s23.6,52.7,52.7,52.7,8.7-.5,12.8-1.6c-.5.3-1,.5-1.5.8Z"/>
      <path class="st0" d="M145.4,22.4s0,0,0,0c-6.9-1.8-14-2.7-21.4-2.7-47.6,0-86.3,38.7-86.3,86.3s38.7,86.3,86.3,86.3,17.7-1.4,25.9-4h0c35-11,60.4-43.8,60.4-82.3s-27.6-74-64.9-83.6ZM149.6,176.1c-.5.2-1,.4-1.5.5,0,0-.2,0-.2,0-.5.2-1.1.3-1.6.5-1.1.3-2.2.7-3.3,1-.3,0-.7.2-1,.2-.5.1-1.1.3-1.6.4,0,0,0,0,0,0-.4,0-.9.2-1.3.3-1.1.2-2.2.4-3.3.6-.2,0-.5,0-.8.1-.5,0-1,.1-1.5.2-.5,0-1.1.1-1.6.2-.2,0-.3,0-.5,0-.5,0-1,0-1.4.1-.2,0-.5,0-.7,0-.9,0-1.8.1-2.6.1h0c-.4,0-.7,0-1.1,0-.5,0-1,0-1.5,0-41.2,0-74.7-33.5-74.7-74.7S82.8,31.3,124,31.3s1,0,1.5,0c.4,0,.7,0,1.1,0,.4,0,.8,0,1.2,0,.5,0,1,0,1.5,0,0,0,0,0,.1,0,.2,0,.4,0,.6,0,.4,0,.9,0,1.3.1.2,0,.4,0,.6,0,.5,0,1.1.1,1.6.2.5,0,1,.1,1.5.2.2,0,.5,0,.8.1.7,0,1.3.2,2,.3.1,0,.2,0,.4,0,.6.1,1.3.2,1.9.4.7.2,1.4.3,2,.5.4,0,.8.2,1.2.3.8.2,1.6.5,2.5.7.4.1.8.2,1.1.4,0,0,.1,0,.2,0,.4.1.7.2,1.1.4.6.2,1.1.4,1.7.6.5.2,1,.4,1.5.6.5.2,1,.4,1.5.6.5.2,1,.4,1.5.7.5.2,1,.5,1.5.7.5.2,1,.5,1.5.7.5.2,1,.5,1.5.8.3.1.5.3.8.4.4.2.7.4,1.1.6,0,0,0,0,0,0,.3.2.7.4,1,.6.4.2.7.4,1.1.6h0c.5.3.9.6,1.3.8.5.3,1,.7,1.5,1,.5.3,1,.7,1.5,1,.4.3.8.6,1.3.9.3.2.6.4.8.6.4.3.7.5,1,.8.9.7,1.7,1.4,2.5,2.1.3.3.6.5.9.8.3.2.6.5.9.8,0,0,0,0,0,0,.4.4.9.8,1.3,1.2.4.4.8.8,1.2,1.2.8.8,1.5,1.6,2.3,2.4.3.4.7.7,1,1.1.3.3.6.7.9,1.1.3.3.6.7.8,1,0,0,0,0,.1.1.3.4.5.7.8,1.1.4.6.9,1.1,1.3,1.7,0,0,0,0,0,.1,0,0,0,0,0,0,.2.3.5.7.7,1,0,0,0,0,.1.2.3.4.5.8.8,1.2.6.8,1.1,1.7,1.6,2.5.5.9,1,1.7,1.5,2.6.2.4.5.9.7,1.3.4.7.7,1.3,1,2,.3.7.7,1.4,1,2,.2.5.4.9.6,1.4,0,.2.2.4.2.6,0,.2.2.4.2.6,0,.1,0,.2.1.3.2.5.4,1,.6,1.5,0,0,0,.2.1.3.1.3.2.7.4,1,.3,1,.7,1.9,1,2.9.2.5.3.9.4,1.4,0,.3.2.6.3.9,0,.1,0,.2.1.4.1.5.2.9.4,1.4.1.6.3,1.2.4,1.8,0,.1,0,.3,0,.4,0,.2.1.5.2.8s.1.5.1.8c0,.1,0,.3,0,.4.1.6.2,1.2.3,1.8,0,.6.2,1.1.3,1.7,0,0,0,0,0,.2,0,.1,0,.2,0,.4,0,0,0,0,0,0,0,.6.2,1.2.2,1.9,0,.3,0,.7.1,1,0,.3,0,.5,0,.8,0,0,0,.2,0,.2h0c0,.2,0,.3,0,.4,0,.2,0,.3,0,.5h0s0,0,0,0h0s0,0,0,.1c0,0,0,.2,0,.2,0,.1,0,.3,0,.4,0,0,0,.1,0,.2h0c0,0,0,.4,0,.4,0,.1,0,.2,0,.3,0,0,0,0,0,0h0c0,.1,0,.2,0,.2,0,0,0,.1,0,.2,0,.2,0,.5,0,.8,0,0,0,.2,0,.3,0,.6,0,1.3,0,1.9s0,1.3,0,1.9c0,.2,0,.3,0,.5h0c0,.1,0,.1,0,.1h0c0,.2,0,.3,0,.5h0c0,0,0,0,0,0h0c0,.2,0,.3,0,.4,0,0,0,.2,0,.2v.2c0,.5,0,.9,0,1.4h0c0,.4,0,.7,0,1,0,.5,0,.9-.1,1.4,0,.4,0,.8-.1,1.2,0,.5-.1,1.1-.2,1.6,0,0,0,.2,0,.2,0,.3,0,.7-.1,1,0,.5-.2,1.1-.3,1.6,0,.4-.1.8-.2,1.3,0,.4-.1.8-.2,1.1,0,0,0,.2,0,.3,0,0,0,.1,0,.2,0,.4-.2.7-.2,1.1,0,.3-.1.6-.2,1,0,0,0,0,0,.1,0,.3-.2.7-.3,1,0,.1,0,.2,0,.4,0,.2-.1.5-.2.8-.1.5-.3,1.1-.5,1.6,0,.1,0,.2-.1.4-.3,1.1-.7,2.2-1.1,3.3-.2.6-.4,1.1-.7,1.7-.2.6-.4,1.1-.7,1.7-.2.4-.3.8-.5,1.2-.7,1.6-1.5,3.2-2.3,4.7-.2.4-.5.9-.7,1.3-.2.4-.5.9-.7,1.3,0,0,0,0,0,.1,0,0,0,0,0,0-.2.4-.5.8-.7,1.2-.4.8-.9,1.5-1.4,2.2-.3.5-.7,1.1-1.1,1.6-.2.3-.5.7-.7,1,0,0,0,0,0,0,0,0,0,0,0,.1-.4.6-.9,1.2-1.3,1.7-.3.4-.5.7-.8,1,0,0,0,0-.1.1-.3.3-.5.7-.8,1-.3.4-.6.7-.9,1.1-.3.4-.7.8-1,1.1-.6.6-1.1,1.2-1.7,1.8-.3.3-.6.6-.9.9s-.8.8-1.2,1.2c-.4.4-.8.8-1.3,1.2-.3.3-.6.5-.8.8-.6.5-1.2,1-1.8,1.5,0,0,0,0,0,0-.4.4-.8.7-1.3,1-.5.4-1,.8-1.5,1.1-.5.4-1,.7-1.5,1.1-.5.4-1,.7-1.5,1.1-.4.3-.8.5-1.2.8-.2.1-.5.3-.7.4-.4.3-.8.5-1.2.8h0c-.4.2-.7.4-1.1.6-.2.1-.4.2-.5.3-.2,0-.4.2-.5.3-.4.2-.9.5-1.3.7-.5.3-1,.5-1.5.8-.5.3-1.1.5-1.6.8-.3.1-.6.3-.9.4-.5.2-.9.4-1.4.6-.4.2-.8.3-1.1.5-.1,0-.2.1-.4.2-.4.2-.8.3-1.2.5-.6.2-1.1.4-1.7.7Z"/>
    </g>
    <g>
      <path class="st0" d="M198.6,104.9c0-.3,0-.5,0-.8,0,0,0-.2,0-.3,0-.3,0-.5,0-.8,0,0,0-.1,0-.2,0,0,0-.1,0-.2h0c0-.1,0-.1,0-.2,0-.1,0-.2,0-.3v-.3s0,0,0,0h0c0,0,0-.1,0-.2h0c0,0,0-.1,0-.2h0c0-.4,0-.7,0-1,0-.2,0-.3,0-.5,0-.4,0-.9-.2-1.3,0-.4,0-.8-.2-1.2,0-.4-.1-.7-.2-1.1-.2-1.1-.4-2.2-.6-3.2-.3-1.2-.6-2.3-.9-3.4-.1-.4-.3-.9-.4-1.3,0,0,0,0,0,0-.1-.5-.3-1-.5-1.5,0,0,0,0,0-.1-.1-.4-.3-.8-.4-1.1-.2-.6-.5-1.2-.7-1.9-.2-.4-.3-.8-.5-1.2-.2-.4-.3-.8-.5-1.2h0c-.2-.5-.5-1-.7-1.5s-.5-1-.8-1.5c-.4-.7-.8-1.4-1.2-2.1-.4-.7-.8-1.4-1.3-2-.2-.3-.4-.7-.6-1-.3-.4-.6-.8-.9-1.2,0,0-.1-.2-.2-.3-.3-.4-.6-.8-1-1.3-.2-.3-.5-.6-.7-.9-.2-.3-.4-.5-.6-.8,0,0,0,0,0,0-.4-.4-.7-.9-1.1-1.3,0,0,0,0,0,0-.4-.5-.8-.9-1.2-1.3t0,0c-.2-.3-.5-.5-.8-.8-.2-.3-.5-.5-.8-.8-.5-.5-1.1-1-1.6-1.5-.6-.5-1.1-1-1.7-1.5,0,0-.1-.1-.2-.2-.3-.2-.5-.5-.8-.7-.3-.2-.6-.5-.8-.7,0,0,0,0,0,0-.9-.7-1.8-1.3-2.7-2,0,0,0,0,0,0-.5-.3-1-.6-1.5-1-.5-.3-1-.6-1.5-.9-.7-.4-1.3-.8-2-1.2h0c-4.1-1-8.4-1.6-12.9-1.6-29.1,0-52.7,23.6-52.7,52.7s23.6,52.7,52.7,52.7,8.7-.5,12.8-1.6h0c.3-.2.7-.4,1-.6.3-.2.7-.4,1-.6.7-.4,1.3-.8,2-1.2.7-.4,1.3-.8,1.9-1.3.3-.2.6-.4.9-.6.4-.3.8-.6,1.2-.9.2-.2.5-.3.7-.5.4-.3.8-.7,1.2-1,.4-.3.8-.7,1.2-1,.3-.3.6-.5.9-.8.5-.4,1-.9,1.4-1.4.2-.2.5-.5.7-.7.9-.9,1.8-1.9,2.6-2.9.3-.3.6-.7.9-1,.3-.3.5-.7.8-1,.2-.2.4-.5.6-.8,1.7-2.3,3.3-4.7,4.7-7.2.1-.3.3-.6.5-.9.2-.3.4-.7.5-1,.2-.4.3-.7.5-1.1.2-.5.5-1.1.7-1.6.1-.3.2-.6.4-.9.2-.5.4-1,.6-1.6.1-.3.2-.6.4-1,.6-1.7,1.1-3.4,1.6-5.1.2-.9.5-1.9.7-2.8.4-1.9.7-3.8.9-5.8,0-.7.1-1.4.2-2,0,0,0,0,0-.1,0,0,0-.2,0-.2,0,0,0-.2,0-.3h0c0-.1,0-.1,0-.1h0c0-.2,0-.3,0-.4h0c0,0,0-.1,0-.2h0c0-.3,0-.4,0-.6,0-.3,0-.5,0-.8,0-.4,0-.8,0-1.1s0-.8,0-1.1ZM168.5,132.8c-14.8,0-26.8-12-26.8-26.8s12-26.8,26.8-26.8,26.8,12,26.8,26.8-12,26.8-26.8,26.8ZM185.8,136.7c-.2.2-.5.5-.8.7-.5.5-1,.9-1.5,1.3,0,0,0,0,0,0-.5.4-.9.8-1.4,1.1,0,0-.2.1-.2.2-.4.3-.8.6-1.2.9-.1.1-.3.2-.4.3-.4.3-.8.6-1.2.8-.2.1-.4.2-.5.4-.3.2-.6.4-.9.5-.6.4-1.2.7-1.8,1-.3.2-.6.3-.9.5-.9.5-1.9.9-2.9,1.3-.3.1-.7.3-1,.4-.3.1-.7.3-1,.4-.3.1-.7.2-1,.4-.3.1-.7.2-1,.3-.4.1-.8.2-1.1.3-.3,0-.6.2-.9.2-.3,0-.6.2-.9.2,0,0-.1,0-.2,0-.4,0-.9.2-1.3.3-.5,0-1,.2-1.5.3-.2,0-.5,0-.8.1-.2,0-.4,0-.6,0-.3,0-.6,0-1,.1-.3,0-.5,0-.8,0,0,0,0,0-.1,0,0,0-.2,0-.3,0-.3,0-.7,0-1.1,0-.1,0-.2,0-.3,0-.3,0-.6,0-.9,0-.3,0-.6,0-1,0-23.9,0-43.4-19.5-43.4-43.4s19.5-43.4,43.4-43.4.6,0,1,0c.3,0,.6,0,.9,0,.1,0,.2,0,.3,0,.4,0,.7,0,1.1,0,0,0,.2,0,.3,0,0,0,0,0,.1,0,.3,0,.5,0,.8,0,.3,0,.6,0,.9.1.2,0,.4,0,.5,0,.3,0,.6,0,.8.1.5,0,.9.2,1.4.2.3,0,.5.1.8.2h0c.6.1,1.2.3,1.8.4.3,0,.5.1.8.2.4.1.9.2,1.3.4,0,0,0,0,.1,0,.3,0,.6.2.9.3.4.1.8.3,1.2.4.3,0,.5.2.8.3.3.1.7.3,1,.4,1.3.5,2.6,1.2,3.8,1.8.3.2.6.3.9.5.3.2.7.4,1,.6.3.2.5.3.8.5.3.2.6.4.9.6.3.2.6.4.8.6,1.1.8,2.2,1.7,3.3,2.6.2.2.4.4.7.6.9.8,1.8,1.7,2.7,2.6-5.3-3.3-11.6-5.2-18.3-5.2-19.2,0-34.8,15.6-34.8,34.8s15.6,34.8,34.8,34.8,13-1.9,18.3-5.2c0,0,0,.1-.1.2l-.9.9Z"/>
      <path class="st0" d="M180.8,51.8s0,0,0,0c0,0,0,0,0,0-5.4-4-11.5-7.2-18-9.5h0c-6.9-2.4-14.4-3.7-22.1-3.7-37.2,0-67.5,30.3-67.5,67.5s30.3,67.5,67.5,67.5,15.2-1.3,22.2-3.8h0c7.1-2.5,13.7-6.1,19.5-10.7h0c15.7-12.4,25.8-31.5,25.8-53s-10.8-41.9-27.3-54.2ZM161.9,159.9c-.2,0-.3.1-.5.2-.5.2-.9.4-1.4.5h0c-.5.2-1.1.4-1.7.6-.4.2-.9.3-1.4.4,0,0,0,0,0,0,0,0,0,0,0,0-.6.2-1.1.3-1.7.5-.5.1-.9.2-1.4.3-.4,0-.7.2-1.1.2-.2,0-.4,0-.6.1-.3,0-.6.1-1,.2-.4,0-.7.1-1.1.2-.3,0-.7.1-1.1.2,0,0-.2,0-.3,0-.5,0-1,.1-1.4.2,0,0-.2,0-.2,0-.2,0-.5,0-.7,0,0,0-.1,0-.2,0-.3,0-.5,0-.8,0,0,0-.2,0-.3,0,0,0-.1,0-.2,0-.4,0-.7,0-1.1,0-1,0-2,0-3,0-32,0-58-26-58-58s26-58,58-58,1,0,1.5,0c.3,0,.6,0,.9,0,.4,0,.7,0,1.1,0,.1,0,.3,0,.4,0,0,0,.1,0,.2,0,.4,0,.8,0,1.3.1,0,0,.2,0,.3,0,.5,0,1.1.1,1.6.2.2,0,.3,0,.5,0,.3,0,.6,0,.9.1.3,0,.6,0,.9.1.4,0,.8.1,1.2.2.1,0,.2,0,.3,0,.5,0,.9.2,1.4.3,0,0,0,0,0,0,.5.1.9.2,1.4.3.4.1.9.2,1.3.3,0,0,.2,0,.2,0,.4,0,.7.2,1,.3.6.2,1.2.3,1.7.5.4.1.8.3,1.2.4,0,0,0,0,0,0,.4.2.8.3,1.3.5.6.2,1.2.5,1.8.7.6.2,1.2.5,1.8.8.5.2.9.4,1.4.7,0,0,0,0,0,0,.5.3,1.1.6,1.6.8h0c.7.4,1.4.8,2,1.2.5.3,1,.6,1.5.9.5.3,1,.6,1.5,1,0,0,0,0,0,0,.9.6,1.8,1.3,2.7,2,0,0,0,0,0,0,.3.2.6.4.8.7.3.2.5.4.8.7,0,0,.1.1.2.2.6.5,1.1,1,1.7,1.5.6.5,1.1,1,1.6,1.5.3.2.5.5.8.8.3.2.5.5.8.8t0,0c.4.4.8.9,1.2,1.3,0,0,0,0,0,0,.4.4.8.9,1.1,1.3,0,0,0,0,0,0,.2.3.4.5.6.8.2.3.5.6.7.9.3.4.6.8,1,1.3,0,0,.1.2.2.3.3.4.6.8.9,1.2.2.3.4.6.6,1,.4.7.9,1.3,1.3,2,.4.7.8,1.4,1.2,2.1.3.5.5,1,.8,1.5s.5,1,.7,1.5h0c.2.4.4.8.5,1.2.2.4.4.8.5,1.2.3.6.5,1.2.7,1.9.2.4.3.8.4,1.1,0,0,0,0,0,.1.2.5.3,1,.5,1.5,0,0,0,0,0,0,.1.4.3.9.4,1.3.3,1.1.6,2.3.9,3.4.2,1.1.5,2.2.6,3.2,0,.4.1.7.2,1.1,0,.4.1.8.2,1.2,0,.4.1.9.2,1.3,0,.2,0,.3,0,.5,0,.3,0,.6,0,1h0c0,0,0,.1,0,.1h0c0,.1,0,.2,0,.2h0s0,.1,0,.1v.3c0,.1,0,.2,0,.3,0,0,0,0,0,0h0c0,.1,0,.2,0,.2,0,0,0,.1,0,.2,0,.2,0,.5,0,.8,0,0,0,.2,0,.3,0,.3,0,.5,0,.8,0,.4,0,.8,0,1.1s0,.8,0,1.1c0,.3,0,.5,0,.8,0,.2,0,.3,0,.5h0c0,.1,0,.1,0,.1h0c0,.2,0,.3,0,.5h0c0,0,0,0,0,0h0c0,.2,0,.3,0,.4,0,0,0,.2,0,.2,0,0,0,0,0,.1,0,.7,0,1.4-.2,2-.2,2-.5,3.9-.9,5.8-.2.9-.4,1.9-.7,2.8-.5,1.7-1,3.5-1.6,5.1-.1.3-.2.6-.4,1-.2.5-.4,1-.6,1.6-.1.3-.2.6-.4.9-.2.5-.5,1.1-.7,1.6-.2.3-.3.7-.5,1.1-.2.3-.3.7-.5,1-.1.3-.3.6-.5.9-1.4,2.5-2.9,4.9-4.7,7.2-.2.3-.4.5-.6.8-.2.3-.5.7-.8,1-.3.3-.6.7-.9,1-.8,1-1.7,1.9-2.6,2.9-.2.2-.5.5-.7.7-.5.5-.9.9-1.4,1.4-.3.3-.6.6-.9.8-.4.4-.8.7-1.2,1-.4.3-.8.7-1.2,1-.2.2-.5.4-.7.5-.4.3-.8.6-1.2.9-.3.2-.6.4-.9.6-.6.5-1.3.9-1.9,1.3-.7.4-1.3.8-2,1.2-.3.2-.7.4-1,.6-.3.2-.7.4-1,.6h0c-.5.3-1,.5-1.5.8,0,0-.1,0-.2,0,0,0,0,0,0,0-.4.2-.9.4-1.3.6-.1,0-.3.1-.4.2-.9.4-1.7.8-2.6,1.1Z"/>
    </g>
    <g>
      <path class="st0" d="M198.5,104.7h0c0-.3,0-.6,0-.9,0-.4,0-.7,0-1.1,0-.7-.1-1.3-.2-1.9,0-.5-.1-.9-.2-1.4,0-.2,0-.5-.1-.7,0-.4-.1-.7-.2-1.1,0-.3-.1-.7-.2-1,0-.3-.1-.6-.2-.9,0-.4-.2-.8-.3-1.1,0-.3-.2-.6-.2-.9,0-.2-.1-.5-.2-.7,0-.3-.2-.6-.3-.8-.3-.8-.6-1.6-.9-2.5-.1-.3-.2-.6-.4-.9-.1-.3-.3-.6-.4-.9-.1-.3-.3-.6-.4-.9-.3-.6-.6-1.2-.9-1.7-.1-.2-.2-.4-.3-.6-.2-.4-.5-.8-.7-1.2-.2-.3-.4-.6-.5-.9-.4-.7-.9-1.4-1.4-2.1-.2-.3-.5-.7-.8-1-.2-.3-.5-.7-.8-1-.2-.3-.4-.5-.6-.8-.2-.3-.4-.5-.6-.8-.2-.2-.4-.5-.6-.7,0,0,0,0,0,0-5.3-3.3-11.6-5.2-18.3-5.2-19.2,0-34.8,15.6-34.8,34.8s15.6,34.8,34.8,34.8,13-1.9,18.3-5.2h0s0,0,0,0c.2-.2.4-.4.6-.7.2-.2.4-.5.6-.8.3-.4.6-.7.9-1,.3-.4.6-.7.8-1.1.2-.3.5-.6.7-.9.2-.3.4-.5.5-.8.4-.5.7-1.1,1.1-1.7.2-.4.5-.8.7-1.2.2-.4.4-.8.7-1.2.2-.4.4-.8.6-1.2.3-.6.6-1.2.8-1.8.1-.3.3-.6.4-.9.1-.3.3-.6.4-1,.1-.3.2-.7.3-1,.1-.3.2-.7.3-1,.1-.3.2-.7.3-1,0-.3.2-.6.3-.9,0-.3.2-.7.3-1,0-.3.2-.6.2-.9,0-.3.1-.7.2-1,0-.4.1-.7.2-1.1,0-.2,0-.5.1-.7,0-.5.1-.9.2-1.4,0-.6.1-1.3.2-1.9,0-.4,0-.7,0-1.1,0-.3,0-.6,0-.9h0c0-.5,0-.9,0-1.4s0-.9,0-1.3ZM168.5,132.8c-14.8,0-26.8-12-26.8-26.8s12-26.8,26.8-26.8,26.8,12,26.8,26.8-12,26.8-26.8,26.8Z"/>
      <path class="st0" d="M189.3,65.9h0c-1.6-1.3-3.2-2.6-4.9-3.7-4.9-3.3-10.4-5.8-16.3-7.3h0c-4.1-1-8.4-1.6-12.9-1.6-29.1,0-52.7,23.6-52.7,52.7s23.6,52.7,52.7,52.7,8.7-.5,12.8-1.6h0c5.9-1.5,11.4-4,16.4-7.3,2-1.3,3.9-2.8,5.7-4.4h0c10.9-9.7,17.8-23.8,17.8-39.5s-7.2-30.4-18.6-40.1ZM166.9,147.8c-.3,0-.6.2-.9.2-.3,0-.6.2-.9.2,0,0-.1,0-.2,0-.4,0-.9.2-1.3.3-.5,0-1,.2-1.5.3-.2,0-.5,0-.8.1-.2,0-.4,0-.6,0-.3,0-.6,0-1,.1-.3,0-.5,0-.8,0,0,0,0,0-.1,0,0,0-.2,0-.3,0-.3,0-.7,0-1.1,0-.1,0-.2,0-.3,0-.3,0-.6,0-.9,0-.3,0-.6,0-1,0-23.9,0-43.4-19.5-43.4-43.4s19.5-43.4,43.4-43.4.6,0,1,0c.3,0,.6,0,.9,0,.1,0,.2,0,.3,0,.4,0,.7,0,1.1,0,0,0,.2,0,.3,0,0,0,0,0,.1,0,.3,0,.5,0,.8,0,.3,0,.6,0,.9.1.2,0,.4,0,.5,0,.3,0,.6,0,.8.1.5,0,.9.2,1.4.2.3,0,.5.1.8.2h0c.6.1,1.2.3,1.8.4.3,0,.5.1.8.2.4.1.9.2,1.3.4,0,0,0,0,.1,0,.3,0,.6.2.9.3.4.1.8.3,1.2.4.3,0,.5.2.8.3.3.1.7.3,1,.4,1.3.5,2.6,1.2,3.8,1.8.3.2.6.3.9.5.3.2.7.4,1,.6.3.2.5.3.8.5.3.2.6.4.9.6.3.2.6.4.8.6,1.1.8,2.2,1.7,3.3,2.6.2.2.4.4.7.6.9.8,1.8,1.7,2.7,2.6,0,0,0,0,0,0,.2.2.4.5.6.7.2.2.4.5.6.8.2.2.4.5.6.8.3.3.5.7.8,1,.3.3.5.7.8,1,.5.7,1,1.4,1.4,2.1.2.3.4.6.5.9.2.4.5.8.7,1.2.1.2.2.4.3.6.3.6.6,1.2.9,1.7.2.3.3.6.4.9.1.3.3.6.4.9.1.3.3.6.4.9.3.8.6,1.6.9,2.5.1.3.2.5.3.8,0,.2.1.5.2.7,0,.3.2.6.2.9,0,.4.2.7.3,1.1,0,.3.1.6.2.9,0,.3.1.7.2,1,0,.3.1.7.2,1.1,0,.2,0,.5.1.7,0,.5.1.9.2,1.4,0,.6.1,1.3.2,1.9,0,.4,0,.7,0,1.1,0,.3,0,.6,0,.9h0c0,.5,0,.9,0,1.4s0,.9,0,1.3h0c0,.3,0,.6,0,.9,0,.4,0,.8,0,1.1,0,.7-.1,1.3-.2,1.9,0,.5-.1.9-.2,1.4,0,.2,0,.5-.1.7,0,.4-.1.7-.2,1.1,0,.3-.1.7-.2,1,0,.3-.1.6-.2.9,0,.4-.2.7-.3,1,0,.3-.2.6-.3.9-.1.3-.2.7-.3,1-.1.3-.2.7-.3,1-.1.3-.2.7-.3,1-.1.3-.2.7-.4,1-.1.3-.2.6-.4.9-.3.6-.5,1.2-.8,1.8-.2.4-.4.8-.6,1.2-.2.4-.4.8-.7,1.2-.2.4-.5.8-.7,1.2-.4.6-.7,1.1-1.1,1.7-.2.3-.4.5-.5.8-.2.3-.4.6-.7.9-.3.4-.5.7-.8,1.1-.3.3-.6.7-.9,1-.2.3-.4.5-.6.8-.2.2-.4.4-.6.7,0,0,0,0,0,0,0,0,0,.1-.1.2l-.9.9c-.2.2-.5.5-.8.7-.5.5-1,.9-1.5,1.3,0,0,0,0,0,0-.5.4-.9.8-1.4,1.1,0,0-.2.1-.2.2-.4.3-.8.6-1.2.9-.1.1-.3.2-.4.3-.4.3-.8.6-1.2.8-.2.1-.4.2-.5.4-.3.2-.6.4-.9.5-.6.4-1.2.7-1.8,1-.3.2-.6.3-.9.5-.9.5-1.9.9-2.9,1.3-.3.1-.7.3-1,.4-.3.1-.7.3-1,.4-.3.1-.7.2-1,.4-.3.1-.7.2-1,.3-.4.1-.8.2-1.1.3Z"/>
    </g>
    <path class="st0" d="M196,84.6h0c-.3-.3-.5-.7-.8-1-.6-.8-1.3-1.5-2-2.2h0c-1.9-1.9-4-3.6-6.3-5-5.3-3.3-11.6-5.2-18.3-5.2-19.2,0-34.8,15.6-34.8,34.8s15.6,34.8,34.8,34.8,13-1.9,18.3-5.2h0c2.3-1.4,4.4-3.1,6.3-5,.7-.7,1.4-1.5,2-2.2.4-.5.8-.9,1.1-1.4,0,0,0,0,0,0,4.4-5.8,7-13.1,7-20.9s-2.8-15.5-7.4-21.4ZM168.5,132.8c-14.8,0-26.8-12-26.8-26.8s12-26.8,26.8-26.8,26.8,12,26.8,26.8-12,26.8-26.8,26.8Z"/>
  </g>
</svg>