<?xml version="1.0" encoding="UTF-8"?>
<svg id="Layer_1" xmlns="http://www.w3.org/2000/svg" version="1.1" viewBox="0 0 789.5 342.6">
  <!-- Generator: Adobe Illustrator 30.2.1, SVG Export Plug-In . SVG Version: 2.1.1 Build 1)  -->
  <defs>
    <style>
      .st0 {
        fill: #fff;
      }
    </style>
  </defs>
  <g>
    <path class="st0" d="M776,309.7c0,11.2-9.1,20.3-20.3,20.3s-20.3-9.1-20.3-20.3.6-5.6,1.7-8.1c-.9,2.3-1.4,4.9-1.4,7.6,0,11.2,8.5,19.8,19.7,19.8s19.6-8.6,19.6-19.8-7.8-19.2-18.4-19.8c10.8.5,19.4,9.4,19.4,20.3Z"/>
    <g>
      <path class="st0" d="M0,277.5v63.6h14v-63.6H0Z"/>
      <path class="st0" d="M67.2,276c-9.1,0-16.5,3.6-21.5,10.4v-8.9h-14v63.6h14v-35.2c0-9.8,6.7-16.5,16.8-16.5s15.8,6.5,15.8,16.2v35.4h14v-40c0-15.1-10.1-25.1-25.2-25.1Z"/>
      <path class="st0" d="M159.2,251.3v36.1c-5.1-7-13-11.4-22.3-11.4-18,0-31.3,14.4-31.3,33.3s13.4,33.3,31.3,33.3,17.2-4.4,22.3-11.3v9.8h14v-89.8h-14ZM139.6,329.1c-11.4,0-19.7-8.6-19.7-19.8s8.4-19.8,19.7-19.8,19.6,8.6,19.6,19.8-8.4,19.8-19.6,19.8Z"/>
      <path class="st0" d="M191,277.5v63.6h14v-63.6h-14Z"/>
      <path class="st0" d="M268.7,277.5l-18.5,46.4-18.6-46.4h-16l27.1,63.6h14.6l26.9-63.6h-15.6Z"/>
      <path class="st0" d="M295,277.5v63.6h14v-63.6h-14Z"/>
      <path class="st0" d="M376.9,251.3v36.1c-5.1-7-13-11.4-22.3-11.4-18,0-31.3,14.4-31.3,33.3s13.3,33.3,31.3,33.3,17.2-4.4,22.3-11.3v9.8h14v-89.8h-14ZM357.3,329.1c-11.3,0-19.7-8.6-19.7-19.8s8.4-19.8,19.7-19.8,19.6,8.6,19.6,19.8-8.4,19.8-19.6,19.8Z"/>
      <path class="st0" d="M452.4,277.5v36.2c0,9.2-6.4,15.5-15.8,15.5s-14.9-6.1-14.9-15.2v-36.4h-14v40.5c0,14.8,9.7,24.6,24.3,24.6s15.6-3.5,20.3-10v8.5h14v-63.6h-14Z"/>
      <path class="st0" d="M534.3,277.5v9.9c-5.1-7-13-11.4-22.3-11.4-18,0-31.3,14.4-31.3,33.3s13.3,33.3,31.3,33.3,17.2-4.4,22.3-11.3v9.8h14v-63.6h-14ZM514.7,329.1c-11.3,0-19.7-8.6-19.7-19.8s8.4-19.8,19.7-19.8,19.6,8.6,19.6,19.8-8.4,19.8-19.6,19.8Z"/>
      <path class="st0" d="M601.5,276c-9.1,0-16.5,3.6-21.4,10.4v-8.9h-14v63.6h14v-35.2c0-9.8,6.7-16.5,16.8-16.5s15.8,6.5,15.8,16.2v35.4h14v-40c0-15.1-10.1-25.1-25.2-25.1Z"/>
      <path class="st0" d="M693.5,251.3v36.1c-5.1-7-13-11.4-22.3-11.4-18,0-31.3,14.4-31.3,33.3s13.4,33.3,31.3,33.3,17.2-4.4,22.3-11.3v9.8h14v-89.8h-14ZM673.9,329.1c-11.4,0-19.7-8.6-19.7-19.8s8.4-19.8,19.7-19.8,19.6,8.6,19.6,19.8-8.4,19.8-19.6,19.8Z"/>
      <path class="st0" d="M755.5,276c-19.5,0-34.1,14.4-34.1,33.3s14.6,33.3,34.1,33.3,34-14.3,34-33.3-14.7-33.3-34-33.3ZM737.2,301.6s0,0,0,0c2.9-7.2,9.8-12.1,18.3-12.1h.2c.3,0,.7,0,1,0,10.6.6,18.4,9,18.4,19.8s-8.4,19.8-19.6,19.8-19.7-8.6-19.7-19.8.5-5.3,1.4-7.6h0Z"/>
    </g>
  </g>
  <g>
    <g>
      <path class="st0" d="M486.9,102.2s0,0,0,0c0,0,0-.1,0-.2,0,0,0-.2,0-.3h0s0,0,0,0h0c0-.1,0-.2,0-.2,0-.1,0-.2,0-.4,0-.3,0-.6,0-.9,0-.5,0-1-.1-1.5,0-.7-.1-1.4-.2-2.1,0-.4,0-.8-.1-1.3,0-.4,0-.8-.1-1.1,0,0,0-.2,0-.3-.2-1.1-.3-2.2-.5-3.2,0-.4-.2-.9-.2-1.3,0-.5-.2-.9-.3-1.4,0-.5-.2-.9-.3-1.4-.1-.7-.3-1.3-.4-2h0s0,0,0,0c-.2-.7-.4-1.5-.6-2.2-.2-.9-.5-1.8-.8-2.6-.2-.8-.5-1.6-.8-2.4-.2-.7-.5-1.4-.7-2.1,0-.1,0-.3-.1-.4,0-.3-.2-.5-.3-.8-.3-.7-.5-1.4-.8-2.1-.2-.5-.4-1-.6-1.5-.2-.5-.4-1-.6-1.5-.2-.5-.4-.9-.6-1.4-.3-.6-.5-1.2-.8-1.8h0c-.6-1.2-1.2-2.5-1.9-3.7,0-.1,0-.2-.2-.3-.3-.5-.6-1-.8-1.5,0,0,0-.2-.1-.2-.3-.5-.6-1-.9-1.5-.2-.3-.4-.6-.6-.9-.3-.5-.6-.9-.9-1.4-.4-.6-.7-1.1-1.1-1.7-.3-.4-.6-.9-.9-1.3,0-.1-.2-.2-.2-.4-.2-.4-.5-.7-.8-1.1,0,0-.1-.1-.2-.2,0,0,0,0,0,0,0,0,0,0,0,0h0c0-.1-.2-.2-.2-.3,0,0,0-.1-.2-.2,0,0,0,0,0,0,0,0,0,0,0,0,0,0,0-.1-.2-.2,0,0,0,0,0,0-.3-.5-.7-.9-1.1-1.4-.2-.3-.4-.6-.7-.9-.4-.5-.7-.9-1.1-1.3,0,0,0,0,0-.1-.3-.4-.7-.8-1-1.2-.2-.3-.5-.5-.7-.8-.1-.2-.3-.3-.4-.5,0,0,0,0-.1-.1-.3-.4-.7-.7-1-1.1,0,0,0,0,0,0,0,0-.1-.1-.2-.2-.2-.2-.4-.4-.6-.7-.6-.6-1.2-1.2-1.8-1.8-.1-.1-.3-.3-.4-.4-.1-.1-.3-.3-.4-.4-.1-.1-.2-.2-.3-.3,0,0-.1-.1-.2-.2-.2-.2-.5-.5-.7-.7-.3-.3-.7-.7-1.1-1-.4-.3-.7-.7-1.1-1-.7-.6-1.4-1.2-2.1-1.8,0,0,0,0,0,0-.4-.3-.7-.6-1.1-.9,0,0-.1,0-.2-.1,0,0,0,0-.1,0,0,0,0,0,0,0,0,0,0,0,0,0-.2-.2-.5-.4-.7-.5-1.5-1.2-3.1-2.4-4.7-3.5-.4-.3-.8-.5-1.2-.8-.4-.3-.8-.5-1.2-.8-.4-.2-.8-.5-1.1-.7-.6-.3-1.1-.7-1.7-1-.6-.3-1.2-.7-1.7-1-.6-.3-1.2-.7-1.8-1-.4-.2-.9-.5-1.3-.7-.4-.2-.9-.4-1.3-.7-.4-.2-.9-.4-1.3-.6h0c-6.9-1.8-14.1-2.7-21.5-2.7-47.6,0-86.3,38.7-86.3,86.3s38.7,86.3,86.3,86.3,17.7-1.4,25.8-3.9t0,0s0,0,0,0c0,0,0,0,0,0h0c.6-.3,1.2-.7,1.8-1,.2-.1.4-.2.7-.4.6-.4,1.3-.7,1.9-1.1,0,0,0,0,0,0,.2-.2.5-.3.7-.4.3-.2.5-.3.8-.5,0,0,.2-.1.3-.2,0,0,0,0,.1,0,.3-.2.6-.3.8-.5,0,0,0,0,0,0,.4-.2.7-.5,1.1-.7.7-.5,1.3-.9,2-1.4,0,0,0,0,0,0,.3-.2.6-.5.9-.7.2-.1.4-.3.5-.4s.4-.3.5-.4c.2-.1.4-.3.6-.4.2-.1.4-.3.6-.4.2-.2.4-.3.6-.5.5-.4,1-.8,1.5-1.2.2-.2.4-.3.6-.5.2-.2.5-.4.7-.6.6-.5,1.1-1,1.7-1.5.8-.8,1.7-1.6,2.5-2.4.2-.2.3-.3.5-.5.2-.2.3-.3.5-.5.5-.5.9-.9,1.4-1.4.2-.2.5-.5.7-.8.8-.9,1.6-1.7,2.3-2.6.4-.4.8-.9,1.1-1.3.3-.3.6-.7.8-1,.3-.3.5-.7.8-1,.6-.7,1.1-1.4,1.6-2.1.3-.4.5-.7.8-1.1s.5-.8.8-1.1c0,0,0,0,0,0h0c.2-.3.4-.7.7-1,.2-.4.5-.7.7-1.1.3-.5.7-1,1-1.5,0,0,0,0,0-.1.2-.3.4-.6.6-.9,0,0,0,0,0,0,.2-.4.5-.8.7-1.2.2-.3.4-.7.6-1,.1-.2.2-.3.3-.5,0,0,.1-.2.1-.3.2-.3.3-.6.5-.9,0,0,0,0,0,0,0,0,0,0,0-.1,0-.1.2-.3.2-.4,0,0,.1-.2.2-.3,0,0,0-.1,0-.2.2-.3.3-.7.5-1l.6-1.1c.1-.3.3-.6.4-.9.2-.3.3-.6.5-.9.1-.3.3-.6.4-.9.2-.5.4-.9.6-1.4.2-.5.4-1,.6-1.4.2-.5.4-1,.6-1.5s.4-1,.6-1.5c.1-.3.2-.7.4-1,0-.3.2-.6.3-.9.1-.3.2-.6.3-.9.3-1.1.7-2.1,1-3.2.1-.4.2-.9.4-1.3,0,0,0,0,0,0,0,0,0-.2,0-.3.2-.8.4-1.6.6-2.4.1-.5.3-1.1.4-1.7,0,0,0,0,0,0,0,0,0,0,0,0,.2-.7.3-1.4.4-2.1.2-1.1.4-2.2.6-3.4,0-.3.1-.6.2-1,0-.3,0-.5.1-.8,0-.4.1-.8.2-1.2,0-.4,0-.8.2-1.2,0-.6.1-1.2.2-1.8,0-.3,0-.7,0-1,0-.4,0-.8,0-1.2,0-.4,0-.8,0-1.2,0-.3,0-.6,0-1,0-.3,0-.5,0-.8,0-.6,0-1.2,0-1.8h0c0-.1,0-.1,0-.1h0v-.2h0c0-.6,0-1.1,0-1.7,0-1.4,0-2.9,0-4.3ZM372.6,119.1c-.1-.5-.2-.9-.3-1.4,0-.5-.2-.9-.3-1.4,0-.5-.2-1-.2-1.4-.1-.9-.3-1.9-.4-2.8,0,0,0,0,0-.1,0,0,0,0,0-.1,0,0,0-.1,0-.2,0-.4,0-.8-.1-1.1-.1-1.5-.2-3-.2-4.5s0-3,.2-4.5c0-.4,0-.8.1-1.1,0,0,0-.1,0-.2,0,0,0,0,0-.1,0,0,0,0,0-.1,0-.9.2-1.9.4-2.8,0-.5.2-1,.2-1.4,0-.5.2-1,.3-1.4.1-.5.2-.9.3-1.4.2-.9.4-1.9.7-2.8.1-.4.2-.9.4-1.3,0,0,0-.1,0-.2.1-.4.2-.8.4-1.2,0,0,0,0,0-.1.1-.4.3-.9.5-1.3.3-.9.7-1.8,1-2.6.2-.4.4-.9.6-1.3.1-.3.2-.5.4-.8,0,0,0,0,0,0,0-.2.2-.4.3-.5,0-.2.2-.4.3-.5.3-.6.6-1.2.9-1.8.2-.4.4-.8.7-1.2,0-.1.2-.3.2-.4,0-.2.2-.3.2-.4.3-.5.6-1,1-1.6.5-.8,1-1.6,1.6-2.3.5-.8,1.1-1.5,1.7-2.2.3-.4.6-.7.9-1.1.2-.3.5-.6.8-.9.3-.4.7-.8,1-1.2.6-.7,1.3-1.3,1.9-2s.7-.7,1-1c.3-.3.6-.6.9-.9,0,0,0,0,0,0,.3-.3.7-.6,1-.9.5-.5,1.1-.9,1.7-1.4.4-.3.7-.6,1.1-.8.3-.2.6-.5.9-.7.5-.4,1.1-.8,1.6-1.1.2-.2.5-.3.7-.5.5-.4,1.1-.7,1.7-1.1.3-.2.6-.4,1-.6.2-.2.5-.3.8-.5.3-.2.6-.3.9-.5.5-.2.9-.5,1.4-.7.2-.1.5-.2.7-.4s.5-.2.7-.3c.2-.1.5-.2.7-.3.4-.2.8-.4,1.2-.5.5-.2,1.1-.4,1.6-.7.4-.2.9-.3,1.3-.5.7-.3,1.4-.5,2.2-.7,0,0,0,0,0,0,.4-.1.8-.2,1.1-.4.4-.1.8-.2,1.2-.3,0,0,0,0,0,0,.4-.1.9-.2,1.3-.3.4,0,.8-.2,1.2-.3.3,0,.6-.1.9-.2.1,0,.3,0,.5,0,.3,0,.7-.1,1-.2.4,0,.7-.1,1.1-.2.4,0,.9-.1,1.3-.2,0,0,.1,0,.2,0,.6,0,1.2-.2,1.8-.2.5,0,1.1-.1,1.6-.1,0,0,.1,0,.2,0,.2,0,.5,0,.7,0,.4,0,.9,0,1.3,0,.1,0,.2,0,.3,0,.3,0,.5,0,.8,0,.4,0,.8,0,1.1,0s1,0,1.5,0c.3,0,.6,0,.9,0,.4,0,.7,0,1.1,0,.1,0,.3,0,.4,0,0,0,.1,0,.2,0s.1,0,.2,0c.2,0,.4,0,.5,0,.2,0,.4,0,.5,0,0,0,.2,0,.3,0,.5,0,1.1.1,1.6.2,1.3.2,2.6.4,3.9.6.4,0,.8.2,1.2.3.5.1,1,.2,1.4.3.4,0,.8.2,1.1.3,0,0,.2,0,.3,0,0,0,0,0,0,0,.3,0,.6.2.9.2,0,0,0,0,0,0,0,0,.1,0,.2,0,0,0,.1,0,.2,0,0,0,.1,0,.2,0,.4.1.9.3,1.3.4.4.1.7.2,1.1.4.4.1.8.3,1.2.4.8.3,1.5.6,2.3.9.4.2.9.4,1.3.6.3.1.6.3.9.4,0,0,0,0,0,0,.2,0,.4.2.6.3.3.1.6.3,1,.5,0,0,0,0,0,0,.3.2.6.3.9.5-4.1-1-8.4-1.6-12.8-1.6-29,0-52.7,23.6-52.7,52.7s23.6,52.7,52.7,52.7,8.7-.5,12.8-1.6c-.3.2-.6.3-.9.5,0,0,0,0,0,0-.3.2-.6.3-1,.5-.2.1-.4.2-.6.3,0,0,0,0,0,0-.3.1-.6.3-.9.4-.4.2-.9.4-1.3.6-.7.3-1.5.6-2.3.9-.4.2-.8.3-1.2.4-.4.1-.7.3-1.1.4-.4.1-.9.3-1.3.4,0,0-.1,0-.2,0,0,0-.1,0-.2,0,0,0-.1,0-.2,0,0,0,0,0,0,0-.3,0-.6.2-.9.2,0,0,0,0,0,0,0,0-.2,0-.3,0-.4,0-.7.2-1.1.3-.5.1-.9.2-1.4.3-.4,0-.8.2-1.2.3-1.3.3-2.6.5-3.9.6-.5,0-1.1.1-1.6.2,0,0-.2,0-.3,0-.2,0-.4,0-.5,0-.2,0-.4,0-.5,0,0,0-.1,0-.2,0s-.1,0-.2,0c-.1,0-.3,0-.4,0-.4,0-.7,0-1.1,0-.3,0-.6,0-.9,0-.5,0-1,0-1.5,0s-.8,0-1.1,0c-.3,0-.5,0-.8,0-.1,0-.2,0-.3,0-.4,0-.8,0-1.3,0-.2,0-.5,0-.7,0,0,0-.1,0-.2,0-.5,0-1.1,0-1.6-.1-.6,0-1.2-.1-1.8-.2,0,0-.1,0-.2,0-.4,0-.9-.1-1.3-.2-.4,0-.7-.1-1.1-.2-.3,0-.7-.1-1-.2-.3,0-.6-.1-.9-.2-.5-.1-1.1-.2-1.6-.4-.4,0-.9-.2-1.3-.3,0,0,0,0,0,0-.4-.1-.8-.2-1.2-.3-.4-.1-.8-.2-1.1-.4,0,0,0,0,0,0-.7-.2-1.4-.5-2.2-.7-.4-.2-.9-.3-1.3-.5-.5-.2-1.1-.4-1.6-.6-1.6-.7-3.2-1.5-4.8-2.3-.3-.2-.6-.3-.9-.5-.3-.1-.5-.3-.8-.5-.3-.2-.6-.4-1-.6-.6-.4-1.1-.7-1.7-1.1-.2-.2-.5-.3-.7-.5-.5-.4-1.1-.8-1.6-1.1-.3-.2-.6-.4-.9-.7-.4-.3-.7-.6-1.1-.8-.6-.5-1.1-.9-1.7-1.4-.4-.3-.7-.6-1-.9,0,0,0,0,0,0-.3-.3-.6-.6-.9-.9-.3-.3-.7-.6-1-1-.7-.7-1.3-1.3-1.9-2-.4-.4-.7-.8-1-1.2-.3-.3-.5-.6-.8-.9-.3-.4-.6-.7-.9-1.1-.6-.7-1.1-1.5-1.7-2.2-.5-.8-1.1-1.5-1.6-2.3-.3-.5-.7-1-1-1.6,0-.1-.2-.3-.2-.4,0-.1-.2-.3-.2-.4-.2-.4-.4-.8-.7-1.2-.3-.6-.6-1.2-.9-1.8,0-.2-.2-.4-.3-.5,0-.2-.2-.4-.3-.5,0,0,0,0,0,0-.1-.3-.3-.6-.4-.8-.2-.4-.4-.9-.6-1.3-.4-.9-.7-1.7-1-2.6-.2-.4-.3-.9-.5-1.3,0,0,0,0,0-.1-.1-.4-.3-.8-.4-1.2,0,0,0-.1,0-.2-.1-.4-.3-.8-.4-1.3-.3-.9-.5-1.8-.7-2.8ZM472.3,138.4c-.4.3-.8.7-1.2,1h0c-.4.3-.8.7-1.2,1-.1,0-.2.2-.3.2-.1,0-.2.2-.3.2-.2.2-.4.3-.7.5-.4.3-.9.6-1.3.9-.1,0-.3.2-.5.3-.1,0-.3.2-.5.3-.3.2-.5.3-.8.5-.2.1-.4.3-.6.4-.2.1-.4.2-.7.4,0,0-.1,0-.2.1,0,0-.2,0-.3.1-.2,0-.4.2-.6.3,0,0,0,0-.2,0,0,0,0,0,0,0-.3.2-.6.3-1,.5-.2,0-.4.2-.5.2-.4.2-.7.3-1.1.5-.3.1-.6.2-.8.3-.3.1-.6.2-.9.4-.3.1-.6.2-.9.3-.3.1-.7.2-1,.3-.3,0-.7.2-1,.3-.4.1-.8.2-1.2.3-.4,0-.8.2-1.3.3,0,0,0,0,0,0-.4,0-.7.1-1.1.2,0,0,0,0,0,0-.2,0-.4,0-.6.1-.4,0-.8.1-1.2.2-.3,0-.6,0-.8.1-.4,0-.8,0-1.2.1,0,0-.2,0-.3,0,0,0-.1,0-.2,0,0,0-.1,0-.2,0,0,0-.2,0-.3,0,0,0-.1,0-.2,0,0,0-.1,0-.2,0-.2,0-.5,0-.8,0-.5,0-.9,0-1.4,0-.4,0-.7,0-1.1,0-.7,0-1.3,0-1.9,0-.7,0-1.3,0-1.9-.1-.6,0-1.3-.1-1.9-.2-.5,0-.9-.1-1.4-.2-.5,0-.9-.2-1.4-.2-.5,0-.9-.2-1.4-.3-.4,0-.8-.2-1.2-.3h-.1s0,0-.1,0c-.3,0-.6-.2-.8-.2-.3-.1-.7-.2-1-.3,0,0,0,0,0,0-.5-.2-1.1-.4-1.6-.5-.7-.2-1.3-.5-2-.8-.6-.3-1.3-.6-1.9-.9h0c-.6-.3-1.2-.6-1.9-1-.6-.3-1.2-.7-1.8-1,0,0,0,0,0,0-.2-.1-.5-.3-.7-.4-.2-.1-.4-.2-.6-.4,0,0,0,0-.1,0-.4-.3-.8-.5-1.2-.8-.6-.4-1.1-.8-1.7-1.2t0,0c-1.1-.9-2.1-1.8-3.1-2.7t0,0c-.3-.2-.5-.5-.7-.7-.4-.4-.8-.9-1.2-1.3-.4-.5-.8-.9-1.2-1.4,0,0,0,0,0,0-.4-.5-.8-.9-1.1-1.4-.4-.5-.8-1-1.1-1.5-.4-.6-.8-1.1-1.2-1.7h0c-.4-.6-.7-1.2-1.1-1.8-.4-.6-.7-1.3-1-1.9-.2-.3-.3-.6-.4-.9,0,0,0,0,0,0,0,0,0-.1,0-.2,0-.2-.2-.3-.2-.5,0-.1-.1-.2-.2-.4-.2-.3-.3-.6-.4-1-.1-.3-.2-.6-.3-.8-.3-.7-.5-1.3-.7-2-.1-.3-.2-.6-.3-.9-.2-.7-.4-1.4-.6-2.1-.2-.7-.3-1.4-.5-2.1-.6-2.8-.9-5.7-.9-8.7s0-1,0-1.6c0-.3,0-.7,0-1,0-.3,0-.5,0-.8,0,0,0,0,0,0,0-.4,0-.8.1-1.2,0-.5.1-.9.2-1.4,0,0,0-.1,0-.2,0-.4.1-.7.2-1.1,0-.2,0-.4.1-.7,0,0,0,0,0,0,0-.4.1-.8.2-1.2,0-.4.2-.8.3-1.2,0-.2,0-.3.1-.5.1-.4.2-.8.3-1.2,0-.3.2-.6.2-.8,0-.3.2-.7.3-1,.1-.3.2-.7.3-1h0c.2-.7.5-1.3.8-2,.3-.6.6-1.3.9-1.9h0c.3-.7.6-1.3,1-1.9.2-.5.5-.9.8-1.4.1-.2.3-.5.4-.7.1-.2.3-.5.4-.7,0,0,.1-.2.2-.3.3-.5.6-1,1-1.4h0c.3-.5.7-1,1.1-1.4,0,0,0,0,0,0,.3-.3.5-.7.8-1,0,0,0-.1.1-.2.1-.2.3-.3.4-.5,0,0,0-.1.1-.2.3-.3.6-.6.9-1,.4-.5.8-.9,1.3-1.3.2-.2.5-.5.8-.7.2-.2.4-.4.6-.6,0,0,0,0,0,0,0,0,.1-.1.2-.2.2-.2.4-.4.7-.6.5-.5,1-.9,1.6-1.3h0c.5-.4,1.1-.8,1.7-1.2.3-.2.6-.4.9-.6h0c.5-.3.9-.6,1.4-.9.4-.3.8-.5,1.2-.8.3-.2.6-.3.9-.5.2-.1.5-.2.7-.4.2,0,.4-.2.6-.3.2-.1.4-.2.6-.3.3-.1.5-.3.8-.4,0,0,.1,0,.2,0,0,0,0,0,0,0,.3-.1.6-.3.9-.4.6-.3,1.3-.5,2-.8.3-.1.7-.2,1-.3.3-.1.7-.2,1-.3.2,0,.4-.1.6-.2,0,0,.1,0,.2,0,0,0,0,0,0,0,0,0,.2,0,.3,0,.3,0,.5-.2.8-.2.8-.2,1.6-.4,2.3-.5.3,0,.6-.1.9-.2.7-.1,1.4-.2,2.1-.3.3,0,.5,0,.8-.1,0,0,0,0,.1,0,.2,0,.4,0,.6,0,.3,0,.6,0,.9,0,.3,0,.6,0,.9,0,.4,0,.7,0,1.1,0,.4,0,.8,0,1.1,0h.6c.2,0,.4,0,.6,0,.3,0,.5,0,.8,0,.4,0,.8,0,1.3,0,0,0,0,0,.1,0,.4,0,.8,0,1.1,0,0,0,0,0,.1,0,.5,0,1.1.1,1.6.2.2,0,.3,0,.5,0,0,0,.2,0,.3,0,.2,0,.5,0,.8.1,0,0,0,0,0,0,0,0,0,0,0,0,.2,0,.4,0,.6.1,0,0,0,0,0,0,0,0,.1,0,.2,0h0c.4,0,.8.2,1.3.3.3,0,.6.2.9.2.3,0,.6.2,1,.3,0,0,0,0,0,0,.5.1.9.3,1.4.4.2,0,.4.1.6.2.3.1.7.2,1,.3h0c.7.2,1.3.5,2,.8h0c.6.3,1.3.6,1.9.9.3.2.7.3,1,.5.3.1.6.3.8.5.3.2.6.3.9.5.2.1.5.3.7.4.2,0,.3.2.4.3.2.1.4.3.7.4,0,0,.2.1.3.2,0,0,0,0,0,0,0,0,0,0,0,0,.3.2.5.3.8.5.2.1.4.3.6.4.6.4,1.1.8,1.7,1.2.3.2.6.4.8.7.3.2.5.4.8.7.3.2.5.4.8.7,0,0,0,0,0,0,.2.2.5.4.7.7h0c.1.1.2.3.4.4l.4.4c.3.3.6.6.9.9,0,0,0,.1.1.2-5.3-3.3-11.6-5.2-18.3-5.2-19.2,0-34.8,15.6-34.8,34.8s15.6,34.8,34.8,34.8,13-1.9,18.3-5.2c-.3.4-.7.7-1,1.1s-.5.5-.8.7c-.4.4-.8.7-1.2,1.1ZM483.5,109.4c0,.1,0,.3,0,.4,0,.2,0,.3,0,.5,0,0,0,.2,0,.3h0c0,.2,0,.3,0,.5h0c0,.2,0,.4-.1.6,0,0,0,0,0,.1h0s0,0,0,0c0,0,0,.1,0,.2-.1.5-.3,1.1-.4,1.6,0,0,0,0,0,0,0,0,0,0,0,.1,0,.1,0,.3-.1.4,0,.1,0,.2-.1.3,0,0,0,0,0,0,0,0,0,.1,0,.2,0,0,0,.1,0,.2,0,0,0,.1,0,.2,0,.2-.1.4-.2.6,0,0,0,.2-.1.3,0,.1-.1.3-.2.4,0,0,0,0,0,.1,0,.2-.2.5-.3.7h0s0,0,0,0c0,0,0,0,0,.1,0,0,0,.1,0,.2,0,0,0,0,0,0-.1.3-.3.5-.4.8,0,0,0,.1-.1.2-.1.2-.2.4-.3.6,0,0,0,0,0,0h0c-.1.2-.3.5-.4.7-.2.2-.3.5-.4.7-.1.2-.3.4-.4.6,0,0,0,0,0,0h0s0,0,0,0c0,0,0,0,0,.1,0,0,0,0-.1.2,0,.1-.1.2-.2.3h0s0,0,0,.1c-.1.2-.3.4-.4.5-.3.4-.7.8-1.1,1.2-.4.4-.7.8-1.1,1.1,0,0-.2.2-.3.3,0,0-.2.2-.3.3-.2.2-.4.4-.6.5-.2.2-.4.3-.6.5,0,0,0,0,0,0h0s0,0,0,0c0,0,0,0-.1,0,0,0,0,0-.1,0-.1.1-.3.2-.4.3-.2.1-.4.3-.5.4-.2.1-.4.3-.7.5-.4.2-.7.5-1.1.7-.7.4-1.5.9-2.3,1.2h0c-1.6.8-3.2,1.4-4.9,1.8-.4.1-.9.2-1.3.3-1.8.3-3.6.5-5.4.5s-1.4,0-2.1,0c-.3,0-.6,0-1,0,0,0-.1,0-.2,0,0,0-.1,0-.2,0h-.2s0,0,0,0c0,0-.2,0-.3,0,0,0-.2,0-.3,0-.3,0-.6,0-.9-.2-.3,0-.6-.1-.9-.2,0,0,0,0-.1,0-.3,0-.5-.1-.8-.2-.1,0-.3,0-.4-.1,0,0,0,0-.1,0,0,0,0,0-.1,0h0c0,0-.2,0-.3-.1-.8-.3-1.7-.6-2.5-.9-.4-.2-.8-.4-1.2-.5-.8-.4-1.5-.8-2.3-1.2-.4-.2-.8-.5-1.2-.8-.3-.2-.5-.4-.8-.6-.2-.2-.4-.3-.7-.5,0,0,0,0,0,0-.4-.3-.8-.7-1.2-1-.1-.1-.3-.2-.4-.4-.6-.5-1.1-1-1.6-1.6-.6-.6-1.1-1.3-1.6-2-.2-.3-.5-.7-.7-1,0,0,0,0,0,0-.5-.7-.9-1.4-1.3-2.2,0,0,0,0,0,0-.2-.4-.4-.8-.6-1.2-.2-.4-.4-.8-.5-1.2-.2-.4-.3-.8-.5-1.2,0,0,0,0,0,0-.1-.4-.3-.8-.4-1.2-.1-.4-.2-.8-.4-1.3h0c-.1-.4-.2-.9-.3-1.3,0-.4-.2-.9-.2-1.3,0-.4-.1-.9-.2-1.3,0-.3,0-.6,0-.9h0c0-.1,0-.2,0-.2,0,0,0,0,0-.1,0,0,0,0,0-.1v-.2s0,0,0-.1c0-.3,0-.7,0-1,0-14.8,12-26.8,26.8-26.8s.7,0,1.1,0c0,0,0,0,.1,0h.2c.4,0,.9,0,1.3.1.3,0,.7,0,1,.1,0,0,0,0,0,0,0,0,.1,0,.2,0,0,0,.2,0,.3,0,.4,0,.8.1,1.2.2.4,0,.9.2,1.3.3.4.1.9.2,1.3.4.8.3,1.6.6,2.4.9h0c.4.2.8.4,1.2.6.8.4,1.5.8,2.3,1.2,0,0,0,0,0,0,.3.2.7.4,1,.7.2.2.5.3.8.5,0,0,0,0,.1,0,.2.1.3.2.5.4.5.4,1,.8,1.5,1.2.2.2.4.3.5.5.1.1.3.3.4.4.1.1.3.3.4.5.2.2.4.5.7.7.6.6,1.1,1.3,1.6,2,.3.3.5.7.8,1.1.5.7.9,1.5,1.3,2.2,0,0,0,0,0,0,.2.3.3.6.4.9,0,0,0,0,0,0,.1.2.2.5.3.7,0,0,0,0,0,.1,0,0,0,0,0,.1.1.2.2.5.3.7,0,0,0,0,0,0,.1.3.2.6.4,1,0,0,0,0,0,0,.1.3.2.7.3,1,0,0,0,0,0,0,0,.2.1.4.2.5,0,0,0,0,0,0,0,.2.1.5.2.8,0,0,0,.1,0,.2,0,.1,0,.3,0,.4,0,0,0,0,0,.1,0,0,0,.2,0,.3,0,.4.2.7.2,1.1,0,.4.1.8.2,1.2.2,1.2.2,2.4.2,3.6s0,.7,0,1c0,.3,0,.6,0,1,0,0,0,0,0,0,0,.2,0,.5,0,.7h0c0,0,0,.1,0,.2,0,.2,0,.4,0,.5ZM450.1,170.4c-.4.2-.7.4-1.1.6-.5.3-.9.5-1.4.8-.4.2-.9.5-1.3.7-.5.3-1.1.5-1.6.8-.4.2-.7.3-1.1.5-.4.2-.8.3-1.1.5,0,0,0,0,0,0-.9.4-1.8.8-2.7,1.1-.6.2-1.1.4-1.7.6-.5.2-.9.4-1.4.5,0,0-.1,0-.2,0,0,0-.1,0-.2,0-.5.2-1.1.4-1.6.5,0,0-.1,0-.2,0,0,0,0,0,0,0-.5.2-1.1.3-1.6.5-.5.1-1,.3-1.5.4-.5.1-.9.2-1.4.4-.6.1-1.1.3-1.7.4,0,0-.1,0-.2,0-.2,0-.4,0-.6.1,0,0-.1,0-.2,0-.5.1-1.1.2-1.6.3,0,0-.2,0-.2,0-.6,0-1.1.2-1.6.3,0,0,0,0,0,0-.6,0-1.1.2-1.7.2-.1,0-.3,0-.4,0-.5,0-1.1.1-1.6.2,0,0,0,0,0,0-.5,0-1,0-1.5.1-.3,0-.5,0-.8,0-.5,0-1,0-1.5,0-.4,0-.8,0-1.2,0-.4,0-.7,0-1.1,0-.5,0-1,0-1.5,0-41.2,0-74.7-33.5-74.7-74.7s0-.9,0-1.4c0,0,0-.2,0-.2,0-.3,0-.5,0-.8,0-.5,0-1,0-1.4,0-.1,0-.2,0-.4,0-.3,0-.6,0-1,0,0,0-.1,0-.2h0c0-.4,0-.7,0-1,0-.4,0-.8.1-1.2.1-1.3.3-2.6.5-3.9,0-.4.1-.7.2-1.1,0-.4.1-.8.2-1.1,0-.2,0-.5.1-.7t0,0c0-.2,0-.4.1-.6,0-.3.1-.6.2-.9,0,0,0-.1,0-.2,0,0,0-.2,0-.3.2-.7.3-1.5.5-2.2.3-1.2.7-2.4,1-3.5.4-1.2.8-2.3,1.2-3.5.4-1.1.9-2.3,1.3-3.4.5-1.1,1-2.2,1.5-3.3.3-.5.5-1.1.8-1.6.2-.3.4-.7.5-1,.2-.4.4-.8.6-1.1.1-.2.2-.4.4-.7.1-.2.2-.4.4-.6.2-.4.5-.9.8-1.3.3-.5.6-1,1-1.5.2-.3.3-.5.5-.8,0,0,0,0,0,0,0,0,0-.1.1-.2.1-.2.3-.4.4-.6,0,0,0-.1.1-.2,0,0,0,0,0,0,.2-.2.3-.5.5-.7,0,0,0,0,0,0,0,0,0,0,0-.1,0,0,.1-.2.2-.3.3-.4.6-.9.9-1.3.4-.5.7-1,1.1-1.4.5-.6.9-1.2,1.4-1.7.4-.4.7-.9,1.1-1.3.2-.2.4-.5.6-.7.4-.4.7-.8,1.1-1.2.2-.2.4-.4.6-.7.4-.4.7-.8,1.1-1.1.9-.9,1.7-1.7,2.6-2.5.4-.4.9-.8,1.3-1.1.4-.3.7-.6,1.1-.9.4-.3.7-.6,1.1-.9.3-.3.7-.5,1-.8.3-.2.7-.5,1-.8.5-.4,1-.7,1.5-1.1.5-.4,1-.7,1.5-1,1-.7,2-1.3,3-1.9.5-.3,1-.6,1.5-.9.5-.3,1-.6,1.6-.9,1.1-.6,2.1-1.1,3.2-1.6,1.1-.5,2.2-1,3.3-1.5.6-.2,1.1-.5,1.7-.7.4-.2.9-.3,1.3-.5.9-.3,1.7-.6,2.6-.9.4-.2.9-.3,1.3-.4.6-.2,1.2-.4,1.8-.5.6-.2,1.2-.3,1.8-.5.6-.2,1.2-.3,1.8-.4.6-.1,1.2-.3,1.8-.4.6-.1,1.2-.2,1.8-.3.5-.1,1.1-.2,1.6-.3,0,0,0,0,0,0,0,0,.1,0,.2,0,.6,0,1.2-.2,1.8-.2,0,0,0,0,0,0,0,0,0,0,0,0,.6,0,1.2-.1,1.8-.2.6,0,1.2-.1,1.9-.2,1.3,0,2.5-.2,3.8-.2.6,0,1.3,0,1.9,0s1,0,1.5,0c0,0,0,0,0,0,0,0,0,0,0,0,0,0,0,0,0,0h.2c0,0,.1,0,.2,0,.2,0,.4,0,.6,0h0c.4,0,.9,0,1.3,0,.3,0,.6,0,.8,0,.3,0,.6,0,.9,0,.6,0,1.2,0,1.7.2.4,0,.7,0,1.1.1.5,0,.9.1,1.4.2.5,0,.9.1,1.4.2,1.4.2,2.8.5,4.1.8.4,0,.9.2,1.4.3.6.1,1.2.3,1.8.4,1.2.3,2.4.6,3.5,1,0,0,0,0,.1,0,.5.2,1.1.3,1.6.5.5.2,1,.3,1.5.5.6.2,1.3.5,1.9.7.1,0,.2,0,.3.1.7.3,1.5.6,2.2.9.8.4,1.6.8,2.4,1.1,0,0,.2,0,.3.1,0,0,0,0,0,0,.2,0,.3.2.5.2.4.2.8.4,1.2.6.4.2.7.4,1.1.6,0,0,0,0,0,0,0,0,0,0,0,0,1.1.6,2.1,1.2,3.1,1.8,0,0,0,0,.1,0-6.9-2.4-14.4-3.7-22.1-3.7-37.2,0-67.5,30.3-67.5,67.5s30.3,67.5,67.5,67.5,15.2-1.3,22.1-3.7c-.3.2-.7.4-1.1.6Z"/>
      <path class="st0" d="M394.9,0C336.2,0,288.4,47.8,288.4,106.5s47.8,106.5,106.5,106.5,106.5-47.8,106.5-106.5S453.6,0,394.9,0ZM438.2,188.4s0,0,0,0c-.2,0-.4.2-.5.3-.2,0-.4.2-.5.3-.4.2-.7.4-1.1.6-1.1.6-2.2,1.1-3.4,1.6,0,0-.2,0-.3.1-.2,0-.3.1-.5.2-.6.3-1.2.5-1.8.8h0c0,0-.2,0-.3.1,0,0,0,0,0,0,0,0-.2,0-.3.1-.5.2-1,.4-1.5.6-.7.3-1.4.5-2.1.8-.1,0-.2,0-.3.1-.5.2-1,.3-1.5.5,0,0,0,0,0,0-.1,0-.2,0-.3.1-.7.2-1.3.5-2,.7-.2,0-.3,0-.4.1-.5.2-1.1.3-1.6.5h0s0,0,0,0c0,0-.1,0-.2,0-1.5.4-2.9.8-4.4,1.2-.7.1-1.3.3-2,.4-.4,0-.7.1-1.1.2-.5.1-1,.2-1.5.3-.7.1-1.3.2-2,.3-.4,0-.8.1-1.2.2-.5,0-1.1.1-1.6.2-.7,0-1.4.2-2.1.2,0,0-.1,0-.2,0-.8,0-1.5.1-2.2.2-.6,0-1.1,0-1.7.1,0,0,0,0-.1,0-.3,0-.5,0-.8,0-.5,0-1,0-1.5,0h-.2c-.2,0-.5,0-.7,0-.7,0-1.4,0-2.1,0s-1.6,0-2.4,0h0c-.7,0-1.4,0-2.1,0-.2,0-.4,0-.6,0-.5,0-1.1,0-1.7-.1-.2,0-.5,0-.7,0-.7,0-1.3-.1-2-.2-.7,0-1.4-.2-2-.2-.3,0-.7,0-1-.1,0,0-.1,0-.2,0-.9-.1-1.9-.3-2.8-.4,0,0-.1,0-.2,0-.5,0-1.1-.2-1.6-.3-.5,0-.9-.2-1.4-.3-.2,0-.4,0-.6-.1-.5-.1-1.1-.2-1.6-.4-.8-.2-1.5-.4-2.2-.6-.7-.2-1.5-.4-2.2-.6-.5-.2-1-.3-1.6-.5,0,0,0,0,0,0,0,0,0,0,0,0-.3,0-.6-.2-.9-.3h0c-.4-.1-.8-.2-1.1-.4,0,0-.1,0-.2,0-.3-.1-.6-.2-1-.3-.5-.2-1.1-.4-1.6-.5-.7-.2-1.3-.5-2-.8,0,0,0,0-.1,0-.5-.2-1-.4-1.5-.6-.4-.1-.7-.3-1.1-.5-.6-.2-1.1-.5-1.7-.7-.7-.3-1.5-.7-2.2-1-.8-.4-1.5-.7-2.2-1.1-.4-.2-.8-.4-1.2-.6-.3-.2-.6-.3-.9-.5,0,0-.1,0-.2,0-.3-.2-.6-.4-1-.5-.3-.2-.6-.4-.9-.5-1-.6-1.9-1.2-2.9-1.8,0,0,0,0,0,0-.3-.2-.5-.3-.8-.5-.3-.2-.5-.3-.8-.5-.6-.4-1.1-.7-1.7-1.1-.4-.3-.8-.5-1.2-.8-.3-.2-.7-.5-1-.7-.6-.4-1.1-.8-1.6-1.2,0,0,0,0-.1-.1-.2-.2-.4-.3-.7-.5-.5-.4-1-.8-1.5-1.2-.6-.5-1.2-1-1.7-1.4-.7-.6-1.3-1.2-2-1.8-.4-.3-.8-.7-1.1-1-.4-.3-.7-.7-1.1-1-.4-.4-.8-.8-1.1-1.1-.3-.3-.7-.7-1-1-.4-.4-.8-.9-1.3-1.3-.3-.3-.6-.6-.8-.9-.9-1-1.8-2-2.6-3.1-.5-.5-.9-1.1-1.3-1.6h0c-.9-1.2-1.8-2.4-2.7-3.6-.3-.5-.7-1-1-1.5-.1-.1-.2-.3-.3-.5-.4-.5-.7-1-1-1.5-.5-.7-.9-1.4-1.4-2.1-.4-.6-.8-1.3-1.1-2,0,0-.1-.2-.1-.2,0,0,0,0,0,0,0,0,0,0,0,0,0,0,0,0,0,0-.2-.3-.4-.6-.5-.9,0,0,0,0,0,0,0,0,0,0,0,0,0,0,0,0,0,0,0-.1-.2-.3-.3-.5-.2-.4-.4-.8-.7-1.2-.2-.4-.5-.9-.7-1.4-.5-.9-.9-1.8-1.3-2.7,0,0,0-.2-.1-.2,0,0,0,0,0-.1-.2-.5-.4-.9-.6-1.4,0-.2-.2-.5-.3-.7-.3-.6-.5-1.2-.8-1.8,0,0,0-.2,0-.3,0-.2-.2-.5-.3-.7,0,0,0,0,0,0-.2-.5-.4-1-.6-1.5,0-.2-.2-.4-.2-.6-.2-.5-.4-1-.5-1.5-.1-.3-.2-.6-.3-.9,0-.2-.1-.4-.2-.5-.1-.4-.2-.8-.4-1.1-.5-1.5-.9-2.9-1.2-4.4,0-.4-.2-.7-.3-1.1,0-.3-.2-.6-.2-.9,0-.3-.1-.6-.2-.9-.2-.8-.3-1.6-.5-2.5-.2-.7-.3-1.5-.4-2.2,0-.2,0-.3,0-.5,0,0,0,0,0,0v-.2s0,0,0-.2c0-.3,0-.6-.1-.8,0-.3,0-.6-.1-.9,0-.1,0-.3,0-.4,0,0,0,0,0-.1,0,0,0-.2,0-.2,0-.4,0-.7-.1-1.1,0-.4-.1-.8-.2-1.3,0-.2,0-.3,0-.5,0-.4,0-.8-.1-1.2,0-.2,0-.4,0-.6h0c0-.5,0-.9,0-1.3h0s0,0,0-.1c0,0,0-.2,0-.3,0-.1,0-.2,0-.4h0c0-.4,0-.8,0-1.1,0,0,0,0,0-.1,0-.6,0-1.1,0-1.7,0-.2,0-.5,0-.7,0-.6,0-1.3,0-1.9s0-1.6,0-2.4c0-.4,0-.8,0-1.2,0-.2,0-.3,0-.4h0c0-.4,0-.7,0-1.1,0,0,0,0,0-.1,0,0,0-.1,0-.2,0-.5,0-1,0-1.5v-.7q0,0,0,0c0-.7.1-1.5.2-2.2,0-.4,0-.7.1-1.1,0-.5.1-.9.2-1.4,0,0,0,0,0,0,0,0,0-.2,0-.2,0,0,0,0,0-.1.1-.8.2-1.6.4-2.4.1-.7.2-1.5.4-2.2,0,0,0-.2,0-.2,0,0,0,0,0,0,0-.3.1-.7.2-1,0-.3.1-.7.2-1,0,0,0-.2,0-.3,0,0,0-.2,0-.3.1-.6.3-1.2.4-1.9,0,0,0-.1,0-.2,0,0,0-.2,0-.3t0,0c.1-.5.3-1,.4-1.6,0-.3.2-.7.3-1.1.2-.6.4-1.3.6-1.9.1-.3.2-.7.3-1,.1-.3.2-.7.3-1,0-.2,0-.3.1-.5.1-.3.2-.6.3-.9,0-.3.2-.6.3-.9.1-.4.3-.8.4-1.2h0c0-.3,0-.4.1-.5.2-.5.4-1,.6-1.5,0,0,0,0,0,0,0,0,0-.2.1-.3.2-.5.4-.9.6-1.4.3-.7.6-1.4.9-2.1.6-1.4,1.3-2.7,2-4.1.2-.4.4-.8.7-1.2,0,0,0-.1,0-.2,0,0,0,0,0,0,0,0,0-.2.1-.2,0-.2.2-.4.3-.5,0,0,0-.1.1-.2,0,0,0,0,0-.1.2-.5.5-.9.8-1.4.4-.6.8-1.3,1.1-1.9.4-.6.8-1.3,1.2-1.9.8-1.3,1.6-2.5,2.5-3.7.4-.6.9-1.2,1.3-1.8.4-.6.9-1.2,1.4-1.8.4-.6.9-1.2,1.4-1.7,1.9-2.3,3.9-4.5,6-6.6.4-.4.8-.8,1.3-1.2.4-.4.8-.8,1.2-1.1h0c.4-.4.7-.7,1.1-1,.3-.3.6-.6,1-.9.3-.2.6-.5.9-.7.4-.3.8-.6,1.1-1,0,0,0,0,0,0,.6-.5,1.2-1,1.7-1.4.9-.7,1.8-1.4,2.7-2,.9-.7,1.8-1.3,2.8-1.9.6-.4,1.2-.8,1.9-1.2,1.3-.8,2.5-1.6,3.8-2.3h0c1.3-.8,2.6-1.5,3.9-2.2,1.3-.7,2.7-1.3,4.1-2,.7-.3,1.4-.6,2.1-.9.7-.3,1.4-.6,2.1-.9.7-.3,1.4-.6,2.1-.8h0c.7-.3,1.4-.5,2.1-.8.6-.2,1.2-.4,1.8-.6.3-.1.6-.2.9-.3,0,0,.1,0,.2,0,.5-.1,1-.3,1.5-.4,0,0,0,0,0,0,0,0,0,0,0,0,.7-.2,1.4-.4,2.1-.6.7-.2,1.5-.4,2.2-.5.4,0,.8-.2,1.2-.3,0,0,0,0,0,0,0,0,.1,0,.2,0,.3,0,.7-.2,1.1-.2,1.3-.3,2.7-.5,4-.7.2,0,.4,0,.6,0,.3,0,.6,0,.9-.1.2,0,.5,0,.7,0h.4c.3,0,.5-.1.8-.1,0,0,.1,0,.2,0,0,0,0,0,0,0,.2,0,.3,0,.5,0,0,0,0,0,.1,0,.4,0,.9,0,1.3-.1.4,0,.7,0,1.1,0,.4,0,.8,0,1.1,0,.7,0,1.4,0,2-.1.7,0,1.5,0,2.2,0,.8,0,1.6,0,2.4,0h0c.6,0,1.3,0,1.9,0,.2,0,.5,0,.7,0h0c.6,0,1.2,0,1.8,0h.6c.2,0,.5,0,.7,0,.1,0,.2,0,.4,0,.5,0,1.1,0,1.6.1h0c0,0,.2,0,.3,0,.4,0,.8,0,1.1.1.3,0,.6,0,.9,0,0,0,.2,0,.2,0,.1,0,.3,0,.4,0,0,0,0,0,0,0,.6,0,1.2.1,1.8.2,0,0,.2,0,.3,0,0,0,.2,0,.3,0,.2,0,.3,0,.5,0,.2,0,.3,0,.5,0,.4,0,.7.1,1.1.2,0,0,0,0,.1,0,.1,0,.3,0,.4,0,0,0,0,0,.1,0,.2,0,.4,0,.6,0,.4,0,.8.2,1.2.2,0,0,0,0,0,0,.1,0,.2,0,.4,0,.7.1,1.3.3,2,.4.4.1.9.2,1.3.3,1.1.3,2.2.5,3.4.9.5.1,1,.3,1.5.4.5.1,1.1.3,1.6.5.3.1.7.2,1,.3.3.1.7.2,1,.3.5.2,1.1.4,1.6.6.2,0,.4.1.7.2h0c.5.2.9.3,1.4.5.3.1.7.2,1,.4.4.2.8.3,1.2.5.6.3,1.2.5,1.9.8.8.3,1.5.7,2.3,1h0c.4.2.9.4,1.3.6.4.2.9.4,1.3.7.4.2.9.5,1.3.7.6.3,1.2.6,1.8,1,.6.3,1.2.7,1.7,1,.6.3,1.1.7,1.7,1,.4.2.8.5,1.1.7.4.3.8.5,1.2.8.4.3.8.6,1.2.8,1,.7,1.9,1.4,2.9,2.1.4.3.8.6,1.2.9.2.2.5.4.7.5.2.2.5.3.7.5,0,0,0,0,0,0,0,0,0,0,0,0,0,0,0,0,.1,0,0,0,.1,0,.2.1.4.3.7.6,1.1.9,0,0,0,0,0,0,.7.6,1.4,1.2,2.1,1.8.4.3.7.6,1.1,1,.4.3.7.7,1.1,1,.2.2.5.5.7.7,0,0,.1.1.2.2.1.1.2.2.3.3.1.1.3.3.4.4.1.1.3.3.4.4.6.6,1.2,1.2,1.8,1.8.2.2.4.4.6.7,0,0,.1.1.2.2,0,0,0,0,0,0,.3.4.6.7,1,1.1,0,0,0,0,.1.1.1.2.3.3.4.5.2.3.5.5.7.8.3.4.7.8,1,1.2,0,0,0,0,0,.1.4.4.7.9,1.1,1.3.2.3.4.6.7.9.4.5.7.9,1.1,1.4,0,0,0,0,0,0,0,0,.1.1.2.2,0,0,0,0,0,0,0,0,0,0,0,0,0,0,.1.1.2.2,0,0,.1.1.2.2,0,0,0,0,0,.1,0,0,0,0,0,0,0,0,0,0,0,0,0,0,0,.1.2.2.3.3.5.7.8,1.1,0,.1.2.2.2.4.3.4.6.8.9,1.3.4.5.7,1.1,1.1,1.7.3.5.6.9.9,1.4.2.3.4.6.6.9.3.5.6,1,.9,1.5,0,0,0,.2.1.2.3.5.6,1,.8,1.5,0,.1.1.2.2.3.7,1.2,1.3,2.4,1.9,3.7h0c.3.6.6,1.2.8,1.8.2.5.4.9.6,1.4.2.5.4,1,.6,1.5.2.5.4,1,.6,1.5.2.5.3.9.5,1.3,0,.2.2.5.3.8s.2.5.3.8c0,.1,0,.3.1.4.2.7.5,1.4.7,2.1.3.8.5,1.6.8,2.4.3.9.5,1.8.8,2.6.2.7.4,1.5.6,2.2t0,0c.2.6.3,1.3.4,2,0,.5.2.9.3,1.4.2.9.4,1.8.5,2.7.2,1.1.3,2.1.5,3.2,0,0,0,.2,0,.3,0,.4,0,.8.1,1.1,0,.4,0,.8.1,1.3,0,.4,0,.9.1,1.3,0,0,0,0,0,0,0,.3,0,.5,0,.8,0,.3,0,.5,0,.8h0c0,.1,0,.2,0,.3,0,0,0,0,0,.1,0,.3,0,.6,0,.9,0,.1,0,.3,0,.4,0,.1,0,.2,0,.4h0c0,0,0,.1,0,.1h0v.2c0,1.6.1,3.1.1,4.7s0,1.4,0,2h0c0,.2,0,.3,0,.3v.2h0c0,0,0,.1,0,.2,0,0,0,0,0,.1h0c0,0,0,.1,0,.2v.2c0,.2,0,.4,0,.6,0,.3,0,.5,0,.8,0,.3,0,.6,0,1,0,.4,0,.8,0,1.2,0,.4,0,.8,0,1.2,0,.3,0,.7,0,1,0,.3,0,.7-.1,1,0,.3,0,.5,0,.8,0,.4,0,.8-.2,1.2,0,.4-.1.8-.2,1.2,0,.3,0,.5-.1.8,0,.3,0,.7-.2,1,0,.5-.2,1-.2,1.5-.1.6-.2,1.3-.4,1.9-.1.7-.3,1.4-.4,2.1,0,0,0,0,0,0-.1.6-.2,1.1-.4,1.7-.2.8-.4,1.6-.6,2.4,0,0,0,.2,0,.3,0,0,0,0,0,0-.1.4-.2.9-.4,1.3-.3,1.1-.7,2.1-1,3.2,0,.3-.2.6-.3.9-.1.3-.2.6-.3.9-.1.3-.2.7-.4,1-.2.5-.4,1-.6,1.5s-.4,1-.6,1.5c-.2.5-.4.9-.6,1.4,0,.2-.1.3-.2.5-.1.3-.3.6-.4.9-.1.3-.3.6-.4.9,0,0,0,0,0,0,0,0,0,0,0,0-.1.3-.3.6-.4.9-.1.3-.3.6-.4.9l-.6,1.1c-.2.3-.3.7-.5,1,0,0,0,.1,0,.2,0,0-.1.2-.2.3,0,.1-.1.3-.2.4,0,0,0,0,0,.1,0,0,0,0,0,0-.2.3-.3.6-.5.9,0,0,0,.2-.1.3,0,.2-.2.3-.3.5-.2.3-.4.7-.6,1-.2.4-.5.8-.7,1.2,0,0,0,0,0,0-.2.3-.4.6-.6.9,0,0,0,0,0,.1-.3.5-.6,1-1,1.5-.2.4-.5.7-.7,1.1-.2.3-.4.7-.7,1h0s0,0,0,0c-.3.4-.5.8-.8,1.1s-.5.7-.8,1.1c-.5.7-1.1,1.4-1.6,2.1-.3.3-.5.7-.8,1-.3.3-.6.7-.8,1-.4.5-.8.9-1.1,1.3s-.8.9-1.2,1.3c-.4.4-.8.9-1.2,1.3-.2.2-.5.5-.7.8-.4.5-.9,1-1.4,1.4-.2.2-.3.3-.5.5-.2.2-.3.3-.5.5-.8.8-1.7,1.6-2.5,2.4-.4.4-.8.8-1.3,1.1-.2.1-.3.3-.4.4-.2.2-.5.4-.7.6-.2.2-.4.4-.6.5-.5.4-1,.8-1.5,1.2-.2.2-.4.3-.6.5-.2.1-.4.3-.6.4-.2.1-.4.3-.6.4-.2.1-.4.3-.5.4s-.4.3-.5.4c-.3.2-.6.5-.9.7,0,0,0,0,0,0-.7.5-1.3,1-2,1.4-.4.2-.7.5-1.1.7,0,0,0,0,0,0-.3.2-.5.4-.8.5,0,0,0,0-.1,0,0,0-.2.1-.3.2-.3.2-.5.4-.8.5-.2.2-.5.3-.7.4,0,0,0,0,0,0-.5.3-.9.5-1.4.8-.2.1-.3.2-.5.3-.2.1-.4.2-.7.4-.2.1-.4.2-.7.4-.4.2-.8.5-1.2.7,0,0,0,0,0,0Z"/>
    </g>
    <g>
      <path class="st0" d="M487,104.1c0-.1,0-.2,0-.3,0-.3,0-.5,0-.8,0,0,0-.1,0-.2s0,0,0-.1c0,0,0-.1,0-.2,0-.3,0-.5,0-.8h0s0,0,0,0h0c0,0,0-.1,0-.1,0-.1,0-.2,0-.4,0-.3,0-.6,0-.9,0-.1,0-.3,0-.4,0,0,0,0,0-.1,0,0,0-.2,0-.2h0c0-.2,0-.3,0-.4,0-.4,0-.9-.1-1.3,0-.3,0-.6,0-.9,0-.3,0-.6-.1-.9,0,0,0,0,0-.1,0-.2,0-.3,0-.5,0,0,0-.2,0-.3,0,0,0,0,0-.1,0-.5-.2-.9-.2-1.3h0c0,0,0-.2,0-.2,0-.4-.1-.8-.2-1.2,0-.2,0-.3,0-.5,0,0,0-.2,0-.2,0-.4-.2-.8-.2-1.2,0-.2,0-.3-.1-.5,0,0,0-.2,0-.3,0-.2-.1-.4-.2-.7,0,0,0,0,0,0,0-.4-.2-.8-.3-1.2,0-.1,0-.3,0-.4,0,0,0,0,0,0,0,0,0,0,0-.1,0-.2,0-.3-.1-.5-.2-.8-.4-1.5-.6-2.2,0-.2-.1-.5-.2-.7h0c-.1-.4-.3-.9-.4-1.3,0-.1-.1-.3-.2-.4-.2-.5-.3-.9-.5-1.4,0-.2-.1-.4-.2-.5-.1-.4-.3-.8-.4-1.2,0,0,0,0,0-.1-.2-.6-.4-1.1-.7-1.7-.2-.4-.4-.8-.5-1.2,0-.2-.2-.4-.3-.6,0-.2-.2-.4-.3-.6-.1-.3-.3-.6-.4-.9-.3-.5-.5-1.1-.8-1.6-.2-.4-.4-.8-.6-1.2-.2-.4-.4-.7-.6-1.1-.3-.5-.6-1.1-.9-1.6-.2-.3-.4-.6-.6-.9-.2-.3-.4-.6-.6-.9,0-.1-.2-.3-.3-.4-.3-.5-.6-1-.9-1.4-.2-.3-.4-.7-.7-1-.3-.4-.6-.8-.9-1.2,0,0,0,0,0,0-.3-.5-.7-1-1.1-1.4,0,0,0,0,0,0-.1-.1-.2-.3-.3-.4-.3-.3-.5-.7-.8-1-.2-.3-.5-.6-.7-.8,0,0,0,0,0,0h0c0,0,0-.1-.1-.2,0,0,0-.1-.1-.2-.2-.3-.5-.6-.7-.8-.2-.3-.5-.6-.7-.8,0-.1-.2-.2-.3-.3,0,0,0,0-.1-.1-.2-.3-.5-.5-.7-.8-.2-.2-.4-.5-.7-.7-.2-.2-.3-.4-.5-.5,0,0,0,0-.1-.1-.1-.1-.2-.2-.3-.3,0,0-.1-.1-.2-.2-.4-.4-.8-.8-1.2-1.2-.3-.3-.6-.5-.9-.8-.5-.4-.9-.8-1.4-1.2-.1-.1-.3-.2-.4-.4-.4-.4-.9-.8-1.4-1.2-.3-.3-.7-.6-1-.8-.1-.1-.3-.2-.4-.3,0,0-.1-.1-.2-.2-.4-.3-.8-.6-1.2-.9-.5-.4-1-.7-1.4-1.1-.3-.2-.7-.5-1.1-.8-1.1-.7-2.2-1.5-3.3-2.1h0c-6.9-2.4-14.4-3.7-22.1-3.7-37.2,0-67.5,30.3-67.5,67.5s30.3,67.5,67.5,67.5,15.2-1.3,22.1-3.7c.5-.3.9-.6,1.4-.9.5-.3,1-.6,1.5-1,.5-.3,1.1-.7,1.6-1.1.5-.3.9-.7,1.4-1,.7-.5,1.4-1.1,2.1-1.6.3-.2.6-.5.9-.7.4-.3.8-.7,1.2-1,.4-.3.7-.6,1.1-.9,0,0,0,0,0,0,.1,0,.2-.2.4-.3.2-.2.5-.5.8-.7h0c.3-.3.6-.6.9-.8.4-.3.7-.7,1-1,.3-.3.5-.5.8-.8.3-.3.7-.7,1-1,0,0,0,0,0-.1.3-.3.6-.7.9-1,.4-.5.9-1,1.3-1.5,0,0,0-.1.1-.2.2-.2.3-.4.5-.6.2-.2.3-.4.5-.6.4-.5.8-1,1.1-1.5.3-.4.7-.9,1-1.3,0,0,0,0,0-.1,0,0,0,0,.1-.1,0,0,0,0,0,0,.2-.3.5-.7.7-1,.2-.3.4-.5.6-.8.2-.3.4-.5.5-.8.5-.7,1-1.5,1.4-2.2.2-.4.5-.8.7-1.1,0,0,0,0,0,0,0,0,0,0,0-.1.2-.4.5-.8.7-1.3s.5-.9.7-1.3c.4-.7.7-1.3,1-2,.1-.2.2-.5.3-.7.1-.3.3-.6.4-.9,0-.1.1-.3.2-.5.2-.4.3-.7.5-1.1,0,0,.1-.2.1-.3.1-.3.3-.6.4-1,.2-.4.3-.8.5-1.2.2-.6.4-1.1.7-1.7.2-.5.4-1,.5-1.5.2-.6.4-1.1.6-1.7.2-.8.5-1.5.7-2.3.2-.7.4-1.4.6-2.2,0-.1,0-.3,0-.4,0,0,0,0,0-.1,0-.3.2-.7.2-1.1,0,0,0-.1,0-.2,0,0,0-.1,0-.2,0,0,0,0,0,0,0-.3.1-.6.2-.9.1-.7.3-1.3.4-2,0-.4.1-.8.2-1.1,0-.1,0-.3,0-.4,0-.2,0-.5.1-.8,0-.2,0-.3,0-.5,0-.1,0-.2,0-.3,0-.2,0-.4,0-.6,0-.1,0-.3,0-.4,0-.4.1-.9.2-1.3,0-.5,0-1,.1-1.4,0-.3,0-.6,0-.9,0-.5,0-.9,0-1.4,0,0,0-.1,0-.2v-.2c0,0,0-.1,0-.2h0c0,0,0-.1,0-.2h0c0-.2,0-.2,0-.2h0c0-.2,0-.2,0-.3h0v-.2h0c0-.2,0-.2,0-.3h0c0-.1,0-.2,0-.3,0-.5,0-.9,0-1.4,0-.2,0-.3,0-.5,0-.6,0-1.3,0-1.9ZM472.3,138.4c-.4.3-.8.7-1.2,1h0c-.4.3-.8.7-1.2,1-.1,0-.2.2-.3.2-.1,0-.2.2-.3.2-.2.2-.4.3-.7.5-.4.3-.9.6-1.3.9-.1,0-.3.2-.5.3-.1,0-.3.2-.5.3-.3.2-.5.3-.8.5-.2.1-.4.3-.6.4-.2.1-.4.2-.7.4,0,0-.1,0-.2.1,0,0-.2,0-.3.1-.2,0-.4.2-.6.3,0,0,0,0-.2,0,0,0,0,0,0,0-.3.2-.6.3-1,.5-.2,0-.4.2-.5.2-.4.2-.7.3-1.1.5-.3.1-.6.2-.8.3-.3.1-.6.2-.9.4-.3.1-.6.2-.9.3-.3.1-.7.2-1,.3-.3,0-.7.2-1,.3-.4.1-.8.2-1.2.3-.4,0-.8.2-1.3.3,0,0,0,0,0,0-.4,0-.7.1-1.1.2,0,0,0,0,0,0-.2,0-.4,0-.6.1-.4,0-.8.1-1.2.2-.3,0-.6,0-.8.1-.4,0-.8,0-1.2.1,0,0-.2,0-.3,0,0,0-.1,0-.2,0,0,0-.1,0-.2,0,0,0-.2,0-.3,0,0,0-.1,0-.2,0,0,0-.1,0-.2,0-.2,0-.5,0-.8,0-.5,0-.9,0-1.4,0-.4,0-.7,0-1.1,0-.7,0-1.3,0-1.9,0-.7,0-1.3,0-1.9-.1-.6,0-1.3-.1-1.9-.2-.5,0-.9-.1-1.4-.2-.5,0-.9-.2-1.4-.2-.5,0-.9-.2-1.4-.3-.4,0-.8-.2-1.2-.3h-.1s0,0-.1,0c-.3,0-.6-.2-.8-.2-.3-.1-.7-.2-1-.3,0,0,0,0,0,0-.5-.2-1.1-.4-1.6-.5-.7-.2-1.3-.5-2-.8-.6-.3-1.3-.6-1.9-.9h0c-.6-.3-1.2-.6-1.9-1-.6-.3-1.2-.7-1.8-1,0,0,0,0,0,0-.2-.1-.5-.3-.7-.4-.2-.1-.4-.2-.6-.4,0,0,0,0-.1,0-.4-.3-.8-.5-1.2-.8-.6-.4-1.1-.8-1.7-1.2t0,0c-1.1-.9-2.1-1.8-3.1-2.7t0,0c-.3-.2-.5-.5-.7-.7-.4-.4-.8-.9-1.2-1.3-.4-.5-.8-.9-1.2-1.4,0,0,0,0,0,0-.4-.5-.8-.9-1.1-1.4-.4-.5-.8-1-1.1-1.5-.4-.6-.8-1.1-1.2-1.7h0c-.4-.6-.7-1.2-1.1-1.8-.4-.6-.7-1.3-1-1.9-.2-.3-.3-.6-.4-.9,0,0,0,0,0,0,0,0,0-.1,0-.2,0-.2-.2-.3-.2-.5,0-.1-.1-.2-.2-.4-.2-.3-.3-.6-.4-1-.1-.3-.2-.6-.3-.8-.3-.7-.5-1.3-.7-2-.1-.3-.2-.6-.3-.9-.2-.7-.4-1.4-.6-2.1-.2-.7-.3-1.4-.5-2.1-.6-2.8-.9-5.7-.9-8.7s0-1,0-1.6c0-.3,0-.7,0-1,0-.3,0-.5,0-.8,0,0,0,0,0,0,0-.4,0-.8.1-1.2,0-.5.1-.9.2-1.4,0,0,0-.1,0-.2,0-.4.1-.7.2-1.1,0-.2,0-.4.1-.7,0,0,0,0,0,0,0-.4.1-.8.2-1.2,0-.4.2-.8.3-1.2,0-.2,0-.3.1-.5.1-.4.2-.8.3-1.2,0-.3.2-.6.2-.8,0-.3.2-.7.3-1,.1-.3.2-.7.3-1h0c.2-.7.5-1.3.8-2,.3-.6.6-1.3.9-1.9h0c.3-.7.6-1.3,1-1.9.2-.5.5-.9.8-1.4.1-.2.3-.5.4-.7.1-.2.3-.5.4-.7,0,0,.1-.2.2-.3.3-.5.6-1,1-1.4h0c.3-.5.7-1,1.1-1.4,0,0,0,0,0,0,.3-.3.5-.7.8-1,0,0,0-.1.1-.2.1-.2.3-.3.4-.5,0,0,0-.1.1-.2.3-.3.6-.6.9-1,.4-.5.8-.9,1.3-1.3.2-.2.5-.5.8-.7.2-.2.4-.4.6-.6,0,0,0,0,0,0,0,0,.1-.1.2-.2.2-.2.4-.4.7-.6.5-.5,1-.9,1.6-1.3h0c.5-.4,1.1-.8,1.7-1.2.3-.2.6-.4.9-.6h0c.5-.3.9-.6,1.4-.9.4-.3.8-.5,1.2-.8.3-.2.6-.3.9-.5.2-.1.5-.2.7-.4.2,0,.4-.2.6-.3.2-.1.4-.2.6-.3.3-.1.5-.3.8-.4,0,0,.1,0,.2,0,0,0,0,0,0,0,.3-.1.6-.3.9-.4.6-.3,1.3-.5,2-.8.3-.1.7-.2,1-.3.3-.1.7-.2,1-.3.2,0,.4-.1.6-.2,0,0,.1,0,.2,0,0,0,0,0,0,0,0,0,.2,0,.3,0,.3,0,.5-.2.8-.2.8-.2,1.6-.4,2.3-.5.3,0,.6-.1.9-.2.7-.1,1.4-.2,2.1-.3.3,0,.5,0,.8-.1,0,0,0,0,.1,0,.2,0,.4,0,.6,0,.3,0,.6,0,.9,0,.3,0,.6,0,.9,0,.4,0,.7,0,1.1,0,.4,0,.8,0,1.1,0h.6c.2,0,.4,0,.6,0,.3,0,.5,0,.8,0,.4,0,.8,0,1.3,0,0,0,0,0,.1,0,.4,0,.8,0,1.1,0,0,0,0,0,.1,0,.5,0,1.1.1,1.6.2.2,0,.3,0,.5,0,0,0,.2,0,.3,0,.2,0,.5,0,.8.1,0,0,0,0,0,0,0,0,0,0,0,0,.2,0,.4,0,.6.1,0,0,0,0,0,0,0,0,.1,0,.2,0h0c.4,0,.8.2,1.3.3.3,0,.6.2.9.2.3,0,.6.2,1,.3,0,0,0,0,0,0,.5.1.9.3,1.4.4.2,0,.4.1.6.2.3.1.7.2,1,.3h0c.7.2,1.3.5,2,.8h0c.6.3,1.3.6,1.9.9.3.2.7.3,1,.5.3.1.6.3.8.5.3.2.6.3.9.5.2.1.5.3.7.4.2,0,.3.2.4.3.2.1.4.3.7.4,0,0,.2.1.3.2,0,0,0,0,0,0,0,0,0,0,0,0,.3.2.5.3.8.5.2.1.4.3.6.4.6.4,1.1.8,1.7,1.2.3.2.6.4.8.7.3.2.5.4.8.7.3.2.5.4.8.7,0,0,0,0,0,0,.2.2.5.4.7.7h0c.1.1.2.3.4.4l.4.4c.3.3.6.6.9.9,0,0,0,.1.1.2-5.3-3.3-11.6-5.2-18.3-5.2-19.2,0-34.8,15.6-34.8,34.8s15.6,34.8,34.8,34.8,13-1.9,18.3-5.2c-.3.4-.7.7-1,1.1s-.5.5-.8.7c-.4.4-.8.7-1.2,1.1ZM481.6,116.5s0,0,0,.1c0,.2-.2.5-.3.7h0s0,0,0,0c0,0,0,0,0,.1,0,0,0,.1,0,.2,0,0,0,0,0,0-.1.3-.3.5-.4.8,0,0,0,.1-.1.2-.1.2-.2.4-.3.6,0,0,0,0,0,0h0c-.1.2-.3.5-.4.7-.2.2-.3.5-.4.7-.1.2-.3.4-.4.6,0,0,0,0,0,0h0s0,0,0,0c0,0,0,0,0,.1,0,0,0,0-.1.2,0,.1-.1.2-.2.3h0s0,0,0,.1c-.1.2-.3.4-.4.5-.3.4-.7.8-1.1,1.2-.4.4-.7.8-1.1,1.1,0,0-.2.2-.3.3,0,0-.2.2-.3.3-.2.2-.4.4-.6.5-.2.2-.4.3-.6.5,0,0,0,0,0,0h0s0,0,0,0c0,0,0,0-.1,0,0,0,0,0-.1,0-.1.1-.3.2-.4.3-.2.1-.4.3-.5.4-.2.1-.4.3-.7.5-.4.2-.7.5-1.1.7-.7.4-1.5.9-2.3,1.2h0c-1.6.8-3.2,1.4-4.9,1.8-.4.1-.9.2-1.3.3-1.8.3-3.6.5-5.4.5s-1.4,0-2.1,0c-.3,0-.6,0-1,0,0,0-.1,0-.2,0,0,0-.1,0-.2,0h-.2s0,0,0,0c0,0-.2,0-.3,0,0,0-.2,0-.3,0-.3,0-.6,0-.9-.2-.3,0-.6-.1-.9-.2,0,0,0,0-.1,0-.3,0-.5-.1-.8-.2-.1,0-.3,0-.4-.1,0,0,0,0-.1,0,0,0,0,0-.1,0h0c0,0-.2,0-.3-.1-.8-.3-1.7-.6-2.5-.9-.4-.2-.8-.4-1.2-.5-.8-.4-1.5-.8-2.3-1.2-.4-.2-.8-.5-1.2-.8-.3-.2-.5-.4-.8-.6-.2-.2-.4-.3-.7-.5,0,0,0,0,0,0-.4-.3-.8-.7-1.2-1-.1-.1-.3-.2-.4-.4-.6-.5-1.1-1-1.6-1.6-.6-.6-1.1-1.3-1.6-2-.2-.3-.5-.7-.7-1,0,0,0,0,0,0-.5-.7-.9-1.4-1.3-2.2,0,0,0,0,0,0-.2-.4-.4-.8-.6-1.2-.2-.4-.4-.8-.5-1.2-.2-.4-.3-.8-.5-1.2,0,0,0,0,0,0-.1-.4-.3-.8-.4-1.2-.1-.4-.2-.8-.4-1.3h0c-.1-.4-.2-.9-.3-1.3,0-.4-.2-.9-.2-1.3,0-.4-.1-.9-.2-1.3,0-.3,0-.6,0-.9h0c0-.1,0-.2,0-.2,0,0,0,0,0-.1,0,0,0,0,0-.1v-.2s0,0,0-.1c0-.3,0-.7,0-1,0-14.8,12-26.8,26.8-26.8s.7,0,1.1,0c0,0,0,0,.1,0h.2c.4,0,.9,0,1.3.1.3,0,.7,0,1,.1,0,0,0,0,0,0,0,0,.1,0,.2,0,0,0,.2,0,.3,0,.4,0,.8.1,1.2.2.4,0,.9.2,1.3.3.4.1.9.2,1.3.4.8.3,1.6.6,2.4.9h0c.4.2.8.4,1.2.6.8.4,1.5.8,2.3,1.2,0,0,0,0,0,0,.3.2.7.4,1,.7.2.2.5.3.8.5,0,0,0,0,.1,0,.2.1.3.2.5.4.5.4,1,.8,1.5,1.2.2.2.4.3.5.5.1.1.3.3.4.4.1.1.3.3.4.5.2.2.4.5.7.7.6.6,1.1,1.3,1.6,2,.3.3.5.7.8,1.1.5.7.9,1.5,1.3,2.2,0,0,0,0,0,0,.2.3.3.6.4.9,0,0,0,0,0,0,.1.2.2.5.3.7,0,0,0,0,0,.1,0,0,0,0,0,.1.1.2.2.5.3.7,0,0,0,0,0,0,.1.3.2.6.4,1,0,0,0,0,0,0,.1.3.2.7.3,1,0,0,0,0,0,0,0,.2.1.4.2.5,0,0,0,0,0,0,0,.2.1.5.2.8,0,0,0,.1,0,.2,0,.1,0,.3,0,.4,0,0,0,0,0,.1,0,0,0,.2,0,.3,0,.4.2.7.2,1.1,0,.4.1.8.2,1.2.2,1.2.2,2.4.2,3.6s0,.7,0,1c0,.3,0,.6,0,1,0,0,0,0,0,0,0,.2,0,.5,0,.7h0c0,0,0,.1,0,.2,0,.2,0,.4,0,.5,0,.1,0,.3,0,.4,0,.2,0,.3,0,.5,0,0,0,.2,0,.3h0c0,.2,0,.3,0,.5h0c0,.2,0,.4-.1.6,0,0,0,0,0,.1h0s0,0,0,0c0,0,0,.1,0,.2-.1.5-.3,1.1-.4,1.6,0,0,0,0,0,0,0,0,0,0,0,.1,0,.1,0,.3-.1.4,0,.1,0,.2-.1.3,0,0,0,0,0,0,0,0,0,.1,0,.2,0,0,0,.1,0,.2,0,0,0,.1,0,.2,0,.2-.1.4-.2.6,0,0,0,.2-.1.3,0,.1-.1.3-.2.4ZM455.4,157.6c-.3.2-.6.3-1,.5-.2.1-.4.2-.6.3,0,0,0,0,0,0-.3.1-.6.3-.9.4-.4.2-.9.4-1.3.6-.7.3-1.5.6-2.3.9-.4.2-.8.3-1.2.4-.4.1-.7.3-1.1.4-.4.1-.9.3-1.3.4,0,0-.1,0-.2,0,0,0-.1,0-.2,0,0,0-.1,0-.2,0,0,0,0,0,0,0-.3,0-.6.2-.9.2,0,0,0,0,0,0,0,0-.2,0-.3,0-.4,0-.7.2-1.1.3-.5.1-.9.2-1.4.3-.4,0-.8.2-1.2.3-1.3.3-2.6.5-3.9.6-.5,0-1.1.1-1.6.2,0,0-.2,0-.3,0-.2,0-.4,0-.5,0-.2,0-.4,0-.5,0,0,0-.1,0-.2,0s-.1,0-.2,0c-.1,0-.3,0-.4,0-.4,0-.7,0-1.1,0-.3,0-.6,0-.9,0-.5,0-1,0-1.5,0s-.8,0-1.1,0c-.3,0-.5,0-.8,0-.1,0-.2,0-.3,0-.4,0-.8,0-1.3,0-.2,0-.5,0-.7,0,0,0-.1,0-.2,0-.5,0-1.1,0-1.6-.1-.6,0-1.2-.1-1.8-.2,0,0-.1,0-.2,0-.4,0-.9-.1-1.3-.2-.4,0-.7-.1-1.1-.2-.3,0-.7-.1-1-.2-.3,0-.6-.1-.9-.2-.5-.1-1.1-.2-1.6-.4-.4,0-.9-.2-1.3-.3,0,0,0,0,0,0-.4-.1-.8-.2-1.2-.3-.4-.1-.8-.2-1.1-.4,0,0,0,0,0,0-.7-.2-1.4-.5-2.2-.7-.4-.2-.9-.3-1.3-.5-.5-.2-1.1-.4-1.6-.6-1.6-.7-3.2-1.5-4.8-2.3-.3-.2-.6-.3-.9-.5-.3-.1-.5-.3-.8-.5-.3-.2-.6-.4-1-.6-.6-.4-1.1-.7-1.7-1.1-.2-.2-.5-.3-.7-.5-.5-.4-1.1-.8-1.6-1.1-.3-.2-.6-.4-.9-.7-.4-.3-.7-.6-1.1-.8-.6-.5-1.1-.9-1.7-1.4-.4-.3-.7-.6-1-.9,0,0,0,0,0,0-.3-.3-.6-.6-.9-.9-.3-.3-.7-.6-1-1-.7-.7-1.3-1.3-1.9-2-.4-.4-.7-.8-1-1.2-.3-.3-.5-.6-.8-.9-.3-.4-.6-.7-.9-1.1-.6-.7-1.1-1.5-1.7-2.2-.5-.8-1.1-1.5-1.6-2.3-.3-.5-.7-1-1-1.6,0-.1-.2-.3-.2-.4,0-.1-.2-.3-.2-.4-.2-.4-.4-.8-.7-1.2-.3-.6-.6-1.2-.9-1.8,0-.2-.2-.4-.3-.5,0-.2-.2-.4-.3-.5,0,0,0,0,0,0-.1-.3-.3-.6-.4-.8-.2-.4-.4-.9-.6-1.3-.4-.9-.7-1.7-1-2.6-.2-.4-.3-.9-.5-1.3,0,0,0,0,0-.1-.1-.4-.3-.8-.4-1.2,0,0,0-.1,0-.2-.1-.4-.3-.8-.4-1.3-.3-.9-.5-1.8-.7-2.8-.1-.5-.2-.9-.3-1.4,0-.5-.2-.9-.3-1.4,0-.5-.2-1-.2-1.4-.1-.9-.3-1.9-.4-2.8,0,0,0,0,0-.1,0,0,0,0,0-.1,0,0,0-.1,0-.2,0-.4,0-.8-.1-1.1-.1-1.5-.2-3-.2-4.5s0-3,.2-4.5c0-.4,0-.8.1-1.1,0,0,0-.1,0-.2,0,0,0,0,0-.1,0,0,0,0,0-.1,0-.9.2-1.9.4-2.8,0-.5.2-1,.2-1.4,0-.5.2-1,.3-1.4.1-.5.2-.9.3-1.4.2-.9.4-1.9.7-2.8.1-.4.2-.9.4-1.3,0,0,0-.1,0-.2.1-.4.2-.8.4-1.2,0,0,0,0,0-.1.1-.4.3-.9.5-1.3.3-.9.7-1.8,1-2.6.2-.4.4-.9.6-1.3.1-.3.2-.5.4-.8,0,0,0,0,0,0,0-.2.2-.4.3-.5,0-.2.2-.4.3-.5.3-.6.6-1.2.9-1.8.2-.4.4-.8.7-1.2,0-.1.2-.3.2-.4,0-.2.2-.3.2-.4.3-.5.6-1,1-1.6.5-.8,1-1.6,1.6-2.3.5-.8,1.1-1.5,1.7-2.2.3-.4.6-.7.9-1.1.2-.3.5-.6.8-.9.3-.4.7-.8,1-1.2.6-.7,1.3-1.3,1.9-2s.7-.7,1-1c.3-.3.6-.6.9-.9,0,0,0,0,0,0,.3-.3.7-.6,1-.9.5-.5,1.1-.9,1.7-1.4.4-.3.7-.6,1.1-.8.3-.2.6-.5.9-.7.5-.4,1.1-.8,1.6-1.1.2-.2.5-.3.7-.5.5-.4,1.1-.7,1.7-1.1.3-.2.6-.4,1-.6.2-.2.5-.3.8-.5.3-.2.6-.3.9-.5.5-.2.9-.5,1.4-.7.2-.1.5-.2.7-.4s.5-.2.7-.3c.2-.1.5-.2.7-.3.4-.2.8-.4,1.2-.5.5-.2,1.1-.4,1.6-.7.4-.2.9-.3,1.3-.5.7-.3,1.4-.5,2.2-.7,0,0,0,0,0,0,.4-.1.8-.2,1.1-.4.4-.1.8-.2,1.2-.3,0,0,0,0,0,0,.4-.1.9-.2,1.3-.3.4,0,.8-.2,1.2-.3.3,0,.6-.1.9-.2.1,0,.3,0,.5,0,.3,0,.7-.1,1-.2.4,0,.7-.1,1.1-.2.4,0,.9-.1,1.3-.2,0,0,.1,0,.2,0,.6,0,1.2-.2,1.8-.2.5,0,1.1-.1,1.6-.1,0,0,.1,0,.2,0,.2,0,.5,0,.7,0,.4,0,.9,0,1.3,0,.1,0,.2,0,.3,0,.3,0,.5,0,.8,0,.4,0,.8,0,1.1,0s1,0,1.5,0c.3,0,.6,0,.9,0,.4,0,.7,0,1.1,0,.1,0,.3,0,.4,0,0,0,.1,0,.2,0s.1,0,.2,0c.2,0,.4,0,.5,0,.2,0,.4,0,.5,0,0,0,.2,0,.3,0,.5,0,1.1.1,1.6.2,1.3.2,2.6.4,3.9.6.4,0,.8.2,1.2.3.5.1,1,.2,1.4.3.4,0,.8.2,1.1.3,0,0,.2,0,.3,0,0,0,0,0,0,0,.3,0,.6.2.9.2,0,0,0,0,0,0,0,0,.1,0,.2,0,0,0,.1,0,.2,0,0,0,.1,0,.2,0,.4.1.9.3,1.3.4.4.1.7.2,1.1.4.4.1.8.3,1.2.4.8.3,1.5.6,2.3.9.4.2.9.4,1.3.6.3.1.6.3.9.4,0,0,0,0,0,0,.2,0,.4.2.6.3.3.1.6.3,1,.5,0,0,0,0,0,0,.3.2.6.3.9.5-4.1-1-8.4-1.6-12.8-1.6-29,0-52.7,23.6-52.7,52.7s23.6,52.7,52.7,52.7,8.7-.5,12.8-1.6c-.3.2-.6.3-.9.5,0,0,0,0,0,0Z"/>
      <path class="st0" d="M433.8,22.4h0c-6.9-1.8-14.1-2.7-21.5-2.7-47.6,0-86.3,38.7-86.3,86.3s38.7,86.3,86.3,86.3,17.7-1.4,25.8-3.9t0,0s0,0,0,0c0,0,0,0,0,0h0c35-11,60.4-43.8,60.4-82.3s-27.6-74-64.9-83.6ZM438,176.1c-.5.2-.9.4-1.4.5,0,0-.1,0-.2,0,0,0-.1,0-.2,0-.5.2-1.1.4-1.6.5,0,0-.1,0-.2,0,0,0,0,0,0,0-.5.2-1.1.3-1.6.5-.5.1-1,.3-1.5.4-.5.1-.9.2-1.4.4-.6.1-1.1.3-1.7.4,0,0-.1,0-.2,0-.2,0-.4,0-.6.1,0,0-.1,0-.2,0-.5.1-1.1.2-1.6.3,0,0-.2,0-.2,0-.6,0-1.1.2-1.6.3,0,0,0,0,0,0-.6,0-1.1.2-1.7.2-.1,0-.3,0-.4,0-.5,0-1.1.1-1.6.2,0,0,0,0,0,0-.5,0-1,0-1.5.1-.3,0-.5,0-.8,0-.5,0-1,0-1.5,0-.4,0-.8,0-1.2,0-.4,0-.7,0-1.1,0-.5,0-1,0-1.5,0-41.2,0-74.7-33.5-74.7-74.7s0-.9,0-1.4c0,0,0-.2,0-.2,0-.3,0-.5,0-.8,0-.5,0-1,0-1.4,0-.1,0-.2,0-.4,0-.3,0-.6,0-1,0,0,0-.1,0-.2h0c0-.4,0-.7,0-1,0-.4,0-.8.1-1.2.1-1.3.3-2.6.5-3.9,0-.4.1-.7.2-1.1,0-.4.1-.8.2-1.1,0-.2,0-.5.1-.7t0,0c0-.2,0-.4.1-.6,0-.3.1-.6.2-.9,0,0,0-.1,0-.2,0,0,0-.2,0-.3.2-.7.3-1.5.5-2.2.3-1.2.6-2.4,1-3.5.4-1.2.8-2.3,1.2-3.5.4-1.1.9-2.3,1.3-3.4.5-1.1,1-2.2,1.5-3.3.3-.5.5-1.1.8-1.6.2-.3.4-.7.5-1,.2-.4.4-.8.6-1.1.1-.2.2-.4.4-.7.1-.2.2-.4.4-.6.2-.4.5-.9.8-1.3.3-.5.6-1,1-1.5.2-.3.3-.5.5-.8,0,0,0,0,0,0,0,0,0-.1.1-.2.1-.2.3-.4.4-.6,0,0,0-.1.1-.2,0,0,0,0,0,0,.2-.2.3-.5.5-.7,0,0,0,0,0,0,0,0,0,0,0-.1,0,0,.1-.2.2-.3.3-.4.6-.9.9-1.3.4-.5.7-1,1.1-1.4.5-.6.9-1.2,1.4-1.7.4-.4.7-.9,1.1-1.3.2-.2.4-.5.6-.7.4-.4.7-.8,1.1-1.2.2-.2.4-.4.6-.7.4-.4.7-.8,1.1-1.1.9-.9,1.7-1.7,2.6-2.5.4-.4.9-.8,1.3-1.1.4-.3.7-.6,1.1-.9.4-.3.7-.6,1.1-.9.3-.3.7-.5,1-.8.3-.2.7-.5,1-.8.5-.4,1-.7,1.5-1.1.5-.4,1-.7,1.5-1,1-.7,2-1.3,3-1.9.5-.3,1-.6,1.5-.9.5-.3,1-.6,1.6-.9,1.1-.6,2.1-1.1,3.2-1.6,1.1-.5,2.2-1,3.3-1.5.6-.2,1.1-.5,1.7-.7.4-.2.9-.3,1.3-.5.9-.3,1.7-.6,2.6-.9.4-.2.9-.3,1.3-.4.6-.2,1.2-.4,1.8-.5.6-.2,1.2-.3,1.8-.5.6-.2,1.2-.3,1.8-.4.6-.1,1.2-.3,1.8-.4.6-.1,1.2-.2,1.8-.3.5-.1,1.1-.2,1.6-.3,0,0,0,0,0,0,0,0,.1,0,.2,0,.6-.1,1.2-.2,1.8-.2,0,0,0,0,0,0,0,0,0,0,0,0,.6,0,1.2-.2,1.8-.2.6,0,1.2-.1,1.9-.2,1.3-.1,2.5-.2,3.8-.2.6,0,1.3,0,1.9,0s1,0,1.5,0t0,0s0,0,0,0c0,0,0,0,0,0,0,0,0,0,0,0h.2c0,0,.1,0,.2,0,.2,0,.4,0,.6,0h0c.4,0,.9,0,1.3,0,.4,0,.9,0,1.3,0,.1,0,.3,0,.4,0,.1,0,.2,0,.3,0,.5,0,1,0,1.4.1.1,0,.3,0,.4,0,.2,0,.4,0,.7,0,.3,0,.6,0,.9,0,.2,0,.3,0,.5,0,.3,0,.7,0,1,.1.1,0,.2,0,.4,0,.1,0,.3,0,.4,0,1.1.2,2.2.4,3.3.6.1,0,.3,0,.4,0,.4,0,.7.1,1.1.2,0,0,.2,0,.3,0,.4,0,.8.2,1.3.3.2,0,.3,0,.5.1.1,0,.3,0,.4,0,1,.3,2.1.6,3.1.9,0,0,0,0,.1,0,.5.2,1.1.3,1.6.5h0c.5.2,1,.3,1.5.5,0,0,.1,0,.2,0,.6.2,1.1.4,1.7.7.1,0,.2,0,.3.1.4.1.8.3,1.2.5,0,0,.1,0,.2,0,.3.1.6.2.8.4.3,0,.5.2.8.3.2,0,.4.2.5.2.9.4,1.9.9,2.8,1.4.1,0,.2.1.4.2.4.2.7.4,1.1.6,0,0,0,0,0,0,0,0,0,0,0,0,1.1.6,2.1,1.2,3.1,1.8,0,0,0,0,.1,0h0s0,0,0,0t0,0c1.1.7,2.2,1.4,3.2,2.1.4.2.7.5,1.1.8.5.3,1,.7,1.4,1.1.2.2.5.4.8.6.1.1.3.2.4.3,0,0,.1.1.2.2.1,0,.3.2.4.3.4.3.7.6,1,.8.1.1.2.2.4.3.3.3.7.6,1,.9.2.1.3.2.4.4.5.4.9.8,1.4,1.2.3.3.6.5.9.8.4.4.8.8,1.2,1.2,0,0,.1.1.2.2.1.1.2.2.3.3,0,0,0,0,.1.1.2.2.3.4.5.5.2.2.4.5.7.7.2.3.5.5.7.8,0,0,0,0,.1.1.1.1.2.2.3.3.2.3.5.6.7.8.2.3.5.5.7.8,0,0,0,0,.1.2,0,0,0,0,.1.1h0s0,0,0,0c.2.3.5.6.7.8.3.3.5.7.8,1,.1.1.2.3.3.4,0,0,0,0,0,0,.4.5.7,1,1.1,1.4,0,0,0,0,0,0,.3.4.6.8.9,1.2.2.3.5.7.7,1,.3.5.6.9.9,1.4,0,.1.2.3.3.4.2.3.4.6.6.9.2.3.4.6.6.9.3.6.6,1.1.9,1.6.2.4.4.7.6,1.1.2.4.4.8.6,1.2.3.5.6,1.1.8,1.6.1.3.3.6.4.9,0,.2.2.4.3.6,0,.2.2.4.3.6.1.2.2.5.3.8,0,.2.1.3.2.5.1.3.2.5.3.8.1.3.2.6.3.9,0,0,0,0,0,.1.2.4.3.8.4,1.2,0,.2.1.4.2.5.2.5.3.9.5,1.4,0,.1.1.3.2.4.1.4.3.9.4,1.3,0,.2.1.5.2.7.2.7.4,1.5.6,2.2,0,.2,0,.3.1.5,0,0,0,0,0,.1,0,0,0,0,0,0,0,.1,0,.2,0,.4,0,.4.2.8.3,1.2,0,0,0,0,0,0,0,.2.1.4.2.7,0,0,0,.2,0,.3,0,.2,0,.4.1.5,0,.4.2.8.2,1.2,0,0,0,.2,0,.2,0,.2,0,.3,0,.5,0,.4.2.8.2,1.2,0,0,0,.1,0,.2h0c0,.5.1.9.2,1.4,0,0,0,0,0,.1,0,0,0,.2,0,.3,0,.2,0,.3,0,.5,0,0,0,0,0,.1,0,.3,0,.6.1.9,0,.3,0,.6,0,.9,0,.4.1.9.1,1.3,0,.1,0,.2,0,.4h0c0,.1,0,.2,0,.3,0,0,0,0,0,.1,0,.3,0,.6,0,.9,0,.1,0,.3,0,.4,0,.1,0,.2,0,.4,0,0,0,0,0,.1h0c0,0,0,0,0,.1,0,0,0,.2,0,.3,0,0,0,.1,0,.2s0,0,0,0c0,0,0,.2,0,.3,0,0,0,.1,0,.2,0,0,0,0,0,.1,0,0,0,.1,0,.2,0,.2,0,.5,0,.8,0,0,0,.2,0,.3,0,.6,0,1.3,0,1.9s0,.3,0,.5c0,.5,0,1,0,1.4,0,0,0,.2,0,.2h0s0,0,0,0v.2h0s0,0,0,0h0q0,.1,0,.2h0c0,.2,0,.3,0,.3v.2h0s0,0,0,0h0c0,.2,0,.2,0,.3h0c0,0,0,.1,0,.2v.2c0,0,0,.1,0,.2,0,.5,0,.9,0,1.4,0,.3,0,.6,0,.9,0,.5,0,1-.1,1.4,0,.4,0,.9-.2,1.3,0,.1,0,.3,0,.4,0,.2,0,.4,0,.6,0,.1,0,.2,0,.3,0,.2,0,.3,0,.5,0,.2,0,.5-.1.8,0,.1,0,.3,0,.4,0,.4-.1.7-.2,1.1-.1.7-.2,1.3-.4,2,0,.3-.1.6-.2.9,0,0,0,0,0,0,0,0,0,.1,0,.2,0,0,0,.1,0,.2,0,.4-.2.7-.2,1.1,0,0,0,0,0,.1,0,.1,0,.3,0,.4-.2.7-.4,1.4-.6,2.2-.2.8-.4,1.5-.7,2.3-.2.6-.4,1.2-.6,1.7-.2.5-.4,1-.5,1.5-.2.6-.4,1.1-.7,1.7-.2.4-.3.8-.5,1.2-.1.3-.3.6-.4,1,0,0,0,.2-.1.3-.1.4-.3.7-.5,1.1,0,.1-.1.3-.2.5-.1.3-.3.6-.4.9-.1.2-.2.5-.3.7-.3.7-.7,1.4-1,2-.2.5-.5.9-.7,1.3s-.5.8-.7,1.3c0,0,0,0,0,.1,0,0,0,0,0,0-.2.4-.5.8-.7,1.1-.5.8-.9,1.5-1.4,2.2-.2.3-.4.5-.5.8-.2.3-.4.5-.6.8-.2.3-.5.7-.7,1,0,0,0,0,0,0,0,0,0,0-.1.1,0,0,0,0,0,.1-.3.5-.7.9-1,1.3-.4.5-.8,1-1.1,1.5-.2.2-.3.4-.5.6-.1.2-.3.4-.5.6,0,0,0,.1-.1.2-.4.5-.9,1-1.3,1.5-.3.3-.6.7-.9,1,0,0,0,0,0,.1-.3.3-.7.7-1,1-.3.3-.5.5-.8.8-.3.3-.7.7-1,1-.3.3-.6.6-.9.8h0c-.2.2-.5.5-.8.7-.1.1-.2.2-.4.3,0,0,0,0,0,0-.3.3-.7.6-1.1.9-.4.3-.8.7-1.2,1-.3.2-.6.5-.9.7-.7.6-1.4,1.1-2.1,1.6-.4.3-.9.7-1.4,1-.5.4-1,.7-1.6,1.1-.5.3-1,.7-1.5,1-.4.3-.9.6-1.4.9-.3.2-.7.4-1.1.6-.4.2-.7.4-1.1.6-.5.3-.9.5-1.4.8-.4.2-.9.5-1.3.7-.5.3-1.1.5-1.6.8-.4.2-.7.3-1.1.5-.4.2-.8.3-1.1.5,0,0,0,0,0,0-.9.4-1.8.8-2.7,1.1-.6.2-1.1.5-1.7.6Z"/>
    </g>
    <g>
      <path class="st0" d="M487,104.9c0-.3,0-.5,0-.8,0-.1,0-.2,0-.3,0-.3,0-.5,0-.8,0,0,0-.1,0-.2s0,0,0-.1c0,0,0-.1,0-.2,0,0,0-.2,0-.3,0,0,0,0,0,0,0,0,0-.1,0-.2,0,0,0-.1,0-.2v-.2h0s0,0,0,0c0-.5,0-.9-.1-1.4,0-.9-.2-1.8-.3-2.7,0,0,0,0,0,0,0-.4-.1-.8-.2-1.2,0-.3-.1-.7-.2-1,0-.2,0-.3,0-.5,0-.3-.1-.7-.2-1,0-.4-.2-.8-.3-1.2-.1-.5-.3-1.1-.4-1.6,0-.3-.2-.7-.3-1-.2-.5-.3-1.1-.5-1.6-.1-.4-.2-.8-.4-1.2-.1-.4-.3-.8-.4-1.2-.1-.4-.3-.7-.4-1.1-.1-.3-.3-.7-.4-1-.2-.4-.3-.8-.5-1.2-.2-.4-.3-.8-.5-1.2h0c-.2-.5-.5-1.1-.8-1.6-.3-.5-.5-1-.8-1.5l-.4-.8c-.1-.3-.3-.5-.4-.8-.1-.2-.3-.5-.4-.7-.1-.2-.3-.5-.4-.7,0,0,0,0,0-.1,0,0,0,0,0-.1-.2-.3-.4-.6-.6-.9,0,0,0,0,0,0-.2-.3-.4-.6-.6-.9-.2-.3-.4-.6-.7-1-.2-.3-.5-.7-.8-1-.3-.4-.6-.7-.8-1.1-.2-.2-.3-.4-.5-.6-.1-.1-.2-.3-.4-.4-.3-.4-.7-.8-1.1-1.2,0,0,0,0,0,0-.2-.3-.5-.6-.8-.9-.3-.3-.5-.6-.8-.8,0,0,0,0,0,0-.3-.3-.6-.7-1-1-.3-.3-.7-.7-1-1-.3-.3-.7-.6-1-.9,0,0-.2-.1-.2-.2-.3-.2-.5-.5-.8-.7-.3-.3-.6-.5-1-.8,0,0,0,0-.1-.1-.3-.2-.6-.5-.9-.7,0,0,0,0,0,0,0,0-.1-.1-.2-.2,0,0,0,0,0,0-.3-.2-.7-.5-1-.8-.5-.3-.9-.7-1.4-1-.6-.4-1.2-.8-1.8-1.2-.5-.3-.9-.6-1.4-.9-.2,0-.3-.2-.5-.3-.2,0-.3-.2-.4-.3-.3-.1-.5-.3-.8-.5-.4-.2-.7-.4-1.1-.6-4.1-1-8.4-1.6-12.8-1.6-29,0-52.7,23.6-52.7,52.7s23.6,52.7,52.7,52.7,8.7-.5,12.8-1.6c.4-.2.7-.4,1.1-.6.3-.1.5-.3.8-.5.2,0,.3-.2.4-.3.2,0,.3-.2.5-.3.5-.3.9-.6,1.4-.9.6-.4,1.2-.8,1.8-1.2.5-.3.9-.7,1.4-1,.3-.2.7-.5,1-.8,0,0,0,0,0,0,0,0,.2-.1.2-.2,0,0,0,0,0,0,.3-.2.6-.4.9-.7,0,0,0,0,.1-.1.3-.3.6-.5,1-.8.3-.2.5-.5.8-.7,0,0,.2-.1.2-.2.4-.3.7-.6,1-.9.3-.3.7-.7,1-1,.3-.3.7-.7,1-1,0,0,0,0,0-.1.3-.3.5-.6.8-.8.3-.3.5-.6.8-.9,0,0,0,0,0,0,.3-.4.7-.8,1.1-1.2.1-.2.2-.3.4-.5.2-.2.3-.4.5-.6.3-.4.6-.7.8-1.1.2-.3.5-.7.8-1,.2-.3.4-.6.7-1l.6-.9s0,0,0,0c.2-.3.4-.6.6-.9,0,0,0,0,0-.1,0,0,0,0,0-.1.1-.2.3-.5.4-.7.1-.2.3-.5.4-.7.1-.2.3-.5.4-.8l.4-.8c.3-.5.5-1,.8-1.5.3-.5.5-1,.8-1.6h0c.1-.3.2-.5.4-.8.1-.3.3-.6.4-.9,0-.2.2-.4.2-.5.2-.4.3-.8.5-1.1.2-.4.3-.8.4-1.1.2-.5.4-1,.6-1.5.3-.8.5-1.5.7-2.3,0-.3.2-.6.2-.9,0-.3.2-.5.2-.8,0,0,0-.2,0-.3.1-.4.2-.8.3-1.2.1-.5.2-.9.3-1.4.2-.9.4-1.9.5-2.8.1-.9.3-1.9.4-2.8,0-.4,0-.8.1-1.2,0-.3,0-.6,0-.8,0,0,0,0,0-.1,0,0,0-.2,0-.2h0c0-.1,0-.2,0-.2h0c0,0,0-.1,0-.2h0c0-.1,0-.1,0-.1h0v-.2c0,0,0-.2,0-.2h0c0,0,0-.1,0-.1h0c0-.1,0-.1,0-.1h0v-.2h0c0,0,0-.2,0-.3,0-.3,0-.5,0-.8,0-.4,0-.8,0-1.1s0-.8,0-1.1ZM483.5,109.4c0,.1,0,.3,0,.4,0,.2,0,.3,0,.5,0,0,0,.2,0,.3h0c0,.2,0,.3,0,.5h0c0,.2,0,.4-.1.6,0,0,0,0,0,.1h0s0,0,0,0c0,0,0,.1,0,.2-.1.5-.3,1.1-.4,1.6,0,0,0,0,0,0,0,0,0,0,0,.1,0,.1,0,.3-.1.4,0,.1,0,.2-.1.3,0,0,0,0,0,0,0,0,0,.1,0,.2,0,0,0,.1,0,.2,0,0,0,.1,0,.2,0,.2-.1.4-.2.6,0,0,0,.2-.1.3,0,.1-.1.3-.2.4,0,0,0,0,0,.1,0,.2-.2.5-.3.7h0s0,0,0,0c0,0,0,0,0,.1,0,0,0,.1,0,.2,0,0,0,0,0,0-.1.3-.3.5-.4.8,0,0,0,.1-.1.2-.1.2-.2.4-.3.6,0,0,0,0,0,0h0c-.1.2-.3.5-.4.7-.2.2-.3.5-.4.7-.1.2-.3.4-.4.6,0,0,0,0,0,0h0s0,0,0,0c0,0,0,0,0,.1,0,0,0,0-.1.2,0,.1-.1.2-.2.3h0s0,0,0,.1c-.1.2-.3.4-.4.5-.3.4-.7.8-1.1,1.2-.4.4-.7.8-1.1,1.1,0,0-.2.2-.3.3,0,0-.2.2-.3.3-.2.2-.4.4-.6.5-.2.2-.4.3-.6.5,0,0,0,0,0,0h0s0,0,0,0c0,0,0,0-.1,0,0,0,0,0-.1,0-.1.1-.3.2-.4.3-.2.1-.4.3-.5.4-.2.1-.4.3-.7.5-.4.2-.7.5-1.1.7-.7.4-1.5.9-2.3,1.2h0c-1.6.8-3.2,1.4-4.9,1.8-.4.1-.9.2-1.3.3-1.8.3-3.6.5-5.4.5s-1.4,0-2.1,0c-.3,0-.6,0-1,0,0,0-.1,0-.2,0,0,0-.1,0-.2,0h-.2s0,0,0,0c0,0-.2,0-.3,0,0,0-.2,0-.3,0-.3,0-.6,0-.9-.2-.3,0-.6-.1-.9-.2,0,0,0,0-.1,0-.3,0-.5-.1-.8-.2-.1,0-.3,0-.4-.1,0,0,0,0-.1,0,0,0,0,0-.1,0h0c0,0-.2,0-.3-.1-.8-.3-1.7-.6-2.5-.9-.4-.2-.8-.4-1.2-.5-.8-.4-1.5-.8-2.3-1.2-.4-.2-.8-.5-1.2-.8-.3-.2-.5-.4-.8-.6-.2-.2-.4-.3-.7-.5,0,0,0,0,0,0-.4-.3-.8-.7-1.2-1-.1-.1-.3-.2-.4-.4-.6-.5-1.1-1-1.6-1.6-.6-.6-1.1-1.3-1.6-2-.2-.3-.5-.7-.7-1,0,0,0,0,0,0-.5-.7-.9-1.4-1.3-2.2,0,0,0,0,0,0-.2-.4-.4-.8-.6-1.2-.2-.4-.4-.8-.5-1.2-.2-.4-.3-.8-.5-1.2,0,0,0,0,0,0-.1-.4-.3-.8-.4-1.2-.1-.4-.2-.8-.4-1.3h0c-.1-.4-.2-.9-.3-1.3,0-.4-.2-.9-.2-1.3,0-.4-.1-.9-.2-1.3,0-.3,0-.6,0-.9h0c0-.1,0-.2,0-.2,0,0,0,0,0-.1,0,0,0,0,0-.1v-.2s0,0,0-.1c0-.3,0-.7,0-1,0-14.8,12-26.8,26.8-26.8s.7,0,1.1,0c0,0,0,0,.1,0h.2c.4,0,.9,0,1.3.1.3,0,.7,0,1,.1,0,0,0,0,0,0,0,0,.1,0,.2,0,0,0,.2,0,.3,0,.4,0,.8.1,1.2.2.4,0,.9.2,1.3.3.4.1.9.2,1.3.4.8.3,1.6.6,2.4.9h0c.4.2.8.4,1.2.6.8.4,1.5.8,2.3,1.2,0,0,0,0,0,0,.3.2.7.4,1,.7.2.2.5.3.8.5,0,0,0,0,.1,0,.2.1.3.2.5.4.5.4,1,.8,1.5,1.2.2.2.4.3.5.5.1.1.3.3.4.4.1.1.3.3.4.5.2.2.4.5.7.7.6.6,1.1,1.3,1.6,2,.3.3.5.7.8,1.1.5.7.9,1.5,1.3,2.2,0,0,0,0,0,0,.2.3.3.6.4.9,0,0,0,0,0,0,.1.2.2.5.3.7,0,0,0,0,0,.1,0,0,0,0,0,.1.1.2.2.5.3.7,0,0,0,0,0,0,.1.3.2.6.4,1,0,0,0,0,0,0,.1.3.2.7.3,1,0,0,0,0,0,0,0,.2.1.4.2.5,0,0,0,0,0,0,0,.2.1.5.2.8,0,0,0,.1,0,.2,0,.1,0,.3,0,.4,0,0,0,0,0,.1,0,0,0,.2,0,.3,0,.4.2.7.2,1.1,0,.4.1.8.2,1.2.2,1.2.2,2.4.2,3.6s0,.7,0,1c0,.3,0,.6,0,1,0,0,0,0,0,0,0,.2,0,.5,0,.7h0c0,0,0,.1,0,.2,0,.2,0,.4,0,.5ZM474.2,136.7c-.2.2-.5.5-.8.7-.4.4-.8.7-1.2,1.1-.4.3-.8.7-1.2,1h0c-.4.3-.8.7-1.2,1-.1,0-.2.2-.3.2-.1,0-.2.2-.3.2-.2.2-.4.3-.7.5-.4.3-.9.6-1.3.9-.1,0-.3.2-.5.3-.1,0-.3.2-.5.3-.3.2-.5.3-.8.5-.2.1-.4.3-.6.4-.2.1-.4.2-.7.4,0,0-.1,0-.2.1,0,0-.2,0-.3.1-.2,0-.4.2-.6.3,0,0,0,0-.2,0,0,0,0,0,0,0-.3.2-.6.3-1,.5-.2,0-.4.2-.5.2-.4.2-.7.3-1.1.5-.3.1-.6.2-.8.3-.3.1-.6.2-.9.4-.3.1-.6.2-.9.3-.3.1-.7.2-1,.3-.3,0-.7.2-1,.3-.4.1-.8.2-1.2.3-.4,0-.8.2-1.3.3,0,0,0,0,0,0-.4,0-.7.1-1.1.2,0,0,0,0,0,0-.2,0-.4,0-.6.1-.4,0-.8.1-1.2.2-.3,0-.6,0-.8.1-.4,0-.8,0-1.2.1,0,0-.2,0-.3,0,0,0-.1,0-.2,0,0,0-.1,0-.2,0,0,0-.2,0-.3,0,0,0-.1,0-.2,0,0,0-.1,0-.2,0-.2,0-.5,0-.8,0-.5,0-.9,0-1.4,0-.4,0-.7,0-1.1,0-.7,0-1.3,0-1.9,0-.7,0-1.3,0-1.9-.1-.6,0-1.3-.1-1.9-.2-.5,0-.9-.1-1.4-.2-.5,0-.9-.2-1.4-.2-.5,0-.9-.2-1.4-.3-.4,0-.8-.2-1.2-.3h-.1s0,0-.1,0c-.3,0-.6-.2-.8-.2-.3-.1-.7-.2-1-.3,0,0,0,0,0,0-.5-.2-1.1-.4-1.6-.5-.7-.2-1.3-.5-2-.8-.6-.3-1.3-.6-1.9-.9h0c-.6-.3-1.2-.6-1.9-1-.6-.3-1.2-.7-1.8-1,0,0,0,0,0,0-.2-.1-.5-.3-.7-.4-.2-.1-.4-.2-.6-.4,0,0,0,0-.1,0-.4-.3-.8-.5-1.2-.8-.6-.4-1.1-.8-1.7-1.2t0,0c-1.1-.9-2.1-1.8-3.1-2.7t0,0c-.3-.2-.5-.5-.7-.7-.4-.4-.8-.9-1.2-1.3-.4-.5-.8-.9-1.2-1.4,0,0,0,0,0,0-.4-.5-.8-.9-1.1-1.4-.4-.5-.8-1-1.1-1.5-.4-.6-.8-1.1-1.2-1.7h0c-.4-.6-.7-1.2-1.1-1.8-.4-.6-.7-1.3-1-1.9-.2-.3-.3-.6-.4-.9,0,0,0,0,0,0,0,0,0-.1,0-.2,0-.2-.2-.3-.2-.5,0-.1-.1-.2-.2-.4-.2-.3-.3-.6-.4-1-.1-.3-.2-.6-.3-.8-.3-.7-.5-1.3-.7-2-.1-.3-.2-.6-.3-.9-.2-.7-.4-1.4-.6-2.1-.2-.7-.3-1.4-.5-2.1-.6-2.8-.9-5.7-.9-8.7s0-1,0-1.6c0-.3,0-.7,0-1,0-.3,0-.5,0-.8,0,0,0,0,0,0,0-.4,0-.8.1-1.2,0-.5.1-.9.2-1.4,0,0,0-.1,0-.2,0-.4.1-.7.2-1.1,0-.2,0-.4.1-.7,0,0,0,0,0,0,0-.4.1-.8.2-1.2,0-.4.2-.8.3-1.2,0-.2,0-.3.1-.5.1-.4.2-.8.3-1.2,0-.3.2-.6.2-.8,0-.3.2-.7.3-1,.1-.3.2-.7.3-1h0c.2-.7.5-1.3.8-2,.3-.6.6-1.3.9-1.9h0c.3-.7.6-1.3,1-1.9.2-.5.5-.9.8-1.4.1-.2.3-.5.4-.7.1-.2.3-.5.4-.7,0,0,.1-.2.2-.3.3-.5.6-1,1-1.4h0c.3-.5.7-1,1.1-1.4,0,0,0,0,0,0,.3-.3.5-.7.8-1,0,0,0-.1.1-.2.1-.2.3-.3.4-.5,0,0,0-.1.1-.2.3-.3.6-.6.9-1,.4-.5.8-.9,1.3-1.3.2-.2.5-.5.8-.7.2-.2.4-.4.6-.6,0,0,0,0,0,0,0,0,.1-.1.2-.2.2-.2.4-.4.7-.6.5-.5,1-.9,1.6-1.3h0c.5-.4,1.1-.8,1.7-1.2.3-.2.6-.4.9-.6h0c.5-.3.9-.6,1.4-.9.4-.3.8-.5,1.2-.8.3-.2.6-.3.9-.5.2-.1.5-.2.7-.4.2,0,.4-.2.6-.3.2-.1.4-.2.6-.3.3-.1.5-.3.8-.4,0,0,.1,0,.2,0,0,0,0,0,0,0,.3-.1.6-.3.9-.4.6-.3,1.3-.5,2-.8.3-.1.7-.2,1-.3.3-.1.7-.2,1-.3.2,0,.4-.1.6-.2,0,0,.1,0,.2,0,0,0,0,0,0,0,0,0,.2,0,.3,0,.3,0,.5-.2.8-.2.8-.2,1.6-.4,2.3-.5.3,0,.6-.1.9-.2.7-.1,1.4-.2,2.1-.3.3,0,.5,0,.8-.1,0,0,0,0,.1,0,.2,0,.4,0,.6,0,.3,0,.6,0,.9,0,.3,0,.6,0,.9,0,.4,0,.7,0,1.1,0,.4,0,.8,0,1.1,0h.6c.2,0,.4,0,.6,0,.3,0,.5,0,.8,0,.4,0,.8,0,1.3,0,0,0,0,0,.1,0,.4,0,.8,0,1.1,0,0,0,0,0,.1,0,.5,0,1.1.1,1.6.2.2,0,.3,0,.5,0,0,0,.2,0,.3,0,.2,0,.5,0,.8.1,0,0,0,0,0,0,0,0,0,0,0,0,.2,0,.4,0,.6.1,0,0,0,0,0,0,0,0,.1,0,.2,0h0c.4,0,.8.2,1.3.3.3,0,.6.2.9.2.3,0,.6.2,1,.3,0,0,0,0,0,0,.5.1.9.3,1.4.4.2,0,.4.1.6.2.3.1.7.2,1,.3h0c.7.2,1.3.5,2,.8h0c.6.3,1.3.6,1.9.9.3.2.7.3,1,.5.3.1.6.3.8.5.3.2.6.3.9.5.2.1.5.3.7.4.2,0,.3.2.4.3.2.1.4.3.7.4,0,0,.2.1.3.2,0,0,0,0,0,0,0,0,0,0,0,0,.3.2.5.3.8.5.2.1.4.3.6.4.6.4,1.1.8,1.7,1.2.3.2.6.4.8.7.3.2.5.4.8.7.3.2.5.4.8.7,0,0,0,0,0,0,.2.2.5.4.7.7h0c.1.1.2.3.4.4l.4.4c.3.3.6.6.9.9,0,0,0,.1.1.2-5.3-3.3-11.6-5.2-18.3-5.2-19.2,0-34.8,15.6-34.8,34.8s15.6,34.8,34.8,34.8,13-1.9,18.3-5.2c-.3.4-.7.7-1,1.1Z"/>
      <path class="st0" d="M469.2,51.8s0,0,0,0c0,0,0,0,0,0h0c-5.4-4-11.4-7.2-17.9-9.5t0,0s0,0,0,0h0c-6.9-2.4-14.4-3.7-22.1-3.7-37.2,0-67.5,30.3-67.5,67.5s30.3,67.5,67.5,67.5,15.2-1.3,22.1-3.7c7.1-2.5,13.7-6.1,19.5-10.7h0c15.7-12.4,25.8-31.5,25.8-53.1s-10.8-41.9-27.3-54.2ZM449.3,160.3c-.4.2-.8.3-1.2.4-.4.1-.7.3-1.1.4-.4.1-.9.3-1.3.4,0,0-.1,0-.2,0,0,0-.1,0-.2,0,0,0-.1,0-.2,0,0,0,0,0,0,0-.3,0-.6.2-.9.2,0,0,0,0,0,0,0,0-.2,0-.3,0-.4,0-.7.2-1.1.3-.5.1-.9.2-1.4.3-.4,0-.8.2-1.2.3-1.3.3-2.6.5-3.9.6-.5,0-1.1.1-1.6.2,0,0-.2,0-.3,0-.2,0-.4,0-.5,0-.2,0-.4,0-.5,0,0,0-.1,0-.2,0s-.1,0-.2,0c-.1,0-.3,0-.4,0-.4,0-.7,0-1.1,0-.3,0-.6,0-.9,0-.5,0-1,0-1.5,0s-.8,0-1.1,0c-.3,0-.5,0-.8,0-.1,0-.2,0-.3,0-.4,0-.8,0-1.3,0-.2,0-.5,0-.7,0,0,0-.1,0-.2,0-.5,0-1.1,0-1.6-.1-.6,0-1.2-.1-1.8-.2,0,0-.1,0-.2,0-.4,0-.9-.1-1.3-.2-.4,0-.7-.1-1.1-.2-.3,0-.7-.1-1-.2-.3,0-.6-.1-.9-.2-.5-.1-1.1-.2-1.6-.4-.4,0-.9-.2-1.3-.3,0,0,0,0,0,0-.4-.1-.8-.2-1.2-.3-.4-.1-.8-.2-1.1-.4,0,0,0,0,0,0-.7-.2-1.4-.5-2.2-.7-.4-.2-.9-.3-1.3-.5-.5-.2-1.1-.4-1.6-.6-1.6-.7-3.2-1.5-4.8-2.3-.3-.2-.6-.3-.9-.5-.3-.1-.5-.3-.8-.5-.3-.2-.6-.4-1-.6-.6-.4-1.1-.7-1.7-1.1-.2-.2-.5-.3-.7-.5-.5-.4-1.1-.8-1.6-1.1-.3-.2-.6-.4-.9-.7-.4-.3-.7-.6-1.1-.8-.6-.5-1.1-.9-1.7-1.4-.4-.3-.7-.6-1-.9,0,0,0,0,0,0-.3-.3-.6-.6-.9-.9-.3-.3-.7-.6-1-1-.7-.7-1.3-1.3-1.9-2-.4-.4-.7-.8-1-1.2-.3-.3-.5-.6-.8-.9-.3-.4-.6-.7-.9-1.1-.6-.7-1.1-1.5-1.7-2.2-.5-.8-1.1-1.5-1.6-2.3-.3-.5-.7-1-1-1.6,0-.1-.2-.3-.2-.4,0-.1-.2-.3-.2-.4-.2-.4-.4-.8-.7-1.2-.3-.6-.6-1.2-.9-1.8,0-.2-.2-.4-.3-.5,0-.2-.2-.4-.3-.5,0,0,0,0,0,0-.1-.3-.3-.6-.4-.8-.2-.4-.4-.9-.6-1.3-.4-.9-.7-1.7-1-2.6-.2-.4-.3-.9-.5-1.3,0,0,0,0,0-.1-.1-.4-.3-.8-.4-1.2,0,0,0-.1,0-.2-.1-.4-.3-.8-.4-1.3-.3-.9-.5-1.8-.7-2.8-.1-.5-.2-.9-.3-1.4,0-.5-.2-.9-.3-1.4,0-.5-.2-1-.2-1.4-.1-.9-.3-1.9-.4-2.8,0,0,0,0,0-.1,0,0,0,0,0-.1,0,0,0-.1,0-.2,0-.4,0-.8-.1-1.1-.1-1.5-.2-3-.2-4.5s0-3,.2-4.5c0-.4,0-.8.1-1.1,0,0,0-.1,0-.2,0,0,0,0,0-.1,0,0,0,0,0-.1,0-.9.2-1.9.4-2.8,0-.5.2-1,.2-1.4,0-.5.2-1,.3-1.4,0-.5.2-.9.3-1.4.2-.9.4-1.9.7-2.8.1-.4.2-.9.4-1.3,0,0,0-.1,0-.2.1-.4.2-.8.4-1.2,0,0,0,0,0-.1.1-.4.3-.9.5-1.3.3-.9.7-1.8,1-2.6.2-.4.4-.9.6-1.3.1-.3.2-.5.4-.8,0,0,0,0,0,0,0-.2.2-.4.3-.5,0-.2.2-.4.3-.5.3-.6.6-1.2.9-1.8.2-.4.4-.8.7-1.2,0-.1.2-.3.2-.4,0-.2.2-.3.2-.4.3-.5.6-1,1-1.6.5-.8,1-1.6,1.6-2.3.5-.8,1.1-1.5,1.7-2.2.3-.4.6-.7.9-1.1.2-.3.5-.6.8-.9.3-.4.7-.8,1-1.2.6-.7,1.3-1.3,1.9-2s.7-.7,1-1c.3-.3.6-.6.9-.9,0,0,0,0,0,0,.3-.3.7-.6,1-.9.5-.5,1.1-.9,1.7-1.4.4-.3.7-.6,1.1-.8.3-.2.6-.5.9-.7.5-.4,1.1-.8,1.6-1.1.2-.2.5-.3.7-.5.5-.4,1.1-.7,1.7-1.1.3-.2.6-.4,1-.6.2-.2.5-.3.8-.5.3-.2.6-.3.9-.5.5-.2.9-.5,1.4-.7.2-.1.5-.2.7-.4s.5-.2.7-.3c.2-.1.5-.2.7-.3.4-.2.8-.4,1.2-.5.5-.2,1.1-.4,1.6-.7.4-.2.9-.3,1.3-.5.7-.3,1.4-.5,2.2-.7,0,0,0,0,0,0,.4-.1.8-.2,1.1-.4.4-.1.8-.2,1.2-.3,0,0,0,0,0,0,.4-.1.9-.2,1.3-.3.4,0,.8-.2,1.2-.3.3,0,.6-.1.9-.2.1,0,.3,0,.5,0,.3,0,.7-.1,1-.2.4,0,.7-.1,1.1-.2.4,0,.9-.1,1.3-.2,0,0,.1,0,.2,0,.6,0,1.2-.2,1.8-.2.5,0,1.1-.1,1.6-.1,0,0,.1,0,.2,0,.2,0,.5,0,.7,0,.4,0,.9,0,1.3,0,.1,0,.2,0,.3,0,.3,0,.5,0,.8,0,.4,0,.8,0,1.1,0s1,0,1.5,0c.3,0,.6,0,.9,0,.4,0,.7,0,1.1,0,.1,0,.3,0,.4,0,0,0,.1,0,.2,0s.1,0,.2,0c.2,0,.4,0,.5,0,.2,0,.4,0,.5,0,0,0,.2,0,.3,0,.5,0,1.1.1,1.6.2,1.3.2,2.6.4,3.9.6.4,0,.8.2,1.2.3.5.1,1,.2,1.4.3.4,0,.8.2,1.1.3,0,0,.2,0,.3,0,0,0,0,0,0,0,.3,0,.6.2.9.2,0,0,0,0,0,0,0,0,.1,0,.2,0,0,0,.1,0,.2,0,0,0,.1,0,.2,0,.4.1.9.3,1.3.4.4.1.7.2,1.1.4.4.1.8.3,1.2.4.8.3,1.5.6,2.3.9.4.2.9.4,1.3.6.3.1.6.3.9.4,0,0,0,0,0,0,.2,0,.4.2.6.3.3.1.6.3,1,.5,0,0,0,0,0,0,.3.2.6.3,1,.5h0c0,0,.2,0,.3.1.3.1.5.3.8.4.3.1.5.3.8.5.2,0,.3.2.4.3.2,0,.3.2.5.3.4.2.8.5,1.1.7,0,0,.2.1.2.2.6.4,1.2.8,1.8,1.2.5.3.9.7,1.4,1,.2.1.3.2.5.3,0,0,0,0,0,0,.2.1.3.2.5.4,0,0,0,0,0,0,0,0,.2.1.2.2,0,0,0,0,0,0,.3.2.6.5.9.7,0,0,0,0,.1.1.3.3.6.5,1,.8.3.2.5.5.8.7,0,0,.2.1.2.2.4.3.7.6,1,.9.2.1.3.3.4.4.2.2.4.4.6.6.3.3.7.7,1,1,0,0,0,0,0,0,.3.3.5.6.8.8.3.3.5.6.8.9,0,0,0,0,0,0,.3.4.7.8,1.1,1.2.1.1.2.3.4.4.2.2.3.4.5.6.3.4.6.7.8,1.1.2.3.5.7.8,1,.2.3.4.6.7,1,.2.3.4.6.6.9,0,0,0,0,0,0,.2.3.4.6.6.9,0,0,0,0,0,.1,0,0,0,0,0,.1.1.2.3.5.4.7.1.2.3.5.4.7.1.2.3.5.4.8l.4.8c.3.5.5,1,.8,1.5.3.5.5,1,.8,1.6h0c.2.4.4.8.5,1.2.2.4.3.8.5,1.2.1.3.3.7.4,1,.2.4.3.7.4,1.1.1.4.3.8.4,1.2.1.4.3.8.4,1.2.2.5.3,1.1.5,1.6.1.3.2.7.3,1,.1.5.3,1.1.4,1.6,0,.4.2.8.3,1.2,0,.3.2.7.2,1,0,.2,0,.3,0,.5,0,.3.1.7.2,1,0,.4.1.8.2,1.2,0,0,0,0,0,0,.1.9.2,1.8.3,2.7,0,.4,0,.8.1,1.3h0c0,0,0,.1,0,.1h0v.2c0,0,0,.1,0,.2,0,0,0,.1,0,.2s0,0,0,0c0,0,0,.2,0,.3,0,0,0,.1,0,.2,0,0,0,0,0,.1,0,0,0,.1,0,.2,0,.2,0,.5,0,.8,0,0,0,.2,0,.3,0,.3,0,.5,0,.8,0,.4,0,.8,0,1.1s0,.8,0,1.1c0,.3,0,.5,0,.8,0,0,0,.2,0,.2h0s0,0,0,0v.2h0s0,0,0,0h0q0,.1,0,.2h0c0,.2,0,.3,0,.3v.2h0s0,0,0,0h0c0,.2,0,.2,0,.3h0c0,0,0,.1,0,.2h0c0,.1,0,.2,0,.3,0,0,0,0,0,.1,0,.3,0,.6,0,.8,0,.4,0,.8-.1,1.2,0,.9-.2,1.9-.4,2.8-.2,1-.3,1.9-.5,2.8-.1.5-.2.9-.3,1.4,0,.4-.2.8-.3,1.2,0,0,0,.2,0,.3,0,.3-.1.5-.2.8,0,.3-.2.6-.2.9-.2.8-.5,1.5-.7,2.3-.2.5-.4,1-.6,1.5-.1.4-.3.8-.4,1.1-.1.4-.3.8-.5,1.1,0,.2-.1.4-.2.5-.1.3-.3.6-.4.9-.1.3-.2.5-.4.8h0c-.2.5-.5,1-.8,1.6-.3.5-.5,1-.8,1.5l-.4.8c-.1.3-.3.5-.4.8-.1.2-.3.5-.4.7-.1.2-.3.5-.4.7,0,0,0,0,0,.1,0,0,0,0,0,.1-.2.3-.4.6-.6.9,0,0,0,0,0,0l-.6.9c-.2.3-.4.6-.7,1-.2.3-.5.7-.8,1-.3.4-.6.7-.8,1.1-.2.2-.3.4-.5.6-.1.1-.2.3-.4.5-.3.4-.7.8-1.1,1.2,0,0,0,0,0,0-.2.3-.5.6-.8.9-.3.3-.5.6-.8.8,0,0,0,0,0,.1-.3.3-.6.7-1,1-.2.2-.4.4-.6.6-.2.1-.3.3-.4.4-.3.3-.7.6-1,.9,0,0-.2.2-.2.2-.3.2-.5.5-.8.7-.3.3-.6.5-1,.8,0,0,0,0-.1.1-.3.2-.6.5-.9.7,0,0,0,0,0,0,0,0-.1.1-.2.2,0,0,0,0,0,0-.2.1-.3.2-.5.4,0,0,0,0,0,0-.2.1-.3.2-.5.3-.5.3-.9.7-1.4,1-.6.4-1.2.8-1.8,1.2,0,0-.2.1-.2.2-.4.2-.8.5-1.1.7-.2,0-.3.2-.5.3-.2.1-.3.2-.4.3-.3.2-.5.3-.8.5-.3.1-.5.3-.8.4,0,0-.2,0-.3.1h0c-.3.2-.6.3-1,.5s0,0,0,0c-.3.2-.6.3-1,.5-.2.1-.4.2-.6.3,0,0,0,0,0,0-.3.1-.6.3-.9.4-.4.2-.9.4-1.3.6-.7.3-1.5.6-2.3.9Z"/>
    </g>
    <g>
      <path class="st0" d="M413.6,137.4c1,.9,2.1,1.9,3.1,2.7-1.1-.9-2.1-1.8-3.1-2.7Z"/>
      <path class="st0" d="M448.2,149.1c.4,0,.8,0,1.2-.1-1.9.3-3.9.4-5.8.4s-1.3,0-2,0c.6,0,1.3,0,1.9,0s.7,0,1.1,0c.5,0,.9,0,1.4,0,.2,0,.5,0,.8,0,0,0,.1,0,.2,0,0,0,.1,0,.2,0,0,0,.2,0,.3,0,0,0,.1,0,.2,0,0,0,.1,0,.2,0,0,0,.2,0,.3,0Z"/>
      <path class="st0" d="M453,148.3c.9-.2,1.8-.4,2.6-.7-2,.6-4.1,1-6.2,1.3.3,0,.6,0,.8-.1.3,0,.5,0,.8-.1.7-.1,1.3-.2,2-.4Z"/>
      <path class="st0" d="M464.7,143.9c.5-.3,1.1-.6,1.6-.9-2.4,1.5-5,2.8-7.7,3.8.3-.1.6-.2.9-.4.3-.1.6-.2.8-.3.4-.2.7-.3,1.1-.5.2,0,.4-.2.5-.2.3-.2.7-.3,1-.5,0,0,0,0,0,0,0,0,.1,0,.2,0,.2,0,.4-.2.6-.3.3-.2.7-.3,1-.5Z"/>
      <path class="st0" d="M468.6,141.4c.2-.2.4-.3.7-.5-.8.6-1.6,1.2-2.5,1.7.2,0,.3-.2.5-.3.5-.3.9-.6,1.3-.9Z"/>
      <path class="st0" d="M473.5,137.4c.2-.2.5-.5.8-.7-.6.6-1.2,1.2-1.9,1.8.4-.4.8-.7,1.2-1.1Z"/>
      <path class="st0" d="M486.9,104.7h0c0-.3,0-.6,0-.9,0-.4,0-.8,0-1.2,0-.2,0-.4,0-.6,0-.2,0-.4,0-.6,0-.2,0-.4,0-.7,0-.5-.1-1-.2-1.5,0,0,0-.2,0-.2,0,0,0,0,0,0,0-.4-.1-.9-.2-1.3,0-.3-.1-.7-.2-1,0-.3-.1-.6-.2-.9,0-.2,0-.4-.1-.5,0-.3-.1-.6-.2-.8,0,0,0-.2,0-.3,0-.3-.2-.7-.3-1-.2-.7-.4-1.3-.7-2-.1-.3-.2-.7-.4-1-.1-.3-.3-.7-.4-1-.2-.5-.4-.9-.6-1.4v-.2c-.3-.4-.5-.8-.7-1.2,0,0,0,0,0-.2-.2-.5-.5-1-.8-1.5-.1-.2-.3-.5-.4-.7-.1-.2-.3-.4-.4-.7-.3-.5-.7-1-1-1.6-.3-.4-.6-.8-.9-1.3-.3-.4-.6-.8-.9-1.3-.4-.5-.7-.9-1.1-1.3-.2-.3-.4-.5-.7-.8-.2-.2-.4-.4-.6-.7,0,0,0,0,0,0h0c-5.3-3.3-11.6-5.2-18.3-5.2-19.2,0-34.8,15.6-34.8,34.8s15.6,34.8,34.8,34.8,13-1.9,18.3-5.2c0,0,0,0,0,0,0-.1.2-.2.3-.3,0,0,0,0,0,0,0,0,0,0,0,0,0,0,0,0,0,0s0,0,0,0c0,0,0,0,0,0,0-.1.2-.2.3-.3,0,0,0,0,0,0,.1-.2.3-.3.4-.5.2-.2.4-.4.6-.7.4-.5.9-1.1,1.3-1.6.1-.1.2-.3.3-.4,0-.1.2-.3.3-.4.2-.3.4-.6.6-.8,0-.1.2-.3.3-.4.1-.2.3-.4.4-.6.3-.4.5-.8.8-1.3.2-.3.4-.7.6-1,.1-.2.2-.5.4-.7.3-.6.7-1.3,1-1.9.1-.3.2-.5.3-.8,0-.2.2-.4.3-.6.1-.3.3-.6.4-.9.3-.7.5-1.3.7-2,.1-.3.2-.7.3-1,.3-.9.5-1.8.8-2.8,0-.2.1-.5.2-.8,0-.3.1-.7.2-1h0c0-.4.1-.7.2-1.1,0,0,0-.2,0-.2,0-.1,0-.3,0-.4,0-.4.1-.8.2-1.3,0-.4,0-.9.1-1.3,0-.2,0-.5,0-.7,0-.4,0-.8,0-1.1,0-.3,0-.6,0-.8h0c0-.5,0-.9,0-1.4s0-.9,0-1.3ZM483.5,109.4c0,.1,0,.3,0,.4,0,.2,0,.3,0,.5,0,0,0,.2,0,.3h0c0,.2,0,.3,0,.5h0c0,.2,0,.4-.1.6,0,0,0,0,0,.1h0s0,0,0,0c0,0,0,.1,0,.2-.1.5-.3,1.1-.4,1.6,0,0,0,0,0,0,0,0,0,0,0,.1,0,.1,0,.3-.1.4,0,.1,0,.2-.1.3,0,0,0,0,0,0,0,0,0,.1,0,.2,0,0,0,.1,0,.2,0,0,0,.1,0,.2,0,.2-.1.4-.2.6,0,0,0,.2-.1.3,0,.1-.1.3-.2.4,0,0,0,0,0,.1,0,.2-.2.5-.3.7h0s0,0,0,0c0,0,0,0,0,.1,0,0,0,.1,0,.2,0,0,0,0,0,0-.1.3-.3.5-.4.8,0,0,0,.1-.1.2-.1.2-.2.4-.3.6,0,0,0,0,0,0h0c-.1.2-.3.5-.4.7-.2.2-.3.5-.4.7-.1.2-.3.4-.4.6,0,0,0,0,0,0h0s0,0,0,0c0,0,0,0,0,.1,0,0,0,0-.1.2,0,.1-.1.2-.2.3h0s0,0,0,.1c-.1.2-.3.4-.4.5-.3.4-.7.8-1.1,1.2-.4.4-.7.8-1.1,1.1,0,0-.2.2-.3.3,0,0-.2.2-.3.3-.2.2-.4.4-.6.5-.2.2-.4.3-.6.5,0,0,0,0,0,0h0s0,0,0,0c0,0,0,0-.1,0,0,0,0,0-.1,0-.1.1-.3.2-.4.3-.2.1-.4.3-.5.4-.2.1-.4.3-.7.5-.4.2-.7.5-1.1.7-.7.4-1.5.9-2.3,1.2h0c-1.6.8-3.2,1.4-4.9,1.8-.4.1-.9.2-1.3.3-1.8.3-3.6.5-5.4.5s-1.4,0-2.1,0c-.3,0-.6,0-1,0,0,0-.1,0-.2,0,0,0-.1,0-.2,0h-.2s0,0,0,0c0,0-.2,0-.3,0,0,0-.2,0-.3,0-.3,0-.6,0-.9-.2-.3,0-.6-.1-.9-.2,0,0,0,0-.1,0-.3,0-.5-.1-.8-.2-.1,0-.3,0-.4-.1,0,0,0,0-.1,0,0,0,0,0-.1,0h0c0,0-.2,0-.3-.1-.8-.3-1.7-.6-2.5-.9-.4-.2-.8-.4-1.2-.5-.8-.4-1.5-.8-2.3-1.2-.4-.2-.8-.5-1.2-.8-.3-.2-.5-.4-.8-.6-.2-.2-.4-.3-.7-.5,0,0,0,0,0,0-.4-.3-.8-.7-1.2-1-.1-.1-.3-.2-.4-.4-.6-.5-1.1-1-1.6-1.6-.6-.6-1.1-1.3-1.6-2-.2-.3-.5-.7-.7-1,0,0,0,0,0,0-.5-.7-.9-1.4-1.3-2.2,0,0,0,0,0,0-.2-.4-.4-.8-.6-1.2-.2-.4-.4-.8-.5-1.2-.2-.4-.3-.8-.5-1.2,0,0,0,0,0,0-.1-.4-.3-.8-.4-1.2-.1-.4-.2-.8-.4-1.3h0c-.1-.4-.2-.9-.3-1.3,0-.4-.2-.9-.2-1.3,0-.4-.1-.9-.2-1.3,0-.3,0-.6,0-.9h0c0-.1,0-.2,0-.2,0,0,0,0,0-.1,0,0,0,0,0-.1v-.2s0,0,0-.1c0-.3,0-.7,0-1,0-14.8,12-26.8,26.8-26.8s.7,0,1.1,0c0,0,0,0,.1,0h.2c.4,0,.9,0,1.3.1.3,0,.7,0,1,.1,0,0,0,0,0,0,0,0,.1,0,.2,0,0,0,.2,0,.3,0,.4,0,.8.1,1.2.2.4,0,.9.2,1.3.3.4.1.9.2,1.3.4.8.3,1.6.6,2.4.9h0c.4.2.8.4,1.2.6.8.4,1.5.8,2.3,1.2,0,0,0,0,0,0,.3.2.7.4,1,.7.2.2.5.3.8.5,0,0,0,0,.1,0,.2.1.3.2.5.4.5.4,1,.8,1.5,1.2.2.2.4.3.5.5.1.1.3.3.4.4.1.1.3.3.4.5.2.2.4.5.7.7.6.6,1.1,1.3,1.6,2,.3.3.5.7.8,1.1.5.7.9,1.5,1.3,2.2,0,0,0,0,0,0,.2.3.3.6.4.9,0,0,0,0,0,0,.1.2.2.5.3.7,0,0,0,0,0,.1,0,0,0,0,0,.1.1.2.2.5.3.7,0,0,0,0,0,0,.1.3.2.6.4,1,0,0,0,0,0,0,.1.3.2.7.3,1,0,0,0,0,0,0,0,.2.1.4.2.5,0,0,0,0,0,0,0,.2.1.5.2.8,0,0,0,.1,0,.2,0,.1,0,.3,0,.4,0,0,0,0,0,.1,0,0,0,.2,0,.3,0,.4.2.7.2,1.1,0,.4.1.8.2,1.2.2,1.2.2,2.4.2,3.6s0,.7,0,1c0,.3,0,.6,0,1,0,0,0,0,0,0,0,.2,0,.5,0,.7h0c0,0,0,.1,0,.2,0,.2,0,.4,0,.5Z"/>
      <path class="st0" d="M477.7,65.9h0c-1.6-1.3-3.2-2.6-4.9-3.7,0,0,0,0,0,0-4.9-3.3-10.4-5.8-16.3-7.3h0s0,0,0,0c-4.1-1-8.4-1.6-12.8-1.6-29,0-52.7,23.6-52.7,52.7s23.6,52.7,52.7,52.7,8.7-.5,12.8-1.6c0,0,0,0,0,0h0c5.9-1.5,11.4-4,16.3-7.3,2-1.3,3.9-2.8,5.7-4.4h0c10.9-9.7,17.8-23.8,17.8-39.4s-7.2-30.4-18.6-40.1ZM455.6,147.7c-.4.1-.8.2-1.2.3-.4,0-.8.2-1.3.3,0,0,0,0,0,0-.4,0-.7.1-1.1.2,0,0,0,0,0,0-.2,0-.4,0-.6.1-.4,0-.8.1-1.2.2-.3,0-.6,0-.8.1-.4,0-.8,0-1.2.1,0,0-.2,0-.3,0,0,0-.1,0-.2,0,0,0-.1,0-.2,0,0,0-.2,0-.3,0,0,0-.1,0-.2,0,0,0-.1,0-.2,0-.2,0-.5,0-.8,0-.5,0-.9,0-1.4,0-.4,0-.7,0-1.1,0-.7,0-1.3,0-1.9,0-.7,0-1.3,0-1.9-.1-.6,0-1.3-.1-1.9-.2-.5,0-.9-.1-1.4-.2-.5,0-.9-.2-1.4-.2-.5,0-.9-.2-1.4-.3-.4,0-.8-.2-1.2-.3h-.1s0,0-.1,0c-.3,0-.6-.2-.8-.2-.3-.1-.7-.2-1-.3,0,0,0,0,0,0-.5-.2-1.1-.4-1.6-.5-.7-.2-1.3-.5-2-.8-.6-.3-1.3-.6-1.9-.9h0c-.6-.3-1.2-.6-1.9-1-.6-.3-1.2-.7-1.8-1,0,0,0,0,0,0-.2-.1-.5-.3-.7-.4-.2-.1-.4-.2-.6-.4,0,0,0,0-.1,0-.4-.3-.8-.5-1.2-.8-.6-.4-1.1-.8-1.7-1.2t0,0c-1.1-.9-2.1-1.8-3.1-2.7t0,0c-.3-.2-.5-.5-.7-.7-.4-.4-.8-.9-1.2-1.3-.4-.5-.8-.9-1.2-1.4,0,0,0,0,0,0-.4-.5-.8-.9-1.1-1.4-.4-.5-.8-1-1.1-1.5-.4-.6-.8-1.1-1.2-1.7h0c-.4-.6-.7-1.2-1.1-1.8-.4-.6-.7-1.3-1-1.9-.2-.3-.3-.6-.4-.9,0,0,0,0,0,0,0,0,0-.1,0-.2,0-.2-.2-.3-.2-.5,0-.1-.1-.2-.2-.4-.2-.3-.3-.6-.4-1-.1-.3-.2-.6-.3-.8-.3-.7-.5-1.3-.7-2-.1-.3-.2-.6-.3-.9-.2-.7-.4-1.4-.6-2.1-.2-.7-.3-1.4-.5-2.1-.6-2.8-.9-5.7-.9-8.7s0-1,0-1.6c0-.3,0-.7,0-1,0-.3,0-.5,0-.8,0,0,0,0,0,0,0-.4,0-.8.1-1.2,0-.5.1-.9.2-1.4,0,0,0-.1,0-.2,0-.4.1-.7.2-1.1,0-.2,0-.4.1-.7,0,0,0,0,0,0,0-.4.1-.8.2-1.2,0-.4.2-.8.3-1.2,0-.2,0-.3.1-.5.1-.4.2-.8.3-1.2,0-.3.2-.6.2-.8,0-.3.2-.7.3-1,.1-.3.2-.7.3-1h0c.2-.7.5-1.3.8-2,.3-.6.6-1.3.9-1.9h0c.3-.7.6-1.3,1-1.9.2-.5.5-.9.8-1.4.1-.2.3-.5.4-.7.1-.2.3-.5.4-.7,0,0,.1-.2.2-.3.3-.5.6-1,1-1.4h0c.3-.5.7-1,1.1-1.4,0,0,0,0,0,0,.3-.3.5-.7.8-1,0,0,0-.1.1-.2.1-.2.3-.3.4-.5,0,0,0-.1.1-.2.3-.3.6-.6.9-1,.4-.5.8-.9,1.3-1.3.2-.2.5-.5.8-.7.2-.2.4-.4.6-.6,0,0,0,0,0,0,0,0,.1-.1.2-.2.2-.2.4-.4.7-.6.5-.5,1-.9,1.6-1.3h0c.5-.4,1.1-.8,1.7-1.2.3-.2.6-.4.9-.6h0c.5-.3.9-.6,1.4-.9.4-.3.8-.5,1.2-.8.3-.2.6-.3.9-.5.2-.1.5-.2.7-.4.2,0,.4-.2.6-.3.2-.1.4-.2.6-.3.3-.1.5-.3.8-.4,0,0,.1,0,.2,0,0,0,0,0,0,0,.3-.1.6-.3.9-.4.6-.3,1.3-.5,2-.8.3-.1.7-.2,1-.3.3-.1.7-.2,1-.3.2,0,.4-.1.6-.2,0,0,.1,0,.2,0,0,0,0,0,0,0,0,0,.2,0,.3,0,.3,0,.5-.2.8-.2.8-.2,1.6-.4,2.3-.5.3,0,.6-.1.9-.2.7-.1,1.4-.2,2.1-.3.3,0,.5,0,.8-.1,0,0,0,0,.1,0,.2,0,.4,0,.6,0,.3,0,.6,0,.9,0,.3,0,.6,0,.9,0,.4,0,.7,0,1.1,0,.4,0,.7,0,1.1,0s.4,0,.6,0c.2,0,.4,0,.6,0,.3,0,.5,0,.8,0,.1,0,.2,0,.3,0,.3,0,.6,0,.9,0,0,0,0,0,.1,0,0,0,.2,0,.3,0,.3,0,.6,0,.8,0,0,0,0,0,.1,0,.3,0,.6,0,1,.1.2,0,.4,0,.6,0,.2,0,.3,0,.5,0,0,0,.2,0,.3,0,.2,0,.5,0,.8.1,0,0,0,0,0,0,0,0,0,0,0,0,.2,0,.4,0,.6.1,0,0,0,0,0,0,0,0,.1,0,.2,0h0c.4,0,.8.2,1.3.3.3,0,.6.2.9.2.3,0,.6.2,1,.3,0,0,0,0,0,0,.3,0,.7.2,1,.3.1,0,.3,0,.4.1.2,0,.4.1.6.2.3.1.7.2,1,.3h0c.7.2,1.3.5,2,.8h0c.3.1.6.3,1,.4.3.1.6.3.9.5.3.2.7.3,1,.5.3.1.6.3.8.5.3.2.6.3.9.5.2.1.5.3.7.4.2,0,.3.2.4.3.2.1.4.3.7.4,0,0,.2.1.3.2,0,0,0,0,0,0,0,0,0,0,0,0,.3.2.5.3.8.5.2.1.4.3.6.4.6.4,1.1.8,1.7,1.2.3.2.6.4.8.7.3.2.5.4.8.7.3.2.5.4.8.7,0,0,0,0,0,0,.2.2.5.4.7.7h0c.1.1.2.3.4.4.1.1.2.2.4.3h0c.3.3.6.6.9.9,0,0,0,.1.1.2,0,0,0,0,0,0,.2.2.4.4.6.7.2.2.4.5.7.8.4.4.7.9,1.1,1.3.3.4.6.8.9,1.3.3.4.6.8.9,1.3.4.5.7,1,1,1.6.1.2.3.4.4.7.1.2.3.4.4.7.3.5.5,1,.8,1.5,0,0,0,.1,0,.2.2.4.4.8.6,1.2v.2c.3.5.5.9.7,1.4.1.3.3.7.4,1,.1.3.3.7.4,1,.2.7.5,1.3.7,2,0,.3.2.6.3,1,0,0,0,.2,0,.3,0,.3.2.6.2.8,0,.2,0,.4.1.5,0,.3.2.6.2.9,0,.3.1.7.2,1,0,.4.2.9.2,1.3,0,0,0,0,0,0,0,0,0,.2,0,.2,0,.5.1,1,.2,1.5,0,.2,0,.4,0,.7,0,.2,0,.4,0,.6,0,.2,0,.4,0,.6,0,.4,0,.8,0,1.2,0,.3,0,.6,0,.8h0c0,.5,0,.9,0,1.4s0,.9,0,1.3h0c0,.3,0,.6,0,.9,0,.4,0,.8,0,1.1,0,.2,0,.5,0,.7,0,.4,0,.9-.1,1.3,0,.4-.1.8-.2,1.3,0,.2,0,.3,0,.4,0,0,0,.2,0,.2,0,.4-.1.7-.2,1.1h0c0,.4-.1.7-.2,1,0,.2-.1.5-.2.8-.2.9-.5,1.9-.8,2.8,0,.3-.2.7-.3,1-.2.7-.5,1.3-.7,2-.1.3-.2.6-.4.9,0,.2-.2.4-.3.6-.1.3-.2.5-.3.8-.3.6-.6,1.3-1,1.9-.1.2-.2.4-.4.7-.2.3-.4.7-.6,1-.2.4-.5.8-.8,1.3-.1.2-.3.4-.4.6,0,.1-.2.3-.3.4-.2.3-.4.5-.6.8,0,.1-.2.3-.3.4,0,.1-.2.3-.3.4-.4.6-.8,1.1-1.3,1.6-.2.2-.4.5-.6.7-.1.2-.3.3-.4.5,0,0,0,0,0,0,0,0-.2.2-.3.3,0,0,0,0,0,0,0,0,0,0,0,0s0,0,0,0c0,0,0,0,0,0,0,0,0,0,0,0,0,0-.2.2-.3.3,0,0,0,0,0,0-.3.4-.7.7-1,1.1s-.5.5-.8.7c-.4.4-.8.7-1.2,1.1-.4.3-.8.7-1.2,1h0c-.4.3-.8.7-1.2,1-.1,0-.2.2-.3.2-.1,0-.2.2-.3.2-.2.2-.4.3-.7.5-.4.3-.9.6-1.3.9-.1,0-.3.2-.5.3-.1,0-.3.2-.5.3-.3.2-.5.3-.8.5-.2.1-.4.3-.6.4-.2.1-.4.2-.7.4,0,0-.1,0-.2.1,0,0-.2,0-.3.1-.2,0-.4.2-.6.3,0,0,0,0-.2,0,0,0,0,0,0,0-.3.2-.6.3-1,.5-.2,0-.4.2-.5.2-.4.2-.7.3-1.1.5-.3.1-.6.2-.8.3-.3.1-.6.2-.9.4-.3.1-.6.2-.9.3-.3.1-.7.2-1,.3-.3,0-.7.2-1,.3Z"/>
    </g>
    <g>
      <path class="st0" d="M443.1,128.9c.7.4,1.5.9,2.3,1.2-.8-.4-1.5-.8-2.3-1.2Z"/>
      <path class="st0" d="M446.5,130.7c.8.3,1.6.6,2.5.9-.8-.2-1.7-.5-2.5-.9Z"/>
      <path class="st0" d="M456.9,132.8c1.8,0,3.7-.2,5.4-.5-1.8.4-3.6.5-5.4.5s-1.4,0-2.1,0c.7,0,1.4,0,2.1,0Z"/>
      <path class="st0" d="M463.6,132c1.7-.5,3.4-1.1,4.9-1.8-1.6.8-3.2,1.4-4.9,1.8Z"/>
      <path class="st0" d="M468.6,130.2c.8-.4,1.5-.8,2.3-1.2-.7.5-1.5.9-2.3,1.2Z"/>
      <path class="st0" d="M483.8,106c0,9.2-4.7,17.4-11.8,22.2,7.1-4.8,11.8-13,11.8-22.2s0-2.4-.2-3.6c.2,1.2.2,2.4.2,3.6Z"/>
      <path class="st0" d="M484.4,84.6h0s0,0,0,0c-.3-.3-.5-.7-.8-1h0c-.7-.8-1.3-1.5-2-2.2h0c-1.9-1.9-4-3.6-6.3-5h0c-5.3-3.3-11.6-5.2-18.3-5.2-19.2,0-34.8,15.6-34.8,34.8s15.6,34.8,34.8,34.8,13-1.9,18.3-5.2c0,0,0,0,0,0,2.3-1.4,4.4-3.1,6.3-5h0c.7-.7,1.4-1.5,2-2.2.4-.5.8-1,1.1-1.4,0,0,0,0,0,0,0,0,0,0,0,0,4.4-5.8,7-13.1,7-20.9s-2.7-15.4-7.3-21.3ZM475.1,125.7c-.2.2-.4.4-.6.5-.2.2-.4.3-.6.5,0,0,0,0,0,0h0s0,0,0,0c0,0,0,0-.1,0,0,0,0,0-.1,0-.1.1-.3.2-.4.3-.2.1-.4.3-.5.4-.2.1-.4.3-.7.5-.4.2-.7.5-1.1.7-.7.4-1.5.9-2.3,1.2h0c-1.6.8-3.2,1.4-4.9,1.8-.4.1-.9.2-1.3.3-1.8.3-3.6.5-5.4.5s-1.4,0-2.1,0c-.3,0-.6,0-1,0,0,0-.1,0-.2,0,0,0-.1,0-.2,0h-.2s0,0,0,0c0,0-.2,0-.3,0,0,0-.2,0-.3,0-.3,0-.6,0-.9-.2-.3,0-.6-.1-.9-.2,0,0,0,0-.1,0-.3,0-.5-.1-.8-.2-.1,0-.3,0-.4-.1,0,0,0,0-.1,0,0,0,0,0-.1,0h0c0,0-.2,0-.3-.1-.8-.3-1.7-.6-2.5-.9-.4-.2-.8-.4-1.2-.5-.8-.4-1.5-.8-2.3-1.2-.4-.2-.8-.5-1.2-.8-.3-.2-.5-.4-.8-.6-.2-.2-.4-.3-.7-.5,0,0,0,0,0,0-.4-.3-.8-.7-1.2-1-.1-.1-.3-.2-.4-.4-.6-.5-1.1-1-1.6-1.6-.6-.6-1.1-1.3-1.6-2-.3-.3-.5-.7-.7-1,0,0,0,0,0,0-.5-.7-.9-1.4-1.3-2.2,0,0,0,0,0,0-.2-.4-.4-.8-.6-1.2-.2-.4-.4-.8-.5-1.2-.2-.4-.3-.8-.5-1.2,0,0,0,0,0,0-.1-.4-.3-.8-.4-1.2-.1-.4-.3-.8-.4-1.3h0c-.1-.4-.2-.9-.3-1.3,0-.4-.2-.9-.2-1.3,0-.4-.1-.9-.2-1.3,0-.3,0-.6,0-.9h0c0-.1,0-.2,0-.2,0,0,0,0,0-.1,0,0,0,0,0-.1v-.2s0,0,0-.1c0-.3,0-.7,0-1,0-14.8,12-26.8,26.8-26.8s.7,0,1.1,0c0,0,0,0,.1,0h.2c.4,0,.9,0,1.3.1.3,0,.7,0,1,.1,0,0,0,0,0,0,0,0,.1,0,.2,0,0,0,.2,0,.3,0,.4,0,.8.1,1.2.2.4,0,.9.2,1.3.3.4.1.9.2,1.3.4.8.2,1.7.5,2.4.9h0c.4.2.8.4,1.2.6.8.4,1.5.8,2.3,1.2,0,0,0,0,0,0,.3.2.7.4,1,.7.2.2.5.3.8.5,0,0,0,0,.1,0,.2.1.3.2.5.4.5.4,1,.8,1.5,1.2.2.2.4.3.5.5.1.1.3.3.4.4.1.1.3.3.4.5.2.2.4.5.7.7.6.6,1.1,1.3,1.6,2,.3.3.5.7.8,1.1.5.7.9,1.5,1.3,2.2,0,0,0,0,0,0,.2.3.3.6.4.9,0,0,0,0,0,0,.1.2.2.5.3.7,0,0,0,0,0,.1,0,0,0,0,0,.1.1.2.2.5.3.7,0,0,0,0,0,0,.1.3.2.6.4,1,0,0,0,0,0,0,.1.3.2.7.3,1,0,0,0,0,0,0,0,.2.1.4.2.5,0,0,0,0,0,0,0,.2.1.5.2.8,0,0,0,.1,0,.2,0,.1,0,.3,0,.4,0,0,0,0,0,.1,0,0,0,.2,0,.3,0,.4.2.7.2,1.1,0,.4.1.8.2,1.2.2,1.2.2,2.4.2,3.6s0,.7,0,1c0,.3,0,.6,0,1,0,0,0,0,0,0,0,.2,0,.5,0,.7h0c0,0,0,.1,0,.2,0,.2,0,.4,0,.5,0,.1,0,.3,0,.4,0,.2,0,.3,0,.5,0,0,0,.2,0,.3h0c0,.2,0,.3,0,.5h0c0,.2,0,.4-.1.6,0,0,0,0,0,.1h0s0,0,0,0c0,0,0,.1,0,.2-.1.5-.3,1.1-.4,1.6,0,0,0,0,0,0,0,0,0,0,0,.1,0,.1,0,.3-.1.4,0,.1,0,.2-.1.3,0,0,0,0,0,0,0,0,0,.1,0,.2,0,0,0,.1,0,.2,0,0,0,.1,0,.2,0,.2-.1.4-.2.6,0,0,0,.2-.1.3,0,.1-.1.3-.2.4,0,0,0,0,0,.1,0,.2-.2.5-.3.7h0s0,0,0,0c0,0,0,0,0,.1,0,0,0,.1,0,.2,0,0,0,0,0,0-.1.3-.3.5-.4.8,0,0,0,.1-.1.2-.1.2-.2.4-.3.6,0,0,0,0,0,0h0c-.1.2-.3.5-.4.7-.2.2-.3.5-.4.7-.1.2-.3.4-.4.6,0,0,0,0,0,0h0s0,0,0,0c0,0,0,0,0,.1,0,0,0,0-.1.2,0,.1-.1.2-.2.3h0s0,0,0,.1c-.1.2-.3.4-.4.5-.3.4-.7.8-1.1,1.2-.4.4-.7.8-1.1,1.1,0,0-.2.2-.3.3,0,0-.2.2-.3.3Z"/>
    </g>
  </g>
</svg>