<?xml version="1.0" encoding="UTF-8"?>
<svg id="Layer_1" xmlns="http://www.w3.org/2000/svg" version="1.1" viewBox="0 0 288.4 288.4">
  <!-- Generator: Adobe Illustrator 30.2.1, SVG Export Plug-In . SVG Version: 2.1.1 Build 1)  -->
  <defs>
    <style>
      .st0 {
        fill: none;
      }

      .st1 {
        fill: #fff;
      }

      .st2 {
        fill: #c0d57e;
      }
    </style>
  </defs>
  <g>
    <path class="st0" d="M268.9,138.4s0,0,0,0c0,0,0-.2,0-.2,0-.1,0-.2,0-.4h0q0,0,0,0h0c0-.1,0-.2,0-.3,0-.2,0-.3,0-.5,0-.4,0-.8,0-1.2,0-.7,0-1.4-.2-2.1,0-1-.2-1.9-.3-2.9,0-.6-.1-1.1-.2-1.7,0-.5-.1-1-.2-1.5,0-.1,0-.2,0-.4-.2-1.5-.4-2.9-.7-4.4,0-.6-.2-1.2-.3-1.7-.1-.6-.2-1.2-.4-1.9-.1-.6-.3-1.2-.4-1.9-.2-.9-.4-1.8-.6-2.7h0s0,0,0,0c-.2-1-.5-2-.8-3-.3-1.2-.6-2.4-1-3.6-.3-1.1-.7-2.2-1-3.2-.3-1-.6-1.9-1-2.8,0-.2-.1-.4-.2-.5-.1-.4-.2-.7-.4-1.1-.4-1-.7-1.9-1.1-2.9-.3-.7-.5-1.3-.8-2-.3-.7-.6-1.3-.9-2-.3-.6-.6-1.3-.9-1.9-.4-.8-.7-1.6-1.1-2.4h0c-.8-1.7-1.7-3.3-2.5-5,0-.1-.1-.3-.2-.4-.4-.7-.7-1.4-1.1-2,0-.1-.1-.2-.2-.3-.4-.7-.8-1.4-1.2-2-.2-.4-.5-.8-.8-1.2-.4-.6-.8-1.3-1.2-1.9-.5-.8-1-1.5-1.5-2.2-.4-.6-.8-1.2-1.2-1.7-.1-.2-.2-.3-.3-.5-.3-.5-.7-1-1-1.4,0,0-.1-.2-.2-.3,0,0,0,0,0,0,0,0,0,0,0,0h0c0-.1-.2-.3-.3-.4,0-.1-.1-.2-.2-.3,0,0,0,0,0-.1,0,0,0,0,0,0,0,0-.1-.2-.2-.3,0,0,0,0,0,0-.5-.6-.9-1.3-1.4-1.9-.3-.4-.6-.8-.9-1.2-.5-.6-1-1.2-1.5-1.8,0,0,0-.1-.1-.2-.4-.5-.9-1.1-1.3-1.6-.3-.4-.6-.7-.9-1.1-.2-.2-.4-.4-.6-.7,0,0,0-.1-.1-.2-.4-.5-.9-1-1.3-1.5,0,0,0,0,0,0,0-.1-.2-.2-.3-.3-.3-.3-.6-.6-.8-.9-.8-.8-1.6-1.7-2.4-2.5-.2-.2-.4-.4-.6-.6-.2-.2-.4-.4-.6-.6-.1-.1-.3-.3-.4-.4,0,0-.2-.2-.3-.3-.3-.3-.6-.6-1-.9-.5-.4-.9-.9-1.4-1.3-.5-.4-1-.9-1.5-1.3-.9-.8-1.9-1.7-2.9-2.5,0,0,0,0-.1,0-.5-.4-1-.8-1.4-1.2,0,0-.1-.1-.2-.2,0,0,0,0-.1-.1,0,0,0,0,0,0,0,0,0,0-.1,0-.3-.3-.6-.5-.9-.7-2.1-1.7-4.2-3.2-6.4-4.7-.5-.4-1.1-.7-1.6-1.1-.5-.4-1.1-.7-1.6-1.1-.5-.3-1-.7-1.5-1-.7-.5-1.5-.9-2.2-1.4-.8-.5-1.6-.9-2.4-1.4-.8-.4-1.6-.9-2.4-1.3-.6-.3-1.2-.6-1.8-.9-.6-.3-1.2-.6-1.8-.9-.6-.3-1.2-.6-1.8-.9h0c-9.3-2.4-19-3.7-29.1-3.7-64.5,0-116.9,52.4-116.9,116.9s52.5,116.9,116.9,116.9,23.9-1.9,35-5.3t0,0s0,0,0,0c0,0,0,0,0,0h0c.8-.5,1.7-.9,2.5-1.4.3-.2.6-.3.9-.5.9-.5,1.7-1,2.6-1.5,0,0,0,0,0,0,.3-.2.6-.4.9-.6.4-.2.7-.5,1.1-.7.1,0,.3-.2.4-.2,0,0,.1,0,.2-.1.4-.2.8-.5,1.1-.7,0,0,0,0,0,0,.5-.3.9-.7,1.4-1,.9-.6,1.8-1.2,2.7-1.9,0,0,0,0,.1,0,.4-.3.9-.6,1.3-1,.2-.2.5-.4.7-.5.2-.2.5-.4.7-.6.3-.2.5-.4.7-.6.3-.2.5-.4.8-.6.3-.2.5-.4.8-.7.7-.5,1.3-1.1,2-1.6.3-.2.6-.5.8-.7.3-.3.7-.6,1-.9.8-.7,1.5-1.4,2.3-2.1,1.2-1,2.3-2.1,3.4-3.2s.4-.4.7-.7c.2-.2.4-.4.7-.7.6-.6,1.2-1.3,1.8-1.9.3-.3.6-.7.9-1,1.1-1.2,2.1-2.3,3.1-3.5.5-.6,1-1.2,1.5-1.8.4-.5.8-.9,1.1-1.4.4-.5.7-.9,1.1-1.4.7-.9,1.5-1.9,2.2-2.9.4-.5.7-1,1.1-1.5.4-.5.7-1,1.1-1.5,0,0,0,0,0,0h0c.3-.4.6-.9.9-1.3.3-.5.7-1,1-1.5.4-.7.9-1.4,1.3-2.1,0,0,0-.1,0-.2.3-.4.5-.8.8-1.3,0,0,0,0,0,0,.3-.5.6-1.1.9-1.6.3-.4.5-.9.8-1.3.1-.2.3-.5.4-.7,0-.1.1-.2.2-.4.2-.4.5-.8.7-1.3,0,0,0,0,0-.1,0,0,0-.1.1-.2,0-.2.2-.4.3-.6,0-.1.1-.3.2-.4,0,0,0-.1.1-.2.2-.4.4-.9.7-1.3l.8-1.5c.2-.4.4-.8.6-1.2.2-.4.4-.8.6-1.3.2-.4.4-.8.6-1.2.3-.6.6-1.3.8-1.9.3-.7.6-1.3.8-1.9.3-.7.5-1.3.8-2s.5-1.3.8-2c.2-.5.3-.9.5-1.4.1-.4.3-.8.4-1.2.1-.4.3-.9.4-1.3.5-1.4.9-2.9,1.4-4.3.2-.6.3-1.2.5-1.8,0,0,0,0,0-.1,0-.1,0-.3.1-.4.3-1.1.6-2.2.8-3.2.2-.7.4-1.5.5-2.3,0,0,0,0,0,0,0,0,0,0,0,0,.2-.9.4-1.8.6-2.8.3-1.5.6-3,.8-4.6,0-.4.1-.9.2-1.3,0-.4,0-.7.1-1.1,0-.5.2-1.1.2-1.6,0-.5.1-1.1.2-1.6.1-.8.2-1.6.3-2.4,0-.4,0-.9.1-1.4,0-.5,0-1.1.1-1.6,0-.5,0-1.1.1-1.6,0-.4,0-.9,0-1.3,0-.4,0-.7,0-1.1,0-.8,0-1.7,0-2.5h0c0-.2,0-.2,0-.2h0v-.3h0c0-.8,0-1.5,0-2.3,0-2,0-3.9-.1-5.8ZM114.1,161.3c-.1-.6-.3-1.3-.4-1.9-.1-.6-.3-1.3-.4-1.9-.1-.7-.2-1.3-.3-1.9-.2-1.3-.4-2.5-.5-3.8,0,0,0-.1,0-.2,0,0,0-.1,0-.2,0,0,0-.2,0-.3,0-.5,0-1-.1-1.5-.1-2-.2-4-.2-6s0-4,.2-6c0-.5,0-1,.1-1.5,0,0,0-.2,0-.3,0,0,0-.1,0-.2,0,0,0-.1,0-.2.1-1.3.3-2.5.5-3.8,0-.7.2-1.3.3-1.9.1-.7.2-1.3.4-1.9.1-.6.3-1.3.4-1.9.3-1.3.6-2.5,1-3.8.2-.6.3-1.2.5-1.7,0,0,0-.1,0-.2.2-.6.3-1.1.5-1.7,0,0,0,0,0-.1.2-.6.4-1.2.6-1.7.4-1.2.9-2.4,1.4-3.6.2-.6.5-1.2.8-1.7.2-.4.3-.7.5-1.1,0,0,0,0,0-.1.1-.2.2-.5.4-.7.1-.2.2-.5.4-.7.4-.8.8-1.6,1.2-2.4.3-.6.6-1.1.9-1.6.1-.2.2-.4.3-.6.1-.2.2-.4.3-.6.4-.7.9-1.4,1.3-2.1.7-1.1,1.4-2.1,2.1-3.1s1.5-2,2.3-3c.4-.5.8-1,1.2-1.5.3-.4.7-.8,1-1.2.5-.5.9-1.1,1.4-1.6.8-.9,1.7-1.8,2.6-2.7s.9-.9,1.4-1.3c.4-.4.8-.8,1.3-1.2,0,0,0,0,.1-.1.5-.4.9-.8,1.4-1.2.7-.7,1.5-1.3,2.3-1.9.5-.4,1-.8,1.5-1.2.4-.3.8-.6,1.2-.9.7-.5,1.4-1,2.2-1.5.3-.2.6-.4,1-.6.7-.5,1.5-1,2.3-1.5.4-.3.9-.5,1.3-.8.3-.2.7-.4,1-.6.4-.2.8-.5,1.2-.7.6-.3,1.2-.7,1.9-1,.3-.2.6-.3,1-.5.3-.2.7-.3,1-.5.3-.2.7-.3,1-.5.6-.3,1.1-.5,1.7-.7.7-.3,1.4-.6,2.1-.9.6-.2,1.2-.5,1.8-.7,1-.4,1.9-.7,2.9-1,0,0,0,0,.1,0,.5-.2,1-.3,1.6-.5.5-.2,1.1-.3,1.6-.5,0,0,0,0,.1,0,.6-.1,1.2-.3,1.7-.4.5-.1,1.1-.3,1.6-.4.4,0,.8-.2,1.2-.3.2,0,.4,0,.6-.1.4,0,.9-.2,1.4-.3.5,0,1-.2,1.5-.3.6-.1,1.2-.2,1.8-.3,0,0,.1,0,.2,0,.8-.1,1.6-.2,2.5-.3.7,0,1.4-.1,2.2-.2,0,0,.2,0,.2,0,.3,0,.7,0,1,0,.6,0,1.2,0,1.7,0,.1,0,.3,0,.4,0,.4,0,.7,0,1.1,0,.5,0,1,0,1.5,0s1.3,0,2,0c.4,0,.8,0,1.2,0,.5,0,1,0,1.5,0,.2,0,.4,0,.6,0,0,0,.2,0,.2,0s.2,0,.3,0c.3,0,.5,0,.7,0,.2,0,.5,0,.7,0,.1,0,.2,0,.4,0,.7,0,1.5.1,2.2.2,1.8.2,3.5.5,5.3.8.6,0,1.1.2,1.7.4.7.1,1.3.3,1.9.4.5.1,1,.2,1.5.4.1,0,.3,0,.4,0,0,0,0,0,0,0,.4.1.8.2,1.2.3,0,0,0,0,0,0,0,0,.2,0,.2,0,0,0,.2,0,.3,0,0,0,.1,0,.2,0,.6.2,1.2.4,1.8.6.5.1,1,.3,1.5.5.6.2,1.1.4,1.6.6,1,.4,2.1.8,3.1,1.2.6.2,1.2.5,1.7.8.4.2.8.4,1.2.5,0,0,0,0,0,0,.3.1.5.2.8.4.4.2.9.4,1.3.7,0,0,0,0,0,0,.4.2.8.4,1.2.7-5.6-1.4-11.4-2.1-17.4-2.1-39.3,0-71.4,32-71.4,71.4s32,71.4,71.4,71.4,11.8-.7,17.4-2.1c-.4.2-.8.4-1.2.7,0,0,0,0,0,0-.4.2-.9.4-1.3.7-.3.1-.5.3-.8.4,0,0,0,0,0,0-.4.2-.8.4-1.2.5-.6.3-1.2.5-1.7.8-1,.4-2,.8-3.1,1.2-.5.2-1.1.4-1.6.6-.5.2-1,.4-1.5.5-.6.2-1.2.4-1.8.6,0,0-.1,0-.2,0,0,0-.2,0-.3,0,0,0-.2,0-.2,0,0,0,0,0,0,0-.4.1-.8.2-1.2.3,0,0,0,0,0,0-.1,0-.2,0-.4,0-.5.1-1,.3-1.5.4-.6.2-1.3.3-1.9.4-.6.1-1.1.3-1.7.4-1.7.4-3.5.6-5.3.8-.7,0-1.4.2-2.2.2-.1,0-.2,0-.4,0-.2,0-.5,0-.7,0-.2,0-.5,0-.7,0,0,0-.2,0-.3,0s-.2,0-.2,0c-.2,0-.4,0-.6,0-.5,0-1,0-1.5,0-.4,0-.8,0-1.2,0-.7,0-1.3,0-2,0s-1,0-1.5,0c-.4,0-.7,0-1.1,0-.1,0-.3,0-.4,0-.6,0-1.2,0-1.7,0-.3,0-.7,0-1,0,0,0-.2,0-.2,0-.7,0-1.4-.1-2.2-.2-.8,0-1.6-.2-2.5-.3,0,0-.1,0-.2,0-.6,0-1.2-.2-1.8-.3-.5,0-1-.2-1.5-.3-.5,0-.9-.2-1.4-.3-.4,0-.9-.2-1.3-.3-.7-.1-1.4-.3-2.2-.5-.6-.1-1.2-.3-1.7-.4,0,0,0,0-.1,0-.5-.1-1.1-.3-1.6-.5-.5-.1-1-.3-1.6-.5,0,0,0,0-.1,0-1-.3-2-.7-2.9-1-.6-.2-1.2-.4-1.8-.7-.7-.3-1.4-.6-2.1-.9-2.2-.9-4.4-2-6.5-3.2-.4-.2-.8-.5-1.2-.7-.4-.2-.7-.4-1-.6-.4-.2-.9-.5-1.3-.8-.8-.5-1.5-.9-2.3-1.5-.3-.2-.7-.4-1-.6-.7-.5-1.5-1-2.2-1.5-.4-.3-.8-.6-1.2-.9-.5-.4-1-.8-1.5-1.2-.8-.6-1.5-1.2-2.3-1.9-.5-.4-.9-.8-1.4-1.2,0,0,0,0-.1-.1-.4-.4-.9-.8-1.3-1.2-.5-.4-.9-.9-1.4-1.3-.9-.9-1.8-1.8-2.6-2.7-.5-.5-1-1.1-1.4-1.6-.4-.4-.7-.8-1-1.2-.4-.5-.8-1-1.2-1.5-.8-1-1.5-2-2.3-3s-1.4-2.1-2.1-3.1c-.4-.7-.9-1.4-1.3-2.1-.1-.2-.2-.4-.3-.6-.1-.2-.2-.4-.3-.6-.3-.5-.6-1.1-.9-1.6-.4-.8-.9-1.6-1.2-2.4-.1-.2-.3-.5-.4-.7-.1-.2-.2-.5-.4-.7,0,0,0,0,0-.1-.2-.4-.4-.7-.5-1.1-.3-.6-.5-1.2-.8-1.7-.5-1.2-1-2.4-1.4-3.6-.2-.6-.4-1.2-.6-1.7,0,0,0,0,0-.1-.2-.5-.4-1.1-.5-1.7,0,0,0-.1,0-.2-.2-.6-.4-1.2-.5-1.7-.4-1.2-.7-2.5-1-3.8ZM249.1,187.5c-.5.5-1.1.9-1.6,1.4h0c-.5.4-1.1.9-1.7,1.3-.1.1-.3.2-.4.3-.1.1-.3.2-.4.3-.3.2-.6.4-.9.7-.6.4-1.2.8-1.8,1.2-.2.1-.4.3-.6.4-.2.1-.4.3-.6.4-.4.2-.7.4-1.1.6-.5.3-1,.6-1.6.9-.3.1-.5.3-.8.4-.2.1-.5.3-.8.4,0,0-.1,0-.2.1,0,0,0,0,0,0-.4.2-.9.4-1.3.7-.2.1-.5.2-.7.3-.5.2-1,.4-1.5.7-.4.2-.8.3-1.1.5-.4.2-.8.3-1.3.5-.4.1-.9.3-1.3.5-.4.1-.9.3-1.4.4-.4.1-.9.3-1.4.4-1.1.3-2.3.6-3.4.9-.5.1-1,.2-1.5.3,0,0,0,0,0,0-.3,0-.6.1-.8.2-.5,0-1,.2-1.6.3-.4,0-.8.1-1.1.2-.5,0-1.1.1-1.6.2-.1,0-.3,0-.4,0,0,0-.2,0-.2,0,0,0-.2,0-.3,0-.1,0-.3,0-.4,0,0,0-.2,0-.3,0,0,0-.2,0-.3,0-.3,0-.7,0-1,0-.7,0-1.3,0-1.9,0-.5,0-1,0-1.5,0-.9,0-1.8,0-2.6,0-.9,0-1.7,0-2.6-.2-.9,0-1.7-.2-2.6-.3-.6,0-1.3-.2-1.9-.3-.6-.1-1.3-.2-1.9-.3-.6-.1-1.2-.3-1.9-.4-.6-.1-1.1-.3-1.7-.4h-.2c0,0-.1,0-.2,0-.4-.1-.7-.2-1.1-.3-.5-.1-.9-.3-1.4-.4,0,0,0,0,0,0-.7-.2-1.5-.5-2.2-.7-.9-.3-1.8-.7-2.7-1.1-.9-.4-1.7-.8-2.6-1.2h0c-.9-.4-1.7-.9-2.5-1.3-.8-.5-1.7-.9-2.5-1.4,0,0,0,0,0,0-.3-.2-.6-.4-1-.6-.3-.2-.5-.3-.8-.5,0,0-.1,0-.2-.1-.6-.4-1.1-.7-1.6-1.1-.8-.5-1.5-1.1-2.2-1.7t0,0c-1.5-1.2-2.9-2.4-4.3-3.7t0,0c-.4-.3-.7-.7-1-1-.6-.6-1.1-1.2-1.7-1.8-.6-.6-1.1-1.2-1.6-1.8,0,0,0,0,0,0-.5-.6-1-1.2-1.5-1.9-.5-.7-1-1.3-1.5-2-.5-.8-1.1-1.5-1.6-2.3h0c-.5-.8-1-1.6-1.5-2.4-.5-.9-.9-1.7-1.4-2.6-.2-.4-.4-.8-.6-1.2,0,0,0,0,0-.1,0,0,0-.1,0-.2-.1-.2-.2-.4-.3-.7,0-.2-.1-.3-.2-.5-.2-.4-.4-.9-.6-1.3-.2-.4-.3-.8-.5-1.2-.4-.9-.7-1.8-1-2.7-.1-.4-.3-.8-.4-1.2-.3-1-.6-1.9-.8-2.9-.2-.9-.5-1.9-.7-2.8-.8-3.8-1.2-7.8-1.2-11.8s0-1.4,0-2.1c0-.5,0-.9,0-1.4,0-.4,0-.7,0-1,0,0,0,0,0-.1,0-.6,0-1.1.1-1.7,0-.6.1-1.3.2-1.9,0,0,0-.2,0-.3,0-.5.1-1,.2-1.4,0-.3.1-.6.2-.9,0,0,0,0,0,0,0-.5.2-1.1.3-1.6.1-.5.2-1.1.4-1.6,0-.2.1-.4.2-.7.1-.6.3-1.1.5-1.7.1-.4.2-.8.3-1.1.1-.4.3-.9.4-1.3.1-.5.3-.9.5-1.4h0c.3-.9.7-1.8,1.1-2.7.4-.9.8-1.7,1.2-2.6h0c.4-.9.8-1.7,1.3-2.5.3-.6.7-1.2,1-1.8.2-.3.4-.6.6-.9.2-.3.4-.6.6-.9,0-.1.2-.3.3-.4.4-.7.9-1.3,1.3-2h0c.5-.7.9-1.3,1.4-2,0,0,0,0,0,0,.4-.5.7-.9,1.1-1.4,0,0,.1-.1.2-.2.2-.2.4-.4.5-.6,0,0,.1-.2.2-.2.4-.4.8-.9,1.2-1.3.6-.6,1.1-1.2,1.7-1.8.3-.3.7-.7,1-1,.3-.3.5-.5.8-.8,0,0,0,0,.1-.1,0,0,.2-.1.2-.2.3-.3.6-.5.9-.8.7-.6,1.4-1.2,2.2-1.8h0c.7-.6,1.5-1.2,2.2-1.7.4-.3.8-.5,1.2-.8h0c.6-.4,1.3-.9,1.9-1.2.6-.4,1.1-.7,1.7-1,.4-.2.8-.5,1.2-.7.3-.2.6-.3.9-.5.2-.1.5-.3.7-.4.3-.1.6-.3.9-.4.4-.2.7-.4,1.1-.5,0,0,.2,0,.2-.1,0,0,0,0,0,0,.4-.2.8-.4,1.2-.5.9-.4,1.8-.7,2.7-1.1.4-.2.9-.3,1.4-.5.5-.2.9-.3,1.4-.4.3,0,.5-.2.8-.2,0,0,.2,0,.3,0,0,0,0,0,0,0,.1,0,.2,0,.4-.1.4-.1.7-.2,1.1-.3,1-.3,2.1-.5,3.2-.7.4,0,.8-.2,1.3-.2,1-.2,1.9-.3,2.9-.4.4,0,.7,0,1.1-.1,0,0,.1,0,.2,0,.3,0,.5,0,.8,0,.4,0,.8,0,1.2,0,.4,0,.8,0,1.2,0,.5,0,1,0,1.5,0,.5,0,1,0,1.5,0h.8c.3,0,.5,0,.8,0,.4,0,.7,0,1,0,1.2,0,2.3.1,3.4.2,0,0,.1,0,.2,0,.7,0,1.4.2,2.1.3.2,0,.4,0,.6,0,.1,0,.3,0,.4,0,.3,0,.7.1,1,.2,0,0,0,0,0,0,0,0,0,0,0,0,.3,0,.5,0,.8.1,0,0,0,0,.1,0,0,0,.1,0,.2,0h0c.6.1,1.1.2,1.7.4.4,0,.9.2,1.3.3.4.1.9.2,1.3.4,0,0,0,0,.1,0,.6.2,1.2.4,1.9.6.3,0,.6.2.8.3.5.1.9.3,1.4.5h0c.9.3,1.8.7,2.7,1.1h0c.9.4,1.7.8,2.6,1.2.5.2.9.4,1.4.7.4.2.8.4,1.2.6.4.2.8.5,1.3.7.3.2.6.4.9.5.2.1.4.2.6.4.3.2.6.4.9.6.1,0,.3.2.4.3,0,0,0,0,0,0,0,0,0,0,0,0,.4.2.7.5,1.1.7.3.2.5.4.8.6.8.5,1.5,1.1,2.3,1.7.4.3.7.6,1.1.9.4.3.7.6,1.1.9.4.3.7.6,1,.9,0,0,0,0,.1,0,.3.3.6.6.9.9h0c.2.2.3.4.5.5l.5.5c.4.4.8.8,1.2,1.2,0,0,.1.1.2.2-7.2-4.5-15.7-7.1-24.8-7.1-26,0-47.1,21.2-47.1,47.1s21.1,47.1,47.1,47.1,17.6-2.6,24.8-7.1c-.5.5-.9,1-1.4,1.4-.3.3-.7.7-1,1-.5.5-1,1-1.6,1.4ZM219.1,230.7c-.5.3-1,.6-1.5.8-.6.4-1.3.7-1.9,1.1-.6.3-1.2.6-1.8.9-.7.4-1.5.7-2.2,1.1-.5.2-1,.5-1.5.7-.5.2-1,.5-1.5.7,0,0,0,0-.1,0-1.2.5-2.4,1-3.6,1.5-.8.3-1.5.6-2.3.9-.6.2-1.3.5-1.9.7,0,0-.1,0-.2,0,0,0-.1,0-.2,0-.7.3-1.5.5-2.2.7,0,0-.1,0-.2,0,0,0,0,0,0,0-.7.2-1.5.4-2.2.7-.7.2-1.3.4-2,.6-.7.2-1.3.3-1.9.5-.7.2-1.5.4-2.2.5,0,0-.1,0-.2,0-.3,0-.5.1-.8.2,0,0-.1,0-.2,0-.7.1-1.5.3-2.2.4-.1,0-.2,0-.3,0-.7.1-1.5.3-2.2.4,0,0,0,0-.1,0-.8.1-1.5.2-2.3.3-.2,0-.4,0-.6,0-.7,0-1.4.2-2.1.2,0,0,0,0,0,0-.7,0-1.3.1-2,.2-.4,0-.7,0-1.1,0-.7,0-1.3,0-2,.1-.6,0-1.1,0-1.7,0-.5,0-1,0-1.4,0-.7,0-1.4,0-2.1,0-55.7,0-101.1-45.4-101.1-101.1s0-1.2,0-1.9c0-.1,0-.2,0-.3,0-.4,0-.7,0-1.1,0-.7,0-1.3,0-2,0-.2,0-.3,0-.5,0-.4,0-.9,0-1.3,0,0,0-.1,0-.2h0c0-.5,0-.9,0-1.3,0-.5,0-1.1.1-1.6.2-1.8.4-3.6.7-5.4,0-.5.2-1,.3-1.5,0-.5.2-1,.3-1.6,0-.3.1-.7.2-1t0,0c0-.3.1-.6.2-.9,0-.4.2-.8.3-1.3v-.2c0-.1,0-.2.1-.4.2-1,.5-2,.7-3,.4-1.6.9-3.2,1.4-4.8.5-1.6,1-3.2,1.6-4.7.6-1.5,1.2-3.1,1.8-4.6.6-1.5,1.3-3,2-4.5.4-.7.7-1.5,1.1-2.2.2-.5.5-.9.7-1.4.3-.5.5-1,.8-1.5.1-.3.3-.6.5-.9.2-.3.3-.6.5-.9.3-.6.7-1.2,1-1.7.4-.7.9-1.4,1.3-2.1.2-.4.5-.7.7-1.1s0,0,0-.1c0,0,.1-.2.2-.2.2-.3.4-.6.6-.9,0,0,0-.1.1-.2,0,0,0,0,0-.1.2-.3.4-.6.7-.9,0,0,0,0,0-.1,0,0,0-.1.1-.2,0-.1.2-.3.3-.4.4-.6.8-1.2,1.3-1.7.5-.7,1-1.3,1.5-1.9.6-.8,1.3-1.6,1.9-2.4.5-.6,1-1.2,1.5-1.7.3-.3.5-.6.8-.9.5-.6,1-1.1,1.5-1.6.3-.3.5-.6.8-.9.5-.5,1-1,1.5-1.5,1.2-1.2,2.3-2.3,3.6-3.4.6-.5,1.2-1,1.8-1.6.5-.4.9-.8,1.4-1.2.5-.4,1-.8,1.5-1.2.5-.4.9-.7,1.4-1.1.4-.3.9-.7,1.3-1,.7-.5,1.3-1,2-1.4.7-.5,1.3-.9,2-1.4,1.3-.9,2.7-1.8,4.1-2.6.7-.4,1.4-.8,2.1-1.2.7-.4,1.4-.8,2.1-1.2,1.4-.8,2.9-1.5,4.3-2.2,1.5-.7,3-1.4,4.5-2,.8-.3,1.5-.6,2.3-.9.6-.2,1.2-.4,1.7-.7,1.2-.4,2.3-.8,3.5-1.2.6-.2,1.2-.4,1.8-.6.8-.3,1.6-.5,2.4-.7.8-.2,1.6-.4,2.4-.7.8-.2,1.6-.4,2.4-.6.8-.2,1.6-.4,2.5-.5.8-.2,1.7-.3,2.5-.5.7-.1,1.5-.3,2.2-.4,0,0,0,0,.1,0,0,0,.1,0,.2,0,.8-.1,1.6-.2,2.4-.3,0,0,0,0,0,0,0,0,0,0,0,0,.8,0,1.6-.2,2.5-.3.8-.1,1.7-.2,2.5-.2,1.7-.1,3.4-.2,5.2-.3.9,0,1.7,0,2.6,0s1.4,0,2.1,0c0,0,0,0,0,0,0,0,0,0,0,0,0,0,0,0,0,0h.3c0,0,.2,0,.2,0,.3,0,.5,0,.8,0h0c1,0,2,0,2.9.2.4,0,.8,0,1.2,0,.8,0,1.6.1,2.4.2.5,0,1,.1,1.5.2.6,0,1.3.1,1.9.2.6,0,1.3.2,1.9.3,1.9.3,3.7.6,5.6,1,.6.1,1.2.3,1.8.4.8.2,1.6.4,2.4.6,1.6.4,3.2.9,4.8,1.4,0,0,.1,0,.2,0,.7.2,1.4.5,2.2.7,2.7.9,5.4,2,8,3.1,1.1.5,2.2,1,3.3,1.5.1,0,.2.1.4.2.2.1.4.2.7.3,1.1.6,2.3,1.1,3.4,1.7,1.4.8,2.8,1.6,4.2,2.4,0,0,.1,0,.2.1-9.4-3.3-19.5-5-29.9-5-50.4,0-91.4,41-91.4,91.4s41,91.4,91.4,91.4,20.6-1.8,30-5.1c-.5.3-1,.6-1.4.9Z"/>
    <path class="st1" d="M144.2,0C64.7,0,0,64.7,0,144.2s64.7,144.2,144.2,144.2,144.2-64.7,144.2-144.2S223.7,0,144.2,0ZM202.9,255.1s0,0,0,0c-.2.1-.5.3-.7.4-.2.1-.5.3-.7.4-.5.3-1,.5-1.4.8-1.5.8-3,1.5-4.6,2.2-.1,0-.3.1-.4.2-.2,0-.4.2-.7.3-.8.4-1.6.7-2.4,1.1h0c-.1,0-.2.1-.4.1,0,0,0,0-.1,0-.1,0-.2,0-.4.1-.7.3-1.3.6-2,.8-1,.4-1.9.7-2.9,1.1-.1,0-.3.1-.4.2-.7.3-1.3.5-2,.7,0,0,0,0,0,0-.1,0-.3,0-.4.1-.9.3-1.8.6-2.7.9-.2,0-.4.1-.6.2-.7.2-1.4.4-2.2.7h0s0,0,0,0c0,0-.2,0-.3,0-2,.6-4,1.1-6,1.6-.9.2-1.8.4-2.7.6-.5,0-.9.2-1.4.3-.7.1-1.3.3-2,.4-.9.2-1.8.3-2.7.5-.5,0-1.1.2-1.6.2-.7.1-1.4.2-2.2.3-.9.1-1.9.2-2.8.3,0,0-.2,0-.2,0-1,0-2,.2-3,.3-.8,0-1.5.1-2.3.1,0,0-.1,0-.2,0-.4,0-.7,0-1.1,0-.7,0-1.3,0-2,0h-.2c-.3,0-.7,0-1,0-.9,0-1.9,0-2.9,0s-2.1,0-3.2,0h-.1c-.9,0-1.9,0-2.8-.1-.3,0-.6,0-.9,0-.7,0-1.5,0-2.2-.1-.3,0-.6,0-.9,0-.9,0-1.8-.1-2.7-.2-.9,0-1.8-.2-2.7-.3-.4,0-.9-.1-1.3-.2,0,0-.2,0-.3,0-1.3-.2-2.5-.4-3.8-.6,0,0-.2,0-.3,0-.7-.1-1.5-.2-2.2-.4-.6-.1-1.3-.2-1.9-.4-.3,0-.5-.1-.8-.2-.7-.2-1.5-.3-2.2-.5-1-.2-2-.5-3-.7-1-.3-2-.5-3-.8-.7-.2-1.4-.4-2.1-.6,0,0,0,0,0,0,0,0,0,0-.1,0-.4-.1-.8-.3-1.3-.4h0c-.5-.2-1-.3-1.5-.5,0,0-.2,0-.3,0-.4-.1-.9-.3-1.3-.4-.7-.2-1.4-.5-2.1-.7-.9-.3-1.8-.7-2.7-1,0,0-.1,0-.2,0-.7-.3-1.3-.5-2-.8-.5-.2-1-.4-1.5-.6-.8-.3-1.5-.7-2.2-1-1-.4-2-.9-3-1.4-1-.5-2-1-3-1.5-.5-.3-1.1-.6-1.6-.9-.4-.2-.8-.4-1.2-.6,0,0-.1,0-.2-.1-.4-.2-.9-.5-1.3-.7-.4-.2-.9-.5-1.3-.7-1.3-.8-2.6-1.6-3.9-2.4,0,0,0,0,0,0-.4-.2-.7-.5-1.1-.7-.4-.2-.7-.5-1.1-.7-.8-.5-1.5-1-2.2-1.5-.5-.4-1.1-.7-1.6-1.1-.5-.3-.9-.7-1.4-1-.7-.5-1.5-1.1-2.2-1.7,0,0-.1,0-.2-.1-.3-.2-.6-.5-.9-.7-.7-.5-1.4-1.1-2.1-1.7-.8-.6-1.6-1.3-2.3-2-.9-.8-1.8-1.6-2.7-2.4-.5-.5-1-.9-1.5-1.4-.5-.5-1-.9-1.4-1.4-.5-.5-1.1-1-1.6-1.5-.4-.4-.9-.9-1.3-1.4-.6-.6-1.2-1.2-1.7-1.8-.4-.4-.8-.8-1.1-1.2-1.2-1.4-2.4-2.7-3.6-4.1-.6-.7-1.2-1.5-1.8-2.2h0c-1.2-1.6-2.5-3.2-3.6-4.9-.5-.7-.9-1.3-1.4-2-.1-.2-.3-.4-.4-.6-.5-.7-.9-1.4-1.4-2.1-.6-.9-1.2-1.9-1.8-2.9-.5-.9-1-1.7-1.5-2.6,0-.1-.1-.2-.2-.3,0,0,0,0,0,0,0,0,0,0,0-.1,0,0,0,0,0,0-.3-.4-.5-.8-.7-1.2,0,0,0,0,0-.1,0,0,0,0,0-.1,0,0,0,0,0,0-.1-.2-.2-.4-.4-.6-.3-.6-.6-1.1-.9-1.7-.3-.6-.6-1.2-.9-1.9-.6-1.2-1.2-2.5-1.8-3.7,0-.1,0-.2-.1-.3,0,0,0,0,0-.1-.3-.6-.6-1.3-.8-1.9-.1-.3-.3-.6-.4-.9-.4-.8-.7-1.7-1-2.5,0-.1,0-.2-.1-.4-.1-.3-.2-.6-.4-.9h0c-.3-.8-.5-1.4-.8-2.1-.1-.3-.2-.5-.3-.8-.3-.7-.5-1.4-.7-2-.1-.4-.3-.8-.4-1.2,0-.2-.2-.5-.2-.7-.2-.5-.3-1-.5-1.5-.6-2-1.2-4-1.7-6-.1-.5-.2-1-.4-1.4,0-.4-.2-.8-.3-1.2,0-.4-.2-.8-.3-1.2-.2-1.1-.5-2.2-.7-3.3-.2-1-.4-2-.5-3,0-.2,0-.4-.1-.6,0,0,0,0,0-.1v-.2c0,0,0-.1,0-.2,0-.4-.1-.8-.2-1.2,0-.4-.1-.8-.2-1.2,0-.2,0-.4,0-.5,0,0,0-.1,0-.2,0,0,0-.2,0-.3,0-.5-.1-1-.2-1.5,0-.6-.1-1.1-.2-1.7,0-.2,0-.4,0-.7,0-.5-.1-1-.1-1.6,0-.3,0-.5,0-.8h0c0-.6,0-1.2-.1-1.7h0c0,0,0-.1,0-.1,0-.1,0-.3,0-.4,0-.2,0-.3,0-.5h0c0-.6,0-1.1,0-1.5,0,0,0-.1,0-.2,0-.8,0-1.5,0-2.3,0-.3,0-.6,0-1,0-.9,0-1.7,0-2.6s0-2.2,0-3.3c0-.5,0-1,0-1.6,0-.2,0-.4,0-.6h0c0-.5,0-1,0-1.5,0,0,0-.1,0-.2,0,0,0-.2,0-.2,0-.7,0-1.3.1-2v-1q0,0,0,0c0-1,.2-2,.3-2.9,0-.5.1-1,.2-1.5,0-.6.1-1.2.2-1.8,0,0,0,0,0,0,0-.1,0-.2,0-.3,0,0,0,0,0-.1.1-1.1.3-2.2.5-3.3.2-1,.3-2,.5-3,0,0,0-.2,0-.3,0,0,0,0,0,0,0-.4.2-.9.3-1.4,0-.4.2-.9.3-1.4,0-.1,0-.2,0-.4,0-.1,0-.3,0-.4.2-.8.4-1.7.6-2.5,0,0,0-.2,0-.3,0-.1,0-.3,0-.4t0,0c.2-.7.4-1.4.5-2.1.1-.5.3-1,.4-1.4.2-.9.5-1.7.8-2.6.1-.4.3-.9.4-1.4.1-.4.3-.9.4-1.4,0-.2.1-.4.2-.6.1-.4.3-.8.4-1.2.1-.4.3-.8.4-1.2.2-.5.4-1.1.6-1.6,0,0,0-.1,0-.2,0-.2.1-.3.2-.5.3-.7.5-1.4.8-2,0,0,0,0,0-.1,0-.1.1-.3.2-.4.2-.7.5-1.3.8-1.9.4-.9.8-1.9,1.2-2.8.8-1.9,1.7-3.7,2.7-5.5.3-.6.6-1.1.9-1.7,0,0,0-.1.1-.2,0,0,0,0,0-.1,0,0,.1-.2.2-.3.1-.2.3-.5.4-.7,0,0,0-.2.1-.3,0,0,0-.1,0-.2.3-.6.7-1.2,1-1.9.5-.9,1-1.8,1.5-2.6.5-.9,1.1-1.7,1.6-2.6,1.1-1.7,2.2-3.4,3.4-5,.6-.8,1.2-1.6,1.8-2.5.6-.8,1.2-1.6,1.8-2.4.6-.8,1.2-1.6,1.9-2.4,2.6-3.1,5.3-6.1,8.2-9,.6-.6,1.1-1.1,1.7-1.7.5-.5,1.1-1,1.6-1.5h0c.5-.5,1-1,1.5-1.4.4-.4.9-.8,1.3-1.2.4-.3.8-.7,1.2-1,.5-.4,1-.9,1.5-1.3,0,0,0,0,0,0,.8-.7,1.6-1.3,2.4-1.9,1.2-.9,2.4-1.9,3.6-2.7,1.2-.9,2.5-1.8,3.7-2.6.8-.6,1.7-1.1,2.5-1.7,1.7-1.1,3.4-2.2,5.2-3.2h0c1.8-1,3.5-2,5.4-2.9,1.8-.9,3.7-1.8,5.5-2.7.9-.4,1.9-.8,2.8-1.2.9-.4,1.9-.8,2.8-1.2.9-.4,1.9-.7,2.9-1.1h0c1-.4,1.9-.7,2.9-1,.8-.3,1.6-.5,2.4-.8.4-.1.9-.3,1.3-.4,0,0,.1,0,.2,0,.7-.2,1.3-.4,2-.6,0,0,0,0,.1,0,0,0,0,0,0,0,.9-.3,1.9-.5,2.9-.8,1-.3,2-.5,3-.7.5-.1,1.1-.3,1.7-.4,0,0,0,0,0,0,0,0,.2,0,.3,0,.5-.1,1-.2,1.4-.3,1.8-.4,3.6-.7,5.5-1,.3,0,.5,0,.8-.1.4,0,.8-.1,1.2-.2.3,0,.6,0,.9-.1h.6c.4-.1.7-.2,1.1-.2,0,0,.1,0,.2,0,0,0,0,0,.1,0,.2,0,.4,0,.7,0,0,0,.1,0,.2,0,.6,0,1.2-.1,1.8-.2.5,0,1,0,1.5-.1.5,0,1,0,1.5-.1.9,0,1.8-.1,2.7-.2,1,0,2,0,3-.1,1.1,0,2.2,0,3.2,0h0c.9,0,1.8,0,2.6,0,.3,0,.6,0,.9,0h0c.8,0,1.7,0,2.5,0,.3,0,.5,0,.8,0,.3,0,.6,0,.9,0,.2,0,.3,0,.5,0,.7,0,1.5,0,2.2.2h0c.1,0,.3,0,.4,0,.5,0,1,0,1.5.1.4,0,.8,0,1.2.1.1,0,.2,0,.3,0,.2,0,.4,0,.6,0,0,0,0,0,0,0,.8,0,1.7.2,2.5.3.1,0,.2,0,.4,0,.1,0,.3,0,.4,0,.2,0,.5,0,.7,0,.2,0,.5,0,.7.1.5,0,1,.1,1.4.2,0,0,.1,0,.1,0,.2,0,.4,0,.6.1,0,0,0,0,.1,0,.3,0,.5,0,.8.1.6,0,1.1.2,1.7.3,0,0,0,0,.1,0,.2,0,.3,0,.5,0,.9.2,1.8.4,2.7.6.6.1,1.2.3,1.8.4,1.5.4,3,.7,4.6,1.2.7.2,1.4.4,2.1.6.7.2,1.4.4,2.1.7.4.1.9.3,1.3.4.4.1.9.3,1.3.4.7.2,1.4.5,2.1.8.3,0,.6.2.9.3h0c.6.2,1.2.5,1.8.7.4.2.9.3,1.3.5.5.2,1,.4,1.6.6.9.4,1.7.7,2.5,1.1,1,.5,2.1.9,3.1,1.4h0c.6.3,1.2.6,1.8.9.6.3,1.2.6,1.8.9.6.3,1.2.6,1.8.9.8.4,1.6.9,2.4,1.3.8.4,1.6.9,2.4,1.4.8.4,1.5.9,2.2,1.4.5.3,1,.6,1.5,1,.6.4,1.1.7,1.6,1.1.6.4,1.1.7,1.6,1.1,1.3.9,2.6,1.8,3.9,2.8.5.4,1.1.8,1.6,1.2.3.2.6.5.9.7.3.2.6.5.9.7,0,0,0,0,.1,0,0,0,0,0,0,0,0,0,0,0,.1.1,0,0,.1.1.2.2.5.4,1,.8,1.4,1.2,0,0,0,0,.1,0,1,.8,2,1.7,2.9,2.5.5.4,1,.9,1.5,1.3.5.4,1,.9,1.4,1.3.3.3.7.6,1,.9,0,0,.2.2.3.3.1.1.3.3.4.4.2.2.4.4.6.6.2.2.4.4.6.6.8.8,1.6,1.6,2.4,2.5.3.3.6.6.8.9,0,0,.2.2.3.3,0,0,0,0,0,0,.4.5.9,1,1.3,1.5,0,0,0,.1.1.2.2.2.4.4.6.7.3.4.6.7.9,1.1.4.5.9,1.1,1.3,1.6,0,0,0,.1.1.2.5.6,1,1.2,1.5,1.8.3.4.6.8.9,1.2.5.6,1,1.2,1.4,1.9,0,0,0,0,0,0,0,0,.1.2.2.3,0,0,0,0,0,0,0,0,0,0,0,.1,0,0,.1.2.2.3,0,0,.1.2.2.3,0,0,0,.1.1.2,0,0,0,0,0,0,0,0,0,0,0,0,0,0,.1.2.2.3.4.5.7,1,1,1.4.1.2.2.3.3.5.4.6.8,1.1,1.2,1.7.5.7,1,1.5,1.5,2.2.4.6.8,1.2,1.2,1.9.3.4.5.8.8,1.2.4.7.8,1.3,1.2,2,0,.1.1.2.2.3.4.7.8,1.4,1.1,2,0,.1.1.3.2.4.9,1.6,1.7,3.3,2.5,5h0c.4.8.8,1.6,1.1,2.4.3.6.6,1.3.9,1.9.3.7.6,1.3.9,2,.3.7.5,1.3.8,2,.2.6.5,1.2.7,1.8.1.3.3.7.4,1s.3.7.4,1.1c0,.2.1.4.2.5.3.9.7,1.9,1,2.8.4,1.1.7,2.2,1,3.2.4,1.2.7,2.4,1,3.6.3,1,.5,2,.8,3t0,0c.2.9.4,1.8.6,2.7.1.6.3,1.2.4,1.9.3,1.2.5,2.4.7,3.6.3,1.4.5,2.9.7,4.4,0,.1,0,.2,0,.4,0,.5.1,1,.2,1.5,0,.6.1,1.1.2,1.7,0,.6.1,1.2.2,1.7,0,0,0,0,0,.1,0,.4,0,.7.1,1,0,.4,0,.7,0,1h0c0,.2,0,.3,0,.4,0,0,0,.1,0,.2,0,.4,0,.8,0,1.2,0,.2,0,.4,0,.5,0,.2,0,.3,0,.5h0c0,.1,0,.1,0,.2h0v.2c.1,2.1.2,4.3.2,6.4s0,1.8,0,2.8h0v.2c0,0,0,.2,0,.3v.2h0c0,.1,0,.2,0,.2,0,0,0,.1,0,.2h0c0,.1,0,.2,0,.3v.3c0,.3,0,.6,0,.9,0,.4,0,.7,0,1.1,0,.4,0,.9,0,1.3,0,.5,0,1.1-.1,1.6,0,.5,0,1.1-.1,1.6,0,.5,0,.9-.1,1.4,0,.5-.1.9-.2,1.4,0,.4,0,.7-.1,1,0,.6-.1,1.1-.2,1.6,0,.6-.1,1.1-.2,1.6,0,.4,0,.7-.1,1.1,0,.4-.1.9-.2,1.3-.1.7-.2,1.3-.3,2-.1.9-.3,1.7-.5,2.6-.2.9-.4,1.9-.6,2.8,0,0,0,0,0,0-.2.8-.3,1.5-.5,2.3-.2,1.1-.5,2.2-.8,3.2,0,.1,0,.3-.1.4,0,0,0,0,0,.1-.2.6-.3,1.2-.5,1.8-.4,1.5-.9,2.9-1.4,4.3-.1.4-.3.9-.4,1.3-.1.4-.3.8-.4,1.2-.2.5-.3.9-.5,1.4-.2.7-.5,1.3-.8,2s-.5,1.3-.8,2c-.3.7-.5,1.3-.8,1.9,0,.2-.2.4-.3.7-.2.4-.4.8-.5,1.2-.2.4-.4.8-.6,1.2,0,0,0,0,0,0,0,0,0,0,0,0-.2.4-.4.8-.5,1.2-.2.4-.4.8-.6,1.2l-.8,1.5c-.2.4-.4.9-.7,1.3,0,0,0,.1-.1.2,0,.1-.1.3-.2.4,0,.2-.2.4-.3.6,0,0,0,.1-.1.2,0,0,0,0,0,.1-.2.4-.5.8-.7,1.3,0,.1-.1.2-.2.4-.1.2-.3.5-.4.7-.3.4-.5.9-.8,1.3-.3.5-.6,1.1-.9,1.6,0,0,0,0,0,0-.3.4-.5.9-.8,1.3,0,0,0,.1,0,.2-.4.7-.9,1.4-1.3,2.1-.3.5-.7,1-1,1.5-.3.4-.6.9-.9,1.3h0s0,0,0,0c-.4.5-.7,1-1.1,1.5-.4.5-.7,1-1.1,1.5-.7,1-1.4,2-2.2,2.9-.4.5-.7.9-1.1,1.4-.4.5-.7.9-1.1,1.4-.5.6-1,1.2-1.5,1.8s-1,1.2-1.6,1.8c-.5.6-1,1.2-1.6,1.8-.3.3-.6.7-.9,1-.6.7-1.2,1.3-1.8,1.9-.2.2-.4.4-.7.7-.2.2-.4.4-.7.7-1.1,1.1-2.2,2.2-3.4,3.2-.6.5-1.1,1-1.7,1.5-.2.2-.4.4-.6.5-.3.3-.7.6-1,.9-.3.2-.6.5-.8.7-.7.6-1.3,1.1-2,1.6-.3.2-.6.4-.8.7-.2.2-.5.4-.8.6-.2.2-.5.4-.7.6-.2.2-.5.4-.7.6-.2.2-.5.4-.7.5-.4.3-.9.7-1.3,1,0,0,0,0-.1,0-.9.7-1.8,1.3-2.7,1.9-.5.3-.9.7-1.4,1,0,0,0,0,0,0-.4.3-.7.5-1.1.7,0,0-.1,0-.2.1-.1,0-.3.2-.4.2-.4.2-.7.5-1.1.7-.3.2-.6.4-.9.6,0,0,0,0,0,0-.6.4-1.2.7-1.9,1.1-.2.1-.5.3-.7.4-.3.2-.6.3-.9.5-.3.2-.6.3-.9.5-.6.3-1.1.6-1.7.9,0,0,0,0,0,0Z"/>
  </g>
  <g>
    <path class="st0" d="M269,141c0-.1,0-.3,0-.4,0-.4,0-.7,0-1,0,0,0-.2,0-.3s0-.1,0-.2c0,0,0-.1,0-.2,0-.4,0-.7,0-1.1h0c0,0,0,0,0-.1h0c0,0,0-.1,0-.2,0-.2,0-.3,0-.5,0-.4,0-.8,0-1.2,0-.2,0-.4,0-.5,0,0,0-.1,0-.2,0-.1,0-.2,0-.3h0c0-.2,0-.4,0-.5,0-.6-.1-1.2-.2-1.8,0-.4,0-.8-.1-1.2,0-.4,0-.8-.1-1.2,0,0,0-.1,0-.2,0-.2,0-.5,0-.7,0-.1,0-.2,0-.4,0,0,0-.1,0-.2-.1-.6-.2-1.2-.3-1.8h0c0-.1,0-.2,0-.3,0-.6-.2-1.1-.3-1.7,0-.2,0-.4-.1-.6,0-.1,0-.2,0-.3-.1-.5-.2-1.1-.3-1.6,0-.2,0-.5-.1-.7,0-.1,0-.3,0-.4,0-.3-.1-.6-.2-.9,0,0,0,0,0,0-.1-.6-.3-1.1-.4-1.7,0-.2,0-.4-.1-.5,0,0,0,0,0,0,0,0,0-.1,0-.2,0-.2-.1-.4-.2-.7-.3-1-.6-2-.9-3,0-.3-.2-.6-.3-.9h0c-.2-.6-.4-1.2-.6-1.7,0-.2-.1-.4-.2-.6-.2-.6-.4-1.3-.7-1.9,0-.2-.2-.5-.3-.7-.2-.5-.4-1.1-.6-1.6,0,0,0-.1,0-.2-.3-.8-.6-1.5-.9-2.3-.2-.6-.5-1.1-.7-1.7-.1-.3-.3-.6-.4-.8-.1-.3-.2-.5-.4-.8-.2-.4-.4-.8-.6-1.2-.4-.7-.7-1.5-1.1-2.2-.3-.5-.6-1.1-.9-1.6-.3-.5-.5-1-.8-1.5-.4-.7-.8-1.5-1.3-2.2-.3-.4-.5-.9-.8-1.3-.3-.4-.5-.9-.8-1.3-.1-.2-.2-.4-.4-.6-.4-.7-.8-1.3-1.3-1.9-.3-.4-.6-.9-.9-1.3-.4-.6-.8-1.1-1.2-1.7,0,0,0,0,0,0-.5-.7-.9-1.3-1.4-1.9,0,0,0,0,0,0-.1-.2-.3-.4-.4-.6-.4-.5-.7-.9-1.1-1.4-.3-.4-.6-.8-.9-1.2,0,0,0,0,0,0h0c0,0,0-.2-.2-.2,0,0-.1-.1-.2-.2-.3-.4-.6-.8-1-1.1-.3-.4-.6-.8-1-1.1-.1-.2-.3-.3-.4-.5,0,0,0-.1-.1-.2-.3-.4-.7-.7-1-1.1-.3-.3-.6-.6-.9-.9-.2-.3-.5-.5-.7-.7,0,0-.1-.1-.2-.2-.1-.1-.3-.3-.5-.5,0,0-.2-.2-.2-.2-.5-.5-1.1-1.1-1.6-1.6-.4-.4-.8-.7-1.2-1.1-.6-.6-1.2-1.1-1.9-1.7-.2-.2-.4-.3-.6-.5-.6-.5-1.2-1.1-1.8-1.6-.5-.4-.9-.8-1.4-1.1-.2-.1-.4-.3-.6-.4,0,0-.2-.1-.3-.2-.5-.4-1-.8-1.6-1.2-.7-.5-1.3-1-2-1.4-.5-.3-1-.7-1.4-1-1.5-1-3-2-4.5-2.9h0c-9.4-3.3-19.5-5-29.9-5-50.4,0-91.4,41-91.4,91.4s41,91.4,91.4,91.4,20.6-1.8,30-5.1c.6-.4,1.2-.8,1.8-1.2.7-.4,1.4-.9,2-1.3.7-.5,1.4-1,2.1-1.5.6-.4,1.2-.9,1.8-1.4,1-.7,1.9-1.4,2.9-2.2.4-.3.8-.7,1.2-1,.5-.4,1.1-.9,1.6-1.4.5-.4,1-.8,1.4-1.3,0,0,0,0,0,0,.2-.1.3-.3.5-.4.3-.3.7-.6,1-.9h0c.4-.4.8-.8,1.2-1.2.5-.4.9-.9,1.4-1.4.4-.4.7-.7,1.1-1.1.5-.5.9-.9,1.3-1.4,0,0,0,0,.1-.1.4-.5.9-.9,1.3-1.4.6-.7,1.2-1.3,1.7-2,0,0,.1-.2.2-.2.2-.3.4-.5.7-.8.2-.3.4-.5.6-.8.5-.7,1-1.3,1.5-2,.5-.6.9-1.2,1.4-1.8,0,0,0-.1.1-.2,0,0,0-.1.1-.2,0,0,0,0,0,0,.3-.4.6-.9,1-1.4.3-.4.5-.7.7-1.1.2-.4.5-.7.7-1.1.7-1,1.3-2,1.9-3,.3-.5.6-1,.9-1.6,0,0,0,0,0,0,0,0,0-.1.1-.2.3-.6.7-1.1,1-1.7s.7-1.2,1-1.8c.5-.9.9-1.8,1.4-2.7.2-.3.3-.7.5-1,.2-.4.4-.8.6-1.2,0-.2.2-.4.3-.6.2-.5.4-1,.7-1.5,0-.1.1-.3.2-.4.2-.4.4-.9.5-1.3.2-.5.4-1.1.7-1.6.3-.8.6-1.5.9-2.3.3-.7.5-1.4.7-2.1.3-.8.5-1.5.8-2.3.3-1,.6-2.1.9-3.1.3-1,.5-1.9.8-2.9,0-.2,0-.4.1-.5,0,0,0,0,0-.1.1-.5.2-1,.3-1.4,0,0,0-.2,0-.3,0,0,0-.2,0-.3,0,0,0,0,0,0,0-.4.2-.8.2-1.2.2-.9.4-1.8.5-2.7,0-.5.2-1,.3-1.5,0-.2,0-.4,0-.5,0-.3.1-.7.1-1,0-.2,0-.4,0-.6,0-.1,0-.3,0-.5,0-.3,0-.5.1-.8,0-.2,0-.4,0-.6,0-.6.1-1.2.2-1.8,0-.6.1-1.3.2-1.9,0-.4,0-.8,0-1.2v-1.9c.1,0,.1-.2.1-.3v-.3c0,0,0-.1,0-.2h0c0-.1,0-.2,0-.2v-.2s0,0,0-.1h0c0-.2,0-.3,0-.4h0v-.2h0v-.2s0,0,0,0h0c0,0,0-.1,0-.2h0c0-.2,0-.3,0-.4,0-.7,0-1.3,0-1.9,0-.2,0-.4,0-.7,0-.9,0-1.7,0-2.6ZM249.1,187.5c-.5.5-1.1.9-1.6,1.4h0c-.5.4-1.1.9-1.7,1.3-.1.1-.3.2-.4.3-.1.1-.3.2-.4.3-.3.2-.6.4-.9.7-.6.4-1.2.8-1.8,1.2-.2.1-.4.3-.6.4-.2.1-.4.3-.6.4-.4.2-.7.4-1.1.6-.5.3-1,.6-1.6.9-.3.1-.5.3-.8.4-.2.1-.5.3-.8.4,0,0-.1,0-.2.1,0,0,0,0,0,0-.4.2-.9.4-1.3.7-.2.1-.5.2-.7.3-.5.2-1,.4-1.5.7-.4.2-.8.3-1.1.5-.4.2-.8.3-1.3.5-.4.1-.9.3-1.3.5-.4.1-.9.3-1.4.4-.4.1-.9.3-1.4.4-1.1.3-2.3.6-3.4.9-.5.1-1,.2-1.5.3,0,0,0,0,0,0-.3,0-.6.1-.8.2-.5,0-1,.2-1.6.3-.4,0-.8.1-1.1.2-.5,0-1.1.1-1.6.2-.1,0-.3,0-.4,0,0,0-.2,0-.2,0,0,0-.2,0-.3,0-.1,0-.3,0-.4,0,0,0-.2,0-.3,0,0,0-.2,0-.3,0-.3,0-.7,0-1,0-.7,0-1.3,0-1.9,0-.5,0-1,0-1.5,0-.9,0-1.8,0-2.6,0-.9,0-1.7,0-2.6-.2-.9,0-1.7-.2-2.6-.3-.6,0-1.3-.2-1.9-.3-.6-.1-1.3-.2-1.9-.3-.6-.1-1.2-.3-1.9-.4-.6-.1-1.1-.3-1.7-.4h-.2c0,0-.1,0-.2,0-.4-.1-.7-.2-1.1-.3-.5-.1-.9-.3-1.4-.4,0,0,0,0,0,0-.7-.2-1.5-.5-2.2-.7-.9-.3-1.8-.7-2.7-1.1-.9-.4-1.7-.8-2.6-1.2h0c-.9-.4-1.7-.9-2.5-1.3-.8-.5-1.7-.9-2.5-1.4,0,0,0,0,0,0-.3-.2-.6-.4-1-.6-.3-.2-.5-.3-.8-.5,0,0-.1,0-.2-.1-.6-.4-1.1-.7-1.6-1.1-.8-.5-1.5-1.1-2.2-1.7t0,0c-1.5-1.2-2.9-2.4-4.3-3.7t0,0c-.4-.3-.7-.7-1-1-.6-.6-1.1-1.2-1.7-1.8-.6-.6-1.1-1.2-1.6-1.8,0,0,0,0,0,0-.5-.6-1-1.2-1.5-1.9-.5-.7-1-1.3-1.5-2-.5-.8-1.1-1.5-1.6-2.3h0c-.5-.8-1-1.6-1.5-2.4-.5-.9-.9-1.7-1.4-2.6-.2-.4-.4-.8-.6-1.2,0,0,0,0,0-.1,0,0,0-.1,0-.2-.1-.2-.2-.4-.3-.7,0-.2-.1-.3-.2-.5-.2-.4-.4-.9-.6-1.3-.2-.4-.3-.8-.5-1.2-.4-.9-.7-1.8-1-2.7-.1-.4-.3-.8-.4-1.2-.3-1-.6-1.9-.8-2.9-.2-.9-.5-1.9-.7-2.8-.8-3.8-1.2-7.8-1.2-11.8s0-1.4,0-2.1c0-.5,0-.9,0-1.4,0-.4,0-.7,0-1,0,0,0,0,0-.1,0-.6,0-1.1.1-1.7,0-.6.1-1.3.2-1.9,0,0,0-.2,0-.3,0-.5.1-1,.2-1.4,0-.3.1-.6.2-.9,0,0,0,0,0,0,0-.5.2-1.1.3-1.6.1-.5.2-1.1.4-1.6,0-.2.1-.4.2-.7.1-.6.3-1.1.5-1.7.1-.4.2-.8.3-1.1.1-.4.3-.9.4-1.3.1-.5.3-.9.5-1.4h0c.3-.9.7-1.8,1.1-2.7.4-.9.8-1.7,1.2-2.6h0c.4-.9.8-1.7,1.3-2.5.3-.6.7-1.2,1-1.8.2-.3.4-.6.6-.9.2-.3.4-.6.6-.9,0-.1.2-.3.3-.4.4-.7.9-1.3,1.3-2h0c.5-.7.9-1.3,1.4-2,0,0,0,0,0,0,.4-.5.7-.9,1.1-1.4,0,0,.1-.1.2-.2.2-.2.4-.4.5-.6,0,0,.1-.2.2-.2.4-.4.8-.9,1.2-1.3.6-.6,1.1-1.2,1.7-1.8.3-.3.7-.7,1-1,.3-.3.5-.5.8-.8,0,0,0,0,.1-.1,0,0,.2-.1.2-.2.3-.3.6-.5.9-.8.7-.6,1.4-1.2,2.2-1.8h0c.7-.6,1.5-1.2,2.2-1.7.4-.3.8-.5,1.2-.8h0c.6-.4,1.3-.9,1.9-1.2.6-.4,1.1-.7,1.7-1,.4-.2.8-.5,1.2-.7.3-.2.6-.3.9-.5.2-.1.5-.3.7-.4.3-.1.6-.3.9-.4.4-.2.7-.4,1.1-.5,0,0,.2,0,.2-.1,0,0,0,0,0,0,.4-.2.8-.4,1.2-.5.9-.4,1.8-.7,2.7-1.1.4-.2.9-.3,1.4-.5.5-.2.9-.3,1.4-.4.3,0,.5-.2.8-.2,0,0,.2,0,.3,0,0,0,0,0,0,0,.1,0,.2,0,.4-.1.4-.1.7-.2,1.1-.3,1-.3,2.1-.5,3.2-.7.4,0,.8-.2,1.3-.2,1-.2,1.9-.3,2.9-.4.4,0,.7,0,1.1-.1,0,0,.1,0,.2,0,.3,0,.5,0,.8,0,.4,0,.8,0,1.2,0,.4,0,.8,0,1.2,0,.5,0,1,0,1.5,0,.5,0,1,0,1.5,0h.8c.3,0,.5,0,.8,0,.4,0,.7,0,1,0,1.2,0,2.3.1,3.4.2,0,0,.1,0,.2,0,.7,0,1.4.2,2.1.3.2,0,.4,0,.6,0,.1,0,.3,0,.4,0,.3,0,.7.1,1,.2,0,0,0,0,0,0,0,0,0,0,0,0,.3,0,.5,0,.8.1,0,0,0,0,.1,0,0,0,.1,0,.2,0h0c.6.1,1.1.2,1.7.4.4,0,.9.2,1.3.3.4.1.9.2,1.3.4,0,0,0,0,.1,0,.6.2,1.2.4,1.9.6.3,0,.6.2.8.3.5.1.9.3,1.4.5h0c.9.3,1.8.7,2.7,1.1h0c.9.4,1.7.8,2.6,1.2.5.2.9.4,1.4.7.4.2.8.4,1.2.6.4.2.8.5,1.3.7.3.2.6.4.9.5.2.1.4.2.6.4.3.2.6.4.9.6.1,0,.3.2.4.3,0,0,0,0,0,0,0,0,0,0,0,0,.4.2.7.5,1.1.7.3.2.5.4.8.6.8.5,1.5,1.1,2.3,1.7.4.3.7.6,1.1.9.4.3.7.6,1.1.9.4.3.7.6,1,.9,0,0,0,0,.1,0,.3.3.6.6.9.9h0c.2.2.3.4.5.5l.5.5c.4.4.8.8,1.2,1.2,0,0,.1.1.2.2-7.2-4.5-15.7-7.1-24.8-7.1-26,0-47.1,21.2-47.1,47.1s21.1,47.1,47.1,47.1,17.6-2.6,24.8-7.1c-.5.5-.9,1-1.4,1.4-.3.3-.7.7-1,1-.5.5-1,1-1.6,1.4ZM226.2,213.5c-.4.2-.9.4-1.3.7-.3.1-.5.3-.8.4,0,0,0,0,0,0-.4.2-.8.4-1.2.5-.6.3-1.2.5-1.7.8-1,.4-2,.8-3.1,1.2-.5.2-1.1.4-1.6.6-.5.2-1,.4-1.5.5-.6.2-1.2.4-1.8.6,0,0-.1,0-.2,0,0,0-.2,0-.3,0,0,0-.2,0-.2,0,0,0,0,0,0,0-.4.1-.8.2-1.2.3,0,0,0,0,0,0-.1,0-.2,0-.4,0-.5.1-1,.3-1.5.4-.6.2-1.3.3-1.9.4-.6.1-1.1.3-1.7.4-1.7.4-3.5.6-5.3.8-.7,0-1.4.2-2.2.2-.1,0-.2,0-.4,0-.2,0-.5,0-.7,0-.2,0-.5,0-.7,0,0,0-.2,0-.3,0s-.2,0-.2,0c-.2,0-.4,0-.6,0-.5,0-1,0-1.5,0-.4,0-.8,0-1.2,0-.7,0-1.3,0-2,0s-1,0-1.5,0c-.4,0-.7,0-1.1,0-.1,0-.3,0-.4,0-.6,0-1.2,0-1.7,0-.3,0-.7,0-1,0,0,0-.2,0-.2,0-.7,0-1.4-.1-2.2-.2-.8,0-1.6-.2-2.5-.3,0,0-.1,0-.2,0-.6,0-1.2-.2-1.8-.3-.5,0-1-.2-1.5-.3-.5,0-.9-.2-1.4-.3-.4,0-.9-.2-1.3-.3-.7-.1-1.4-.3-2.2-.5-.6-.1-1.2-.3-1.7-.4,0,0,0,0-.1,0-.5-.1-1.1-.3-1.6-.5-.5-.1-1-.3-1.6-.5,0,0,0,0-.1,0-1-.3-2-.7-2.9-1-.6-.2-1.2-.4-1.8-.7-.7-.3-1.4-.6-2.1-.9-2.2-.9-4.4-2-6.5-3.2-.4-.2-.8-.5-1.2-.7-.4-.2-.7-.4-1-.6-.4-.2-.9-.5-1.3-.8-.8-.5-1.5-.9-2.3-1.5-.3-.2-.7-.4-1-.6-.7-.5-1.5-1-2.2-1.5-.4-.3-.8-.6-1.2-.9-.5-.4-1-.8-1.5-1.2-.8-.6-1.5-1.2-2.3-1.9-.5-.4-.9-.8-1.4-1.2,0,0,0,0-.1-.1-.4-.4-.9-.8-1.3-1.2-.5-.4-.9-.9-1.4-1.3-.9-.9-1.8-1.8-2.6-2.7-.5-.5-1-1.1-1.4-1.6-.4-.4-.7-.8-1-1.2-.4-.5-.8-1-1.2-1.5-.8-1-1.5-2-2.3-3s-1.4-2.1-2.1-3.1c-.4-.7-.9-1.4-1.3-2.1-.1-.2-.2-.4-.3-.6-.1-.2-.2-.4-.3-.6-.3-.5-.6-1.1-.9-1.6-.4-.8-.9-1.6-1.2-2.4-.1-.2-.3-.5-.4-.7-.1-.2-.2-.5-.4-.7,0,0,0,0,0-.1-.2-.4-.4-.7-.5-1.1-.3-.6-.5-1.2-.8-1.7-.5-1.2-1-2.4-1.4-3.6-.2-.6-.4-1.2-.6-1.7,0,0,0,0,0-.1-.2-.5-.4-1.1-.5-1.7,0,0,0-.1,0-.2-.2-.6-.4-1.2-.5-1.7-.4-1.2-.7-2.5-1-3.8-.1-.6-.3-1.3-.4-1.9-.1-.6-.3-1.3-.4-1.9-.1-.7-.2-1.3-.3-1.9-.2-1.3-.4-2.5-.5-3.8,0,0,0-.1,0-.2,0,0,0-.1,0-.2,0,0,0-.2,0-.3,0-.5,0-1-.1-1.5-.1-2-.2-4-.2-6s0-4,.2-6c0-.5,0-1,.1-1.5,0,0,0-.2,0-.3,0,0,0-.1,0-.2,0,0,0-.1,0-.2.1-1.3.3-2.5.5-3.8,0-.7.2-1.3.3-1.9.1-.7.2-1.3.4-1.9.1-.6.3-1.3.4-1.9.3-1.3.6-2.5,1-3.8.2-.6.3-1.2.5-1.7,0,0,0-.1,0-.2.2-.6.3-1.1.5-1.7,0,0,0,0,0-.1.2-.6.4-1.2.6-1.7.4-1.2.9-2.4,1.4-3.6.2-.6.5-1.2.8-1.7.2-.4.3-.7.5-1.1,0,0,0,0,0-.1.1-.2.2-.5.4-.7.1-.2.2-.5.4-.7.4-.8.8-1.6,1.2-2.4.3-.6.6-1.1.9-1.6.1-.2.2-.4.3-.6.1-.2.2-.4.3-.6.4-.7.9-1.4,1.3-2.1.7-1.1,1.4-2.1,2.1-3.1s1.5-2,2.3-3c.4-.5.8-1,1.2-1.5.3-.4.7-.8,1-1.2.5-.5.9-1.1,1.4-1.6.8-.9,1.7-1.8,2.6-2.7s.9-.9,1.4-1.3c.4-.4.8-.8,1.3-1.2,0,0,0,0,.1-.1.5-.4.9-.8,1.4-1.2.7-.7,1.5-1.3,2.3-1.9.5-.4,1-.8,1.5-1.2.4-.3.8-.6,1.2-.9.7-.5,1.4-1,2.2-1.5.3-.2.6-.4,1-.6.7-.5,1.5-1,2.3-1.5.4-.3.9-.5,1.3-.8.3-.2.7-.4,1-.6.4-.2.8-.5,1.2-.7.6-.3,1.2-.7,1.9-1,.3-.2.6-.3,1-.5.3-.2.7-.3,1-.5.3-.2.7-.3,1-.5.6-.3,1.1-.5,1.7-.7.7-.3,1.4-.6,2.1-.9.6-.2,1.2-.5,1.8-.7,1-.4,1.9-.7,2.9-1,0,0,0,0,.1,0,.5-.2,1-.3,1.6-.5.5-.2,1.1-.3,1.6-.5,0,0,0,0,.1,0,.6-.1,1.2-.3,1.7-.4.5-.1,1.1-.3,1.6-.4.4,0,.8-.2,1.2-.3.2,0,.4,0,.6-.1.4,0,.9-.2,1.4-.3.5,0,1-.2,1.5-.3.6-.1,1.2-.2,1.8-.3,0,0,.1,0,.2,0,.8-.1,1.6-.2,2.5-.3.7,0,1.4-.1,2.2-.2,0,0,.2,0,.2,0,.3,0,.7,0,1,0,.6,0,1.2,0,1.7,0,.1,0,.3,0,.4,0,.4,0,.7,0,1.1,0,.5,0,1,0,1.5,0s1.3,0,2,0c.4,0,.8,0,1.2,0,.5,0,1,0,1.5,0,.2,0,.4,0,.6,0,0,0,.2,0,.2,0s.2,0,.3,0c.3,0,.5,0,.7,0,.2,0,.5,0,.7,0,.1,0,.2,0,.4,0,.7,0,1.5.1,2.2.2,1.8.2,3.5.5,5.3.8.6,0,1.1.2,1.7.4.7.1,1.3.3,1.9.4.5.1,1,.2,1.5.4.1,0,.3,0,.4,0,0,0,0,0,0,0,.4.1.8.2,1.2.3,0,0,0,0,0,0,0,0,.2,0,.2,0,0,0,.2,0,.3,0,0,0,.1,0,.2,0,.6.2,1.2.4,1.8.6.5.1,1,.3,1.5.5.6.2,1.1.4,1.6.6,1,.4,2.1.8,3.1,1.2.6.2,1.2.5,1.7.8.4.2.8.4,1.2.5,0,0,0,0,0,0,.3.1.5.2.8.4.4.2.9.4,1.3.7,0,0,0,0,0,0,.4.2.8.4,1.2.7-5.6-1.4-11.4-2.1-17.4-2.1-39.3,0-71.4,32-71.4,71.4s32,71.4,71.4,71.4,11.8-.7,17.4-2.1c-.4.2-.8.4-1.2.7,0,0,0,0,0,0Z"/>
    <path class="st1" d="M197,30.3h0c-9.3-2.4-19-3.7-29.1-3.7-64.5,0-116.9,52.4-116.9,116.9s52.5,116.9,116.9,116.9,23.9-1.9,35-5.3t0,0s0,0,0,0c0,0,0,0,0,0h0c47.4-14.9,81.8-59.3,81.8-111.5s-37.4-100.3-87.8-113.3ZM202.6,238.5c-.6.2-1.3.5-1.9.7,0,0-.1,0-.2,0,0,0-.1,0-.2,0-.7.3-1.5.5-2.2.7,0,0-.1,0-.2,0,0,0,0,0,0,0-.7.2-1.5.4-2.2.7-.7.2-1.3.4-2,.6-.7.2-1.3.3-1.9.5-.7.2-1.5.4-2.2.5,0,0-.1,0-.2,0-.3,0-.5.1-.8.2,0,0-.1,0-.2,0-.7.1-1.5.3-2.2.4-.1,0-.2,0-.3,0-.7.1-1.5.3-2.2.4,0,0,0,0-.1,0-.8.1-1.5.2-2.3.3-.2,0-.4,0-.6,0-.7,0-1.4.2-2.1.2,0,0,0,0,0,0-.7,0-1.3.1-2,.2-.4,0-.7,0-1.1,0-.7,0-1.3,0-2,.1-.6,0-1.1,0-1.7,0-.5,0-1,0-1.4,0-.7,0-1.4,0-2.1,0-55.7,0-101.1-45.4-101.1-101.1s0-1.2,0-1.9c0-.1,0-.2,0-.3,0-.4,0-.7,0-1.1,0-.7,0-1.3,0-2,0-.2,0-.3,0-.5,0-.4,0-.9,0-1.3,0,0,0-.1,0-.2h0c0-.5,0-.9,0-1.3,0-.5,0-1.1.1-1.6.2-1.8.4-3.6.7-5.4,0-.5.2-1,.3-1.5,0-.5.2-1,.3-1.6,0-.3.1-.7.2-1t0,0c0-.3.1-.6.2-.9,0-.4.2-.8.3-1.3v-.2c0-.1,0-.2.1-.4.2-1,.5-2,.7-3,.4-1.6.9-3.2,1.4-4.8.5-1.6,1-3.2,1.6-4.7.6-1.5,1.2-3.1,1.8-4.6.6-1.5,1.3-3,2-4.5.4-.7.7-1.5,1.1-2.2.2-.5.5-.9.7-1.4.3-.5.5-1,.8-1.5.1-.3.3-.6.5-.9.2-.3.3-.6.5-.9.3-.6.7-1.2,1-1.7.4-.7.9-1.4,1.3-2.1.2-.4.5-.7.7-1.1,0,0,0,0,0-.1,0,0,.1-.2.2-.2.2-.3.4-.6.6-.9,0,0,0-.1.1-.2,0,0,0,0,0-.1.2-.3.4-.6.7-.9,0,0,0,0,0-.1,0,0,0-.1.1-.2,0-.1.2-.3.3-.4.4-.6.8-1.2,1.3-1.7.5-.7,1-1.3,1.5-1.9.6-.8,1.3-1.6,1.9-2.4.5-.6,1-1.2,1.5-1.7.3-.3.5-.6.8-.9.5-.6,1-1.1,1.5-1.6.3-.3.5-.6.8-.9.5-.5,1-1,1.5-1.5,1.2-1.2,2.3-2.3,3.6-3.4.6-.5,1.2-1.1,1.8-1.6.5-.4.9-.8,1.4-1.2.5-.4,1-.8,1.5-1.2.5-.4.9-.7,1.4-1.1.4-.3.9-.7,1.3-1,.7-.5,1.3-1,2-1.4.7-.5,1.3-.9,2-1.4,1.3-.9,2.7-1.8,4.1-2.6.7-.4,1.4-.8,2.1-1.2.7-.4,1.4-.8,2.1-1.2,1.4-.8,2.9-1.5,4.3-2.2,1.5-.7,3-1.4,4.5-2,.8-.3,1.5-.6,2.3-.9.6-.2,1.2-.4,1.7-.7,1.2-.4,2.3-.8,3.5-1.2.6-.2,1.2-.4,1.8-.6.8-.3,1.6-.5,2.4-.7.8-.2,1.6-.5,2.4-.7.8-.2,1.6-.4,2.4-.6.8-.2,1.6-.4,2.5-.5.8-.2,1.6-.3,2.5-.5.7-.1,1.5-.3,2.2-.4,0,0,0,0,.1,0,0,0,.1,0,.2,0,.8-.1,1.6-.2,2.4-.3,0,0,0,0,0,0,0,0,0,0,0,0,.8-.1,1.6-.2,2.5-.3.8-.1,1.7-.2,2.5-.2,1.7-.1,3.4-.2,5.2-.3.9,0,1.7,0,2.6,0s1.4,0,2.1,0t0,0s0,0,0,0c0,0,0,0,0,0,0,0,0,0,0,0h.3c0,0,.2,0,.2,0,.3,0,.5,0,.8,0h0c1.2,0,2.4,0,3.6.2.2,0,.4,0,.6,0,.1,0,.3,0,.4,0,.7,0,1.3,0,1.9.2.2,0,.4,0,.6,0,.3,0,.6,0,.9.1.4,0,.8,0,1.3.1.2,0,.4,0,.6,0,.5,0,.9.1,1.4.2h.5c.2.1.4.1.6.2,1.5.2,3,.5,4.5.8.2,0,.4,0,.6.1.5,0,1,.2,1.5.3.1,0,.2,0,.4,0,.6.1,1.2.3,1.7.4.2,0,.5.1.7.2.2,0,.4,0,.6.1,1.4.4,2.8.8,4.2,1.2,0,0,.1,0,.2,0,.7.2,1.4.4,2.2.7h0c.8.3,1.6.5,2.3.8.8.3,1.5.6,2.3.9.7.3,1.4.5,2.1.8,0,0,.1,0,.2,0,.4.2.8.3,1.1.5.4.1.7.3,1,.4.2.1.5.2.7.3,1.3.6,2.5,1.2,3.8,1.8.7.3,1.3.7,2,1,0,0,.1,0,.2.1,1.4.8,2.9,1.6,4.2,2.4,0,0,.1,0,.2.1h0s0,0,0,0t0,0c1.5.9,3,1.9,4.4,2.9.5.3,1,.7,1.4,1,.7.5,1.3.9,2,1.4.3.2.7.5,1,.8.2.1.4.3.6.4,0,0,.2.1.3.2.2.1.4.3.6.4.5.4.9.8,1.4,1.1.2.1.3.3.5.4.4.4.9.8,1.3,1.2.2.2.4.3.6.5.6.5,1.2,1.1,1.9,1.7.4.4.8.7,1.2,1.1.6.5,1.1,1.1,1.6,1.6,0,0,.2.2.2.2.2.1.3.3.5.5,0,0,.1.1.2.2.2.2.5.5.7.7.3.3.6.6.9.9.3.4.7.7,1,1.1,0,0,0,.1.1.2.1.1.3.3.4.5.3.4.7.7,1,1.1.3.4.7.7,1,1.1,0,0,.1.1.2.2,0,0,.1.1.2.2h0c0,0,0,0,0,.1.3.4.6.8.9,1.2.4.4.7.9,1.1,1.4.1.2.3.4.4.6,0,0,0,0,0,0,.5.7,1,1.3,1.4,1.9,0,0,0,0,0,0,.4.5.8,1.1,1.2,1.7.3.4.6.9.9,1.3.4.6.9,1.3,1.3,1.9.1.2.2.4.4.6.3.4.5.8.8,1.3.3.4.5.9.8,1.3.4.7.9,1.5,1.3,2.2.3.5.6,1,.8,1.5.3.5.6,1.1.9,1.6.4.7.7,1.5,1.1,2.2.2.4.4.8.6,1.2.1.3.2.5.4.8.1.3.3.6.4.8.2.3.3.7.5,1,0,.2.2.4.3.6.2.4.3.7.5,1.1.2.4.3.8.5,1.2,0,0,0,.1,0,.2.2.5.4,1.1.6,1.6,0,.2.2.5.3.7.2.6.5,1.3.7,1.9,0,.2.1.4.2.6.2.6.4,1.2.6,1.7,0,.3.2.6.3.9.3,1,.6,2,.9,3,0,.2.1.4.2.7,0,0,0,.1,0,.2,0,0,0,0,0,0,0,.2,0,.3.1.5.1.6.3,1.1.4,1.7,0,0,0,0,0,0,0,.3.1.6.2.9,0,.1,0,.3,0,.4,0,.2,0,.5.1.7.1.5.2,1.1.3,1.6,0,0,0,.2,0,.3,0,.2,0,.4.1.6.1.5.2,1.1.3,1.7,0,0,0,.2,0,.3h0c0,.6.2,1.2.3,1.9,0,0,0,.1,0,.2,0,.1,0,.2,0,.4,0,.2,0,.5,0,.7,0,0,0,.1,0,.2,0,.4,0,.8.1,1.2,0,.4,0,.8.1,1.2,0,.6.1,1.2.2,1.8,0,.1,0,.3,0,.5h0c0,.2,0,.3,0,.4,0,0,0,.1,0,.2,0,.4,0,.8,0,1.2,0,.2,0,.4,0,.5,0,.2,0,.3,0,.5,0,0,0,.1,0,.2h0c0,.1,0,.1,0,.1,0,.1,0,.2,0,.4,0,0,0,.2,0,.2s0,0,0,0c0,.1,0,.3,0,.4,0,0,0,.1,0,.2,0,0,0,.1,0,.2,0,0,0,.2,0,.3,0,.3,0,.7,0,1,0,.1,0,.3,0,.4,0,.9,0,1.7,0,2.6s0,.4,0,.7c0,.7,0,1.3,0,1.9,0,.1,0,.2,0,.3h0s0,0,0,0v.2h0s0,0,0,0h0s0,0,0,0h0q0,.1,0,.2h0v.2c0,0,0,.2,0,.3v.2h0s0,0,0,0v.2c0,0,0,.1,0,.2h0c0,.1,0,.2,0,.3v.3c0,0,0,.2,0,.3v1.9c-.1.4-.2.8-.2,1.2,0,.6-.1,1.3-.2,1.9,0,.6-.1,1.2-.2,1.8,0,.2,0,.4,0,.6,0,.3,0,.6-.1.8,0,.1,0,.3,0,.5,0,.2,0,.4,0,.6,0,.3,0,.7-.1,1,0,.2,0,.4,0,.5,0,.5-.2,1-.3,1.5-.2.9-.3,1.8-.5,2.7,0,.4-.2.8-.2,1.2,0,0,0,0,0,0,0,0,0,.2,0,.3,0,0,0,.2,0,.3-.1.5-.2,1-.3,1.4,0,0,0,0,0,.1,0,.2,0,.4-.1.5-.2,1-.5,1.9-.8,2.9-.3,1-.6,2.1-.9,3.1-.2.8-.5,1.6-.8,2.3-.2.7-.5,1.4-.7,2.1-.3.8-.6,1.5-.9,2.3-.2.5-.4,1.1-.7,1.6-.2.4-.4.9-.5,1.3,0,.1-.1.3-.2.4-.2.5-.4,1-.7,1.5,0,.2-.2.4-.3.6-.2.4-.4.8-.6,1.2-.1.3-.3.7-.5,1-.4.9-.9,1.8-1.4,2.7-.3.6-.7,1.2-1,1.8s-.7,1.2-1,1.7c0,0,0,.1-.1.2,0,0,0,0,0,0-.3.5-.6,1-.9,1.6-.6,1-1.3,2-1.9,3-.2.4-.5.7-.7,1.1-.2.4-.5.7-.7,1.1-.3.5-.7.9-1,1.4,0,0,0,0,0,0,0,0,0,.1-.1.2,0,0,0,.1-.1.2-.4.6-.9,1.2-1.4,1.8-.5.7-1,1.3-1.5,2-.2.3-.4.5-.6.8-.2.3-.4.5-.7.8,0,0-.1.2-.2.2-.6.7-1.2,1.3-1.7,2-.4.5-.8.9-1.3,1.4,0,0,0,0-.1.1-.4.5-.9.9-1.3,1.4-.4.4-.7.7-1.1,1.1-.4.4-.9.9-1.4,1.4-.4.4-.8.8-1.2,1.1h0c-.3.3-.7.7-1,1-.2.1-.3.3-.5.4,0,0,0,0,0,0-.5.4-.9.9-1.4,1.3-.5.5-1.1.9-1.6,1.4-.4.3-.8.7-1.2,1-.9.8-1.9,1.5-2.9,2.2-.6.5-1.2.9-1.8,1.4-.7.5-1.4,1-2.1,1.5-.7.5-1.4.9-2,1.3-.6.4-1.2.8-1.8,1.2-.5.3-1,.6-1.4.9-.5.3-1,.6-1.5.8-.6.4-1.3.7-1.9,1.1-.6.3-1.2.6-1.8.9-.7.4-1.5.7-2.2,1.1-.5.2-1,.5-1.5.7-.5.2-1,.5-1.5.7,0,0,0,0-.1,0-1.2.5-2.4,1-3.6,1.5-.8.3-1.5.6-2.3.9Z"/>
  </g>
  <g>
    <path class="st0" d="M269,142c0-.4,0-.7,0-1.1,0-.1,0-.3,0-.4,0-.4,0-.7,0-1,0,0,0-.2,0-.3s0-.1,0-.2c0,0,0-.1,0-.2,0-.1,0-.3,0-.4,0,0,0,0,0,0,0,0,0-.2,0-.2,0,0,0-.2,0-.3v-.2h0c0,0,0,0,0,0,0-.6,0-1.2-.2-1.8-.1-1.2-.3-2.4-.4-3.6,0,0,0,0,0,0,0-.6-.2-1.1-.3-1.7,0-.5-.1-.9-.2-1.4,0-.2,0-.5-.1-.7,0-.5-.2-.9-.3-1.4-.1-.6-.2-1.1-.4-1.7-.2-.7-.4-1.5-.6-2.2-.1-.4-.2-.9-.4-1.3-.2-.7-.4-1.5-.7-2.2-.2-.5-.3-1-.5-1.6-.2-.5-.4-1.1-.6-1.6-.2-.5-.4-1-.6-1.5-.2-.5-.4-.9-.6-1.4-.2-.5-.4-1.1-.7-1.6-.2-.5-.5-1.1-.7-1.6h0c-.3-.7-.7-1.4-1-2.1-.4-.7-.7-1.4-1.1-2.1l-.6-1c-.2-.4-.4-.7-.6-1-.2-.3-.4-.6-.5-.9-.2-.3-.4-.6-.6-.9,0,0,0-.1,0-.2,0,0,0,0-.1-.2-.3-.4-.5-.8-.8-1.2,0,0,0,0,0,0l-.8-1.2c-.3-.4-.6-.9-.9-1.3-.3-.5-.7-.9-1-1.4-.4-.5-.8-1-1.2-1.5-.2-.3-.4-.6-.7-.9-.2-.2-.3-.4-.5-.6-.5-.6-1-1.1-1.4-1.7,0,0,0,0,0,0-.3-.4-.7-.8-1-1.2-.4-.4-.7-.8-1.1-1.2,0,0,0,0-.1-.1-.4-.5-.9-.9-1.3-1.3-.4-.4-.9-.9-1.4-1.3-.4-.4-.9-.9-1.4-1.3-.1,0-.2-.2-.3-.3-.4-.3-.7-.7-1.1-1-.4-.4-.9-.7-1.3-1.1,0,0-.1-.1-.2-.2-.4-.3-.8-.6-1.2-.9,0,0,0,0,0,0,0,0-.2-.1-.3-.2,0,0,0,0,0,0-.4-.3-.9-.7-1.3-1-.6-.5-1.2-.9-1.9-1.4-.8-.6-1.6-1.1-2.5-1.7-.6-.4-1.3-.8-1.9-1.2-.2-.1-.4-.2-.6-.4-.2-.1-.4-.3-.6-.4-.4-.2-.7-.4-1-.6-.5-.3-1-.5-1.5-.8-5.6-1.4-11.4-2.1-17.4-2.1-39.3,0-71.4,32-71.4,71.4s32,71.4,71.4,71.4,11.8-.7,17.4-2.1c.5-.3,1-.5,1.5-.8.4-.2.7-.4,1-.6.2,0,.4-.2.6-.4.2-.1.4-.2.6-.4.6-.4,1.3-.8,1.9-1.2.8-.5,1.7-1.1,2.5-1.7.6-.4,1.2-.9,1.9-1.4.4-.3.9-.7,1.3-1,0,0,0,0,0,0,0,0,.2-.1.3-.2,0,0,0,0,0,0,.4-.3.8-.6,1.2-.9,0,0,.1-.1.2-.2.4-.4.9-.7,1.3-1.1.4-.3.7-.6,1.1-1,.1,0,.2-.2.3-.3.5-.4.9-.8,1.4-1.3.5-.4.9-.9,1.4-1.3.4-.4.9-.9,1.3-1.3,0,0,0,0,.1-.1.4-.4.7-.8,1.1-1.2.4-.4.7-.8,1-1.2,0,0,0,0,0,0,.5-.6,1-1.1,1.4-1.7.2-.2.3-.4.5-.6.2-.3.4-.6.7-.9.4-.5.8-1,1.2-1.5.3-.5.7-.9,1-1.4.3-.4.6-.9.9-1.3.3-.4.5-.8.8-1.2,0,0,0,0,0,0,.3-.4.5-.8.8-1.2,0,0,0-.1.1-.2,0,0,0-.1,0-.2.2-.3.4-.6.6-.9.2-.3.4-.6.5-.9.2-.3.4-.7.6-1l.6-1c.4-.7.7-1.4,1.1-2.1.4-.7.7-1.4,1-2.1h0c.2-.4.3-.7.5-1.1.2-.4.4-.8.5-1.2.1-.2.2-.5.3-.7.2-.5.4-1,.6-1.5.2-.5.4-1,.6-1.5.3-.7.5-1.4.7-2.1.4-1,.7-2.1,1-3.1.1-.4.2-.8.3-1.2.1-.4.2-.7.3-1.1,0-.1,0-.3.1-.4.1-.5.3-1.1.4-1.6.1-.6.3-1.3.4-1.9.3-1.3.5-2.6.7-3.9.2-1.2.4-2.5.5-3.8,0-.6.1-1.1.1-1.7,0-.4,0-.8,0-1.1,0,0,0-.1,0-.2,0,0,0-.2,0-.3h0c0-.2,0-.3,0-.3h0c0-.1,0-.2,0-.2v-.2h0v-.2c0-.1,0-.2,0-.3h0c0-.1,0-.2,0-.2h0c0-.2,0-.2,0-.2h0s0,0,0,0h0v-.3h0c0-.1,0-.3,0-.4,0-.4,0-.7,0-1.1,0-.5,0-1,0-1.5s0-1,0-1.5ZM251.7,185.1c-.3.3-.7.7-1,1-.5.5-1,1-1.6,1.4-.5.5-1.1.9-1.6,1.4h0c-.5.4-1.1.9-1.7,1.3-.1.1-.3.2-.4.3-.1.1-.3.2-.4.3-.3.2-.6.4-.9.7-.6.4-1.2.8-1.8,1.2-.2.1-.4.3-.6.4-.2.1-.4.3-.6.4-.4.2-.7.4-1.1.6-.5.3-1,.6-1.6.9-.3.1-.5.3-.8.4-.2.1-.5.3-.8.4,0,0-.1,0-.2.1,0,0,0,0,0,0-.4.2-.9.4-1.3.7-.2.1-.5.2-.7.3-.5.2-1,.4-1.5.7-.4.2-.8.3-1.1.5-.4.2-.8.3-1.3.5-.4.1-.9.3-1.3.5-.4.1-.9.3-1.4.4-.4.1-.9.3-1.4.4-1.1.3-2.3.6-3.4.9-.5.1-1,.2-1.5.3,0,0,0,0,0,0-.3,0-.6.1-.8.2-.5,0-1,.2-1.6.3-.4,0-.8.1-1.1.2-.5,0-1.1.1-1.6.2-.1,0-.3,0-.4,0,0,0-.2,0-.2,0,0,0-.2,0-.3,0-.1,0-.3,0-.4,0,0,0-.2,0-.3,0,0,0-.2,0-.3,0-.3,0-.7,0-1,0-.7,0-1.3,0-1.9,0-.5,0-1,0-1.5,0-.9,0-1.8,0-2.6,0-.9,0-1.7,0-2.6-.2-.9,0-1.7-.2-2.6-.3-.6,0-1.3-.2-1.9-.3-.6-.1-1.3-.2-1.9-.3-.6-.1-1.2-.3-1.9-.4-.6-.1-1.1-.3-1.7-.4h-.2c0,0-.1,0-.2,0-.4-.1-.7-.2-1.1-.3-.5-.1-.9-.3-1.4-.4,0,0,0,0,0,0-.7-.2-1.5-.5-2.2-.7-.9-.3-1.8-.7-2.7-1.1-.9-.4-1.7-.8-2.6-1.2h0c-.9-.4-1.7-.9-2.5-1.3-.8-.5-1.7-.9-2.5-1.4,0,0,0,0,0,0-.3-.2-.6-.4-1-.6-.3-.2-.5-.3-.8-.5,0,0-.1,0-.2-.1-.6-.4-1.1-.7-1.6-1.1-.8-.5-1.5-1.1-2.2-1.7t0,0c-1.5-1.2-2.9-2.4-4.3-3.7t0,0c-.4-.3-.7-.7-1-1-.6-.6-1.1-1.2-1.7-1.8-.6-.6-1.1-1.2-1.6-1.8,0,0,0,0,0,0-.5-.6-1-1.2-1.5-1.9-.5-.7-1-1.3-1.5-2-.5-.8-1.1-1.5-1.6-2.3h0c-.5-.8-1-1.6-1.5-2.4-.5-.9-.9-1.7-1.4-2.6-.2-.4-.4-.8-.6-1.2,0,0,0,0,0-.1,0,0,0-.1,0-.2-.1-.2-.2-.4-.3-.7,0-.2-.1-.3-.2-.5-.2-.4-.4-.9-.6-1.3-.2-.4-.3-.8-.5-1.2-.4-.9-.7-1.8-1-2.7-.1-.4-.3-.8-.4-1.2-.3-1-.6-1.9-.8-2.9-.2-.9-.5-1.9-.7-2.8-.8-3.8-1.2-7.8-1.2-11.8s0-1.4,0-2.1c0-.5,0-.9,0-1.4,0-.4,0-.7,0-1,0,0,0,0,0-.1,0-.6,0-1.1.1-1.7,0-.6.1-1.3.2-1.9,0,0,0-.2,0-.3,0-.5.1-1,.2-1.4,0-.3.1-.6.2-.9,0,0,0,0,0,0,0-.5.2-1.1.3-1.6.1-.5.2-1.1.4-1.6,0-.2.1-.4.2-.7.1-.6.3-1.1.5-1.7.1-.4.2-.8.3-1.1.1-.4.3-.9.4-1.3.1-.5.3-.9.5-1.4h0c.3-.9.7-1.8,1.1-2.7.4-.9.8-1.7,1.2-2.6h0c.4-.9.8-1.7,1.3-2.5.3-.6.7-1.2,1-1.8.2-.3.4-.6.6-.9.2-.3.4-.6.6-.9,0-.1.2-.3.3-.4.4-.7.9-1.3,1.3-2h0c.5-.7.9-1.3,1.4-2,0,0,0,0,0,0,.4-.5.7-.9,1.1-1.4,0,0,.1-.1.2-.2.2-.2.4-.4.5-.6,0,0,.1-.2.2-.2.4-.4.8-.9,1.2-1.3.6-.6,1.1-1.2,1.7-1.8.3-.3.7-.7,1-1,.3-.3.5-.5.8-.8,0,0,0,0,.1-.1,0,0,.2-.1.2-.2.3-.3.6-.5.9-.8.7-.6,1.4-1.2,2.2-1.8h0c.7-.6,1.5-1.2,2.2-1.7.4-.3.8-.5,1.2-.8h0c.6-.4,1.3-.9,1.9-1.2.6-.4,1.1-.7,1.7-1,.4-.2.8-.5,1.2-.7.3-.2.6-.3.9-.5.2-.1.5-.3.7-.4.3-.1.6-.3.9-.4.4-.2.7-.4,1.1-.5,0,0,.2,0,.2-.1,0,0,0,0,0,0,.4-.2.8-.4,1.2-.5.9-.4,1.8-.7,2.7-1.1.4-.2.9-.3,1.4-.5.5-.2.9-.3,1.4-.4.3,0,.5-.2.8-.2,0,0,.2,0,.3,0,0,0,0,0,0,0,.1,0,.2,0,.4-.1.4-.1.7-.2,1.1-.3,1-.3,2.1-.5,3.2-.7.4,0,.8-.2,1.3-.2,1-.2,1.9-.3,2.9-.4.4,0,.7,0,1.1-.1,0,0,.1,0,.2,0,.3,0,.5,0,.8,0,.4,0,.8,0,1.2,0,.4,0,.8,0,1.2,0,.5,0,1,0,1.5,0,.5,0,1,0,1.5,0h.8c.3,0,.5,0,.8,0,.4,0,.7,0,1,0,1.2,0,2.3.1,3.4.2,0,0,.1,0,.2,0,.7,0,1.4.2,2.1.3.2,0,.4,0,.6,0,.1,0,.3,0,.4,0,.3,0,.7.1,1,.2,0,0,0,0,0,0,0,0,0,0,0,0,.3,0,.5,0,.8.1,0,0,0,0,.1,0,0,0,.1,0,.2,0h0c.6.1,1.1.2,1.7.4.4,0,.9.2,1.3.3.4.1.9.2,1.3.4,0,0,0,0,.1,0,.6.2,1.2.4,1.9.6.3,0,.6.2.8.3.5.1.9.3,1.4.5h0c.9.3,1.8.7,2.7,1.1h0c.9.4,1.7.8,2.6,1.2.5.2.9.4,1.4.7.4.2.8.4,1.2.6.4.2.8.5,1.3.7.3.2.6.4.9.5.2.1.4.2.6.4.3.2.6.4.9.6.1,0,.3.2.4.3,0,0,0,0,0,0,0,0,0,0,0,0,.4.2.7.5,1.1.7.3.2.5.4.8.6.8.5,1.5,1.1,2.3,1.7.4.3.7.6,1.1.9.4.3.7.6,1.1.9.4.3.7.6,1,.9,0,0,0,0,.1,0,.3.3.6.6.9.9h0c.2.2.3.4.5.5l.5.5c.4.4.8.8,1.2,1.2,0,0,.1.1.2.2-7.2-4.5-15.7-7.1-24.8-7.1-26,0-47.1,21.2-47.1,47.1s21.1,47.1,47.1,47.1,17.6-2.6,24.8-7.1c-.5.5-.9,1-1.4,1.4Z"/>
    <path class="st1" d="M244.9,70.2s0,0,0,0c0,0,0,0,0,0h0c-7.3-5.4-15.5-9.8-24.3-12.9t0,0s0,0,0,0h0c-9.4-3.3-19.5-5-29.9-5-50.4,0-91.4,41-91.4,91.4s41,91.4,91.4,91.4,20.6-1.8,30-5.1c9.6-3.3,18.5-8.3,26.4-14.5h0c21.3-16.8,35-42.7,35-71.9s-14.6-56.7-37-73.4ZM218,217.1c-.5.2-1.1.4-1.6.6-.5.2-1,.4-1.5.5-.6.2-1.2.4-1.8.6,0,0-.1,0-.2,0,0,0-.2,0-.3,0,0,0-.2,0-.2,0,0,0,0,0,0,0-.4.1-.8.2-1.2.3,0,0,0,0,0,0-.1,0-.2,0-.4,0-.5.1-1,.3-1.5.4-.6.2-1.3.3-1.9.4-.6.1-1.1.3-1.7.4-1.7.4-3.5.6-5.3.8-.7,0-1.4.2-2.2.2-.1,0-.2,0-.4,0-.2,0-.5,0-.7,0-.2,0-.5,0-.7,0,0,0-.2,0-.3,0s-.2,0-.2,0c-.2,0-.4,0-.6,0-.5,0-1,0-1.5,0-.4,0-.8,0-1.2,0-.7,0-1.3,0-2,0s-1,0-1.5,0c-.4,0-.7,0-1.1,0-.1,0-.3,0-.4,0-.6,0-1.2,0-1.7,0-.3,0-.7,0-1,0,0,0-.2,0-.2,0-.7,0-1.4-.1-2.2-.2-.8,0-1.6-.2-2.5-.3,0,0-.1,0-.2,0-.6,0-1.2-.2-1.8-.3-.5,0-1-.2-1.5-.3-.5,0-.9-.2-1.4-.3-.4,0-.9-.2-1.3-.3-.7-.1-1.4-.3-2.2-.5-.6-.1-1.2-.3-1.7-.4,0,0,0,0-.1,0-.5-.1-1.1-.3-1.6-.5-.5-.1-1-.3-1.6-.5,0,0,0,0-.1,0-1-.3-2-.7-2.9-1-.6-.2-1.2-.4-1.8-.7-.7-.3-1.4-.6-2.1-.9-2.2-.9-4.4-2-6.5-3.2-.4-.2-.8-.5-1.2-.7-.4-.2-.7-.4-1-.6-.4-.2-.9-.5-1.3-.8-.8-.5-1.5-.9-2.3-1.5-.3-.2-.7-.4-1-.6-.7-.5-1.5-1-2.2-1.5-.4-.3-.8-.6-1.2-.9-.5-.4-1-.8-1.5-1.2-.8-.6-1.5-1.2-2.3-1.9-.5-.4-.9-.8-1.4-1.2,0,0,0,0-.1-.1-.4-.4-.9-.8-1.3-1.2-.5-.4-.9-.9-1.4-1.3-.9-.9-1.8-1.8-2.6-2.7-.5-.5-1-1.1-1.4-1.6-.4-.4-.7-.8-1-1.2-.4-.5-.8-1-1.2-1.5-.8-1-1.5-2-2.3-3s-1.4-2.1-2.1-3.1c-.4-.7-.9-1.4-1.3-2.1-.1-.2-.2-.4-.3-.6-.1-.2-.2-.4-.3-.6-.3-.5-.6-1.1-.9-1.6-.4-.8-.9-1.6-1.2-2.4-.1-.2-.3-.5-.4-.7-.1-.2-.2-.5-.4-.7,0,0,0,0,0-.1-.2-.4-.4-.7-.5-1.1-.3-.6-.5-1.2-.8-1.7-.5-1.2-1-2.4-1.4-3.6-.2-.6-.4-1.2-.6-1.7,0,0,0,0,0-.1-.2-.5-.4-1.1-.5-1.7,0,0,0-.1,0-.2-.2-.6-.4-1.2-.5-1.7-.4-1.2-.7-2.5-1-3.8-.2-.6-.3-1.3-.4-1.9-.1-.6-.3-1.3-.4-1.9-.1-.7-.2-1.3-.3-1.9-.2-1.3-.4-2.5-.5-3.8,0,0,0-.1,0-.2,0,0,0-.1,0-.2,0,0,0-.2,0-.3,0-.5,0-1-.1-1.5-.2-2-.2-4-.2-6s0-4,.2-6c0-.5,0-1,.1-1.5,0,0,0-.2,0-.3,0,0,0-.1,0-.2,0,0,0-.1,0-.2.1-1.3.3-2.5.5-3.8,0-.7.2-1.3.3-1.9.1-.7.2-1.3.4-1.9.1-.6.3-1.3.4-1.9.3-1.3.6-2.5,1-3.8.2-.6.3-1.2.5-1.7,0,0,0-.1,0-.2.2-.6.3-1.1.5-1.7,0,0,0,0,0-.1.2-.6.4-1.2.6-1.7.4-1.2.9-2.4,1.4-3.6.2-.6.5-1.2.8-1.7.2-.4.3-.7.5-1.1,0,0,0,0,0-.1.1-.2.2-.5.4-.7.1-.2.2-.5.4-.7.4-.8.8-1.6,1.2-2.4.3-.6.6-1.1.9-1.6.1-.2.2-.4.3-.6.1-.2.2-.4.3-.6.4-.7.9-1.4,1.3-2.1.7-1.1,1.4-2.1,2.1-3.1s1.5-2,2.3-3c.4-.5.8-1,1.2-1.5.3-.4.7-.8,1-1.2.5-.5.9-1.1,1.4-1.6.8-.9,1.7-1.8,2.6-2.7s.9-.9,1.4-1.3c.4-.4.8-.8,1.3-1.2,0,0,0,0,.1-.1.5-.4.9-.8,1.4-1.2.7-.7,1.5-1.3,2.3-1.9.5-.4,1-.8,1.5-1.2.4-.3.8-.6,1.2-.9.7-.5,1.4-1,2.2-1.5.3-.2.6-.4,1-.6.7-.5,1.5-1,2.3-1.5.4-.3.9-.5,1.3-.8.3-.2.7-.4,1-.6.4-.2.8-.5,1.2-.7.6-.3,1.2-.7,1.9-1,.3-.2.6-.3,1-.5.3-.2.7-.3,1-.5.3-.2.7-.3,1-.5.6-.3,1.1-.5,1.7-.7.7-.3,1.4-.6,2.1-.9.6-.2,1.2-.5,1.8-.7,1-.4,1.9-.7,2.9-1,0,0,0,0,.1,0,.5-.2,1-.3,1.6-.5.5-.2,1.1-.3,1.6-.5,0,0,0,0,.1,0,.6-.1,1.2-.3,1.7-.4.5-.1,1.1-.3,1.6-.4.4,0,.8-.2,1.2-.3.2,0,.4,0,.6-.1.4,0,.9-.2,1.4-.3.5,0,1-.2,1.5-.3.6-.1,1.2-.2,1.8-.3,0,0,.1,0,.2,0,.8-.1,1.6-.2,2.5-.3.7,0,1.4-.1,2.2-.2,0,0,.2,0,.2,0,.3,0,.7,0,1,0,.6,0,1.2,0,1.7,0,.1,0,.3,0,.4,0,.4,0,.7,0,1.1,0,.5,0,1,0,1.5,0s1.3,0,2,0c.4,0,.8,0,1.2,0,.5,0,1,0,1.5,0,.2,0,.4,0,.6,0,0,0,.2,0,.2,0s.2,0,.3,0c.3,0,.5,0,.7,0,.2,0,.5,0,.7,0,.1,0,.2,0,.4,0,.7,0,1.5.1,2.2.2,1.8.2,3.5.5,5.3.8.6,0,1.1.2,1.7.4.7.1,1.3.3,1.9.4.5.1,1,.2,1.5.4.1,0,.3,0,.4,0,0,0,0,0,0,0,.4.1.8.2,1.2.3,0,0,0,0,0,0,0,0,.2,0,.2,0,0,0,.2,0,.3,0,0,0,.1,0,.2,0,.6.2,1.2.4,1.8.6.5.1,1,.3,1.5.5.6.2,1.1.4,1.6.6,1,.4,2.1.8,3.1,1.2.6.2,1.2.5,1.7.8.4.2.8.4,1.2.5,0,0,0,0,0,0,.3.1.5.2.8.4.4.2.9.4,1.3.7,0,0,0,0,0,0,.4.2.9.4,1.3.7h0c.1,0,.2.1.4.2.4.2.7.4,1.1.6.4.2.7.4,1,.6.2,0,.4.2.6.4.2.1.4.2.6.4.5.3,1,.7,1.6,1,.1,0,.2.1.3.2.8.5,1.7,1.1,2.5,1.7.6.4,1.2.9,1.9,1.4.2.1.4.3.6.5,0,0,0,0,0,0,.2.2.4.3.6.5,0,0,0,0,0,0,0,0,.2.1.3.2,0,0,0,0,0,0,.4.3.8.6,1.2.9,0,0,.1.1.2.2.4.4.9.7,1.3,1.1.4.3.7.6,1.1,1,.1,0,.2.2.3.3.5.4.9.8,1.4,1.3.2.2.4.4.6.6.3.2.5.5.8.8.4.4.9.9,1.3,1.3,0,0,0,0,.1.1.4.4.7.8,1.1,1.2.4.4.7.8,1,1.2,0,0,0,0,0,0,.5.6,1,1.1,1.4,1.7.2.2.3.4.5.6.2.3.4.6.7.9.4.5.8,1,1.2,1.5.3.5.7.9,1,1.4.3.4.6.9.9,1.3l.8,1.2s0,0,0,0c.3.4.5.8.8,1.2,0,0,0,.1.1.2,0,0,0,.1,0,.2.2.3.4.6.6.9.2.3.4.6.5.9.2.3.4.7.6,1l.6,1c.4.7.7,1.4,1.1,2.1.4.7.7,1.4,1,2.1h0c.2.5.5,1.1.7,1.6.2.5.5,1.1.7,1.6.2.4.4.9.6,1.4.2.5.4,1,.6,1.5.2.5.4,1.1.6,1.6.2.5.4,1,.5,1.6.2.7.5,1.5.7,2.2.1.4.3.9.4,1.3.2.7.4,1.4.6,2.2.1.6.3,1.1.4,1.7.1.5.2.9.3,1.4,0,.2,0,.5.1.7,0,.4.2.9.2,1.4.1.6.2,1.1.3,1.7,0,0,0,0,0,0,.2,1.2.3,2.4.4,3.6,0,.6.1,1.2.2,1.7h0c0,.1,0,.1,0,.2h0v.2c0,0,0,.2,0,.3,0,0,0,.2,0,.2s0,0,0,0c0,.1,0,.3,0,.4,0,0,0,.1,0,.2,0,0,0,.1,0,.2,0,0,0,.2,0,.3,0,.3,0,.7,0,1,0,.1,0,.3,0,.4,0,.4,0,.7,0,1.1,0,.5,0,1,0,1.5s0,1,0,1.5c0,.4,0,.7,0,1.1,0,.1,0,.2,0,.3h0s0,0,0,0v.2h0s0,0,0,0h0s0,0,0,0h0q0,.1,0,.2h0v.2c0,0,0,.2,0,.3v.2h0s0,0,0,0v.2c0,0,0,.1,0,.2h0c0,.1,0,.2,0,.3h0c0,.2,0,.3,0,.4,0,0,0,.1,0,.2,0,.4,0,.8,0,1.1,0,.6,0,1.1-.1,1.7-.1,1.3-.3,2.5-.5,3.8-.2,1.3-.4,2.6-.7,3.9-.1.6-.3,1.3-.4,1.9-.1.5-.2,1.1-.4,1.6,0,.1,0,.3-.1.4,0,.4-.2.7-.3,1.1-.1.4-.2.8-.3,1.2-.3,1.1-.6,2.1-1,3.1-.2.7-.5,1.4-.7,2.1-.2.5-.4,1-.6,1.5-.2.5-.4,1-.6,1.5-.1.2-.2.5-.3.7-.2.4-.4.8-.5,1.2-.2.4-.3.7-.5,1.1h0c-.3.7-.7,1.4-1,2.1-.4.7-.7,1.4-1.1,2.1l-.6,1c-.2.4-.4.7-.6,1-.2.3-.4.6-.5.9-.2.3-.4.6-.6.9,0,0,0,.1,0,.2,0,0,0,0-.1.2-.3.4-.5.8-.8,1.2,0,0,0,0,0,0-.3.4-.5.8-.8,1.2-.3.4-.6.9-.9,1.3-.3.5-.7.9-1,1.4-.4.5-.8,1-1.2,1.5-.2.3-.4.6-.7.9-.2.2-.3.4-.5.6-.5.6-1,1.1-1.4,1.7,0,0,0,0,0,0-.3.4-.7.8-1,1.2-.4.4-.7.8-1.1,1.2,0,0,0,0-.1.1-.4.5-.9.9-1.3,1.3-.2.3-.5.5-.8.8-.2.2-.4.4-.6.6-.4.4-.9.9-1.4,1.3-.1,0-.2.2-.3.3-.4.3-.7.7-1.1,1-.4.4-.9.7-1.3,1.1,0,0-.1.1-.2.2-.4.3-.8.6-1.2.9,0,0,0,0,0,0,0,0-.2.1-.3.2,0,0,0,0,0,0-.2.2-.4.3-.6.5,0,0,0,0,0,0-.2.2-.4.3-.6.5-.6.5-1.2.9-1.9,1.4-.8.6-1.6,1.1-2.5,1.7-.1,0-.2.2-.3.2-.5.3-1,.7-1.6,1-.2.1-.4.2-.6.4-.2.1-.4.3-.6.4-.4.2-.7.4-1,.6-.4.2-.7.4-1.1.6-.1,0-.2.1-.4.2h0c-.4.2-.9.5-1.3.7,0,0,0,0,0,0-.4.2-.9.4-1.3.7-.3.1-.5.3-.8.4,0,0,0,0,0,0-.4.2-.8.4-1.2.5-.6.3-1.2.5-1.7.8-1,.4-2,.8-3.1,1.2Z"/>
  </g>
  <g>
    <path class="st0" d="M169.6,186.1c1.4,1.3,2.8,2.5,4.3,3.7-1.5-1.2-2.9-2.4-4.3-3.7Z"/>
    <path class="st0" d="M216.5,202c.5,0,1.1,0,1.6-.2-2.6.4-5.2.5-7.9.5s-1.8,0-2.7,0c.9,0,1.7,0,2.6,0s1,0,1.5,0c.7,0,1.3,0,1.9,0,.3,0,.7,0,1,0,0,0,.2,0,.3,0,0,0,.2,0,.3,0,.1,0,.3,0,.4,0,0,0,.2,0,.3,0,0,0,.2,0,.2,0,.1,0,.3,0,.4,0Z"/>
    <path class="st0" d="M222.9,200.9c1.2-.3,2.4-.6,3.6-.9-2.7.8-5.6,1.4-8.5,1.8.4,0,.8-.1,1.1-.2.4,0,.7-.1,1.1-.2.9-.2,1.8-.3,2.7-.5Z"/>
    <path class="st0" d="M238.8,194.9c.7-.4,1.4-.8,2.2-1.3-3.3,2-6.8,3.8-10.4,5.1.4-.2.8-.3,1.3-.5.4-.1.8-.3,1.1-.5.5-.2,1-.4,1.5-.7.2-.1.5-.2.7-.3.4-.2.9-.4,1.3-.7,0,0,0,0,0,0,0,0,.1,0,.2-.1.3-.1.5-.3.8-.4.4-.2.9-.5,1.3-.7Z"/>
    <path class="st0" d="M244,191.5c.3-.2.6-.4.9-.7-1.1.8-2.2,1.6-3.3,2.3.2-.1.4-.3.6-.4.6-.4,1.2-.8,1.8-1.2Z"/>
    <path class="st0" d="M250.7,186.1c.3-.3.7-.7,1-1-.8.8-1.7,1.7-2.6,2.4.5-.5,1-.9,1.6-1.4Z"/>
    <path class="st0" d="M268.9,143.6c0,.6,0,1.2,0,1.8h0c0,.5,0,.9,0,1.2,0,.5,0,1,0,1.5,0,.3,0,.6,0,.9,0,.6-.1,1.2-.2,1.7,0,.6-.1,1.2-.2,1.7,0,.2,0,.4,0,.6,0,.1,0,.2,0,.3,0,.5-.2.9-.3,1.4h0c0,.5-.2.9-.3,1.4,0,.3-.1.7-.2,1-.3,1.3-.7,2.5-1,3.8-.1.5-.3.9-.4,1.4-.3.9-.6,1.8-1,2.7-.2.4-.3.9-.5,1.3-.1.3-.2.6-.4.8-.1.4-.3.7-.5,1-.4.9-.9,1.8-1.3,2.6-.2.3-.3.6-.5.9-.7,1.3-1.5,2.6-2.4,3.9-.1.2-.2.4-.4.6-.3.4-.5.7-.8,1.1-.1.2-.3.4-.4.6-.1.2-.3.4-.4.5-1.1,1.5-2.3,3-3.6,4.4,0,0,0,0,0,0,0,0,0,0,0,0t0,0c-.2.2-.4.5-.6.7,0,0,0,0,0,0-7.2,4.5-15.7,7.1-24.8,7.1-26,0-47.1-21.2-47.1-47.1s21.1-47.1,47.1-47.1,17.6,2.6,24.8,7.1h0s0,0,0,.1c.3.3.5.6.8.9.3.3.6.7.9,1,.5.6,1,1.2,1.5,1.8.4.6.9,1.1,1.3,1.7.4.6.8,1.1,1.2,1.7.5.7.9,1.4,1.4,2.1.2.3.4.6.5.9.2.3.4.6.5.9.4.7.7,1.3,1.1,2,0,0,0,.1.1.2.3.6.6,1.1.8,1.7,0,0,0,.2.1.3.3.6.6,1.3.9,1.9.2.4.4.9.5,1.3.2.4.4.9.5,1.3.3.9.6,1.8.9,2.7.1.4.3.9.4,1.3,0,.1,0,.2,0,.4.1.4.2.8.3,1.1,0,.2.1.5.2.7.1.4.2.8.3,1.3.1.4.2.9.3,1.4.1.6.2,1.2.3,1.7,0,0,0,0,0,0,0,.1,0,.2,0,.3.1.7.2,1.3.3,2,0,.3,0,.6.1.9,0,.3,0,.6,0,.9,0,.3,0,.6,0,.9,0,.5,0,1,0,1.6,0,.4,0,.8,0,1.2h0c0,.7,0,1.3,0,1.9Z"/>
    <path class="st1" d="M256.4,89.2h0c-2.1-1.8-4.3-3.5-6.7-5,0,0,0,0,0,0-6.7-4.4-14.1-7.8-22.1-9.8h0s0,0,0,0c-5.6-1.4-11.4-2.1-17.4-2.1-39.3,0-71.4,32-71.4,71.4s32,71.4,71.4,71.4,11.8-.7,17.4-2.1c0,0,0,0,0,0h0c8-2,15.4-5.4,22.1-9.8,2.7-1.8,5.3-3.8,7.7-6h0c14.8-13.1,24.1-32.2,24.1-53.4s-9.8-41.2-25.1-54.3ZM226.5,200c-1.1.3-2.3.6-3.4.9-.5.1-1,.2-1.5.3,0,0,0,0,0,0-.3,0-.6.1-.8.2-.5,0-1,.2-1.6.3-.4,0-.8.1-1.1.2-.5,0-1.1.1-1.6.2-.1,0-.3,0-.4,0,0,0-.2,0-.2,0,0,0-.2,0-.3,0-.1,0-.3,0-.4,0,0,0-.2,0-.3,0,0,0-.2,0-.3,0-.3,0-.7,0-1,0-.7,0-1.3,0-1.9,0-.5,0-1,0-1.5,0-.9,0-1.8,0-2.6,0-.9,0-1.7,0-2.6-.2-.9,0-1.7-.2-2.6-.3-.6,0-1.3-.2-1.9-.3-.6-.1-1.3-.2-1.9-.3-.6-.1-1.2-.3-1.9-.4-.6-.1-1.1-.3-1.7-.4h-.2c0,0-.1,0-.2,0-.4-.1-.7-.2-1.1-.3-.5-.1-.9-.3-1.4-.4,0,0,0,0,0,0-.7-.2-1.5-.5-2.2-.7-.9-.3-1.8-.7-2.7-1.1-.9-.4-1.7-.8-2.6-1.2h0c-.9-.4-1.7-.9-2.5-1.3-.8-.5-1.7-.9-2.5-1.4,0,0,0,0,0,0-.3-.2-.6-.4-1-.6-.3-.2-.5-.3-.8-.5,0,0-.1,0-.2-.1-.6-.4-1.1-.7-1.6-1.1-.8-.5-1.5-1.1-2.2-1.7t0,0c-1.5-1.2-2.9-2.4-4.3-3.7t0,0c-.4-.3-.7-.7-1-1-.6-.6-1.1-1.2-1.7-1.8-.6-.6-1.1-1.2-1.6-1.8,0,0,0,0,0,0-.5-.6-1-1.2-1.5-1.9-.5-.7-1-1.3-1.5-2-.5-.8-1.1-1.5-1.6-2.3h0c-.5-.8-1-1.6-1.5-2.4-.5-.9-.9-1.7-1.4-2.6-.2-.4-.4-.8-.6-1.2,0,0,0,0,0-.1,0,0,0-.1,0-.2-.1-.2-.2-.4-.3-.7,0-.2-.1-.3-.2-.5-.2-.4-.4-.9-.6-1.3-.2-.4-.3-.8-.5-1.2-.4-.9-.7-1.8-1-2.7-.1-.4-.3-.8-.4-1.2-.3-1-.6-1.9-.8-2.9-.2-.9-.5-1.9-.7-2.8-.8-3.8-1.2-7.8-1.2-11.8s0-1.4,0-2.1c0-.5,0-.9,0-1.4,0-.4,0-.7,0-1,0,0,0,0,0-.1,0-.6,0-1.1.1-1.7,0-.6.1-1.3.2-1.9,0,0,0-.2,0-.3,0-.5.1-1,.2-1.4,0-.3.1-.6.2-.9,0,0,0,0,0,0,0-.5.2-1.1.3-1.6.1-.5.2-1.1.4-1.6,0-.2.1-.4.2-.7.1-.6.3-1.1.5-1.7.1-.4.2-.8.3-1.1.1-.4.3-.9.4-1.3.1-.5.3-.9.5-1.4h0c.3-.9.7-1.8,1.1-2.7.4-.9.8-1.7,1.2-2.6h0c.4-.9.8-1.7,1.3-2.5.3-.6.7-1.2,1-1.8.2-.3.4-.6.6-.9.2-.3.4-.6.6-.9,0-.1.2-.3.3-.4.4-.7.9-1.3,1.3-2h0c.5-.7.9-1.3,1.4-2,0,0,0,0,0,0,.4-.5.7-.9,1.1-1.4,0,0,.1-.1.2-.2.2-.2.4-.4.5-.6,0,0,.1-.2.2-.2.4-.4.8-.9,1.2-1.3.6-.6,1.1-1.2,1.7-1.8.3-.3.7-.7,1-1,.3-.3.5-.5.8-.8,0,0,0,0,.1-.1,0,0,.2-.1.2-.2.3-.3.6-.5.9-.8.7-.6,1.4-1.2,2.2-1.8h0c.7-.6,1.5-1.2,2.2-1.7.4-.3.8-.5,1.2-.8h0c.6-.4,1.3-.9,1.9-1.2.6-.4,1.1-.7,1.7-1,.4-.2.8-.5,1.2-.7.3-.2.6-.3.9-.5.2-.1.5-.3.7-.4.3-.1.6-.3.9-.4.4-.2.7-.4,1.1-.5,0,0,.2,0,.2-.1,0,0,0,0,0,0,.4-.2.8-.4,1.2-.5.9-.4,1.8-.7,2.7-1.1.4-.2.9-.3,1.4-.5.4-.2.9-.3,1.4-.4.3,0,.5-.2.8-.2,0,0,.2,0,.3,0,0,0,0,0,0,0,.1,0,.2,0,.4-.1.4-.1.7-.2,1.1-.3,1-.3,2.1-.5,3.2-.7.4,0,.8-.2,1.3-.2,1-.2,1.9-.3,2.9-.4.4,0,.7,0,1.1-.1,0,0,.1,0,.2,0,.3,0,.5,0,.8,0,.4,0,.8,0,1.2,0,.4,0,.8,0,1.2,0,.5,0,1,0,1.5,0,.5,0,1,0,1.5,0s.5,0,.8,0c.3,0,.5,0,.8,0,.4,0,.7,0,1,0,.1,0,.3,0,.4,0,.5,0,1,0,1.4,0,.1,0,.3,0,.4,0,.4,0,.8,0,1.1.1,0,0,.1,0,.2,0,.4,0,.9,0,1.3.1.3,0,.6,0,.8.1.2,0,.4,0,.6,0,.1,0,.3,0,.4,0,.3,0,.7.1,1,.2,0,0,0,0,0,0,0,0,0,0,0,0,.3,0,.5,0,.8.1,0,0,0,0,.1,0,0,0,.1,0,.2,0h0c.6.1,1.1.2,1.7.4.4,0,.9.2,1.3.3.4.1.9.2,1.3.4,0,0,0,0,.1,0,.4.1.9.2,1.3.4.2,0,.4.1.5.2.3,0,.6.2.8.3.5.1.9.3,1.4.5h0c.9.3,1.8.7,2.7,1.1h0c.4.2.9.4,1.3.6.4.2.9.4,1.3.6.5.2.9.4,1.4.7.4.2.8.4,1.2.6.4.2.8.5,1.3.7.3.2.6.4.9.5.2.1.4.2.6.4.3.2.6.4.9.6.1,0,.3.2.4.3,0,0,0,0,0,0,0,0,0,0,0,0,.4.2.7.5,1.1.7.3.2.5.4.8.6.8.5,1.5,1.1,2.3,1.7.4.3.7.6,1.1.9.4.3.7.6,1.1.9.4.3.7.6,1,.9,0,0,0,0,.1,0,.3.3.6.6.9.9h0c.2.2.3.4.5.5.2.1.3.3.5.5h0c.4.4.8.8,1.2,1.3,0,0,.1.1.2.2,0,0,0,0,0,.1.3.3.5.6.8.9.3.3.6.7.9,1,.5.6,1,1.2,1.5,1.8.4.6.9,1.1,1.3,1.7.4.6.8,1.1,1.2,1.7.5.7.9,1.4,1.4,2.1.2.3.4.6.5.9.2.3.4.6.5.9.4.7.7,1.3,1.1,2,0,0,0,.1.1.2.3.6.6,1.1.8,1.7,0,0,0,.2.1.3.3.6.6,1.3.9,1.9.2.4.4.9.5,1.3.2.4.4.9.5,1.3.3.9.6,1.8.9,2.7.1.4.3.9.4,1.3,0,.1,0,.2,0,.4.1.4.2.8.3,1.1,0,.2.1.5.2.7.1.4.2.8.3,1.3.1.4.2.9.3,1.4.1.6.2,1.2.3,1.7,0,0,0,0,0,0,0,.1,0,.2,0,.3.1.7.2,1.3.3,2,0,.3,0,.6.1.9,0,.3,0,.6,0,.9,0,.3,0,.6,0,.9,0,.5,0,1,0,1.6,0,.4,0,.8,0,1.2h0c0,.7,0,1.3,0,1.9s0,1.2,0,1.8h0c0,.5,0,.9,0,1.2,0,.5,0,1,0,1.5,0,.3,0,.6,0,.9,0,.6-.1,1.2-.2,1.7,0,.6-.1,1.2-.2,1.7,0,.2,0,.4,0,.6,0,.1,0,.2,0,.3,0,.5-.2.9-.3,1.4h0c0,.5-.2.9-.3,1.4,0,.3-.1.7-.2,1-.3,1.3-.7,2.5-1,3.8-.1.5-.3.9-.4,1.4-.3.9-.6,1.8-1,2.7-.2.4-.3.9-.5,1.3-.1.3-.2.6-.4.8-.1.4-.3.7-.5,1-.4.9-.9,1.8-1.3,2.6-.2.3-.3.6-.5.9-.2.4-.5.9-.8,1.3-.3.6-.7,1.2-1.1,1.7-.2.3-.4.6-.5.9-.1.2-.2.4-.4.6-.3.4-.5.7-.8,1.1-.1.2-.3.4-.4.6-.1.2-.3.4-.4.5-.6.8-1.1,1.5-1.7,2.2-.3.3-.5.6-.8.9-.2.2-.4.4-.6.7,0,0,0,0,0,0-.1.1-.2.3-.4.4,0,0,0,0,0,.1,0,0,0,0,0,0h0c0,0-.1.2-.2.3-.1.1-.2.2-.4.4,0,0,0,0,0,0-.5.5-.9,1-1.4,1.4-.3.3-.7.7-1,1-.5.5-1,1-1.6,1.4-.5.5-1.1.9-1.6,1.4h0c-.5.4-1.1.9-1.7,1.3-.1.1-.3.2-.4.3-.1.1-.3.2-.4.3-.3.2-.6.4-.9.7-.6.4-1.2.8-1.8,1.2-.2.1-.4.3-.6.4-.2.1-.4.3-.6.4-.4.2-.7.4-1.1.6-.5.3-1,.6-1.6.9-.3.1-.5.3-.8.4-.2.1-.5.3-.8.4,0,0-.1,0-.2.1,0,0,0,0,0,0-.4.2-.9.4-1.3.7-.2.1-.5.2-.7.3-.5.2-1,.4-1.5.7-.4.2-.8.3-1.1.5-.4.2-.8.3-1.3.5-.4.1-.9.3-1.3.5-.4.1-.9.3-1.4.4-.4.1-.9.3-1.4.4Z"/>
  </g>
  <g>
    <path class="st2" d="M228.3,107.2c-20,0-36.3,16.3-36.3,36.3s16.3,36.3,36.3,36.3,36.3-16.3,36.3-36.3-16.3-36.3-36.3-36.3Z"/>
    <path class="st1" d="M265.5,114.7h0s0,0,0,0c-.4-.5-.7-.9-1.1-1.4h0c-.9-1.1-1.8-2-2.7-3h0c-2.6-2.6-5.4-4.8-8.5-6.8h0c-7.2-4.5-15.7-7.1-24.8-7.1-26,0-47.1,21.2-47.1,47.1s21.1,47.1,47.1,47.1,17.6-2.6,24.8-7.1c0,0,0,0,0,0,3.1-1.9,5.9-4.2,8.5-6.8h0c1-1,1.9-2,2.7-3,.5-.6,1-1.3,1.5-2,0,0,0,0,0,0,0,0,0,0,0,0,6-7.9,9.5-17.7,9.5-28.3s-3.7-20.9-9.9-28.9ZM224.2,179.6c0,0-.2,0-.3,0,0,0-.1,0-.2,0h-.3s0,0,0,0c-.1,0-.2,0-.4,0-.1,0-.2,0-.4,0-.4,0-.8-.1-1.2-.2-.4,0-.8-.2-1.2-.3,0,0-.1,0-.2,0-.4,0-.7-.2-1.1-.3-.2,0-.4,0-.6-.1,0,0,0,0-.1,0,0,0-.1,0-.2,0h-.1c-.1,0-.3-.1-.4-.2-1.1-.4-2.2-.8-3.3-1.2-.5-.2-1.1-.5-1.6-.7-1.1-.5-2.1-1.1-3.1-1.7-.5-.3-1.1-.7-1.6-1-.4-.3-.7-.5-1.1-.8-.3-.2-.6-.4-.9-.7,0,0,0,0,0,0-.6-.4-1.1-.9-1.7-1.4-.2-.2-.4-.3-.6-.5-.7-.7-1.5-1.4-2.1-2.2-.8-.9-1.5-1.7-2.2-2.7-.4-.5-.7-.9-1-1.4,0,0,0,0,0,0-.7-1-1.3-2-1.8-3,0,0,0,0,0,0-.3-.5-.5-1-.8-1.6-.3-.5-.5-1.1-.7-1.6-.2-.5-.4-1.1-.7-1.6,0,0,0,0,0,0-.2-.6-.4-1.1-.6-1.7-.2-.6-.4-1.1-.5-1.7-.2-.6-.3-1.2-.4-1.8-.1-.6-.2-1.2-.3-1.8-.1-.6-.2-1.2-.2-1.8,0-.4,0-.9-.1-1.3h0c0-.2,0-.2,0-.3,0,0,0,0,0-.1,0,0,0-.1,0-.2v-.2c0,0,0-.1,0-.2,0-.5,0-.9,0-1.4,0-20,16.3-36.3,36.3-36.3s1,0,1.5,0c0,0,.1,0,.2,0h.2c.6,0,1.2,0,1.8.1.5,0,.9,0,1.4.2,0,0,0,0,.1,0,0,0,.1,0,.2,0,.1,0,.2,0,.4,0,.5,0,1,.2,1.6.3.6.1,1.2.3,1.7.4.6.1,1.2.3,1.7.5,1.1.3,2.2.7,3.3,1.2h0c.6.2,1.1.5,1.6.7,1.1.5,2.1,1.1,3.1,1.7,0,0,0,0,0,0,.5.3.9.6,1.4.9.3.2.7.5,1,.7,0,0,.1,0,.2.1.2.1.4.3.7.5.7.5,1.4,1.1,2,1.7.2.2.5.4.7.7.2.2.4.4.6.5.2.2.4.4.6.6.3.3.6.6.9.9.8.9,1.5,1.8,2.2,2.7.4.5.7.9,1,1.4.7,1,1.3,2,1.8,3,0,0,0,0,0,0,.2.4.4.8.6,1.2.2.4.4.8.6,1.2.2.4.3.8.5,1.2.2.4.3.9.5,1.3,0,0,0,0,0,0,.2.4.3.9.4,1.3,0,.3.2.6.3.9.1.3.2.7.3,1,0,0,0,.2,0,.2,0,.2,0,.4.1.6,0,0,0,0,0,.1,0,.1,0,.2,0,.4.1.5.2,1,.3,1.5,0,.5.2,1.1.2,1.6.2,1.6.3,3.2.3,4.8,0,20-16.3,36.3-36.3,36.3s-1.9,0-2.8-.1c-.4,0-.9,0-1.3-.1Z"/>
  </g>
</svg>