<?xml version="1.0" encoding="UTF-8"?><svg id="Layer_2" xmlns="http://www.w3.org/2000/svg" viewBox="0 0 288.17 310.36"><defs><style>.cls-1{fill:var(--canto-ponto, #ffffff);isolation:isolate;stroke-width:0px;}.cls-2{fill:none;stroke:var(--canto-anel, #a2c3f1);stroke-miterlimit:10;stroke-width:.37px;}</style></defs><g id="Layer_1-2"><circle class="cls-1" cx="23.67" cy="304.27" r="1.87"/><circle class="cls-2" cx="61.9" cy="286.73" r="5.91"/><circle class="cls-2" cx="23.67" cy="286.73" r="5.91"/><circle class="cls-2" cx="44.32" cy="269.19" r="5.91"/><circle class="cls-2" cx="6.09" cy="269.19" r="5.91"/><circle class="cls-2" cx="44.32" cy="304.27" r="5.91"/><circle class="cls-2" cx="6.09" cy="304.27" r="5.91"/><circle class="cls-1" cx="44.32" cy="287.36" r="1.87"/><circle class="cls-1" cx="6.09" cy="287.36" r="1.87"/><circle class="cls-1" cx="61.9" cy="269.19" r="1.87"/><circle class="cls-1" cx="23.67" cy="269.19" r="1.87"/><circle class="cls-1" cx="61.9" cy="304.27" r="1.87"/><circle class="cls-2" cx="6.09" cy="233.5" r="5.91"/><circle class="cls-2" cx="44.32" cy="233.5" r="5.91"/><circle class="cls-2" cx="23.67" cy="251.04" r="5.91"/><circle class="cls-2" cx="61.9" cy="251.04" r="5.91"/><circle class="cls-2" cx="61.9" cy="215.96" r="5.91"/><circle class="cls-2" cx="23.67" cy="215.96" r="5.91"/><circle class="cls-1" cx="23.67" cy="232.86" r="1.87"/><circle class="cls-1" cx="6.09" cy="215.96" r="1.87"/><circle class="cls-1" cx="61.9" cy="232.86" r="1.87"/><circle class="cls-1" cx="23.67" cy="197.82" r="1.87"/><circle class="cls-1" cx="6.09" cy="251.04" r="1.87"/><circle class="cls-1" cx="44.32" cy="251.04" r="1.87"/><circle class="cls-1" cx="44.32" cy="215.96" r="1.87"/><circle class="cls-2" cx="23.67" cy="180.28" r="5.91"/><circle class="cls-2" cx="44.32" cy="162.74" r="5.91"/><circle class="cls-2" cx="6.09" cy="162.74" r="5.91"/><circle class="cls-2" cx="44.32" cy="197.82" r="5.91"/><circle class="cls-1" cx="44.32" cy="180.92" r="1.87"/><circle class="cls-1" cx="6.09" cy="180.92" r="1.87"/><circle class="cls-1" cx="61.9" cy="162.74" r="1.87"/><circle class="cls-1" cx="23.67" cy="162.74" r="1.87"/><circle class="cls-1" cx="61.9" cy="197.82" r="1.87"/><circle class="cls-1" cx="98.07" cy="304.27" r="1.87"/><circle class="cls-2" cx="136.3" cy="286.73" r="5.91"/><circle class="cls-2" cx="98.07" cy="286.73" r="5.91"/><circle class="cls-2" cx="118.72" cy="269.19" r="5.91"/><circle class="cls-2" cx="80.49" cy="269.19" r="5.91"/><circle class="cls-2" cx="118.72" cy="304.27" r="5.91"/><circle class="cls-2" cx="80.49" cy="304.27" r="5.91"/><circle class="cls-1" cx="118.72" cy="287.36" r="1.87"/><circle class="cls-1" cx="80.49" cy="287.36" r="1.87"/><circle class="cls-1" cx="136.3" cy="269.19" r="1.87"/><circle class="cls-1" cx="98.07" cy="269.19" r="1.87"/><circle class="cls-1" cx="136.3" cy="304.27" r="1.87"/><circle class="cls-2" cx="80.49" cy="233.5" r="5.91"/><circle class="cls-2" cx="118.72" cy="233.5" r="5.91"/><circle class="cls-2" cx="98.07" cy="251.04" r="5.91"/><circle class="cls-2" cx="136.3" cy="251.04" r="5.91"/><circle class="cls-2" cx="136.3" cy="215.96" r="5.91"/><circle class="cls-2" cx="98.07" cy="215.96" r="5.91"/><circle class="cls-1" cx="98.07" cy="232.86" r="1.87"/><circle class="cls-1" cx="80.49" cy="215.96" r="1.87"/><circle class="cls-1" cx="136.3" cy="232.86" r="1.87"/><circle class="cls-1" cx="98.07" cy="197.82" r="1.87"/><circle class="cls-1" cx="80.49" cy="251.04" r="1.87"/><circle class="cls-1" cx="118.72" cy="251.04" r="1.87"/><circle class="cls-1" cx="118.72" cy="215.96" r="1.87"/><circle class="cls-2" cx="136.3" cy="180.28" r="5.91"/><circle class="cls-2" cx="98.07" cy="180.28" r="5.91"/><circle class="cls-2" cx="80.49" cy="162.74" r="5.91"/><circle class="cls-2" cx="118.72" cy="197.82" r="5.91"/><circle class="cls-2" cx="80.49" cy="197.82" r="5.91"/><circle class="cls-1" cx="118.72" cy="180.92" r="1.87"/><circle class="cls-1" cx="80.49" cy="180.92" r="1.87"/><circle class="cls-1" cx="98.07" cy="162.74" r="1.87"/><circle class="cls-1" cx="136.3" cy="197.82" r="1.87"/><circle class="cls-1" cx="173.09" cy="304.27" r="1.87"/><circle class="cls-2" cx="173.09" cy="286.73" r="5.91"/><circle class="cls-2" cx="193.74" cy="304.27" r="5.91"/><circle class="cls-2" cx="155.51" cy="304.27" r="5.91"/><circle class="cls-1" cx="155.51" cy="287.36" r="1.87"/><circle class="cls-1" cx="211.32" cy="304.27" r="1.87"/><circle class="cls-2" cx="211.27" cy="286.73" r="5.91"/><circle class="cls-1" cx="211.27" cy="304.27" r="1.87"/><circle class="cls-1" cx="248.07" cy="304.27" r="1.87"/><circle class="cls-2" cx="268.71" cy="304.27" r="5.91"/><circle class="cls-2" cx="230.48" cy="304.27" r="5.91"/><circle class="cls-1" cx="230.48" cy="287.36" r="1.87"/><circle class="cls-1" cx="286.3" cy="304.27" r="1.87"/><circle class="cls-2" cx="155.51" cy="233.5" r="5.91"/><circle class="cls-1" cx="155.51" cy="215.96" r="1.87"/><circle class="cls-1" cx="155.51" cy="251.04" r="1.87"/><circle class="cls-2" cx="6.09" cy="128.22" r="5.91"/><circle class="cls-2" cx="44.32" cy="128.22" r="5.91"/><circle class="cls-2" cx="61.9" cy="145.76" r="5.91"/><circle class="cls-2" cx="23.67" cy="110.67" r="5.91"/><circle class="cls-1" cx="23.67" cy="127.58" r="1.87"/><circle class="cls-1" cx="6.09" cy="110.67" r="1.87"/><circle class="cls-1" cx="61.9" cy="127.58" r="1.87"/><circle class="cls-1" cx="23.67" cy="92.53" r="1.87"/><circle class="cls-1" cx="6.09" cy="145.76" r="1.87"/><circle class="cls-1" cx="44.32" cy="145.76" r="1.87"/><circle class="cls-1" cx="44.32" cy="110.67" r="1.87"/><circle class="cls-2" cx="23.67" cy="74.99" r="5.91"/><circle class="cls-2" cx="6.09" cy="57.45" r="5.91"/><circle class="cls-2" cx="6.09" cy="92.53" r="5.91"/><circle class="cls-1" cx="44.32" cy="75.63" r="1.87"/><circle class="cls-1" cx="6.09" cy="75.63" r="1.87"/><circle class="cls-1" cx="23.67" cy="57.45" r="1.87"/><circle class="cls-1" cx="23.67" cy="92.53" r="1.87"/><circle class="cls-1" cx="61.9" cy="92.53" r="1.87"/><circle class="cls-2" cx="6.09" cy="23.63" r="5.91"/><circle class="cls-2" cx="23.67" cy="6.09" r="5.91"/><circle class="cls-1" cx="23.67" cy="22.99" r="1.87"/><circle class="cls-1" cx="6.09" cy="6.09" r="1.87"/><circle class="cls-1" cx="6.09" cy="41.17" r="1.87"/><circle class="cls-2" cx="98.07" cy="145.76" r="5.91"/><circle class="cls-1" cx="98.07" cy="127.58" r="1.87"/><circle class="cls-1" cx="136.3" cy="127.58" r="1.87"/><circle class="cls-1" cx="80.49" cy="145.76" r="1.87"/></g></svg>